# Blender v2.79 (sub 0) OBJ File: 'table.blend'
# www.blender.org
mtllib table_000.mtl
o Cube
v 0.550000 -0.010000 -0.325000
v 0.550000 -0.010000 0.325000
v -0.550000 -0.010000 0.325000
v -0.550000 -0.010000 -0.325000
v 0.550000 0.010000 -0.325000
v 0.549999 0.010000 0.325000
v -0.550000 0.010000 0.325000
v -0.550000 0.010000 -0.325000
v -0.500000 -0.010000 -0.325000
v -0.500000 -0.010000 0.325000
v -0.520000 -0.010000 -0.325000
v -0.520000 -0.010000 0.325000
v -0.500000 -0.010000 -0.300000
v -0.520000 -0.010000 -0.300000
v -0.500000 -0.010000 0.300000
v -0.520000 -0.010000 0.300000
v -0.500000 -0.770000 0.300000
v -0.500000 -0.770000 -0.300000
v -0.520000 -0.770000 0.300000
v -0.520000 -0.770000 -0.300000
v 0.500000 -0.010000 -0.325000
v 0.500000 -0.010000 0.325000
v 0.520000 -0.010000 -0.325000
v 0.520000 -0.010000 0.325000
v 0.500000 -0.010000 -0.300000
v 0.520000 -0.010000 -0.300000
v 0.500000 -0.010000 0.300000
v 0.520000 -0.010000 0.300000
v 0.500000 -0.770000 0.300000
v 0.500000 -0.770000 -0.300000
v 0.520000 -0.770000 0.300000
v 0.520000 -0.770000 -0.300000
v 0.100000 -0.010000 0.300000
v 0.100000 -0.010000 -0.300000
v 0.120000 -0.010000 0.300000
v 0.120000 -0.010000 -0.300000
v 0.120000 -0.770000 -0.300000
v 0.100000 -0.770000 -0.300000
v 0.100000 -0.770000 0.300000
v 0.120000 -0.770000 0.300000
v 0.120000 -0.690000 0.300000
v 0.120000 -0.690000 -0.300000
v 0.120000 -0.710000 0.300000
v 0.120000 -0.710000 -0.300000
v 0.500000 -0.690000 0.300000
v 0.500000 -0.690000 -0.300000
v 0.500000 -0.710000 0.300000
v 0.500000 -0.710000 -0.300000
v 0.100000 -0.170000 -0.300000
v 0.100000 -0.170000 0.300000
v 0.100000 -0.150000 0.300000
v 0.100000 -0.150000 -0.300000
v -0.500000 -0.170000 0.300000
v -0.500000 -0.170000 -0.300000
v -0.500000 -0.150000 0.300000
v -0.500000 -0.150000 -0.300000
v 0.535194 0.010000 -0.307390
v 0.535193 0.010000 0.307390
v -0.535194 0.010000 -0.307390
v -0.535194 0.010000 0.307390
vt 0.008333 0.727586
vt 0.216667 0.737931
vt 0.000000 0.737931
vt 0.433333 0.737931
vt 0.426449 0.363726
vt 0.433333 0.358621
vt 0.420000 0.962069
vt 0.426667 0.737931
vt 0.426667 0.962069
vt 0.960000 0.620690
vt 0.966666 0.637931
vt 0.966667 0.982759
vt 0.973333 0.844828
vt 0.980000 0.620690
vt 0.980000 0.844828
vt 0.973333 0.982759
vt 0.973333 0.989655
vt 0.966667 1.000000
vt 0.008333 0.506896
vt 0.008333 0.513793
vt 0.000000 0.375862
vt 0.216667 0.720690
vt 0.208333 0.727586
vt 0.208333 0.720690
vt 0.000000 0.720690
vt 0.000000 0.727586
vt 0.253333 0.000000
vt 0.253333 0.006897
vt 0.053333 0.006897
vt 0.993333 0.358621
vt 0.986666 0.565517
vt 0.986666 0.358621
vt 0.433333 0.620690
vt 0.633333 0.358621
vt 0.633333 0.620690
vt 0.300000 0.351724
vt 0.306667 0.351724
vt 0.253333 0.358621
vt 0.633333 0.620690
vt 0.833333 0.827586
vt 0.633333 0.827586
vt 0.216667 0.368966
vt 0.208333 0.375862
vt 0.208333 0.368966
vt 0.216667 0.358621
vt 0.000000 0.358621
vt 0.000000 0.368966
vt 0.008333 0.375862
vt 0.233333 0.351724
vt 0.253333 0.351724
vt 0.253333 0.358621
vt 0.986667 0.827586
vt 0.980000 0.620690
vt 0.986667 0.620690
vt 0.506667 0.262069
vt 0.706667 0.000000
vt 0.706667 0.262069
vt 0.506667 0.000000
vt 0.506667 0.006897
vt 0.486667 0.006897
vt 0.960000 0.358621
vt 0.980000 0.565517
vt 0.960000 0.565517
vt 0.208333 0.506897
vt 0.216667 0.375862
vt 0.208333 0.513793
vt 0.008333 0.720690
vt 0.706667 0.000000
vt 0.906667 0.206897
vt 0.706667 0.206897
vt 0.986666 0.358621
vt 0.980000 0.565517
vt 0.980000 0.358621
vt 0.400000 0.737931
vt 0.420000 0.944827
vt 0.400000 0.944828
vt 0.253333 0.213793
vt 0.233333 0.220690
vt 0.226667 0.220690
vt 0.480000 0.137931
vt 0.306667 0.144828
vt 0.253333 0.137931
vt 0.633333 0.593103
vt 0.833333 0.358621
vt 0.833333 0.593103
vt 0.833333 0.358621
vt 0.833333 0.565517
vt 0.433333 0.855173
vt 0.633333 0.620690
vt 0.633333 0.855173
vt 0.833333 0.827586
vt 0.960000 0.620690
vt 0.960000 0.827586
vt 0.480000 0.006897
vt 0.486667 0.137931
vt 0.300000 0.144828
vt 0.953333 0.000000
vt 1.000000 0.206897
vt 0.953333 0.206897
vt 0.400000 0.737931
vt 0.200000 0.944827
vt 0.200000 0.737931
vt 0.906667 0.000000
vt 0.953333 0.206897
vt 0.906667 0.206897
vt 0.000000 0.737931
vt 0.200000 0.944827
vt 0.000000 0.944828
vt 0.046667 0.006897
vt 0.053333 0.213793
vt 0.046667 0.213793
vt 0.253333 0.351724
vt 0.253333 0.144828
vt 0.216667 0.737931
vt 0.426449 0.732825
vt 0.223551 0.363726
vt 0.216667 0.358621
vt 0.223551 0.732825
vt 0.216667 0.727586
vt 0.420000 0.737931
vt 0.966667 0.989655
vt 0.966667 1.000000
vt 0.960000 1.000000
vt 0.966666 0.631035
vt 0.966666 0.620690
vt 0.973333 0.620690
vt 0.966667 0.620690
vt 0.973333 0.631035
vt 0.973333 0.637931
vt 0.973333 0.620690
vt 0.973333 1.000000
vt 0.000000 0.006897
vt 0.000000 0.000000
vt 0.993333 0.565517
vt 0.433333 0.358621
vt 0.506667 0.358621
vt 0.506667 0.351724
vt 0.833333 0.620690
vt 0.008333 0.368966
vt 0.000000 0.358621
vt 0.226667 0.351724
vt 0.000000 0.351724
vt 0.980000 0.827586
vt 0.506667 0.000000
vt 0.253333 0.006897
vt 0.253333 0.000000
vt 0.980000 0.358621
vt 0.906667 0.000000
vt 0.986666 0.565517
vt 0.420000 0.737931
vt 0.000000 0.220690
vt 0.000000 0.213793
vt 0.253333 0.220690
vt 0.506667 0.144828
vt 0.506667 0.137931
vt 0.633333 0.358621
vt 0.433333 0.620690
vt 0.833333 0.620690
vt 1.000000 0.000000
vt 0.400000 0.944827
vt 0.953333 0.000000
vt 0.200000 0.737931
vn 0.0000 -1.0000 0.0000
vn 0.0000 1.0000 -0.0000
vn 1.0000 -0.0000 0.0000
vn 0.0000 0.0000 1.0000
vn -1.0000 -0.0000 -0.0000
vn 0.0000 0.0000 -1.0000
usemtl Material
s off
f 14/1/1 3/2/1 4/3/1
f 6/4/2 60/5/2 7/6/2
f 5/7/3 2/8/3 1/9/3
f 7/10/4 10/11/4 22/12/4
f 7/13/5 4/14/5 3/15/5
f 9/16/6 11/17/6 8/18/6
f 36/19/1 34/20/1 21/21/1
f 10/22/1 16/23/1 15/24/1
f 9/25/1 14/1/1 11/26/1
f 19/27/4 17/28/4 53/29/4
f 18/30/1 19/31/1 20/32/1
f 14/33/5 19/34/5 16/35/5
f 56/36/6 54/37/6 14/38/6
f 53/39/3 18/40/3 54/41/3
f 24/42/1 27/43/1 28/44/1
f 2/45/1 28/44/1 1/46/1
f 23/47/1 25/48/1 21/21/1
f 47/49/4 29/50/4 31/51/4
f 31/52/1 30/53/1 32/54/1
f 28/55/3 32/56/3 26/57/3
f 32/58/6 30/59/6 48/60/6
f 48/61/5 29/62/5 47/63/5
f 35/64/1 22/65/1 33/66/1
f 25/48/1 35/64/1 36/19/1
f 13/67/1 33/66/1 15/24/1
f 49/68/5 39/69/5 50/70/5
f 37/71/1 39/72/1 38/73/1
f 43/74/3 37/75/3 44/76/3
f 39/77/4 43/78/4 41/79/4
f 42/80/6 49/81/6 36/82/6
f 35/83/3 42/84/3 36/85/3
f 44/86/1 47/63/1 43/87/1
f 25/88/5 45/89/5 27/90/5
f 45/91/2 42/92/2 41/93/2
f 47/49/4 41/79/4 43/78/4
f 46/94/6 44/95/6 42/80/6
f 54/37/6 52/96/6 49/81/6
f 34/97/5 51/98/5 33/99/5
f 50/100/1 54/101/1 49/102/1
f 15/103/3 56/104/3 13/105/3
f 51/106/2 56/107/2 55/108/2
f 55/109/4 50/110/4 51/111/4
f 36/82/6 46/94/6 42/80/6
f 52/96/6 13/112/6 34/113/6
f 5/114/2 58/115/2 6/4/2
f 7/6/2 59/116/2 8/117/2
f 8/117/2 57/118/2 5/114/2
f 4/3/1 11/26/1 14/1/1
f 14/1/1 16/23/1 3/2/1
f 12/119/1 3/2/1 16/23/1
f 6/4/2 58/115/2 60/5/2
f 5/7/3 6/120/3 2/8/3
f 24/121/4 2/122/4 6/123/4
f 6/123/4 7/10/4 22/12/4
f 12/124/4 10/11/4 7/10/4
f 7/10/4 3/125/4 12/124/4
f 22/12/4 24/121/4 6/123/4
f 7/13/5 8/126/5 4/14/5
f 8/18/6 5/127/6 9/16/6
f 23/128/6 21/129/6 5/127/6
f 5/127/6 1/130/6 23/128/6
f 11/17/6 4/131/6 8/18/6
f 5/127/6 21/129/6 9/16/6
f 9/25/1 21/21/1 34/20/1
f 25/48/1 36/19/1 21/21/1
f 34/20/1 13/67/1 9/25/1
f 10/22/1 12/119/1 16/23/1
f 9/25/1 13/67/1 14/1/1
f 55/109/4 15/132/4 16/133/4
f 16/133/4 19/27/4 53/29/4
f 53/29/4 55/109/4 16/133/4
f 18/30/1 17/134/1 19/31/1
f 14/33/5 20/135/5 19/34/5
f 20/136/6 14/38/6 54/37/6
f 13/112/6 56/36/6 14/38/6
f 54/37/6 18/137/6 20/136/6
f 53/39/3 17/138/3 18/40/3
f 24/42/1 22/65/1 27/43/1
f 23/47/1 1/46/1 26/139/1
f 2/45/1 24/42/1 28/44/1
f 28/44/1 26/139/1 1/46/1
f 23/47/1 26/139/1 25/48/1
f 31/51/4 28/140/4 45/141/4
f 45/141/4 47/49/4 31/51/4
f 28/140/4 27/142/4 45/141/4
f 31/52/1 29/143/1 30/53/1
f 28/55/3 31/144/3 32/56/3
f 46/94/6 25/145/6 26/146/6
f 26/146/6 32/58/6 46/94/6
f 48/60/6 46/94/6 32/58/6
f 48/61/5 30/147/5 29/62/5
f 10/22/1 15/24/1 33/66/1
f 35/64/1 27/43/1 22/65/1
f 10/22/1 33/66/1 22/65/1
f 25/48/1 27/43/1 35/64/1
f 13/67/1 34/20/1 33/66/1
f 49/68/5 38/148/5 39/69/5
f 37/71/1 40/149/1 39/72/1
f 43/74/3 40/150/3 37/75/3
f 41/79/4 35/151/4 50/110/4
f 35/151/4 33/152/4 51/111/4
f 40/153/4 43/78/4 39/77/4
f 50/110/4 39/77/4 41/79/4
f 35/151/4 51/111/4 50/110/4
f 52/96/6 34/113/6 36/82/6
f 42/80/6 44/95/6 38/154/6
f 52/96/6 36/82/6 49/81/6
f 38/154/6 49/81/6 42/80/6
f 44/95/6 37/155/6 38/154/6
f 35/83/3 41/156/3 42/84/3
f 44/86/1 48/61/1 47/63/1
f 25/88/5 46/157/5 45/89/5
f 45/91/2 46/158/2 42/92/2
f 47/49/4 45/141/4 41/79/4
f 46/94/6 48/60/6 44/95/6
f 54/37/6 56/36/6 52/96/6
f 34/97/5 52/159/5 51/98/5
f 50/100/1 53/160/1 54/101/1
f 15/103/3 55/161/3 56/104/3
f 51/106/2 52/162/2 56/107/2
f 55/109/4 53/29/4 50/110/4
f 36/82/6 25/145/6 46/94/6
f 52/96/6 56/36/6 13/112/6
f 5/114/2 57/118/2 58/115/2
f 7/6/2 60/5/2 59/116/2
f 8/117/2 59/116/2 57/118/2
usemtl Material.001
f 59/116/2 58/115/2 57/118/2
f 59/116/2 60/5/2 58/115/2
