# Blender v2.79 (sub 0) OBJ File: 'table.blend'
# www.blender.org
mtllib table_001.mtl
o Cube.001
v -0.500000 -0.010000 -0.325000
v -0.500000 -0.010000 0.325000
v -0.520000 -0.010000 -0.325000
v -0.520000 -0.010000 0.325000
v -0.500000 -0.010000 -0.300000
v -0.520000 -0.010000 -0.300000
v -0.500000 -0.010000 0.300000
v -0.520000 -0.010000 0.300000
v -0.500000 -0.770000 0.300000
v -0.500000 -0.770000 -0.300000
v -0.520000 -0.770000 0.300000
v -0.520000 -0.770000 -0.300000
v 0.500000 -0.010000 -0.325000
v 0.500000 -0.010000 0.325000
v 0.520000 -0.010000 -0.325000
v 0.520000 -0.010000 0.325000
v 0.500000 -0.010000 -0.300000
v 0.520000 -0.010000 -0.300000
v 0.500000 -0.010000 0.300000
v 0.520000 -0.010000 0.300000
v 0.500000 -0.770000 0.300000
v 0.500000 -0.770000 -0.300000
v 0.520000 -0.770000 0.300000
v 0.520000 -0.770000 -0.300000
v 0.100000 -0.010000 0.300000
v 0.100000 -0.010000 -0.300000
v 0.120000 -0.010000 0.300000
v 0.120000 -0.010000 -0.300000
v 0.120000 -0.770000 -0.300000
v 0.100000 -0.770000 -0.300000
v 0.100000 -0.770000 0.300000
v 0.120000 -0.770000 0.300000
v 0.120000 -0.690000 0.300000
v 0.120000 -0.690000 -0.300000
v 0.120000 -0.710000 0.300000
v 0.120000 -0.710000 -0.300000
v 0.500000 -0.690000 0.300000
v 0.500000 -0.690000 -0.300000
v 0.500000 -0.710000 0.300000
v 0.500000 -0.710000 -0.300000
v 0.100000 -0.170000 -0.300000
v 0.100000 -0.170000 0.300000
v 0.100000 -0.150000 0.300000
v 0.100000 -0.150000 -0.300000
v -0.500000 -0.170000 0.300000
v -0.500000 -0.170000 -0.300000
v -0.500000 -0.150000 0.300000
v -0.500000 -0.150000 -0.300000
v 0.535194 0.010000 -0.307390
v 0.535193 0.010000 0.307390
v -0.535194 0.010000 -0.307390
v -0.535194 0.010000 0.307390
v 0.535194 0.008000 -0.307390
v 0.535193 0.008000 0.307390
v -0.535194 0.008000 -0.307390
v -0.535194 0.008000 0.307390
v -0.500000 -0.740000 0.000000
v -0.520000 -0.740000 -0.000000
v -0.500000 -0.750000 -0.150000
v -0.520000 -0.750000 -0.150000
v -0.500000 -0.750000 0.150000
v -0.520000 -0.750000 0.150000
v -0.500000 -0.770000 0.225000
v -0.520000 -0.770000 0.225000
v -0.500000 -0.770000 -0.225000
v -0.520000 -0.770000 -0.225000
v -0.547820 -0.010000 0.325000
v -0.550000 -0.010000 0.322820
v -0.549904 -0.010000 0.323002
v -0.548463 -0.010000 0.323719
v -0.548000 0.010000 0.320820
v -0.545820 0.010000 0.323000
v -0.546731 0.010000 0.321453
v -0.547959 0.010000 0.321000
v -0.550000 0.008000 0.322820
v -0.547820 0.008000 0.325000
v 0.547820 -0.010000 -0.325000
v 0.550000 -0.010000 -0.322820
v 0.549904 -0.010000 -0.323002
v 0.548463 -0.010000 -0.323719
v 0.550000 -0.009940 0.322820
v 0.547820 -0.010000 0.325000
v 0.548463 -0.010000 0.323719
v 0.550000 -0.010000 0.323000
v -0.550000 -0.009939 -0.322820
v -0.547820 -0.010000 -0.325000
v -0.548463 -0.010000 -0.323720
v -0.550000 -0.010000 -0.323000
v 0.550000 0.008000 -0.322820
v 0.547820 0.008000 -0.325000
v 0.548000 0.010000 -0.320820
v 0.545820 0.010000 -0.323000
v 0.546732 0.010000 -0.321453
v 0.547959 0.010000 -0.321000
v 0.545820 0.010000 0.323000
v 0.547999 0.010000 0.320820
v 0.546731 0.010000 0.321454
v 0.546000 0.010000 0.322971
v 0.547820 0.008000 0.325000
v 0.549999 0.008000 0.322820
v -0.547820 0.008000 -0.325000
v -0.550000 0.008000 -0.322820
v -0.545820 0.010000 -0.323000
v -0.548000 0.010000 -0.320820
v -0.546731 0.010000 -0.321454
v -0.546000 0.010000 -0.322971
v 0.500000 -0.740000 0.000000
v 0.520000 -0.740000 0.000000
v 0.500000 -0.750000 0.150000
v 0.520000 -0.750000 0.150000
v 0.500000 -0.750000 -0.150000
v 0.520000 -0.750000 -0.150000
v 0.500000 -0.770000 0.225000
v 0.520000 -0.770000 0.225000
v 0.500000 -0.770000 -0.225000
v 0.520000 -0.770000 -0.225000
vt 0.008333 0.727586
vt 0.208333 0.727586
vt 0.216240 0.737401
vt 0.216001 0.737898
vt 0.973333 0.989655
vt 0.973333 0.999248
vt 0.967333 0.999248
vt 0.967333 0.621441
vt 0.973333 0.637931
vt 0.973333 0.982759
vt 0.960666 0.621441
vt 0.966666 0.621441
vt 0.966666 0.631035
vt 0.966667 0.982759
vt 0.966667 0.989655
vt 0.960666 0.999248
vt 0.008333 0.506896
vt 0.008333 0.513793
vt 0.000000 0.375862
vt 0.216667 0.720690
vt 0.208333 0.720690
vt 0.000000 0.720690
vt 0.000000 0.727586
vt 0.253333 0.000000
vt 0.253333 0.006897
vt 0.053333 0.006897
vt 0.993333 0.410345
vt 0.993333 0.462069
vt 0.986666 0.462069
vt 0.986666 0.410345
vt 0.433333 0.620690
vt 0.633333 0.358621
vt 0.633333 0.620690
vt 0.300000 0.351724
vt 0.306667 0.351724
vt 0.253333 0.358621
vt 0.633333 0.620690
vt 0.833333 0.827586
vt 0.633333 0.827586
vt 0.216667 0.368966
vt 0.208333 0.375862
vt 0.208333 0.368966
vt 0.973333 0.621441
vt 0.973333 0.631035
vt 0.000000 0.368966
vt 0.008333 0.375862
vt 0.233333 0.351724
vt 0.253333 0.351724
vt 0.253333 0.358621
vt 0.986666 0.358621
vt 0.986666 0.565517
vt 0.980000 0.565517
vt 0.980000 0.358621
vt 0.986667 0.801724
vt 0.980000 0.801724
vt 0.980000 0.775862
vt 0.986667 0.775862
vt 0.506667 0.000000
vt 0.506667 0.006897
vt 0.486667 0.006897
vt 0.506667 0.262069
vt 0.506667 0.000000
vt 0.531667 0.000000
vt 0.556667 0.000000
vt 0.606667 0.000000
vt 0.656667 0.000000
vt 0.681667 0.000000
vt 0.706667 0.000000
vt 0.706667 0.262069
vt 0.208333 0.506897
vt 0.216667 0.375862
vt 0.208333 0.513793
vt 0.008333 0.720690
vt 0.706667 0.000000
vt 0.906667 0.206897
vt 0.706667 0.206897
vt 0.993333 0.539655
vt 0.993333 0.565517
vt 0.986666 0.565517
vt 0.986666 0.539655
vt 0.400000 0.737931
vt 0.420000 0.944827
vt 0.400000 0.944828
vt 0.253333 0.213793
vt 0.233333 0.220690
vt 0.226667 0.220690
vt 0.480000 0.137931
vt 0.306667 0.144828
vt 0.253333 0.137931
vt 0.633333 0.593103
vt 0.833333 0.358621
vt 0.833333 0.593103
vt 0.833333 0.358621
vt 0.960000 0.565517
vt 0.833333 0.565517
vt 0.433333 0.855173
vt 0.633333 0.620690
vt 0.633333 0.855173
vt 0.833333 0.827586
vt 0.960000 0.620690
vt 0.960000 0.827586
vt 0.480000 0.006897
vt 0.486667 0.137931
vt 0.300000 0.144828
vt 0.953333 0.000000
vt 1.000000 0.206897
vt 0.953333 0.206897
vt 0.400000 0.737931
vt 0.200000 0.944827
vt 0.200000 0.737931
vt 0.906667 0.000000
vt 0.953333 0.206897
vt 0.906667 0.206897
vt 0.000000 0.737931
vt 0.200000 0.944827
vt 0.000000 0.944828
vt 0.046667 0.006897
vt 0.053333 0.213793
vt 0.046667 0.213793
vt 0.253333 0.351724
vt 0.253333 0.144828
vt 0.000427 0.737401
vt 0.000000 0.737179
vt 0.974000 0.844076
vt 0.974000 0.621441
vt 0.979980 0.621441
vt 0.432551 0.736490
vt 0.432551 0.360062
vt 0.433333 0.359372
vt 0.433333 0.737179
vt 0.215940 0.737931
vt 0.000667 0.737931
vt 0.432540 0.736552
vt 0.431947 0.736804
vt 0.426449 0.732825
vt 0.426449 0.363726
vt 0.966667 0.998559
vt 0.966667 0.622131
vt 0.432077 0.359310
vt 0.218197 0.359310
vt 0.217393 0.358621
vt 0.432606 0.358621
vt 0.218134 0.737227
vt 0.218074 0.736804
vt 0.223551 0.732825
vt 0.431947 0.359748
vt 0.980000 0.621379
vt 0.980000 0.844076
vt 0.966666 0.637931
vt 0.217923 0.737241
vt 0.431803 0.737241
vt 0.432606 0.737931
vt 0.217393 0.737931
vt 0.966667 0.999248
vt 0.432140 0.359324
vt 0.223551 0.363726
vt 0.218073 0.359748
vt 0.217449 0.360062
vt 0.217460 0.360000
vt 0.217448 0.736490
vt 0.216667 0.727586
vt 0.000000 0.006897
vt 0.000000 0.000000
vt 0.993333 0.384483
vt 0.986666 0.384483
vt 0.433333 0.358621
vt 0.458333 0.358621
vt 0.483333 0.358621
vt 0.533333 0.358621
vt 0.583333 0.358621
vt 0.608333 0.358621
vt 0.506667 0.358621
vt 0.506667 0.351724
vt 0.833333 0.620690
vt 0.833333 0.646552
vt 0.833333 0.672414
vt 0.833333 0.724138
vt 0.833333 0.775862
vt 0.833333 0.801724
vt 0.008333 0.368966
vt 0.000427 0.359151
vt 0.000666 0.358654
vt 0.420667 0.961317
vt 0.420667 0.738683
vt 0.426647 0.738683
vt 0.216240 0.359151
vt 0.216667 0.359372
vt 0.000000 0.358621
vt 0.226667 0.351724
vt 0.000000 0.351724
vt 0.993333 0.513793
vt 0.986666 0.513793
vt 0.986667 0.724138
vt 0.980000 0.724138
vt 0.980000 0.672414
vt 0.986667 0.672414
vt 0.253333 0.006897
vt 0.253333 0.000000
vt 0.986667 0.827586
vt 0.980000 0.827586
vt 0.906667 0.000000
vt 0.420000 0.737931
vt 0.000000 0.220690
vt 0.000000 0.213793
vt 0.253333 0.220690
vt 0.506667 0.144828
vt 0.506667 0.137931
vt 0.633333 0.358621
vt 0.960000 0.358621
vt 0.433333 0.620690
vt 0.833333 0.620690
vt 1.000000 0.000000
vt 0.400000 0.944827
vt 0.953333 0.000000
vt 0.200000 0.737931
vt 0.223551 0.732825
vt 0.426449 0.732825
vt 0.216000 0.358621
vt 0.000727 0.358621
vt 0.426449 0.363726
vt 0.223551 0.363726
vt 0.217860 0.737227
vt 0.431865 0.359324
vt 0.000000 0.359372
vt 0.986667 0.646552
vt 0.980000 0.646552
vt 0.980000 0.620690
vt 0.986667 0.620690
vt 0.993333 0.358621
vt 0.986666 0.358621
vt 0.966666 0.620690
vt 0.966666 0.620723
vt 0.966666 0.621220
vt 0.432878 0.359686
vt 0.980000 0.844828
vt 0.974000 0.844828
vt 0.216667 0.737179
vt 0.973333 0.620690
vt 0.973333 0.620723
vt 0.973333 0.621220
vt 0.426667 0.737931
vt 0.426655 0.738372
vt 0.426648 0.738620
vt 0.980000 0.620690
vt 0.979988 0.621131
vt 0.217211 0.737241
vt 0.217718 0.737230
vt 0.432125 0.737242
vt 0.217449 0.359321
vt 0.217456 0.359755
vt 0.966667 0.621379
vt 0.967091 0.620940
vt 0.217470 0.359310
vt 0.216959 0.358871
vt 0.426667 0.961317
vt 0.426667 0.962069
vt 0.420667 0.962069
vt 0.966646 1.000000
vt 0.960667 1.000000
vt 0.973313 1.000000
vt 0.967333 1.000000
vt 0.426667 0.738621
vt 0.980000 0.358621
vt 0.980000 0.384483
vt 0.980000 0.410345
vt 0.980000 0.462069
vt 0.980000 0.513793
vt 0.980000 0.539655
vt 0.980000 0.565517
vn 0.0000 -1.0000 -0.0000
vn 0.0000 0.0000 -1.0000
vn 0.0000 0.0000 1.0000
vn -0.0000 -0.9978 0.0665
vn -1.0000 0.0000 0.0000
vn 1.0000 0.0000 0.0000
vn 0.0000 -0.9662 -0.2577
vn 0.0000 1.0000 0.0000
vn -0.0000 0.7071 0.7071
vn 0.0000 0.7071 -0.7071
vn -0.7071 0.7071 -0.0000
vn 0.7071 0.7071 0.0000
vn -0.0000 -0.9662 0.2577
vn 0.0000 -0.9978 -0.0665
vn -0.4083 0.8165 0.4083
vn -0.7071 -0.0000 0.7071
vn 0.1072 -0.9874 0.1168
vn -0.1075 -0.9873 -0.1172
vn 0.4083 0.8165 -0.4082
vn 0.4082 0.8165 0.4082
vn -0.4082 0.8165 -0.4082
vn 0.7071 -0.0000 -0.7071
vn 0.7071 0.0000 0.7071
vn -0.7071 -0.0000 -0.7071
usemtl Material
s off
f 6/1/1 8/2/1 70/3/1 69/4/1
f 3/5/2 86/6/2 101/7/2
f 90/8/2 13/9/2 1/10/2
f 76/11/3 67/12/3 4/13/3
f 14/14/3 16/15/3 99/16/3
f 28/17/1 26/18/1 13/19/1
f 2/20/1 8/2/1 7/21/1
f 1/22/1 6/1/1 3/23/1
f 11/24/3 9/25/3 45/26/3
f 59/27/4 57/28/4 58/29/4 60/30/4
f 6/31/5 11/32/5 8/33/5
f 48/34/2 46/35/2 6/36/2
f 45/37/6 10/38/6 46/39/6
f 16/40/1 19/41/1 20/42/1
f 90/8/2 77/43/2 15/44/2
f 15/45/1 17/46/1 13/19/1
f 39/47/3 21/48/3 23/49/3
f 29/50/1 32/51/1 31/52/1 30/53/1
f 114/54/7 113/55/7 109/56/7 110/57/7
f 24/58/2 22/59/2 40/60/2
f 20/61/6 23/62/6 114/63/6 110/64/6 108/65/6 112/66/6 116/67/6 24/68/6 18/69/6
f 27/70/1 14/71/1 25/72/1
f 17/46/1 27/70/1 28/17/1
f 5/73/1 25/72/1 7/21/1
f 41/74/5 31/75/5 42/76/5
f 63/77/1 9/78/1 11/79/1 64/80/1
f 35/81/6 29/82/6 36/83/6
f 31/84/3 35/85/3 33/86/3
f 34/87/2 41/88/2 28/89/2
f 27/90/6 34/91/6 28/92/6
f 36/93/1 39/94/1 35/95/1
f 17/96/5 37/97/5 19/98/5
f 37/99/8 34/100/8 33/101/8
f 39/47/3 33/86/3 35/85/3
f 38/102/2 36/103/2 34/87/2
f 46/35/2 44/104/2 41/88/2
f 26/105/5 43/106/5 25/107/5
f 42/108/1 46/109/1 41/110/1
f 7/111/6 48/112/6 5/113/6
f 43/114/8 48/115/8 47/116/8
f 47/117/3 42/118/3 43/119/3
f 28/89/2 38/102/2 34/87/2
f 44/104/2 5/120/2 26/121/2
f 87/122/1 86/123/1 3/23/1 6/1/1
f 75/124/5 102/125/5 85/126/5
f 95/127/9 72/128/9 76/129/9 99/130/9
f 6/1/1 69/4/1 68/131/1 88/132/1 87/122/1
f 98/133/8 97/134/8 50/135/8 52/136/8
f 90/8/10 101/7/10 103/137/10 92/138/10
f 71/139/11 104/140/11 102/141/11 75/142/11
f 94/143/8 93/144/8 49/145/8 50/135/8
f 99/16/3 76/11/3 14/14/3
f 95/127/8 98/133/8 52/136/8 73/146/8 72/128/8
f 75/124/5 85/126/5 88/147/5 68/148/5
f 4/13/3 2/149/3 76/11/3
f 101/7/2 90/8/2 1/10/2
f 91/150/12 96/151/12 100/152/12 89/153/12
f 16/15/3 82/154/3 99/16/3
f 71/139/8 74/155/8 51/156/8 105/157/8 104/140/8
f 103/158/8 106/159/8 49/145/8 93/144/8 92/160/8
f 1/22/1 13/19/1 26/18/1
f 17/46/1 28/17/1 13/19/1
f 26/18/1 5/73/1 1/22/1
f 2/20/1 4/161/1 8/2/1
f 1/22/1 5/73/1 6/1/1
f 47/117/3 7/162/3 8/163/3
f 8/163/3 11/24/3 45/26/3
f 45/26/3 47/117/3 8/163/3
f 65/164/13 59/27/13 60/30/13 66/165/13
f 6/31/5 12/166/5 66/167/5 60/168/5 58/169/5 62/170/5 64/171/5 11/32/5
f 12/172/2 6/36/2 46/35/2
f 5/120/2 48/34/2 6/36/2
f 46/35/2 10/173/2 12/172/2
f 45/37/6 9/174/6 63/175/6 61/176/6 57/177/6 59/178/6 65/179/6 10/38/6
f 16/40/1 14/71/1 19/41/1
f 20/42/1 18/180/1 80/181/1 79/182/1
f 89/183/6 100/184/6 81/185/6
f 83/186/1 82/187/1 16/40/1 20/42/1
f 15/45/1 18/180/1 17/46/1
f 23/49/3 20/188/3 37/189/3
f 37/189/3 39/47/3 23/49/3
f 20/188/3 19/190/3 37/189/3
f 61/191/7 63/77/7 64/80/7 62/192/7
f 108/193/4 107/194/4 111/195/4 112/196/4
f 38/102/2 17/197/2 18/198/2
f 18/198/2 24/58/2 38/102/2
f 40/60/2 38/102/2 24/58/2
f 23/199/1 21/200/1 113/55/1 114/54/1
f 2/20/1 7/21/1 25/72/1
f 27/70/1 19/41/1 14/71/1
f 2/20/1 25/72/1 14/71/1
f 17/46/1 19/41/1 27/70/1
f 5/73/1 26/18/1 25/72/1
f 41/74/5 30/201/5 31/75/5
f 57/28/14 61/191/14 62/192/14 58/29/14
f 35/81/6 32/202/6 29/82/6
f 33/86/3 27/203/3 42/118/3
f 27/203/3 25/204/3 43/119/3
f 32/205/3 35/85/3 31/84/3
f 42/118/3 31/84/3 33/86/3
f 27/203/3 43/119/3 42/118/3
f 44/104/2 26/121/2 28/89/2
f 34/87/2 36/103/2 30/206/2
f 44/104/2 28/89/2 41/88/2
f 30/206/2 41/88/2 34/87/2
f 36/103/2 29/207/2 30/206/2
f 27/90/6 33/208/6 34/91/6
f 36/93/1 40/209/1 39/94/1
f 17/96/5 38/210/5 37/97/5
f 37/99/8 38/211/8 34/100/8
f 39/47/3 37/189/3 33/86/3
f 38/102/2 40/60/2 36/103/2
f 46/35/2 48/34/2 44/104/2
f 26/105/5 44/212/5 43/106/5
f 42/108/1 45/213/1 46/109/1
f 7/111/6 47/214/6 48/112/6
f 43/114/8 44/215/8 48/115/8
f 47/117/3 45/26/3 42/118/3
f 28/89/2 17/197/2 38/102/2
f 44/104/2 48/34/2 5/120/2
f 50/135/5 49/145/5 53/216/5 54/217/5
f 84/218/1 83/186/1 20/42/1 79/182/1 78/219/1
f 76/11/3 2/149/3 14/14/3
f 106/159/8 105/157/8 51/156/8 49/145/8
f 52/136/2 50/135/2 54/217/2 56/220/2
f 51/156/6 52/136/6 56/220/6 55/221/6
f 49/145/3 51/156/3 55/221/3 53/216/3
f 91/150/8 94/222/8 50/135/8 97/134/8 96/151/8
f 15/44/2 13/9/2 90/8/2
f 1/10/2 3/5/2 101/7/2
f 74/223/8 73/146/8 52/136/8 51/156/8
f 15/45/1 77/224/1 80/181/1 18/180/1
f 116/225/1 115/226/1 22/227/1 24/228/1
f 10/229/1 65/164/1 66/165/1 12/230/1
f 67/12/1 68/231/1 69/232/1 70/233/1
f 71/139/8 72/234/8 73/146/8 74/223/8
f 71/139/15 75/142/15 76/129/15 72/128/15
f 75/124/16 68/148/16 67/235/16 76/236/16
f 4/161/1 67/237/1 70/3/1 8/2/1
f 77/43/1 78/238/1 79/239/1 80/240/1
f 81/185/17 82/241/17 83/242/17 84/243/17
f 85/126/18 86/244/18 87/245/18 88/147/18
f 91/150/8 92/246/8 93/247/8 94/222/8
f 95/127/8 96/248/8 97/134/8 98/133/8
f 103/158/8 104/249/8 105/250/8 106/159/8
f 90/8/19 92/138/19 91/251/19 89/252/19
f 95/127/20 99/130/20 100/152/20 96/151/20
f 102/141/21 104/140/21 103/253/21 101/254/21
f 89/183/22 78/255/22 77/256/22 90/257/22
f 99/16/23 82/154/23 81/258/23 100/259/23
f 101/7/24 86/6/24 85/260/24 102/261/24
f 89/183/6 81/185/6 84/262/6 78/255/6
f 110/57/14 109/56/14 107/194/14 108/193/14
f 40/209/5 22/263/5 115/264/5 111/265/5 107/266/5 109/267/5 113/268/5 21/269/5 39/94/5
f 112/196/13 111/195/13 115/226/13 116/225/13
usemtl Material.001
f 55/221/8 56/220/8 54/217/8 53/216/8
