# Blender v2.79 (sub 0) OBJ File: 'button.blend'
# www.blender.org
mtllib button_02.mtl
o Cylinder_Cylinder.004
v 0.000000 -0.004795 -0.007192
v 0.000000 0.004795 -0.007192
v 0.006229 -0.004795 -0.003596
v 0.006229 0.004795 -0.003596
v 0.006229 -0.004795 0.003596
v 0.006229 0.004795 0.003596
v -0.000000 -0.004795 0.007192
v -0.000000 0.004795 0.007192
v -0.006229 -0.004795 0.003596
v -0.006229 0.004795 0.003596
v -0.006229 -0.004795 -0.003596
v -0.006229 0.004795 -0.003596
v 0.000000 -0.013200 -0.001237
v 0.000000 0.003300 -0.001237
v 0.001072 -0.013200 0.000619
v 0.001072 0.003300 0.000619
v -0.001072 -0.013200 0.000619
v -0.001072 0.003300 0.000619
vt 0.206272 1.033200
vt -0.097991 0.506201
vt 0.206272 -0.020798
vt 0.814798 -0.020798
vt 1.119061 0.506201
vt 0.814798 1.033200
vt 0.046061 -0.042570
vt 0.046061 -0.042570
vt 0.046061 -0.042570
vt 0.046061 -0.042570
vt 0.046061 -0.042570
vt 0.046061 -0.042570
vt 0.046061 -0.042570
vt 0.046061 -0.042570
vt 0.046061 -0.042570
vt 0.046061 -0.042570
vt 0.046061 -0.042570
vt 0.046061 -0.042570
vt 0.000000 0.000000
vt 0.000000 0.000000
vt 0.000000 0.000000
vt 0.000000 0.000000
vt 0.000000 0.000000
vt 0.000000 0.000000
vn 0.0000 1.0000 0.0000
vn 0.5000 0.0000 -0.8660
vn 1.0000 0.0000 0.0000
vn 0.5000 0.0000 0.8660
vn -0.5000 0.0000 0.8660
vn -1.0000 0.0000 0.0000
vn -0.5000 0.0000 -0.8660
vn 0.8660 0.0000 -0.5000
vn -0.0000 0.0000 1.0000
vn -0.8660 0.0000 -0.5000
vn 0.0000 -1.0000 0.0000
usemtl buuton
s off
f 4/1/1 2/2/1 12/3/1 10/4/1 8/5/1 6/6/1
usemtl buuton_NONE
f 1/7/2 2/8/2 4/9/2 3/10/2
f 3/10/3 4/9/3 6/11/3 5/12/3
f 5/12/4 6/11/4 8/13/4 7/14/4
f 7/14/5 8/13/5 10/15/5 9/16/5
f 9/16/6 10/15/6 12/17/6 11/18/6
f 11/18/7 12/17/7 2/8/7 1/7/7
usemtl gray_01
f 13/19/8 14/20/8 16/21/8 15/22/8
f 15/22/9 16/21/9 18/23/9 17/24/9
f 16/21/1 14/20/1 18/23/1
f 17/24/10 18/23/10 14/20/10 13/19/10
f 13/19/11 15/22/11 17/24/11
