# Blender v2.79 (sub 0) OBJ File: 'button.blend'
# www.blender.org
mtllib button_00.mtl
o digit_button_00_Cylinder.001
v 0.000000 -0.005121 -0.006322
v 0.000000 0.004621 -0.006322
v 0.002420 -0.005121 -0.005841
v 0.002420 0.004621 -0.005841
v 0.004471 -0.005121 -0.004470
v 0.004471 0.004621 -0.004470
v 0.005841 -0.005121 -0.002419
v 0.005841 0.004621 -0.002419
v 0.006322 -0.005121 0.000000
v 0.006322 0.004621 0.000000
v 0.005841 -0.005121 0.002419
v 0.005841 0.004621 0.002419
v 0.004471 -0.005121 0.004471
v 0.004471 0.004621 0.004471
v 0.002420 -0.005121 0.005841
v 0.002420 0.004621 0.005841
v 0.000000 -0.005121 0.006322
v 0.000000 0.004621 0.006322
v -0.002419 -0.005121 0.005841
v -0.002419 0.004621 0.005841
v -0.004470 -0.005121 0.004471
v -0.004470 0.004621 0.004471
v -0.005841 -0.005121 0.002419
v -0.005841 0.004621 0.002419
v -0.006322 -0.005121 0.000000
v -0.006322 0.004621 0.000000
v -0.005841 -0.005121 -0.002419
v -0.005841 0.004621 -0.002419
v -0.004470 -0.005121 -0.004470
v -0.004470 0.004621 -0.004470
v -0.002419 -0.005121 -0.005841
v -0.002419 0.004621 -0.005841
v 0.002299 0.005121 -0.005549
v 0.000000 0.005121 -0.006006
v 0.004247 0.005121 -0.004247
v 0.005549 0.005121 -0.002298
v 0.006006 0.005121 0.000000
v 0.005549 0.005121 0.002298
v 0.004247 0.005121 0.004247
v 0.002299 0.005121 0.005549
v 0.000000 0.005121 0.006006
v -0.002298 0.005121 0.005549
v -0.004247 0.005121 0.004247
v -0.005549 0.005121 0.002298
v -0.006006 0.005121 0.000000
v -0.005549 0.005121 -0.002298
v -0.004247 0.005121 -0.004247
v -0.002298 0.005121 -0.005549
v 0.001149 0.004752 -0.002774
v 0.000000 0.004752 -0.003003
v 0.002124 0.004752 -0.002123
v 0.002775 0.004752 -0.001149
v 0.003003 0.004752 0.000000
v 0.002775 0.004752 0.001149
v 0.002124 0.004752 0.002124
v 0.001149 0.004752 0.002774
v 0.000000 0.004752 0.003003
v -0.001149 0.004752 0.002774
v -0.002123 0.004752 0.002124
v -0.002774 0.004752 0.001149
v -0.003003 0.004752 0.000000
v -0.002774 0.004752 -0.001149
v -0.002123 0.004752 -0.002123
v -0.001149 0.004752 -0.002774
v 0.000000 -0.013344 -0.001125
v 0.000000 0.001656 -0.001125
v 0.000974 -0.013344 -0.000562
v 0.000974 0.001656 -0.000562
v 0.000974 -0.013344 0.000563
v 0.000974 0.001656 0.000563
v -0.000000 -0.013344 0.001125
v -0.000000 0.001656 0.001125
v -0.000974 -0.013344 0.000562
v -0.000974 0.001656 0.000562
v -0.000974 -0.013344 -0.000562
v -0.000974 0.001656 -0.000562
vt 0.183037 0.152982
vt 0.337526 0.057192
vt 0.425339 0.281867
vt 0.348536 0.329619
vt 0.294377 0.585009
vt 0.277731 0.493683
vt 0.296695 0.403998
vt 0.515419 0.268013
vt 0.605039 0.290181
vt 0.680537 0.344980
vt 0.730425 0.424065
vt 0.747071 0.515391
vt 0.728107 0.605077
vt 0.676266 0.679455
vt 0.599460 0.727207
vt 0.509380 0.741061
vt 0.419760 0.718893
vt 0.344265 0.664095
vt 0.946195 0.706694
vt 0.841764 0.856095
vt 0.078608 0.302382
vt 0.984522 0.526380
vt 0.073960 0.666339
vt 0.040281 0.482694
vt 0.950843 0.342734
vt 0.174455 0.825220
vt 0.850346 0.183852
vt 0.326319 0.935183
vt 0.698479 0.073889
vt 0.506334 0.979616
vt 0.518462 0.029459
vt 0.687272 0.951884
vt 0.000000 0.000000
vt 0.000000 0.000000
vt 0.000000 0.000000
vt 0.000000 0.000000
vt 0.000000 0.000000
vt 0.000000 0.000000
vt 0.000000 0.000000
vt 0.000000 0.000000
vt 0.000000 0.000000
vt 0.000000 0.000000
vt 0.000000 0.000000
vt 0.000000 0.000000
vt 0.000000 0.000000
vt 0.000000 0.000000
vt 0.000000 0.000000
vt 0.000000 0.000000
vt 0.000000 0.000000
vt 0.000000 0.000000
vt 0.000000 0.000000
vt 0.000000 0.000000
vt 0.000000 0.000000
vt 0.000000 0.000000
vt 0.000000 0.000000
vt 0.000000 0.000000
vt 0.000000 0.000000
vt 0.000000 0.000000
vt 0.000000 0.000000
vt 0.000000 0.000000
vt 0.000000 0.000000
vt 0.000000 0.000000
vt 0.000000 0.000000
vt 0.000000 0.000000
vt 0.000000 0.000000
vt 0.000000 0.000000
vt 0.000000 0.000000
vt 0.000000 0.000000
vt 0.000000 0.000000
vt 0.000000 0.000000
vt 0.000000 0.000000
vt 0.000000 0.000000
vt 0.000000 0.000000
vt 0.000000 0.000000
vt 0.000000 0.000000
vt 0.000000 0.000000
vt 0.000000 0.000000
vt 0.000000 0.000000
vt 0.000000 0.000000
vt 0.000000 0.000000
vt 0.000000 0.000000
vt 0.000000 0.000000
vt 0.000000 0.000000
vt 0.000000 0.000000
vt 0.000000 0.000000
vt 0.000000 0.000000
vt 0.000000 0.000000
vt 0.000000 0.000000
vt 0.000000 0.000000
vt 0.000000 0.000000
vt 0.000000 0.000000
vt 0.000000 0.000000
vn 0.0863 0.9925 0.0863
vn 0.1128 0.9925 0.0467
vn 0.0635 0.9976 0.0263
vn 0.0486 0.9976 0.0486
vn -0.0263 0.9976 0.0635
vn -0.0000 0.9976 0.0688
vn 0.0263 0.9976 0.0635
vn 0.0688 0.9976 -0.0000
vn 0.0635 0.9976 -0.0263
vn 0.0486 0.9976 -0.0486
vn 0.0263 0.9976 -0.0635
vn 0.0000 0.9976 -0.0688
vn -0.0263 0.9976 -0.0635
vn -0.0486 0.9976 -0.0486
vn -0.0635 0.9976 -0.0263
vn -0.0688 0.9976 0.0000
vn -0.0635 0.9976 0.0263
vn -0.0486 0.9976 0.0486
vn -0.0467 0.9925 -0.1128
vn -0.0863 0.9925 -0.0863
vn 0.0467 0.9925 0.1128
vn 0.0000 0.9925 -0.1221
vn -0.0467 0.9925 0.1128
vn -0.0000 0.9925 0.1221
vn 0.0467 0.9925 -0.1128
vn -0.0863 0.9925 0.0863
vn 0.0863 0.9925 -0.0863
vn -0.1128 0.9925 0.0467
vn 0.1128 0.9925 -0.0467
vn -0.1221 0.9925 0.0000
vn 0.1221 0.9925 -0.0000
vn -0.1128 0.9925 -0.0467
vn 0.0000 0.0000 -1.0000
vn 0.3827 0.0000 -0.9239
vn 0.7071 0.0000 -0.7071
vn 0.9239 0.0000 -0.3827
vn 1.0000 0.0000 -0.0000
vn 0.9239 0.0000 0.3827
vn 0.7071 0.0000 0.7071
vn 0.3827 0.0000 0.9239
vn -0.0000 0.0000 1.0000
vn -0.3827 0.0000 0.9239
vn -0.7071 0.0000 0.7071
vn -0.9239 0.0000 0.3827
vn -1.0000 0.0000 -0.0000
vn -0.9239 0.0000 -0.3827
vn -0.7071 0.0000 -0.7071
vn 0.5977 0.5344 0.5977
vn 0.7809 0.5344 0.3235
vn -0.3827 0.0000 -0.9239
vn -0.7809 0.5344 0.3235
vn -0.5977 0.5344 0.5977
vn 0.0000 0.5344 -0.8452
vn -0.3235 0.5344 -0.7809
vn 0.8452 0.5344 0.0000
vn 0.7809 0.5344 -0.3235
vn -0.3235 0.5344 0.7809
vn -0.0000 0.5344 0.8452
vn -0.5977 0.5344 -0.5977
vn -0.7809 0.5344 -0.3235
vn 0.5977 0.5344 -0.5977
vn 0.3235 0.5344 -0.7809
vn 0.3235 0.5344 0.7809
vn -0.8452 0.5344 0.0000
vn 0.5000 0.0000 -0.8660
vn 0.5000 0.0000 0.8660
vn -0.5000 0.0000 0.8660
vn -0.5000 0.0000 -0.8660
usemtl buuton
s 1
f 47/1/1 46/2/2 62/3/3 63/4/4
f 49/5/5 50/6/6 64/7/7 63/4/4 62/3/3 61/8/8 60/9/9 59/10/10 58/11/11 57/12/12 56/13/13 55/14/14 54/15/15 53/16/16 52/17/17 51/18/18
f 40/19/19 39/20/20 55/14/14 56/13/13
f 48/21/21 47/1/1 63/4/4 64/7/7
f 41/22/22 40/19/19 56/13/13 57/12/12
f 33/23/23 34/24/24 50/6/6 49/5/5
f 34/24/24 48/21/21 64/7/7 50/6/6
f 42/25/25 41/22/22 57/12/12 58/11/11
f 35/26/26 33/23/23 49/5/5 51/18/18
f 43/27/27 42/25/25 58/11/11 59/10/10
f 36/28/28 35/26/26 51/18/18 52/17/17
f 44/29/29 43/27/27 59/10/10 60/9/9
f 37/30/30 36/28/28 52/17/17 53/16/16
f 45/31/31 44/29/29 60/9/9 61/8/8
f 38/32/32 37/30/30 53/16/16 54/15/15
f 46/2/2 45/31/31 61/8/8 62/3/3
f 39/20/20 38/32/32 54/15/15 55/14/14
usemtl gray_01
f 1/33/33 2/34/33 4/35/34 3/36/34
f 3/36/34 4/35/34 6/37/35 5/38/35
f 5/38/35 6/37/35 8/39/36 7/40/36
f 7/40/36 8/39/36 10/41/37 9/42/37
f 9/42/37 10/41/37 12/43/38 11/44/38
f 11/44/38 12/43/38 14/45/39 13/46/39
f 13/46/39 14/45/39 16/47/40 15/48/40
f 15/48/40 16/47/40 18/49/41 17/50/41
f 17/50/41 18/49/41 20/51/42 19/52/42
f 19/52/42 20/51/42 22/53/43 21/54/43
f 21/54/43 22/53/43 24/55/44 23/56/44
f 23/56/44 24/55/44 26/57/45 25/58/45
f 25/58/45 26/57/45 28/59/46 27/60/46
f 27/60/46 28/59/46 30/61/47 29/62/47
f 14/45/48 12/43/49 38/63/49 39/64/48
f 29/62/47 30/61/47 32/65/50 31/66/50
f 31/66/50 32/65/50 2/34/33 1/33/33
f 24/55/51 22/53/52 43/67/52 44/68/51
f 2/34/53 32/65/54 48/69/54 34/70/53
f 10/41/55 8/39/56 36/71/56 37/72/55
f 20/51/57 18/49/58 41/73/58 42/74/57
f 30/61/59 28/59/60 46/75/60 47/76/59
f 6/37/61 4/35/62 33/77/62 35/78/61
f 16/47/63 14/45/48 39/64/48 40/79/63
f 26/57/64 24/55/51 44/68/51 45/80/64
f 12/43/49 10/41/55 37/72/55 38/63/49
f 22/53/52 20/51/57 42/74/57 43/67/52
f 32/65/54 30/61/59 47/76/59 48/69/54
f 8/39/56 6/37/61 35/78/61 36/71/56
f 18/49/58 16/47/63 40/79/63 41/73/58
f 4/35/62 2/34/53 34/70/53 33/77/62
f 28/59/60 26/57/64 45/80/64 46/75/60
usemtl gray_01_NONE
f 65/81/65 66/82/65 68/83/65 67/84/65
f 67/84/37 68/83/37 70/85/37 69/86/37
f 69/86/66 70/85/66 72/87/66 71/88/66
f 71/88/67 72/87/67 74/89/67 73/90/67
f 73/90/45 74/89/45 76/91/45 75/92/45
f 75/92/68 76/91/68 66/82/68 65/81/68
