# Blender v2.79 (sub 0) OBJ File: 'model.blend'
# www.blender.org
mtllib ceil.mtl
o ceil_Cube.016
v -3.850564 2.589459 7.289764
v -3.850564 2.589459 -3.005888
v 3.850564 2.589459 7.289764
v 3.850564 2.589459 -3.005888
v -3.850564 2.589459 3.695786
v 3.850564 2.589459 3.695786
v -3.850564 2.589459 0.258390
v 3.850564 2.589459 0.258390
v 3.850564 2.589459 0.658390
v -3.850564 2.589459 0.658390
v -3.850564 2.389459 0.658390
v -3.850564 2.389459 0.258390
v 3.850564 2.389459 0.258390
v 3.850564 2.389459 0.658390
v 3.850564 2.589459 4.330542
v -3.850564 2.589459 4.330542
v -3.850564 2.389459 4.330542
v -3.850564 2.389459 3.695786
v 3.850564 2.389459 3.695786
v 3.850564 2.389459 4.330542
vn 0.0000 -1.0000 0.0000
vn 0.0000 0.0000 1.0000
vn 0.0000 0.0000 -1.0000
usemtl white_chalk
s off
f 15//1 3//1 1//1 16//1
f 9//1 6//1 5//1 10//1
f 4//1 8//1 7//1 2//1
f 9//2 10//2 11//2 14//2
f 13//1 14//1 11//1 12//1
f 15//2 16//2 17//2 20//2
f 7//3 8//3 13//3 12//3
f 19//1 20//1 17//1 18//1
f 5//3 6//3 19//3 18//3
