# Blender v2.79 (sub 0) OBJ File: 'model.blend'
# www.blender.org
mtllib floor.mtl
o floor_Cube.015
v -3.850564 -1.032812 7.289763
v -3.850564 -1.032812 -3.005889
v 3.850564 -1.032812 7.289763
v 3.850564 -1.032812 -3.005889
v 3.850564 -1.032812 3.377286
v 3.850564 -1.032812 2.090330
vt 3.817974 -3.128308
vt 3.817971 4.128310
vt -2.739554 4.128310
vt -2.739554 0.464147
vt -2.739554 0.463627
vt -2.739554 -3.128310
vn 0.0000 1.0000 0.0000
usemtl parquette
s off
f 2/1/1 1/2/1 3/3/1 5/4/1 6/5/1 4/6/1
