# Blender v2.79 (sub 0) OBJ File: 'model.blend'
# www.blender.org
mtllib vent.mtl
o Cylinder.006_Cylinder.002
v -3.768372 1.455567 -0.927074
v -3.028818 1.455567 -0.927074
v -3.768372 1.412179 -0.917170
v -3.028818 1.412179 -0.917170
v -3.768372 1.377384 -0.889423
v -3.028818 1.377384 -0.889423
v -3.768372 1.358074 -0.849326
v -3.028818 1.358074 -0.849326
v -3.768372 1.358074 -0.804821
v -3.028818 1.358074 -0.804821
v -3.768372 1.377384 -0.764725
v -3.028818 1.377384 -0.764725
v -3.768372 1.412179 -0.736977
v -3.028818 1.412179 -0.736977
v -3.768372 1.455567 -0.727074
v -3.028818 1.455567 -0.727074
v -3.768372 1.498956 -0.736977
v -3.028818 1.498956 -0.736977
v -3.768372 1.533750 -0.764725
v -3.028818 1.533750 -0.764725
v -3.768372 1.553060 -0.804821
v -3.028818 1.553060 -0.804821
v -3.768372 1.553060 -0.849326
v -3.028818 1.553060 -0.849326
v -3.768372 1.533750 -0.889423
v -3.028818 1.533750 -0.889423
v -3.768372 1.498956 -0.917170
v -3.028818 1.498955 -0.917170
v -3.768372 1.455567 -0.977074
v -3.768372 1.390485 -0.962219
v -3.768372 1.338293 -0.920597
v -3.768372 1.309328 -0.860452
v -3.768372 1.309328 -0.793695
v -3.768372 1.338293 -0.733550
v -3.768372 1.390485 -0.691928
v -3.768372 1.455567 -0.677074
v -3.768372 1.520650 -0.691928
v -3.768372 1.572842 -0.733550
v -3.768372 1.601806 -0.793695
v -3.768372 1.601806 -0.860452
v -3.768372 1.572842 -0.920597
v -3.768372 1.520650 -0.962219
v -4.121890 1.455567 -0.977074
v -4.121890 1.390485 -0.962219
v -4.121890 1.338293 -0.920597
v -4.121890 1.309328 -0.860452
v -4.121890 1.309328 -0.793695
v -4.121890 1.338293 -0.733550
v -4.121890 1.390485 -0.691928
v -4.121890 1.455567 -0.677074
v -4.121890 1.520650 -0.691928
v -4.121890 1.572842 -0.733550
v -4.121890 1.601806 -0.793695
v -4.121890 1.601806 -0.860452
v -4.121890 1.572842 -0.920597
v -4.121890 1.520650 -0.962219
v -2.821097 1.455567 -0.923411
v -2.823752 1.412179 -0.913870
v -2.831193 1.377384 -0.887139
v -2.841946 1.358074 -0.848511
v -2.853881 1.358074 -0.805637
v -2.864634 1.377384 -0.767008
v -2.872075 1.412179 -0.740277
v -2.874730 1.455567 -0.730736
v -2.872075 1.498956 -0.740277
v -2.864634 1.533750 -0.767008
v -2.853881 1.553060 -0.805637
v -2.841946 1.553060 -0.848511
v -2.831193 1.533750 -0.887139
v -2.823752 1.498955 -0.913870
v -2.398021 1.455567 -0.749728
v -2.404459 1.412179 -0.742203
v -2.422498 1.377384 -0.721119
v -2.448565 1.358074 -0.690652
v -2.477497 1.358074 -0.656835
v -2.503564 1.377384 -0.626368
v -2.521603 1.412179 -0.605284
v -2.528041 1.455567 -0.597759
v -2.521603 1.498956 -0.605284
v -2.503564 1.533750 -0.626368
v -2.477497 1.553060 -0.656835
v -2.448565 1.553060 -0.690652
v -2.422498 1.533750 -0.721119
v -2.404459 1.498955 -0.742204
v -2.170855 1.455567 -0.373513
v -2.178819 1.412179 -0.367628
v -2.201138 1.377384 -0.351140
v -2.233388 1.358074 -0.327314
v -2.269183 1.358074 -0.300869
v -2.301434 1.377384 -0.277044
v -2.323751 1.412179 -0.260556
v -2.331717 1.455567 -0.254671
v -2.323751 1.498956 -0.260556
v -2.301434 1.533750 -0.277043
v -2.269183 1.553060 -0.300869
v -2.233388 1.553060 -0.327314
v -2.201138 1.533750 -0.351140
v -2.178819 1.498956 -0.367628
v -1.908789 1.455567 -0.263501
v -1.912862 1.412179 -0.254474
v -1.924276 1.377384 -0.229182
v -1.940768 1.358074 -0.192634
v -1.959073 1.358074 -0.152068
v -1.975566 1.377384 -0.115521
v -1.986979 1.412179 -0.090228
v -1.991052 1.455567 -0.081202
v -1.986979 1.498956 -0.090228
v -1.975565 1.533750 -0.115520
v -1.959073 1.553060 -0.152068
v -1.940768 1.553060 -0.192634
v -1.924276 1.533750 -0.229182
v -1.912862 1.498956 -0.254474
v -1.844634 1.455567 -0.272297
v -1.844308 1.412179 -0.262399
v -1.843397 1.377384 -0.234666
v -1.842080 1.358074 -0.194591
v -1.840618 1.358074 -0.150111
v -1.839301 1.377384 -0.110036
v -1.838389 1.412179 -0.082303
v -1.838064 1.455567 -0.072405
v -1.838389 1.498956 -0.082303
v -1.839301 1.533750 -0.110036
v -1.840618 1.553060 -0.150111
v -1.842080 1.553060 -0.194591
v -1.843397 1.533750 -0.234666
v -1.844308 1.498956 -0.262399
v -1.679292 1.455567 -0.272297
v -1.678967 1.412179 -0.262399
v -1.678056 1.377384 -0.234666
v -1.676739 1.358074 -0.194591
v -1.675277 1.358074 -0.150111
v -1.673959 1.377384 -0.110036
v -1.673048 1.412179 -0.082303
v -1.672723 1.455567 -0.072405
v -1.673048 1.498956 -0.082303
v -1.673959 1.533750 -0.110036
v -1.675277 1.553060 -0.150111
v -1.676739 1.553060 -0.194591
v -1.678056 1.533750 -0.234666
v -1.678967 1.498956 -0.262399
v -1.128600 1.455567 -0.272297
v -1.128274 1.412179 -0.262399
v -1.127363 1.377384 -0.234666
v -1.126046 1.358074 -0.194591
v -1.124584 1.358074 -0.150111
v -1.123267 1.377384 -0.110036
v -1.122355 1.412179 -0.082303
v -1.122030 1.455567 -0.072405
v -1.122355 1.498956 -0.082303
v -1.123267 1.533750 -0.110036
v -1.124584 1.553060 -0.150111
v -1.126046 1.553060 -0.194591
v -1.127363 1.533750 -0.234666
v -1.128274 1.498956 -0.262399
v -0.959653 1.455567 -0.272297
v -0.959327 1.412179 -0.262399
v -0.958416 1.377384 -0.234666
v -0.957099 1.358074 -0.194591
v -0.955637 1.358074 -0.150111
v -0.954320 1.377384 -0.110036
v -0.953408 1.412179 -0.082303
v -0.953083 1.455567 -0.072405
v -0.953408 1.498956 -0.082303
v -0.954320 1.533750 -0.110036
v -0.955637 1.553060 -0.150111
v -0.957099 1.553060 -0.194591
v -0.958416 1.533750 -0.234666
v -0.959327 1.498956 -0.262399
v -0.117124 1.455567 -0.272297
v -0.116799 1.412179 -0.262399
v -0.115887 1.377384 -0.234666
v -0.114570 1.358074 -0.194591
v -0.113108 1.358074 -0.150111
v -0.111791 1.377384 -0.110036
v -0.110880 1.412179 -0.082303
v -0.110554 1.455567 -0.072405
v -0.110879 1.498956 -0.082303
v -0.111791 1.533750 -0.110036
v -0.113108 1.553060 -0.150111
v -0.114570 1.553060 -0.194591
v -0.115887 1.533750 -0.234666
v -0.116799 1.498956 -0.262399
v 0.066111 1.455567 -0.272297
v 0.066437 1.412179 -0.262399
v 0.067348 1.377384 -0.234666
v 0.068665 1.358074 -0.194591
v 0.070127 1.358074 -0.150111
v 0.071444 1.377384 -0.110036
v 0.072356 1.412179 -0.082303
v 0.072681 1.455567 -0.072405
v 0.072356 1.498956 -0.082303
v 0.071444 1.533750 -0.110036
v 0.070127 1.553060 -0.150111
v 0.068665 1.553060 -0.194591
v 0.067348 1.533750 -0.234666
v 0.066437 1.498956 -0.262399
v 0.758380 1.455567 -0.272297
v 0.758705 1.412179 -0.262399
v 0.759617 1.377384 -0.234666
v 0.760934 1.358074 -0.194591
v 0.762396 1.358074 -0.150111
v 0.763713 1.377384 -0.110036
v 0.764624 1.412179 -0.082303
v 0.764950 1.455567 -0.072405
v 0.764625 1.498956 -0.082303
v 0.763713 1.533750 -0.110036
v 0.762396 1.553060 -0.150111
v 0.760934 1.553060 -0.194591
v 0.759617 1.533750 -0.234666
v 0.758705 1.498956 -0.262399
v 0.913702 1.455567 -0.272297
v 0.914027 1.412179 -0.262399
v 0.914939 1.377384 -0.234666
v 0.916256 1.358074 -0.194591
v 0.917718 1.358074 -0.150111
v 0.919035 1.377384 -0.110036
v 0.919946 1.412179 -0.082303
v 0.920272 1.455567 -0.072405
v 0.919947 1.498956 -0.082303
v 0.919035 1.533750 -0.110036
v 0.917718 1.553060 -0.150111
v 0.916256 1.553060 -0.194591
v 0.914939 1.533750 -0.234666
v 0.914027 1.498956 -0.262399
v 1.841797 1.455567 -0.272297
v 1.842122 1.412179 -0.262399
v 1.843034 1.377384 -0.234666
v 1.844351 1.358074 -0.194591
v 1.845813 1.358074 -0.150111
v 1.847130 1.377384 -0.110036
v 1.848041 1.412179 -0.082303
v 1.848367 1.455567 -0.072405
v 1.848042 1.498956 -0.082303
v 1.847130 1.533750 -0.110036
v 1.845813 1.553060 -0.150111
v 1.844351 1.553060 -0.194591
v 1.843034 1.533750 -0.234666
v 1.842122 1.498956 -0.262399
v 1.841797 1.455567 -0.272297
v 1.842122 1.412179 -0.262399
v 1.843034 1.377384 -0.234666
v 1.844351 1.358074 -0.194591
v 1.845813 1.358074 -0.150111
v 1.847130 1.377384 -0.110036
v 1.848041 1.412179 -0.082303
v 1.848367 1.455567 -0.072405
v 1.848042 1.498956 -0.082303
v 1.847130 1.533750 -0.110036
v 1.845813 1.553060 -0.150111
v 1.844351 1.553060 -0.194591
v 1.843034 1.533750 -0.234666
v 1.842122 1.498956 -0.262399
v 2.118970 1.455567 -0.272297
v 2.119295 1.412179 -0.262399
v 2.120207 1.377384 -0.234666
v 2.121524 1.358074 -0.194591
v 2.122986 1.358074 -0.150111
v 2.124303 1.377384 -0.110036
v 2.125214 1.412179 -0.082303
v 2.125540 1.455567 -0.072405
v 2.125214 1.498956 -0.082303
v 2.124303 1.533750 -0.110036
v 2.122986 1.553060 -0.150111
v 2.121524 1.553060 -0.194591
v 2.120207 1.533750 -0.234666
v 2.119295 1.498956 -0.262399
v -2.372509 1.200237 -0.017959
v -1.827100 1.368614 -0.157233
v -2.372509 1.200237 -0.258806
v -1.827100 1.368614 -0.185770
v -1.466339 1.200237 -0.017959
v -1.673293 1.368614 -0.157233
v -1.466339 1.200237 -0.258806
v -1.673293 1.368614 -0.185770
v -1.426519 1.200237 -0.017959
v -1.115251 1.368614 -0.157233
v -1.426519 1.200237 -0.258806
v -1.115251 1.368614 -0.185770
v -0.520349 1.200237 -0.017959
v -0.961443 1.368614 -0.157233
v -0.520349 1.200237 -0.258806
v -0.961443 1.368614 -0.185770
v -0.453175 1.200237 -0.017959
v -0.111934 1.368614 -0.157233
v -0.453175 1.200237 -0.258806
v -0.111934 1.368614 -0.185770
v 0.452994 1.200237 -0.017959
v 0.041873 1.368614 -0.157233
v 0.452994 1.200237 -0.258806
v 0.041873 1.368614 -0.185770
v 0.529097 1.200237 -0.017959
v 0.778463 1.368614 -0.157233
v 0.529097 1.200237 -0.258806
v 0.778463 1.368614 -0.185770
v 1.435266 1.200237 -0.017959
v 0.932270 1.368614 -0.157233
v 1.435266 1.200237 -0.258806
v 0.932270 1.368614 -0.185770
v 1.490806 1.200237 -0.017959
v 1.881108 1.368614 -0.157233
v 1.490806 1.200237 -0.258806
v 1.881108 1.368614 -0.185770
v 2.396975 1.200237 -0.017959
v 2.034916 1.368614 -0.157233
v 2.396975 1.200237 -0.258806
v 2.034916 1.368614 -0.185770
v 2.129446 1.455567 -0.297284
v 2.129852 1.401332 -0.284912
v 2.130992 1.357838 -0.250245
v 2.132638 1.333701 -0.200151
v 2.134465 1.333701 -0.144551
v 2.136112 1.357838 -0.094457
v 2.137250 1.401332 -0.059791
v 2.137658 1.455567 -0.047419
v 2.137252 1.509803 -0.059791
v 2.136112 1.553296 -0.094457
v 2.134465 1.577433 -0.144551
v 2.132638 1.577433 -0.200151
v 2.130992 1.553296 -0.250245
v 2.129852 1.509803 -0.284912
v 2.136282 1.455567 -0.297284
v 2.136688 1.401332 -0.284912
v 2.137828 1.357838 -0.250245
v 2.139474 1.333701 -0.200151
v 2.141301 1.333701 -0.144551
v 2.142948 1.357838 -0.094457
v 2.144086 1.401332 -0.059791
v 2.144494 1.455567 -0.047419
v 2.144088 1.509803 -0.059791
v 2.142948 1.553296 -0.094457
v 2.141301 1.577433 -0.144551
v 2.139474 1.577433 -0.200151
v 2.137828 1.553296 -0.250245
v 2.136688 1.509803 -0.284912
vn 0.0000 0.3979 -0.9174
vn -0.2950 0.9555 0.0000
vn 0.6311 0.7757 0.0000
vn 0.0000 0.6374 0.7706
vn 0.3566 0.9342 0.0000
vn -0.4758 0.8796 0.0000
vn 0.3790 0.9254 0.0000
vn -0.4425 0.8968 0.0000
vn 0.3174 0.9483 0.0000
vn -0.5596 0.8288 0.0000
vn 0.4217 0.9067 0.0000
vn -0.3961 0.9182 0.0000
vn -0.0000 0.0000 -1.0000
vn 0.0084 0.0000 -1.0000
vn 0.0070 -0.4308 -0.9024
vn -0.0000 -0.4339 -0.9010
vn 0.0037 -0.7791 -0.6269
vn -0.0000 -0.7818 -0.6235
vn 0.0009 -0.9745 -0.2245
vn -0.0000 -0.9749 -0.2225
vn 0.0010 -0.9744 0.2247
vn -0.0000 -0.9749 0.2225
vn 0.0046 -0.7785 0.6276
vn -0.0000 -0.7818 0.6235
vn 0.0091 -0.4300 0.9028
vn -0.0000 -0.4339 0.9010
vn 0.0112 -0.0000 0.9999
vn 0.0000 0.0000 1.0000
vn 0.0091 0.4300 0.9028
vn 0.0000 0.4339 0.9010
vn 0.0046 0.7785 0.6276
vn 0.0000 0.7818 0.6235
vn 0.0010 0.9744 0.2247
vn 0.0000 0.9749 0.2225
vn 0.0009 0.9745 -0.2245
vn 0.0000 0.9749 -0.2225
vn 0.0037 0.7791 -0.6269
vn 0.0000 0.7818 -0.6235
vn 0.0070 0.4308 -0.9024
vn 0.0000 0.4339 -0.9010
vn 1.0000 -0.0000 0.0000
vn -0.0381 -0.9802 0.1941
vn -0.1090 -0.7934 0.5989
vn -0.1090 0.7934 0.5989
vn -0.0381 0.9802 0.1941
vn 0.1268 -0.7675 -0.6284
vn 0.0468 -0.9686 -0.2443
vn -0.1688 -0.0000 0.9856
vn -0.1539 0.4426 0.8834
vn 0.2034 0.0000 -0.9791
vn 0.1832 -0.4222 -0.8878
vn 0.1268 0.7675 -0.6284
vn 0.1832 0.4222 -0.8878
vn -0.1539 -0.4426 0.8834
vn 0.0468 0.9686 -0.2443
vn 0.4176 0.7670 -0.4871
vn 0.5892 0.4247 -0.6874
vn -0.3799 -0.8121 0.4429
vn -0.3230 -0.4415 0.8371
vn 0.3793 -0.0000 -0.9253
vn -0.3588 0.0000 0.9334
vn -0.3230 0.4415 0.8371
vn 0.5892 -0.4247 -0.6874
vn -0.3799 0.8121 0.4429
vn 0.4176 -0.7670 -0.4871
vn -0.1126 0.9849 0.1314
vn 0.1694 -0.9656 -0.1975
vn 0.1694 0.9656 -0.1975
vn -0.1126 -0.9849 0.1314
vn -0.8676 -0.0000 0.4972
vn -0.7781 -0.4412 0.4471
vn -0.6277 -0.4187 0.6563
vn -0.7781 0.4412 0.4471
vn -0.6277 0.4187 0.6563
vn 0.8563 0.0000 -0.5164
vn 0.5807 -0.4514 -0.6775
vn -0.4415 0.7619 0.4739
vn 0.3942 -0.8031 -0.4468
vn -0.1724 0.9650 0.1976
vn 0.1257 -0.9835 -0.1303
vn 0.1257 0.9835 -0.1303
vn -0.1724 -0.9650 0.1976
vn 0.3942 0.8031 -0.4468
vn -0.4415 -0.7619 0.4739
vn 0.5807 0.4514 -0.6775
vn -0.2370 0.4151 0.8784
vn -0.1612 0.7602 0.6293
vn 0.1269 -0.4362 -0.8909
vn 0.1079 -0.7893 -0.6045
vn -0.0565 0.9665 0.2504
vn 0.0442 -0.9803 -0.1925
vn 0.0442 0.9803 -0.1925
vn -0.0565 -0.9665 0.2504
vn 0.1079 0.7893 -0.6045
vn -0.1612 -0.7602 0.6293
vn 0.1269 0.4362 -0.8909
vn -0.2370 -0.4152 0.8784
vn 0.3893 0.0000 -0.9211
vn 0.1266 0.0000 -0.9920
vn -0.4526 -0.0000 0.8917
vn -0.2642 -0.0000 0.9645
vn -0.0234 -0.7710 -0.6363
vn -0.0063 -0.9532 -0.3024
vn -0.0035 0.9737 0.2276
vn -0.0048 0.9734 -0.2291
vn -0.0046 -0.9525 0.3046
vn -0.0234 0.7710 -0.6363
vn -0.0131 -0.7751 0.6317
vn -0.0499 0.4201 -0.9061
vn -0.0233 -0.4267 0.9041
vn -0.0624 -0.0000 -0.9980
vn -0.0275 -0.0000 0.9996
vn -0.0233 0.4267 0.9041
vn -0.0499 -0.4201 -0.9061
vn -0.0131 0.7751 0.6317
vn 0.0000 0.9749 -0.2226
vn 0.0000 0.7817 -0.6237
vn 0.0000 -0.9558 0.2940
vn 0.0000 -0.7817 0.6237
vn 0.0000 0.4337 -0.9011
vn 0.0000 -0.4337 0.9011
vn 0.0000 0.4337 0.9011
vn 0.0000 -0.4337 -0.9011
vn 0.0000 0.7817 0.6237
vn 0.0000 -0.7817 -0.6237
vn 0.0000 0.9749 0.2226
vn 0.0000 -0.9546 -0.2980
vn 0.0000 -0.9558 -0.2940
vn 0.0000 -0.9546 0.2980
vn 0.0000 -0.4355 -0.9002
vn 0.0000 0.2182 0.9759
vn 0.0000 0.7794 0.6265
vn 0.0000 -0.7839 -0.6208
vn 0.0000 0.9739 0.2271
vn 0.0000 -0.9759 -0.2182
vn 0.0000 0.9759 -0.2182
vn 0.0000 -0.9739 0.2271
vn 0.0000 0.7839 -0.6208
vn 0.0000 -0.7794 0.6265
vn 0.0000 0.4355 -0.9002
vn 0.0000 -0.2182 0.9759
vn 0.0000 -0.2210 0.9753
vn 0.0000 0.2210 0.9753
vn 0.0000 -0.9759 0.2182
vn 0.0000 -0.9739 -0.2271
vn 0.0000 0.7794 -0.6265
vn 0.0000 0.9739 -0.2271
vn 0.0000 -0.7839 0.6208
vn 0.0000 0.4319 -0.9019
vn 0.0000 -0.4319 0.9019
vn 0.0000 0.4319 0.9019
vn 0.0000 -0.4319 -0.9019
vn 0.0000 0.7839 0.6208
vn 0.0000 -0.7794 -0.6265
vn 0.0000 0.9759 0.2182
vn -0.9179 -0.3238 -0.2292
vn -0.9211 -0.1802 -0.3451
vn -0.9211 -0.1809 -0.3448
vn -0.9179 -0.3246 -0.2282
vn -0.9084 0.4004 0.1203
vn -0.9039 0.3198 0.2839
vn -0.9039 0.3190 0.2849
vn -0.9084 0.4000 0.1219
vn -0.9134 -0.4022 -0.0628
vn -0.9134 -0.4025 -0.0612
vn -0.9134 0.4022 -0.0628
vn -0.9134 0.4025 -0.0612
vn -0.9084 -0.4004 0.1203
vn -0.9084 -0.4000 0.1219
vn -0.9179 0.3238 -0.2292
vn -0.9179 0.3246 -0.2282
vn -0.9039 -0.3198 0.2839
vn -0.9039 -0.3190 0.2849
vn -0.9211 0.1802 -0.3451
vn -0.9211 0.1809 -0.3448
vn -0.9009 -0.1770 0.3964
vn -0.9009 -0.1764 0.3967
vn -0.9222 0.0000 -0.3867
vn -0.8998 0.0000 0.4364
vn -0.9009 0.1770 0.3964
vn -0.9008 0.1764 0.3967
vn 0.0000 -0.9739 -0.2270
vn 0.0000 -0.9739 0.2270
vn 0.0000 -0.4355 0.9002
vn 0.0000 0.4355 0.9002
vn 0.9995 -0.0000 -0.0328
usemtl steel
s off
f 277//1 278//1 282//1 281//1
f 301//1 302//1 306//1 305//1
f 267//2 268//2 270//2 269//2
f 269//1 270//1 274//1 273//1
f 273//3 274//3 272//3 271//3
f 271//4 272//4 268//4 267//4
f 281//5 282//5 280//5 279//5
f 275//6 276//6 278//6 277//6
f 279//4 280//4 276//4 275//4
f 285//1 286//1 290//1 289//1
f 289//7 290//7 288//7 287//7
f 283//8 284//8 286//8 285//8
f 287//4 288//4 284//4 283//4
f 293//1 294//1 298//1 297//1
f 297//9 298//9 296//9 295//9
f 291//10 292//10 294//10 293//10
f 295//4 296//4 292//4 291//4
f 305//11 306//11 304//11 303//11
f 299//12 300//12 302//12 301//12
f 303//4 304//4 300//4 299//4
s 1
f 1//13 2//14 4//15 3//16
f 3//16 4//15 6//17 5//18
f 5//18 6//17 8//19 7//20
f 7//20 8//19 10//21 9//22
f 9//22 10//21 12//23 11//24
f 11//24 12//23 14//25 13//26
f 13//26 14//25 16//27 15//28
f 15//28 16//27 18//29 17//30
f 17//30 18//29 20//31 19//32
f 19//32 20//31 22//33 21//34
f 21//34 22//33 24//35 23//36
f 23//36 24//35 26//37 25//38
f 25//38 26//37 28//39 27//40
f 27//40 28//39 2//14 1//13
f 5//41 7//41 32//41 31//41
f 15//41 17//41 37//41 36//41
f 1//41 3//41 30//41 29//41
f 25//41 27//41 42//41 41//41
f 11//41 13//41 35//41 34//41
f 21//41 23//41 40//41 39//41
f 7//41 9//41 33//41 32//41
f 17//41 19//41 38//41 37//41
f 27//41 1//41 29//41 42//41
f 3//41 5//41 31//41 30//41
f 13//41 15//41 36//41 35//41
f 23//41 25//41 41//41 40//41
f 9//41 11//41 34//41 33//41
f 19//41 21//41 39//41 38//41
f 38//32 39//34 53//34 52//32
f 31//18 32//20 46//20 45//18
f 39//34 40//36 54//36 53//34
f 32//20 33//22 47//22 46//20
f 40//36 41//38 55//38 54//36
f 33//22 34//24 48//24 47//22
f 41//38 42//40 56//40 55//38
f 34//24 35//26 49//26 48//24
f 42//40 29//13 43//13 56//40
f 35//26 36//28 50//28 49//26
f 36//28 37//30 51//30 50//28
f 29//13 30//16 44//16 43//13
f 37//30 38//32 52//32 51//30
f 30//16 31//18 45//18 44//16
f 12//23 10//21 61//42 62//43
f 22//33 20//31 66//44 67//45
f 8//19 6//17 59//46 60//47
f 18//29 16//27 64//48 65//49
f 4//15 2//14 57//50 58//51
f 28//39 26//37 69//52 70//53
f 14//25 12//23 62//43 63//54
f 24//35 22//33 67//45 68//55
f 10//21 8//19 60//47 61//42
f 20//31 18//29 65//49 66//44
f 2//14 28//39 70//53 57//50
f 6//17 4//15 58//51 59//46
f 16//27 14//25 63//54 64//48
f 26//37 24//35 68//55 69//52
f 70//53 69//52 83//56 84//57
f 63//54 62//43 76//58 77//59
f 57//50 70//53 84//57 71//60
f 64//48 63//54 77//59 78//61
f 65//49 64//48 78//61 79//62
f 58//51 57//50 71//60 72//63
f 66//44 65//49 79//62 80//64
f 59//46 58//51 72//63 73//65
f 67//45 66//44 80//64 81//66
f 60//47 59//46 73//65 74//67
f 68//55 67//45 81//66 82//68
f 61//42 60//47 74//67 75//69
f 69//52 68//55 82//68 83//56
f 62//43 61//42 75//69 76//58
f 78//70 77//71 91//72 92//70
f 79//73 78//70 92//70 93//74
f 72//63 71//75 85//75 86//76
f 80//64 79//73 93//74 94//77
f 73//65 72//63 86//76 87//78
f 81//66 80//64 94//77 95//79
f 74//67 73//65 87//78 88//80
f 82//68 81//66 95//79 96//81
f 75//69 74//67 88//80 89//82
f 83//56 82//68 96//81 97//83
f 76//58 75//69 89//82 90//84
f 84//57 83//56 97//83 98//85
f 77//71 76//58 90//84 91//72
f 71//75 84//57 98//85 85//75
f 94//77 93//74 107//86 108//87
f 87//78 86//76 100//88 101//89
f 95//79 94//77 108//87 109//90
f 88//80 87//78 101//89 102//91
f 96//81 95//79 109//90 110//92
f 89//82 88//80 102//91 103//93
f 97//83 96//81 110//92 111//94
f 90//84 89//82 103//93 104//95
f 98//85 97//83 111//94 112//96
f 91//72 90//84 104//95 105//97
f 85//98 98//85 112//96 99//99
f 92//100 91//72 105//97 106//101
f 93//74 92//100 106//101 107//86
f 86//76 85//98 99//99 100//88
f 102//91 101//89 115//102 116//103
f 110//92 109//90 123//104 124//105
f 103//93 102//91 116//103 117//106
f 111//94 110//92 124//105 125//107
f 104//95 103//93 117//106 118//108
f 112//96 111//94 125//107 126//109
f 105//97 104//95 118//108 119//110
f 99//99 112//96 126//109 113//111
f 106//101 105//97 119//110 120//112
f 107//86 106//101 120//112 121//113
f 100//88 99//99 113//111 114//114
f 108//87 107//86 121//113 122//115
f 101//89 100//88 114//114 115//102
f 109//90 108//87 122//115 123//104
f 125//107 124//105 138//116 139//117
f 118//108 117//106 131//118 132//119
f 126//109 125//107 139//117 140//120
f 119//110 118//108 132//119 133//121
f 113//111 126//109 140//120 127//13
f 120//112 119//110 133//121 134//28
f 121//113 120//112 134//28 135//122
f 114//114 113//111 127//13 128//123
f 122//115 121//113 135//122 136//124
f 115//102 114//114 128//123 129//125
f 123//104 122//115 136//124 137//126
f 116//103 115//102 129//125 130//127
f 124//105 123//104 137//126 138//116
f 133//121 132//119 146//119 147//121
f 127//13 140//120 154//120 141//13
f 134//28 133//121 147//121 148//28
f 135//122 134//28 148//28 149//122
f 128//123 127//13 141//13 142//123
f 136//124 135//122 149//122 150//124
f 129//125 128//123 142//123 143//125
f 137//126 136//124 150//124 151//126
f 130//127 129//125 143//125 144//128
f 138//116 137//126 151//126 152//116
f 131//118 130//127 144//128 145//129
f 139//117 138//116 152//116 153//117
f 132//119 131//118 145//129 146//119
f 140//120 139//117 153//117 154//120
f 149//122 148//28 162//28 163//122
f 142//123 141//13 155//13 156//123
f 150//124 149//122 163//122 164//124
f 143//125 142//123 156//123 157//125
f 151//126 150//124 164//124 165//126
f 144//128 143//125 157//125 158//127
f 152//116 151//126 165//126 166//116
f 153//117 152//116 166//116 167//117
f 146//119 145//129 159//118 160//119
f 154//120 153//117 167//117 168//120
f 147//121 146//119 160//119 161//121
f 141//13 154//120 168//120 155//13
f 148//28 147//121 161//121 162//28
f 157//125 156//123 170//123 171//125
f 165//126 164//124 178//124 179//126
f 158//127 157//125 171//125 172//128
f 166//116 165//126 179//126 180//116
f 159//118 158//127 172//128 173//129
f 167//117 166//116 180//116 181//117
f 160//119 159//118 173//129 174//119
f 168//120 167//117 181//117 182//120
f 161//121 160//119 174//119 175//121
f 155//13 168//120 182//120 169//13
f 162//28 161//121 175//121 176//28
f 163//122 162//28 176//28 177//122
f 156//123 155//13 169//13 170//123
f 164//124 163//122 177//122 178//124
f 180//116 179//126 193//126 194//116
f 181//117 180//116 194//116 195//117
f 174//119 173//129 187//118 188//119
f 182//120 181//117 195//117 196//120
f 175//121 174//119 188//119 189//121
f 169//13 182//120 196//120 183//13
f 176//28 175//121 189//121 190//28
f 177//122 176//28 190//28 191//122
f 170//123 169//13 183//13 184//123
f 178//124 177//122 191//122 192//124
f 171//125 170//123 184//123 185//125
f 179//126 178//124 192//124 193//126
f 172//128 171//125 185//125 186//127
f 188//119 187//118 201//129 202//119
f 196//120 195//117 209//117 210//120
f 189//121 188//119 202//119 203//121
f 183//13 196//120 210//120 197//13
f 190//28 189//121 203//121 204//28
f 191//122 190//28 204//28 205//122
f 184//123 183//13 197//13 198//123
f 192//124 191//122 205//122 206//124
f 185//125 184//123 198//123 199//125
f 193//126 192//124 206//124 207//126
f 186//127 185//125 199//125 200//128
f 194//116 193//126 207//126 208//116
f 187//118 186//127 200//128 201//129
f 195//117 194//116 208//116 209//117
f 197//13 210//120 224//120 211//13
f 204//28 203//121 217//121 218//28
f 205//122 204//28 218//28 219//122
f 198//123 197//13 211//13 212//123
f 206//124 205//122 219//122 220//124
f 199//125 198//123 212//123 213//125
f 207//126 206//124 220//124 221//126
f 200//128 199//125 213//125 214//127
f 208//116 207//126 221//126 222//116
f 209//117 208//116 222//116 223//117
f 202//119 201//129 215//118 216//119
f 210//120 209//117 223//117 224//120
f 203//121 202//119 216//119 217//121
f 212//123 211//13 225//13 226//130
f 220//124 219//122 233//131 234//132
f 213//125 212//123 226//130 227//133
f 221//126 220//124 234//132 235//134
f 214//127 213//125 227//133 228//135
f 222//116 221//126 235//134 236//136
f 215//118 214//127 228//135 229//137
f 223//117 222//116 236//136 237//138
f 216//119 215//118 229//137 230//139
f 224//120 223//117 237//138 238//140
f 217//121 216//119 230//139 231//141
f 211//13 224//120 238//140 225//13
f 218//28 217//121 231//141 232//28
f 219//122 218//28 232//28 233//131
f 235//28 234//28 248//28 249//28
f 228//28 227//28 241//28 242//28
f 236//28 235//28 249//28 250//28
f 229//28 228//28 242//28 243//28
f 237//28 236//28 250//28 251//28
f 230//28 229//28 243//28 244//28
f 238//28 237//28 251//28 252//28
f 231//141 230//28 244//28 245//142
f 225//28 238//28 252//28 239//28
f 232//28 231//141 245//142 246//28
f 233//131 232//28 246//28 247//143
f 226//28 225//28 239//28 240//28
f 234//28 233//131 247//143 248//28
f 227//28 226//28 240//28 241//28
f 243//144 242//145 256//135 257//137
f 251//146 250//147 264//136 265//138
f 244//148 243//144 257//137 258//139
f 252//149 251//146 265//138 266//140
f 245//142 244//148 258//139 259//150
f 239//13 252//149 266//140 253//13
f 246//28 245//142 259//150 260//28
f 247//143 246//28 260//28 261//151
f 240//152 239//13 253//13 254//130
f 248//153 247//143 261//151 262//132
f 241//154 240//152 254//130 255//133
f 249//155 248//153 262//132 263//134
f 242//145 241//154 255//133 256//135
f 250//147 249//155 263//134 264//136
f 255//156 254//157 308//158 309//159
f 263//160 262//161 316//162 317//163
f 256//164 255//156 309//159 310//165
f 264//166 263//160 317//163 318//167
f 257//168 256//164 310//165 311//169
f 265//170 264//166 318//167 319//171
f 258//172 257//168 311//169 312//173
f 266//174 265//170 319//171 320//175
f 259//176 258//172 312//173 313//177
f 253//178 266//174 320//175 307//178
f 260//179 259//176 313//177 314//179
f 261//180 260//179 314//179 315//181
f 254//157 253//178 307//178 308//158
f 262//161 261//180 315//181 316//162
f 317//155 316//153 330//132 331//134
f 310//182 309//154 323//133 324//135
f 318//147 317//155 331//134 332//136
f 311//144 310//182 324//135 325//183
f 319//146 318//147 332//136 333//138
f 312//148 311//144 325//183 326//139
f 320//149 319//146 333//138 334//140
f 313//184 312//148 326//139 327//150
f 307//13 320//149 334//140 321//13
f 314//28 313//184 327//150 328//28
f 315//185 314//28 328//28 329//151
f 308//152 307//13 321//13 322//130
f 316//153 315//185 329//151 330//132
f 309//154 308//152 322//130 323//133
f 322//186 321//186 334//186 333//186 332//186 331//186 330//186 329//186 328//186 327//186 326//186 325//186 324//186 323//186
