# Blender v2.79 (sub 0) OBJ File: 'model.blend'
# www.blender.org
mtllib wal2.mtl
o walls.002_Cube.021
v -3.850564 -1.032812 -3.005889
v -3.850564 2.589459 -3.005889
v 3.850564 -1.032812 -3.005889
v 3.850564 2.589459 -3.005889
v -3.850564 -0.275956 -3.005889
v -3.850564 1.682044 -3.005889
v -3.850564 1.477960 -3.005889
v 3.850564 1.477960 -3.005889
v 3.850564 1.177960 -3.005889
vn 0.0000 0.0000 1.0000
usemtl Material
s off
f 1//1 3//1 9//1 8//1 7//1 5//1
usemtl white_chalk
f 7//1 8//1 4//1 2//1 6//1
