# Blender v2.79 (sub 0) OBJ File: 'model.blend'
# www.blender.org
mtllib wall4.mtl
o walls_Cube.009
v -3.850564 -1.032812 7.289763
v -3.850564 2.589459 7.289763
v -3.850564 -1.032812 -3.005889
v -3.850564 2.589459 -3.005889
v -3.850564 -0.275956 7.289763
v -3.850564 -0.275956 -3.005889
v -3.850564 1.682044 7.289763
v -3.850564 1.682044 -3.005889
v -3.850564 -0.275956 0.158389
v -3.850564 1.682044 0.158389
v -3.850564 -0.275956 -1.341611
v -3.850564 1.682044 -1.341611
v -3.850564 -0.275956 2.958389
v -3.850564 1.682044 2.958389
v -4.350564 -0.275956 -1.341611
v -4.350564 -0.275956 0.158389
v -4.350564 1.682044 -1.341611
v -4.350564 1.682044 0.158389
v -3.850564 -0.275956 1.458389
v -3.850564 1.682044 1.458389
v -4.350564 -0.275956 1.458389
v -4.350564 -0.275956 2.958389
v -4.350564 1.682044 1.458389
v -4.350564 1.682044 2.958389
v -3.850564 -0.275956 4.258389
v -3.850564 1.682044 4.258389
v -3.850564 -0.275956 5.758389
v -3.850564 1.682044 5.758389
v -4.350564 -0.275956 4.258389
v -4.350564 1.682044 4.258389
v -4.350564 -0.275956 5.758389
v -4.350564 1.682044 5.758389
v -3.850564 1.477960 7.289763
v -3.850564 1.477960 5.758389
v -3.850564 1.477960 2.958389
v -3.850564 1.477960 4.258389
v -3.850564 1.477960 0.158389
v -3.850564 1.477960 1.458389
v -3.850564 1.477960 -3.005889
v -3.850564 1.477960 -1.341611
v -3.850564 2.589459 3.695785
v -3.850564 2.589459 0.258389
v -3.850564 2.589459 0.658389
v -3.850564 2.589459 4.330541
vn 1.0000 0.0000 0.0000
vn 0.0000 0.0000 1.0000
vn 0.0000 -1.0000 0.0000
vn 0.0000 0.0000 -1.0000
vn 0.0000 1.0000 0.0000
usemtl Material
s off
f 1//1 3//1 6//1 11//1 9//1 19//1 13//1 25//1 27//1 5//1
f 5//1 27//1 34//1 33//1
f 25//1 13//1 35//1 36//1
f 19//1 9//1 37//1 38//1
f 11//1 6//1 39//1 40//1
usemtl white_chalk
f 7//1 28//1 26//1 14//1 20//1 10//1 12//1 8//1 4//1 42//1 43//1 41//1 44//1 2//1
f 40//1 39//1 8//1 12//1
f 38//1 37//1 10//1 20//1
f 11//2 40//2 12//2 17//2 15//2
f 36//1 35//1 14//1 26//1
f 12//3 10//3 18//3 17//3
f 10//4 37//4 9//4 16//4 18//4
f 9//5 11//5 15//5 16//5
f 14//4 35//4 13//4 22//4 24//4
f 19//2 38//2 20//2 23//2 21//2
f 13//5 19//5 21//5 22//5
f 20//3 14//3 24//3 23//3
f 25//2 36//2 26//2 30//2 29//2
f 33//1 34//1 28//1 7//1
f 28//4 34//4 27//4 31//4 32//4
f 27//5 25//5 29//5 31//5
f 26//3 28//3 32//3 30//3
