# Blender v2.79 (sub 0) OBJ File: 'model.blend'
# www.blender.org
mtllib wall3.mtl
o walls.003_Cube.022
v 3.850564 -1.032812 7.289763
v 3.850564 2.589459 7.289763
v 3.850564 -1.032812 -3.005889
v 3.850564 2.589459 -3.005889
v 3.850564 1.477960 -3.005889
v 3.850564 1.477960 7.289763
v 3.850564 1.177960 -3.005889
v 3.850564 1.177960 7.289763
v 3.850564 -1.032812 3.377286
v 3.850564 1.177960 3.377286
v 3.850564 -1.032812 2.090330
v 3.850564 1.177960 2.090330
v 4.050563 -1.032812 3.377286
v 4.050563 1.177960 3.377286
v 4.050563 -1.032812 2.090330
v 4.050563 1.177960 2.090330
v 3.850564 2.589459 3.695785
v 3.850564 2.589459 0.258389
v 3.850564 2.589459 0.658389
v 3.850564 2.589459 4.330541
vn -1.0000 0.0000 0.0000
vn 0.0000 -1.0000 0.0000
vn 0.0000 0.0000 -1.0000
vn 0.0000 0.0000 1.0000
vn 0.0000 1.0000 0.0000
usemtl Material
s off
f 7//1 12//1 10//1 8//1 6//1 5//1
f 9//1 1//1 8//1 10//1
f 10//2 12//2 16//2 14//2
f 3//1 11//1 12//1 7//1
f 15//1 13//1 14//1 16//1
f 9//3 10//3 14//3 13//3
f 12//4 11//4 15//4 16//4
f 11//5 9//5 13//5 15//5
usemtl white_chalk
f 5//1 6//1 2//1 20//1 17//1 19//1 18//1 4//1
