# Blender v2.79 (sub 0) OBJ File: 'model.blend'
# www.blender.org
mtllib wals.mtl
o Cube.013_Cube.009
v -3.850564 -1.032812 7.289763
v -3.850564 2.589459 7.289763
v -3.850564 -1.032812 -3.005889
v -3.850564 2.589459 -3.005889
v 3.850564 -1.032812 7.289763
v 3.850564 2.589459 7.289763
v 3.850564 -1.032812 -3.005889
v 3.850564 2.589459 -3.005889
v -3.850564 -0.275956 7.289763
v -3.850564 -0.275956 -3.005889
v -3.850564 1.682044 7.289763
v -3.850564 1.682044 -3.005889
v -3.850564 -0.275956 0.158389
v -3.850564 1.682044 0.158389
v -3.850564 -0.275956 -1.341611
v -3.850564 1.682044 -1.341611
v -3.850564 -0.275956 2.958389
v -3.850564 1.682044 2.958389
v -4.350564 -0.275956 -1.341611
v -4.350564 -0.275956 0.158389
v -4.350564 1.682044 -1.341611
v -4.350564 1.682044 0.158389
v -3.850564 -0.275956 1.458389
v -3.850564 1.682044 1.458389
v -4.350564 -0.275956 1.458389
v -4.350564 -0.275956 2.958389
v -4.350564 1.682044 1.458389
v -4.350564 1.682044 2.958389
v -3.850564 -0.275956 4.258389
v -3.850564 1.682044 4.258389
v -3.850564 -0.275956 5.758389
v -3.850564 1.682044 5.758389
v -4.350564 -0.275956 4.258389
v -4.350564 1.682044 4.258389
v -4.350564 -0.275956 5.758389
v -4.350564 1.682044 5.758389
v -3.850564 1.477960 7.289763
v -3.850564 1.477960 5.758389
v -3.850564 1.477960 2.958389
v -3.850564 1.477960 4.258389
v -3.850564 1.477960 0.158389
v -3.850564 1.477960 1.458389
v -3.850564 1.477960 -3.005889
v -3.850564 1.477960 -1.341611
v 3.850564 1.477960 -3.005889
v 3.850564 1.477960 7.289763
v 3.850564 1.177960 -3.005889
v 3.850564 1.177960 7.289763
v 3.850564 -1.032812 3.377286
v 3.850564 1.177960 3.377286
v 3.850564 -1.032812 2.090330
v 3.850564 1.177960 2.090330
v 4.050563 -1.032812 3.377286
v 4.050563 1.177960 3.377286
v 4.050563 -1.032812 2.090330
v 4.050563 1.177960 2.090330
v -3.850564 2.589459 3.695785
v 3.850564 2.589459 3.695785
v -3.850564 2.589459 0.258389
v 3.850564 2.589459 0.258389
v 3.850564 2.589459 0.658389
v -3.850564 2.589459 0.658389
v -3.850564 2.389459 0.658389
v -3.850564 2.389459 0.258389
v 3.850564 2.389459 0.258389
v 3.850564 2.389459 0.658389
v 3.850564 2.589459 4.330541
v -3.850564 2.589459 4.330541
v -3.850564 2.389459 4.330541
v -3.850564 2.389459 3.695785
v 3.850564 2.389459 3.695785
v 3.850564 2.389459 4.330541
vn 0.0000 0.0000 1.0000
vn -1.0000 0.0000 0.0000
vn 0.0000 0.0000 -1.0000
vn 0.0000 1.0000 0.0000
vn 1.0000 0.0000 0.0000
vn 0.0000 -1.0000 0.0000
usemtl Material
s off
f 3//1 7//1 47//1 45//1 43//1 10//1
f 47//2 52//2 50//2 48//2 46//2 45//2
f 5//3 1//3 9//3 37//3 46//3 48//3
f 3//4 1//4 5//4 49//4 51//4 7//4
f 1//5 3//5 10//5 15//5 13//5 23//5 17//5 29//5 31//5 9//5
f 9//5 31//5 38//5 37//5
f 29//5 17//5 39//5 40//5
f 23//5 13//5 41//5 42//5
f 15//5 10//5 43//5 44//5
f 49//2 5//2 48//2 50//2
f 50//6 52//6 56//6 54//6
f 7//2 51//2 52//2 47//2
f 55//2 53//2 54//2 56//2
f 49//3 50//3 54//3 53//3
f 52//1 51//1 55//1 56//1
f 51//4 49//4 53//4 55//4
usemtl white_chalk
f 11//5 32//5 30//5 18//5 24//5 14//5 16//5 12//5 4//5 59//5 62//5 57//5 68//5 2//5
f 67//6 6//6 2//6 68//6
f 44//5 43//5 12//5 16//5
f 42//5 41//5 14//5 24//5
f 15//1 44//1 16//1 21//1 19//1
f 40//5 39//5 18//5 30//5
f 16//6 14//6 22//6 21//6
f 14//3 41//3 13//3 20//3 22//3
f 13//4 15//4 19//4 20//4
f 18//3 39//3 17//3 26//3 28//3
f 23//1 42//1 24//1 27//1 25//1
f 17//4 23//4 25//4 26//4
f 24//6 18//6 28//6 27//6
f 29//1 40//1 30//1 34//1 33//1
f 37//5 38//5 32//5 11//5
f 32//3 38//3 31//3 35//3 36//3
f 31//4 29//4 33//4 35//4
f 30//6 32//6 36//6 34//6
f 43//1 45//1 8//1 4//1 12//1
f 46//3 37//3 11//3 2//3 6//3
f 45//2 46//2 6//2 67//2 58//2 61//2 60//2 8//2
f 61//6 58//6 57//6 62//6
f 8//6 60//6 59//6 4//6
f 61//1 62//1 63//1 66//1
f 65//6 66//6 63//6 64//6
f 67//1 68//1 69//1 72//1
f 59//3 60//3 65//3 64//3
f 71//6 72//6 69//6 70//6
f 57//3 58//3 71//3 70//3
