# Blender v2.79 (sub 0) OBJ File: 'model.blend'
# www.blender.org
mtllib window.mtl
o Cube.013_Cube.023
v -0.029333 -0.932608 0.723894
v -0.029333 0.961476 0.723894
v -0.029333 -0.932608 -0.740344
v -0.029333 0.961476 -0.740344
v 0.025000 -0.932608 0.723894
v 0.025000 0.961476 0.723894
v 0.025000 -0.932608 -0.740344
v 0.025000 0.961476 -0.740344
v -0.029333 -0.897505 -0.703738
v -0.029333 -0.897505 0.687288
v -0.029333 0.926373 0.687288
v -0.029333 0.926373 -0.703738
v 0.025000 -0.897505 -0.703738
v 0.025000 -0.897505 0.687288
v 0.025000 0.926373 0.687288
v 0.025000 0.926373 -0.703738
v -0.029333 0.174026 0.687288
v 0.025000 0.174026 0.687288
v -0.029333 0.202600 0.687288
v 0.025000 0.202600 0.687288
v -0.029333 0.174026 -0.703738
v 0.025000 0.174026 -0.703738
v -0.029333 0.202600 -0.703738
v 0.025000 0.202600 -0.703738
v -0.029333 -0.984994 -0.740344
v -0.029333 -0.984994 0.723894
v 0.025000 -0.984994 -0.740344
v 0.025000 -0.984994 0.723894
v 0.268858 -0.984994 0.723894
v 0.268858 -0.984994 -0.740344
v 0.268858 -0.951837 0.723894
v 0.249628 -0.932608 0.723894
v 0.249628 -0.932608 -0.740344
v 0.268858 -0.951837 -0.740344
v -0.003445 -0.897505 -0.703738
v -0.003445 -0.897505 0.687288
v -0.003445 0.174026 0.687288
v -0.003445 0.174026 -0.703738
v -0.003445 0.926373 0.687288
v -0.003445 0.926373 -0.703738
v -0.003445 0.202600 0.687288
v -0.003445 0.202600 -0.703738
vn -1.0000 0.0000 0.0000
vn 0.0000 0.0000 -1.0000
vn 0.0000 0.0000 1.0000
vn 0.0000 1.0000 0.0000
vn 0.0000 -1.0000 0.0000
vn 1.0000 -0.0000 0.0000
vn 0.9239 0.3827 0.0000
vn 0.3827 0.9239 0.0000
usemtl buuton
s 1
f 4//1 3//1 9//1 21//1 23//1 12//1
f 3//2 4//2 8//2 7//2
f 5//3 6//3 2//3 1//3
f 5//3 1//3 26//3 28//3
f 8//4 4//4 2//4 6//4
f 11//5 12//5 16//5 15//5
f 1//1 2//1 11//1 19//1 17//1 10//1
f 2//1 4//1 12//1 11//1
f 3//1 1//1 10//1 9//1
f 9//4 10//4 14//4 13//4
f 21//3 9//3 13//3 22//3
f 19//2 11//2 15//2 20//2
f 14//6 5//6 7//6 13//6
f 8//6 16//6 24//6 22//6 13//6 7//6
f 16//6 8//6 6//6 15//6
f 15//6 6//6 5//6 14//6 18//6 20//6
f 10//2 17//2 18//2 14//2
f 17//1 19//1 23//1 21//1
f 20//6 18//6 22//6 24//6
f 12//3 23//3 24//3 16//3
f 20//4 24//4 23//4 19//4
f 18//5 17//5 21//5 22//5
f 25//5 27//5 28//5 26//5
f 3//2 7//2 27//2 25//2
f 1//1 3//1 25//1 26//1
f 5//3 28//3 29//3 31//3 32//3
f 28//5 27//5 30//5 29//5
f 27//2 7//2 33//2 34//2 30//2
f 34//7 31//7 29//6 30//6
f 31//7 34//7 33//8 32//8
f 7//4 5//4 32//8 33//8
usemtl glass
s off
f 35//6 38//6 37//6 36//6
f 39//6 41//6 42//6 40//6
