# Blender v2.79 (sub 0) OBJ File: 'model.blend'
# www.blender.org
mtllib corpus_000.mtl
o Cube
v -0.190487 -0.196500 -0.155000
v -0.190487 -0.196500 0.155000
v -0.245387 -0.196500 0.155000
v -0.245387 -0.196500 -0.155000
v -0.190487 0.196500 -0.139500
v -0.190487 0.196500 0.139500
v -0.245387 0.196500 0.139500
v -0.245387 0.196500 -0.139500
v -0.270888 -0.176850 0.139500
v -0.270888 -0.176850 -0.139500
v -0.265387 0.176850 0.125550
v -0.265387 0.176850 -0.125550
v 0.190487 -0.196500 -0.155000
v 0.190487 -0.196500 0.155000
v 0.245387 -0.196500 0.155000
v 0.245387 -0.196500 -0.155000
v 0.190487 0.196500 -0.139500
v 0.190487 0.196500 0.139500
v 0.245387 0.196500 0.139500
v 0.245387 0.196500 -0.139500
v 0.270888 -0.176850 0.139500
v 0.270888 -0.176850 -0.139500
v 0.265387 0.176850 0.125550
v 0.265387 0.176850 -0.125550
v -0.190487 -0.111270 0.151492
v -0.190487 -0.111270 -0.151641
v 0.190487 -0.111270 -0.151488
v 0.190487 -0.111270 0.151381
v -0.190487 0.133046 -0.142341
v -0.190487 0.133046 0.142493
v 0.190487 0.133046 -0.141886
v 0.190487 0.133046 0.141977
v -0.190487 0.090564 0.143972
v -0.190487 0.090564 -0.143780
v 0.190487 0.090564 0.143821
v 0.190487 0.090564 -0.143617
v -0.035500 0.090564 0.143896
v 0.035500 0.090564 0.143859
v -0.035500 -0.111270 0.151436
v 0.035500 -0.111270 0.151408
v 0.035498 -0.111525 0.138385
v 0.190486 -0.111524 0.138357
v -0.190489 -0.111528 0.138468
v -0.190489 0.090444 0.137573
v 0.190486 0.090449 0.137422
v 0.035498 0.090448 0.137460
v -0.035502 0.090447 0.137498
v -0.035502 -0.111526 0.138412
vt 0.712067 0.829328
vt 0.976952 0.829328
vt 0.976952 0.871761
vt 0.712067 0.871761
vt 0.095447 0.403491
vt 0.044835 0.403491
vt 0.044835 0.083255
vt 0.095447 0.083255
vt 0.712067 0.534868
vt 0.976952 0.534868
vt 0.098928 0.026626
vt 0.098928 0.117528
vt 0.098928 0.332793
vt 0.098928 0.378101
vt 0.098928 0.445778
vt 0.036516 0.445778
vt 0.036516 0.026626
vt 0.678740 0.038285
vt 0.943870 0.038285
vt 0.930613 0.059592
vt 0.691996 0.059592
vt 0.536663 0.901856
vt 0.536663 0.833757
vt 0.536663 0.788166
vt 0.536663 0.571558
vt 0.536663 0.480089
vt 0.599105 0.480089
vt 0.599105 0.901856
vt 0.918683 0.443114
vt 0.703927 0.443114
vt 0.013780 0.424820
vt 0.007527 0.047584
vt 0.930613 0.464420
vt 0.691996 0.464420
vt 0.628109 0.501178
vt 0.621853 0.880768
vt 0.712067 0.492435
vt 0.976952 0.492435
vt 0.532730 0.403491
vt 0.532730 0.083255
vt 0.580243 0.083255
vt 0.580243 0.403491
vt 0.532027 0.026626
vt 0.532027 0.117528
vt 0.355835 0.117528
vt 0.275120 0.117528
vt 0.594439 0.026626
vt 0.594439 0.445778
vt 0.532027 0.445778
vt 0.532027 0.378101
vt 0.532027 0.332793
vt 0.948612 0.036170
vt 0.934798 0.057840
vt 0.686143 0.057840
vt 0.672329 0.036170
vt 0.103351 0.901856
vt 0.040909 0.901856
vt 0.040909 0.480089
vt 0.103351 0.480089
vt 0.103351 0.571558
vt 0.103351 0.788166
vt 0.103351 0.833757
vt 0.922365 0.447888
vt 0.698576 0.447888
vt 0.623428 0.047584
vt 0.617175 0.424820
vt 0.686143 0.469557
vt 0.934798 0.469557
vt 0.018162 0.880768
vt 0.011906 0.501178
vt 0.839588 0.557401
vt 0.839588 0.796952
vt 0.719813 0.794562
vt 0.719813 0.559918
vt 0.959363 0.796135
vt 0.839588 0.794052
vt 0.839588 0.559408
vt 0.959363 0.557401
vt 0.970696 0.882144
vt 0.715863 0.882144
vt 0.716324 0.506659
vt 0.970288 0.506659
vt 0.275120 0.332793
vt 0.355835 0.332793
vt 0.532025 0.117256
vt 0.355833 0.117255
vt 0.355833 0.332669
vt 0.098926 0.117252
vt 0.275118 0.117254
vt 0.275118 0.332667
vt 0.098926 0.332665
vt 0.532025 0.332670
vn 0.0000 -1.0000 0.0000
vn -0.2683 -0.9633 0.0000
vn 0.0000 1.0000 0.0000
vn -0.3523 0.6782 -0.6450
vn -0.3524 0.6781 0.6449
vn -0.0009 0.0406 0.9992
vn -0.0012 0.0402 0.9992
vn -0.0010 0.0392 0.9992
vn -0.0019 0.0394 0.9992
vn -0.2165 0.0401 0.9754
vn -0.8587 -0.3263 0.3952
vn -0.8587 -0.3263 -0.3952
vn -0.0014 0.0394 -0.9992
vn -0.0007 0.0387 -0.9993
vn -0.0004 0.0388 -0.9992
vn -0.0006 0.0395 -0.9992
vn -0.0006 0.0398 -0.9992
vn -0.2163 0.0401 -0.9755
vn -0.8672 0.3179 0.3832
vn -0.8672 0.3179 -0.3832
vn 0.2683 -0.9633 0.0000
vn 0.3513 0.6784 0.6452
vn 0.3511 0.6785 -0.6453
vn -0.0004 0.0406 0.9992
vn -0.0006 0.0402 0.9992
vn 0.0003 0.0404 0.9992
vn 0.2148 0.0401 0.9758
vn -0.0010 0.0394 0.9992
vn -0.0004 0.0392 0.9992
vn 0.8587 -0.3263 -0.3952
vn 0.8587 -0.3263 0.3952
vn -0.0016 0.0394 -0.9992
vn 0.2144 0.0401 -0.9759
vn -0.0007 0.0398 -0.9992
vn -0.0007 0.0395 -0.9992
vn -0.0005 0.0388 -0.9992
vn -0.0008 0.0387 -0.9993
vn 0.8672 0.3179 -0.3832
vn 0.8672 0.3179 0.3832
vn 1.0000 0.0000 0.0000
vn -1.0000 0.0000 0.0000
vn 0.0007 0.0383 0.9993
vn -0.0000 0.9998 -0.0196
vn 1.0000 -0.0000 -0.0002
vn 0.0004 0.0045 1.0000
vn 0.0002 0.0046 1.0000
vn -1.0000 0.0000 0.0002
vn 0.0000 -0.9998 0.0181
vn -0.0000 0.9998 -0.0197
vn 0.0000 -0.9998 0.0186
usemtl Material
s 1
f 1/1/1 2/2/1 3/3/2 4/4/2
f 5/5/3 8/6/4 7/7/5 6/8/3
f 2/2/1 1/1/1 13/9/1 14/10/1
f 2/11/6 25/12/7 33/13/8 30/14/8 6/15/9 7/16/5 3/17/10
f 4/18/2 3/19/2 9/20/11 10/21/12
f 5/22/13 29/23/14 34/24/15 26/25/16 1/26/17 4/27/18 8/28/4
f 9/20/11 11/29/19 12/30/20 10/21/12
f 3/17/10 7/16/5 11/31/19 9/32/11
f 7/33/5 8/34/4 12/30/20 11/29/19
f 8/28/4 4/27/18 10/35/12 12/36/20
f 13/9/1 16/37/21 15/38/21 14/10/1
f 17/39/3 18/40/3 19/41/22 20/42/23
f 25/12/7 2/11/6 14/43/24 28/44/25 40/45/26 39/46/26
f 14/43/24 15/47/27 19/48/22 18/49/28 32/50/29 35/51/29 28/44/25
f 16/52/21 22/53/30 21/54/31 15/55/21
f 17/56/32 20/57/23 16/58/33 13/59/34 27/60/35 36/61/36 31/62/37
f 21/54/31 22/53/30 24/63/38 23/64/39
f 15/47/27 21/65/31 23/66/39 19/48/22
f 19/67/22 23/64/39 24/63/38 20/68/23
f 20/57/23 24/69/38 22/70/30 16/58/33
f 30/71/40 29/72/40 5/73/40 6/74/40
f 32/75/41 18/76/41 17/77/41 31/78/41
f 29/79/3 30/80/3 32/81/3 31/82/3
f 30/14/8 33/13/8 37/83/42 38/84/42 35/51/29 32/50/29
f 29/23/14 31/62/37 36/61/36 34/24/15
f 27/60/35 26/25/16 34/24/15 36/61/36
f 26/25/16 27/60/35 13/59/34 1/26/17
f 38/84/42 37/83/42 39/46/26 40/45/26
f 40/45/43 28/44/43 42/85/43 41/86/43
f 38/84/44 40/45/44 41/86/44 46/87/44
f 43/88/45 48/89/45 47/90/45 44/91/45
f 46/87/46 41/86/46 42/85/46 45/92/46
f 28/44/47 35/51/47 45/92/47 42/85/47
f 35/51/48 38/84/48 46/87/48 45/92/48
f 39/46/47 37/83/47 47/90/47 48/89/47
f 25/12/49 39/46/49 48/89/49 43/88/49
f 37/83/50 33/13/50 44/91/50 47/90/50
f 33/13/44 25/12/44 43/88/44 44/91/44
