# Blender v2.79 (sub 0) OBJ File: 'model.blend'
# www.blender.org
mtllib corpus_001.mtl
o Corpus_001_Cube.004
v -0.190487 -0.196500 -0.155000
v -0.245387 -0.196500 -0.155000
v -0.190487 0.196500 -0.139500
v -0.245387 0.196500 -0.139500
v 0.190487 -0.196500 -0.155000
v 0.245387 -0.196500 -0.155000
v 0.190487 0.196500 -0.139500
v 0.245387 0.196500 -0.139500
v -0.190487 -0.111270 -0.151641
v 0.190487 -0.111270 -0.151488
v -0.190487 0.125086 -0.142341
v -0.190487 0.133046 0.142493
v 0.190487 0.125086 -0.141886
v 0.190487 0.133046 0.141977
v -0.190487 0.090564 -0.143780
v 0.190487 0.090564 -0.143617
v -0.190487 0.196500 0.129500
v -0.190487 0.186511 0.139971
v -0.245387 0.186508 0.139894
v -0.245387 0.196500 0.129500
v 0.190487 0.186508 0.139890
v 0.190487 0.196500 0.129500
v 0.245387 0.196500 0.129500
v 0.245387 0.186508 0.139894
v -0.190487 -0.181513 0.154383
v -0.190487 -0.196500 0.140000
v -0.245387 -0.196500 0.140000
v -0.245387 -0.181512 0.154409
v 0.190487 -0.196500 0.140000
v 0.190487 -0.181514 0.154364
v 0.245387 -0.181512 0.154409
v 0.245387 -0.196500 0.140000
v -0.190487 0.125086 0.120924
v 0.190487 0.125086 0.120924
v -0.190487 -0.196500 0.134816
v 0.190487 -0.196500 0.134816
v -0.190487 0.125086 0.135929
v 0.190487 0.125086 0.135671
v -0.190487 0.099253 0.135929
v 0.190487 0.099253 0.135671
v -0.190487 0.089253 0.125929
v 0.190487 0.089253 0.125671
v -0.190487 0.089253 0.122608
v 0.190487 0.089253 0.122350
v -0.190487 -0.196500 0.135846
v 0.190487 -0.196500 0.135846
v -0.190487 -0.181500 0.150846
v 0.190487 -0.181500 0.150846
v -0.190487 -0.161500 0.150846
v 0.190487 -0.161500 0.150846
v -0.190487 -0.161500 0.145846
v 0.190487 -0.161500 0.145846
v -0.190487 -0.126500 0.145846
v 0.190487 -0.126500 0.145846
v -0.190487 -0.116500 0.135846
v 0.190487 -0.116500 0.135846
v -0.190487 -0.116500 0.131846
v 0.190487 -0.116500 0.131846
v -0.035000 0.099253 0.135800
v -0.035000 0.089253 0.125800
v -0.035000 0.089253 0.122479
v 0.035000 0.099253 0.135736
v 0.035000 0.089253 0.125736
v 0.035000 0.089253 0.122415
v -0.035000 -0.126500 0.145846
v -0.035000 -0.116500 0.135846
v -0.035000 -0.116500 0.131846
v 0.035000 -0.126500 0.145846
v 0.035000 -0.116500 0.135846
v 0.035000 -0.116500 0.131846
v -0.035000 0.095253 0.139800
v 0.035000 0.095253 0.139736
v -0.035000 -0.123500 0.148846
v 0.035000 -0.123500 0.148846
v -0.264518 -0.190101 -0.155000
v -0.259905 0.190156 -0.139500
v -0.259905 0.180487 0.135143
v -0.259905 0.190156 0.125269
v -0.264518 -0.190101 0.135244
v -0.264518 -0.175599 0.148933
v -0.269518 -0.180555 -0.155000
v -0.264905 0.180689 -0.139500
v -0.264905 0.171505 0.130636
v -0.264905 0.180689 0.120761
v -0.269518 -0.180555 0.130737
v -0.269518 -0.166778 0.144425
v 0.264517 -0.190101 -0.155000
v 0.259905 0.190156 -0.139500
v 0.259905 0.180487 0.135143
v 0.259905 0.190156 0.125269
v 0.264517 -0.190101 0.135244
v 0.264517 -0.175599 0.148933
v 0.269517 -0.180555 -0.155000
v 0.264905 0.180689 -0.139500
v 0.264905 0.171505 0.130636
v 0.264905 0.180689 0.120761
v 0.269517 -0.180555 0.130737
v 0.269517 -0.166778 0.144425
v -0.190487 0.130086 0.135929
v -0.190487 0.130086 0.120924
v 0.190487 0.130086 0.135671
v 0.190487 0.130086 0.120924
vt 0.098456 0.049930
vt 0.098551 0.361919
vt 0.098565 0.414969
vt 0.049593 0.414985
vt 0.049485 0.049948
vt 0.095447 0.403491
vt 0.044835 0.403491
vt 0.044835 0.094733
vt 0.095447 0.094733
vt 0.536663 0.901856
vt 0.536663 0.833757
vt 0.536663 0.788166
vt 0.536663 0.571558
vt 0.536663 0.480089
vt 0.599105 0.480089
vt 0.599105 0.901856
vt 0.534290 0.042610
vt 0.591571 0.042612
vt 0.591571 0.435121
vt 0.534290 0.435121
vt 0.534290 0.378101
vt 0.532730 0.403491
vt 0.532730 0.094733
vt 0.580243 0.094733
vt 0.580243 0.403491
vt 0.103351 0.901856
vt 0.040909 0.901856
vt 0.040909 0.480089
vt 0.103351 0.480089
vt 0.103351 0.571558
vt 0.103351 0.788166
vt 0.103351 0.833757
vt 0.970696 0.882144
vt 0.807564 0.882144
vt 0.802764 0.506659
vt 0.970288 0.506659
vt 0.098556 0.429312
vt 0.049585 0.429275
vt 0.523722 0.435121
vt 0.594439 0.435121
vt 0.594439 0.445778
vt 0.523722 0.445778
vt 0.712067 0.534868
vt 0.712067 0.492435
vt 0.964135 0.492435
vt 0.964135 0.534868
vt 0.901118 0.534868
vt 0.838101 0.534868
vt 0.049485 0.029342
vt 0.098456 0.029342
vt 0.976952 0.492435
vt 0.976952 0.534868
vt 0.712067 0.829328
vt 0.838101 0.829328
vt 0.901118 0.829328
vt 0.964135 0.829328
vt 0.964135 0.871761
vt 0.712067 0.871761
vt 0.435427 0.435185
vt 0.246563 0.435184
vt 0.239211 0.428171
vt 0.237441 0.390633
vt 0.252582 0.390369
vt 0.252585 0.390633
vt 0.437422 0.390634
vt 0.079952 0.035032
vt 0.079952 0.434747
vt 0.061784 0.433981
vt 0.053837 0.433646
vt 0.055496 0.052179
vt 0.073675 0.034767
vt 0.076815 0.034872
vt 0.550677 0.057532
vt 0.556320 0.057211
vt 0.556325 0.057309
vt 0.572618 0.073022
vt 0.572618 0.416289
vt 0.565748 0.416560
vt 0.549679 0.417192
vt 0.807564 0.882144
vt 0.802764 0.506659
vt 0.526465 0.375843
vt 0.099050 0.375843
vt 0.099050 0.346397
vt 0.273491 0.346397
vt 0.352024 0.346397
vt 0.526465 0.346397
vt 0.099060 0.334074
vt 0.273501 0.334074
vt 0.760629 0.694402
vt 0.761714 0.882144
vt 0.761714 0.882144
vt 0.760629 0.694402
vt 0.106231 0.067845
vt 0.522048 0.067846
vt 0.522048 0.089251
vt 0.106231 0.089250
vt 0.109311 0.054985
vt 0.525128 0.054985
vt 0.525128 0.075166
vt 0.109311 0.075166
vt 0.115972 0.056943
vt 0.515938 0.057082
vt 0.515962 0.064063
vt 0.115996 0.063924
vt 0.106616 0.056706
vt 0.522434 0.056706
vt 0.522434 0.092022
vt 0.352726 0.092023
vt 0.276324 0.092023
vt 0.106616 0.092022
vt 0.351571 0.092793
vt 0.521279 0.092793
vt 0.521279 0.107063
vt 0.351571 0.107063
vt 0.371417 0.434848
vt 0.186268 0.434848
vt 0.171436 0.434848
vt 0.172906 0.397184
vt 0.180226 0.390144
vt 0.369736 0.390144
vt 0.147476 0.067334
vt 0.497445 0.067455
vt 0.497442 0.076458
vt 0.147473 0.076337
vt 0.535471 0.384714
vt 0.538980 0.065716
vt 0.551360 0.065460
vt 0.546602 0.384491
vt 0.352029 0.334074
vt 0.526470 0.334074
vt 0.759544 0.506659
vt 0.760087 0.600531
vt 0.760087 0.600531
vt 0.759544 0.506659
vt 0.147473 0.076481
vt 0.497450 0.076481
vt 0.497450 0.085484
vt 0.147473 0.085483
vt 0.105461 0.092792
vt 0.275169 0.092793
vt 0.275169 0.107063
vt 0.105461 0.107062
vt 0.348848 0.337637
vt 0.274577 0.337634
vt 0.274574 0.331632
vt 0.348844 0.331635
vt 0.581029 0.049345
vt 0.590698 0.053796
vt 0.590699 0.392880
vt 0.578831 0.399326
vt 0.056015 0.399326
vt 0.044223 0.392846
vt 0.047964 0.053768
vt 0.057684 0.049345
vt 0.087165 0.065545
vt 0.088415 0.384585
vt 0.099543 0.384828
vt 0.099543 0.065837
vt 0.270411 0.330636
vt 0.101339 0.330629
vt 0.101339 0.106675
vt 0.270411 0.106675
vt 0.039898 0.432856
vt 0.034966 0.447671
vt 0.023672 0.438301
vt 0.028322 0.425029
vt 0.599105 0.480089
vt 0.599105 0.901856
vt 0.038242 0.022697
vt 0.044445 0.043892
vt 0.029968 0.052006
vt 0.023875 0.032854
vt 0.964135 0.871761
vt 0.712067 0.871761
vt 0.674474 0.445033
vt 0.924462 0.445033
vt 0.924462 0.459757
vt 0.678406 0.459757
vt 0.675334 0.075701
vt 0.940692 0.075701
vt 0.936571 0.085554
vt 0.675334 0.085554
vt 0.931573 0.425639
vt 0.689505 0.425639
vt 0.689505 0.415852
vt 0.927452 0.415851
vt 0.599105 0.480089
vt 0.599105 0.901856
vt 0.023164 0.416152
vt 0.024791 0.060848
vt 0.017333 0.042333
vt 0.017333 0.428670
vt 0.949086 0.098148
vt 0.936480 0.407455
vt 0.962876 0.055650
vt 0.962878 0.067079
vt 0.687681 0.067131
vt 0.683338 0.055703
vt 0.693008 0.461611
vt 0.697348 0.450258
vt 0.948009 0.450210
vt 0.948011 0.461564
vt 0.599105 0.901856
vt 0.599105 0.901856
vt 0.599105 0.480089
vt 0.599105 0.480089
vt 0.603319 0.066597
vt 0.608167 0.075166
vt 0.605753 0.414761
vt 0.600725 0.423127
vt 0.609355 0.048434
vt 0.615501 0.057642
vt 0.611185 0.426857
vt 0.605020 0.435916
vt 0.687837 0.440521
vt 0.674500 0.081742
vt 0.925684 0.447478
vt 0.921752 0.462201
vt 0.675696 0.462201
vt 0.675696 0.447477
vt 0.044835 0.403491
vt 0.964135 0.871761
vt 0.595738 0.038399
vt 0.589574 0.058514
vt 0.589574 0.430343
vt 0.594122 0.444614
vt 0.521222 0.382603
vt 0.106239 0.382603
vt 0.106238 0.372796
vt 0.521222 0.372964
vt 0.061784 0.433981
vt 0.079952 0.434747
vt 0.526465 0.375843
vt 0.099050 0.375843
vt 0.549679 0.417192
vt 0.565748 0.416560
vt 0.348844 0.099337
vt 0.274574 0.099337
vt 0.274574 0.094836
vt 0.348844 0.094836
vt 0.995371 0.999913
vt -0.000918 0.999899
vt -0.000918 0.000087
vt 0.995370 0.000087
vn -0.0023 -0.3551 0.9348
vn -0.0044 0.0393 0.9992
vn -0.0026 0.4105 0.9118
vn -0.2035 0.4184 0.8852
vn -0.1810 -0.3650 0.9133
vn 0.0000 1.0000 0.0000
vn -0.2045 0.9789 0.0000
vn -0.2251 0.9005 0.3721
vn -0.0003 0.9280 0.3727
vn -0.0006 0.0394 -0.9992
vn -0.0003 0.0397 -0.9992
vn -0.0005 -0.3550 0.9349
vn 0.1796 -0.3649 0.9135
vn 0.2020 0.4180 0.8857
vn -0.0003 0.4098 0.9122
vn -0.0006 0.0394 0.9992
vn -0.0000 0.9276 0.3736
vn 0.2250 0.9003 0.3726
vn 0.2046 0.9789 0.0000
vn -0.0024 0.0394 -0.9992
vn -0.0014 0.0397 -0.9992
vn 0.0000 -1.0000 0.0000
vn 0.1607 -0.9870 0.0000
vn 0.1847 -0.9003 0.3942
vn -0.0002 -0.9199 0.3921
vn -0.1847 -0.9003 0.3942
vn 0.0001 -0.9200 0.3920
vn -0.1607 -0.9870 0.0000
vn 1.0000 0.0000 0.0000
vn -1.0000 0.0000 -0.0000
vn 0.0000 0.0000 -1.0000
vn 0.0007 -0.0004 1.0000
vn 0.0007 -0.3830 0.9238
vn 0.0008 -0.0004 1.0000
vn 0.0007 -0.0005 1.0000
vn 0.0005 -0.3831 0.9237
vn 0.0003 -0.9238 0.3829
vn 0.0003 -0.9240 0.3825
vn 0.0000 -0.7071 0.7071
vn 0.0000 -0.3827 0.9239
vn 0.0000 0.0000 1.0000
vn 0.0000 0.3827 0.9239
vn 0.0000 0.9239 0.3827
vn 0.0002 -0.9238 0.3828
vn 0.0002 -0.9239 0.3826
vn 0.0006 0.4017 0.9158
vn 0.0006 0.4018 0.9157
vn 0.0004 0.0452 0.9990
vn -0.6793 0.6849 0.2635
vn -0.6225 0.3113 0.7180
vn 0.0001 0.0404 -0.9992
vn -0.6110 -0.2821 0.7397
vn -0.6417 -0.7103 0.2892
vn -0.6485 -0.7613 0.0000
vn -0.6805 0.7328 0.0000
vn -0.9631 -0.2482 0.1041
vn -0.9717 -0.2361 -0.0001
vn -0.9699 0.2436 -0.0001
vn -0.9610 0.2591 0.0964
vn 0.0003 0.0418 -0.9991
vn -0.9129 0.0982 0.3961
vn -0.9125 -0.0511 0.4058
vn 0.6485 -0.7613 0.0000
vn 0.9717 -0.2361 -0.0001
vn 0.9631 -0.2482 0.1041
vn 0.6417 -0.7103 0.2892
vn 0.6793 0.6849 0.2635
vn 0.9610 0.2591 0.0964
vn 0.9699 0.2436 -0.0001
vn 0.6805 0.7328 0.0000
vn -0.0001 0.0404 -0.9992
vn -0.0003 0.0418 -0.9991
vn 0.6110 -0.2821 0.7397
vn 0.9125 -0.0511 0.4058
vn 0.9129 0.0982 0.3961
vn 0.6225 0.3113 0.7180
vn 0.0007 0.0000 1.0000
vn 0.0003 -0.3634 0.9316
vn 0.0002 0.0459 0.9989
usemtl Material
s 1
f 25/1/1 12/2/2 18/3/3 19/4/4 28/5/5
f 3/6/6 4/7/7 20/8/8 17/9/9
f 3/10/10 11/11/10 15/12/10 9/13/10 1/14/10 2/15/11 4/16/11
f 30/17/12 31/18/13 24/19/14 21/20/15 14/21/16
f 7/22/6 22/23/17 23/24/18 8/25/19
f 7/26/20 8/27/21 6/28/21 5/29/20 10/30/20 16/31/20 13/32/20
f 11/33/6 33/34/6 34/35/6 13/36/6
f 17/37/9 20/38/8 19/4/4 18/3/3
f 21/39/15 24/40/14 23/41/18 22/42/17
f 5/43/22 6/44/23 32/45/24 29/46/25 46/47/22 36/48/22
f 25/1/1 28/5/5 27/49/26 26/50/27
f 29/46/25 32/45/24 31/51/13 30/52/12
f 1/53/22 35/54/22 45/55/22 26/56/27 27/57/26 2/58/28
f 3/59/29 17/60/29 18/61/29 12/62/29 37/63/29 33/64/29 11/65/29
f 35/66/29 33/67/29 37/68/29 12/69/29 25/70/29 26/71/29 45/72/29
f 36/73/30 46/74/30 29/75/30 30/76/30 14/77/30 38/78/30 34/79/30
f 34/35/31 33/34/31 100/80/31 102/81/31
f 38/82/32 37/83/32 39/84/33 59/85/34 62/86/35 40/87/36
f 59/85/34 39/84/33 41/88/37 60/89/38
f 60/90/38 41/91/37 43/92/22 61/93/22
f 45/94/39 46/95/39 48/96/40 47/97/40
f 47/98/40 48/99/40 50/100/41 49/101/41
f 49/102/6 50/103/6 52/104/6 51/105/6
f 51/106/41 52/107/41 54/108/42 68/109/41 65/110/41 53/111/42
f 68/112/41 54/113/42 56/114/43 69/115/43
f 13/116/30 34/117/30 14/118/30 21/119/30 22/120/30 7/121/30
f 69/122/43 56/123/43 58/124/6 70/125/6
f 61/126/30 67/127/30 66/128/30 60/129/30
f 40/87/36 62/86/35 63/130/44 42/131/45
f 42/132/45 63/133/44 64/134/22 44/135/22
f 55/136/43 66/137/43 67/138/6 57/139/6
f 53/140/42 65/141/41 66/142/43 55/143/43
f 62/144/35 59/145/34 71/146/46 72/147/47
f 60/129/30 66/128/30 65/148/30 73/149/30 71/150/30 59/151/30
f 62/152/29 72/153/29 74/154/29 68/155/29 69/156/29 63/157/29
f 64/158/29 63/157/29 69/156/29 70/159/29
f 61/160/48 43/161/48 57/162/48 67/163/48
f 19/164/4 20/165/8 78/166/49 77/167/50
f 4/16/11 2/15/11 75/168/51 76/169/51
f 27/170/26 28/171/5 80/172/52 79/173/53
f 28/171/5 19/164/4 77/167/50 80/172/52
f 2/58/28 27/57/26 79/174/53 75/175/54
f 20/176/8 4/177/7 76/178/55 78/179/49
f 75/180/54 79/181/53 85/182/56 81/183/57
f 78/184/49 76/185/55 82/186/58 84/187/59
f 76/169/51 75/168/51 81/188/60 82/189/60
f 80/172/52 77/167/50 83/190/61 86/191/62
f 79/173/53 80/172/52 86/191/62 85/192/56
f 77/167/50 78/166/49 84/193/59 83/190/61
f 81/183/57 85/182/56 86/194/62 83/195/61 84/187/59 82/186/58
f 87/196/63 93/197/64 97/198/65 91/199/66
f 90/200/67 96/201/68 94/202/69 88/203/70
f 88/204/71 94/205/72 93/206/72 87/207/71
f 92/208/73 98/209/74 95/210/75 89/211/76
f 91/212/66 97/213/65 98/209/74 92/208/73
f 89/211/76 95/210/75 96/214/68 90/215/67
f 93/197/64 94/202/69 96/201/68 95/216/75 98/217/74 97/198/65
f 23/218/18 90/219/67 88/220/70 8/221/19
f 8/25/21 88/222/71 87/207/71 6/28/21
f 6/28/23 87/207/63 91/223/66 32/45/24
f 32/224/24 91/212/66 92/208/73 31/225/13
f 31/225/13 92/208/73 89/211/76 24/226/14
f 24/226/14 89/211/76 90/215/67 23/227/18
f 102/228/6 100/229/6 99/230/6 101/231/6
f 33/67/30 37/68/30 99/232/30 100/233/30
f 37/83/32 38/82/32 101/234/77 99/235/77
f 38/78/29 34/79/29 102/236/29 101/237/29
usemtl Material_NONE
f 74/238/78 72/147/47 71/146/46 73/239/78
f 65/240/41 68/241/41 74/238/78 73/239/78
usemtl Material.001
f 44/242/79 64/243/79 70/244/79 58/245/79
