# Blender v2.79 (sub 0) OBJ File: 'model.blend'
# www.blender.org
mtllib hatch_cover_000.mtl
o Hatch_000_Cube.001
v -0.186376 0.000570 0.281239
v -0.186376 0.062167 0.279258
v -0.186376 0.000570 0.002379
v -0.186376 0.062167 0.002379
v 0.186376 0.000570 0.281239
v 0.186376 0.062167 0.279258
v 0.186376 0.000570 0.002379
v 0.186376 0.062167 0.002379
vt 0.960626 0.849012
vt 0.847244 0.847402
vt 0.847244 0.622247
vt 0.960626 0.622247
vt 0.513324 0.381117
vt 0.513324 0.448326
vt 0.106609 0.448326
vt 0.106609 0.381117
vt 0.847244 0.849012
vt 0.733862 0.849012
vt 0.733861 0.623858
vt 0.847244 0.622247
vt 0.527680 0.382699
vt 0.527680 0.445597
vt 0.102811 0.445597
vt 0.102811 0.382699
vt 0.710924 0.877299
vt 0.710923 0.497691
vt 0.970409 0.497691
vt 0.970410 0.877299
vt 0.919002 0.085530
vt 0.919002 0.439124
vt 0.745619 0.439124
vt 0.745619 0.085530
vn -1.0000 -0.0000 0.0000
vn 0.0000 0.0000 -1.0000
vn 1.0000 -0.0000 0.0000
vn 0.0000 0.0321 0.9995
vn 0.0000 0.7184 0.6957
vn 0.0000 -1.0000 0.0000
vn 0.0000 1.0000 0.0000
usemtl Material
s 1
f 1/1/1 2/2/1 4/3/1 3/4/1
f 3/5/2 4/6/2 8/7/2 7/8/2
f 7/9/3 8/10/3 6/11/3 5/12/3
f 5/13/4 6/14/5 2/15/5 1/16/4
f 3/17/6 7/18/6 5/19/6 1/20/6
f 8/21/7 4/22/7 2/23/5 6/24/5
