# Blender v2.79 (sub 0) OBJ File: 'model.blend'
# www.blender.org
mtllib hatch_cover_001.mtl
o Hatch_001_Cube.002
v -0.188240 0.000570 0.276261
v -0.188240 0.000570 0.002379
v -0.188240 0.062167 0.002379
v 0.188240 0.000570 0.276261
v 0.188240 0.000570 0.002379
v 0.188240 0.062167 0.002379
v -0.188240 0.047167 0.276261
v -0.188240 0.062167 0.261261
v 0.188240 0.062167 0.261261
v 0.188240 0.047167 0.276261
v -0.167739 0.062167 0.006354
v 0.167739 0.062167 0.006354
v 0.167739 0.062167 0.250997
v -0.167739 0.062167 0.250997
v -0.167739 0.065167 0.006354
v 0.167739 0.065167 0.006354
v 0.167739 0.065167 0.250997
v -0.167739 0.065167 0.250997
v -0.167425 0.000570 0.019771
v -0.167425 0.000570 0.258870
v 0.167425 0.000570 0.019771
v 0.167425 0.000570 0.258870
v -0.147425 0.043350 0.019771
v -0.167425 0.023350 0.019771
v -0.167425 0.023350 0.258870
v -0.147425 0.043350 0.258870
v 0.167425 0.023350 0.019771
v 0.147425 0.043350 0.019771
v 0.147425 0.043350 0.258870
v 0.167425 0.023350 0.258870
vt 0.923142 0.072758
vt 0.923142 0.434837
vt 0.919475 0.416733
vt 0.919475 0.090862
vt 0.527473 0.381117
vt 0.527473 0.444020
vt 0.106609 0.444020
vt 0.106609 0.381117
vt 0.960626 0.849012
vt 0.874855 0.847794
vt 0.847244 0.835070
vt 0.847244 0.622247
vt 0.960626 0.622247
vt 0.708977 0.488087
vt 0.978681 0.488087
vt 0.961555 0.508061
vt 0.726103 0.508061
vt 0.847244 0.849012
vt 0.733862 0.849012
vt 0.733861 0.636189
vt 0.761472 0.623466
vt 0.847244 0.622247
vt 0.520504 0.441854
vt 0.110461 0.441854
vt 0.110461 0.430302
vt 0.520504 0.430302
vt 0.521023 0.383714
vt 0.521023 0.436134
vt 0.106002 0.436134
vt 0.106002 0.383714
vt 0.733861 0.636189
vt 0.733862 0.849012
vt 0.733862 0.849012
vt 0.733861 0.636189
vt 0.684247 0.072758
vt 0.693719 0.090862
vt 0.684247 0.434837
vt 0.693719 0.416733
vt 0.919475 0.090862
vt 0.919475 0.416733
vt 0.693719 0.416733
vt 0.693719 0.090862
vt 0.755115 0.439124
vt 0.755115 0.085530
vt 0.755115 0.085530
vt 0.755115 0.439124
vt 0.847244 0.622247
vt 0.847244 0.835070
vt 0.847244 0.835070
vt 0.847244 0.622247
vt 0.106609 0.444020
vt 0.527473 0.444020
vt 0.527473 0.444020
vt 0.106609 0.444020
vt 0.847244 0.849012
vt 0.847244 0.622247
vt 0.847244 0.622247
vt 0.847244 0.849012
vt 0.978681 0.880936
vt 0.961555 0.860963
vt 0.708977 0.880936
vt 0.726103 0.860963
vt 0.794131 0.876481
vt 0.794130 0.511243
vt 0.818977 0.511243
vt 0.840792 0.533058
vt 0.840792 0.854666
vt 0.818977 0.876481
vt 0.887506 0.511243
vt 0.887507 0.876481
vt 0.862660 0.876481
vt 0.840845 0.854666
vt 0.840845 0.533058
vt 0.862660 0.511243
vt 0.726103 0.839885
vt 0.726103 0.529139
vt 0.961555 0.529139
vt 0.961555 0.839885
vt 0.894619 0.844071
vt 0.894619 0.608620
vt 0.915697 0.608620
vt 0.915697 0.844071
vt 0.812725 0.574169
vt 0.812725 0.809620
vt 0.791647 0.809620
vt 0.791647 0.574169
vt 0.960626 0.849012
vt 0.960626 0.622247
vt 0.960626 0.622247
vt 0.960626 0.849012
vn 0.0000 1.0000 0.0000
vn 0.0000 0.0000 -1.0000
vn -1.0000 0.0000 0.0000
vn 0.0000 -1.0000 0.0000
vn 1.0000 -0.0000 0.0000
vn 0.0000 0.9239 0.3827
vn 0.0000 0.3827 0.9239
vn 0.0000 0.0000 1.0000
vn -0.9239 -0.3827 0.0000
vn 0.3827 -0.9239 0.0000
vn -0.3827 -0.9239 0.0000
vn 0.9239 -0.3827 0.0000
usemtl Material
s 1
f 6/1/1 3/2/1 11/3/1 12/4/1
f 2/5/2 3/6/2 6/7/2 5/8/2
f 1/9/3 7/10/3 8/11/3 3/12/3 2/13/3
f 5/14/4 4/15/4 22/16/4 21/17/4
f 5/18/5 6/19/5 9/20/5 10/21/5 4/22/5
f 9/23/6 8/24/6 7/25/7 10/26/7
f 4/27/8 10/28/7 7/29/7 1/30/8
f 13/31/5 12/32/5 16/33/5 17/34/5
f 9/35/6 6/1/1 12/4/1 13/36/1
f 8/37/6 9/35/6 13/36/1 14/38/1
f 3/2/1 8/37/6 14/38/1 11/3/1
f 16/39/1 15/40/1 18/41/1 17/42/1
f 14/43/8 13/44/8 17/45/8 18/46/8
f 11/47/3 14/48/3 18/49/3 15/50/3
f 12/51/2 11/52/2 15/53/2 16/54/2
f 21/55/3 22/56/3 30/57/9 27/58/9
f 4/15/4 1/59/4 20/60/4 22/16/4
f 2/61/4 5/14/4 21/17/4 19/62/4
f 1/59/4 2/61/4 19/62/4 20/60/4
f 19/63/8 21/64/8 27/65/8 28/66/8 23/67/8 24/68/8
f 22/69/2 20/70/2 25/71/2 26/72/2 29/73/2 30/74/2
f 23/75/10 28/76/11 29/77/11 26/78/10
f 23/79/10 26/80/10 25/81/12 24/82/12
f 29/83/11 28/84/11 27/85/9 30/86/9
f 20/87/5 19/88/5 24/89/12 25/90/12
