# Blender v2.79 (sub 0) OBJ File: 'model.blend'
# www.blender.org
mtllib lever.mtl
o Cube_Cube.003
v -0.107892 -0.012561 0.104073
v -0.107892 -0.010461 0.104073
v -0.112913 -0.012561 0.099195
v -0.112913 -0.010461 0.099195
v -0.082249 -0.012561 0.080187
v -0.082249 -0.010461 0.080187
v -0.089781 -0.012561 0.072871
v -0.089781 -0.010461 0.072871
v -0.119516 -0.002371 0.106997
v -0.115499 -0.002371 0.110899
v -0.114881 -0.001420 0.110262
v -0.118897 -0.001420 0.106360
vn 0.4855 0.7174 -0.4997
vn -0.7512 0.0000 -0.6601
vn 0.6968 0.0000 -0.7173
vn 0.6816 0.0000 0.7317
vn 0.0000 -1.0000 0.0000
vn 0.0000 1.0000 0.0000
vn -0.5096 0.6820 0.5246
vn -0.4925 -0.7074 0.5070
vn -0.7549 0.0162 -0.6557
vn 0.6773 0.0162 0.7356
usemtl None
s off
f 2//1 4//1 12//1 11//1
f 3//2 4//2 8//2 7//2
f 7//3 8//3 6//3 5//3
f 5//4 6//4 2//4 1//4
f 3//5 7//5 5//5 1//5
f 8//6 4//6 2//6 6//6
f 10//7 11//7 12//7 9//7
f 3//8 1//8 10//8 9//8
f 4//9 3//9 9//9 12//9
f 1//10 2//10 11//10 10//10
