# Blender v2.79 (sub 0) OBJ File: 'model.blend'
# www.blender.org
mtllib round_lever_001.mtl
o round_lever_001_Cylinder.001
v 0.000000 0.017225 -0.005167
v 0.000000 0.017225 0.005167
v 0.006592 0.015914 -0.005167
v 0.006592 0.015914 0.005167
v 0.012180 0.012180 -0.005167
v 0.012180 0.012180 0.005167
v 0.015914 0.006592 -0.005167
v 0.015914 0.006592 0.005167
v 0.017225 -0.000000 -0.005167
v 0.017225 -0.000000 0.005167
v 0.015914 -0.006592 -0.005167
v 0.015914 -0.006592 0.005167
v 0.012180 -0.012180 -0.005167
v 0.012180 -0.012180 0.005167
v 0.006592 -0.015914 -0.005167
v 0.006592 -0.015914 0.005167
v 0.000000 -0.017225 -0.005167
v 0.000000 -0.017225 0.005167
v -0.006592 -0.015914 -0.005167
v -0.006592 -0.015914 0.005167
v -0.012180 -0.012180 -0.005167
v -0.012180 -0.012180 0.005167
v -0.015913 -0.006592 -0.005167
v -0.015913 -0.006592 0.005167
v -0.017225 -0.000000 -0.005167
v -0.017225 -0.000000 0.005167
v -0.015913 0.006592 -0.005167
v -0.015913 0.006592 0.005167
v -0.012180 0.012180 -0.005167
v -0.012180 0.012180 0.005167
v -0.006592 0.015914 -0.005167
v -0.006592 0.015914 0.005167
vt 0.631897 0.145175
vt 0.621731 0.145175
vt 0.621731 0.135912
vt 0.631897 0.135912
vt 0.621731 0.128060
vt 0.631897 0.128060
vt 0.633841 0.159438
vt 0.621953 0.159438
vt 0.621953 0.153010
vt 0.633841 0.153010
vt 0.621953 0.145427
vt 0.633841 0.145427
vt 0.621953 0.137845
vt 0.633841 0.137845
vt 0.621953 0.131416
vt 0.633841 0.131416
vt 0.631897 0.128060
vt 0.621731 0.128060
vt 0.621731 0.135912
vt 0.631897 0.135912
vt 0.621731 0.145175
vt 0.631897 0.145175
vt 0.621731 0.154437
vt 0.631897 0.154437
vt 0.621731 0.162290
vt 0.631897 0.162290
vt 0.633841 0.131416
vt 0.621953 0.131416
vt 0.621953 0.137845
vt 0.633841 0.137845
vt 0.621953 0.145427
vt 0.633841 0.145427
vt 0.621953 0.153010
vt 0.633841 0.153010
vt 0.621953 0.159438
vt 0.633841 0.159438
vt 0.648992 0.057827
vt 0.637728 0.057827
vt 0.627321 0.053516
vt 0.619356 0.045552
vt 0.615046 0.035145
vt 0.615046 0.023881
vt 0.619356 0.013474
vt 0.627321 0.005509
vt 0.637728 0.001199
vt 0.648992 0.001199
vt 0.659398 0.005509
vt 0.667363 0.013474
vt 0.671674 0.023881
vt 0.671674 0.035145
vt 0.667363 0.045552
vt 0.659398 0.053516
vt 0.631897 0.162290
vt 0.621731 0.162290
vt 0.621731 0.154437
vt 0.631897 0.154437
vn 0.0000 1.0000 0.0000
vn 0.3827 0.9239 0.0000
vn 0.7071 0.7071 0.0000
vn 0.9239 0.3827 0.0000
vn 1.0000 0.0000 0.0000
vn 0.9239 -0.3827 -0.0000
vn 0.7071 -0.7071 -0.0000
vn 0.3827 -0.9239 -0.0000
vn -0.0000 -1.0000 -0.0000
vn -0.3827 -0.9239 -0.0000
vn -0.7071 -0.7071 -0.0000
vn -0.9239 -0.3827 -0.0000
vn -1.0000 0.0000 0.0000
vn -0.9239 0.3827 0.0000
vn -0.7071 0.7071 0.0000
vn 0.0000 0.0000 1.0000
vn -0.3827 0.9239 0.0000
usemtl Material
s 1
f 1/1/1 2/2/1 4/3/2 3/4/2
f 3/4/2 4/3/2 6/5/3 5/6/3
f 5/7/3 6/8/3 8/9/4 7/10/4
f 7/10/4 8/9/4 10/11/5 9/12/5
f 9/12/5 10/11/5 12/13/6 11/14/6
f 11/14/6 12/13/6 14/15/7 13/16/7
f 13/17/7 14/18/7 16/19/8 15/20/8
f 15/20/8 16/19/8 18/21/9 17/22/9
f 17/22/9 18/21/9 20/23/10 19/24/10
f 19/24/10 20/23/10 22/25/11 21/26/11
f 21/27/11 22/28/11 24/29/12 23/30/12
f 23/30/12 24/29/12 26/31/13 25/32/13
f 25/32/13 26/31/13 28/33/14 27/34/14
f 27/34/14 28/33/14 30/35/15 29/36/15
f 4/37/16 2/38/16 32/39/16 30/40/16 28/41/16 26/42/16 24/43/16 22/44/16 20/45/16 18/46/16 16/47/16 14/48/16 12/49/16 10/50/16 8/51/16 6/52/16
f 29/53/15 30/54/15 32/55/17 31/56/17
f 31/56/17 32/55/17 2/2/1 1/1/1
