# Blender v2.79 (sub 0) OBJ File: 'chair.blend'
# www.blender.org
mtllib chair_01.mtl
o Cube.001_Cube.003
v -0.205000 0.390000 0.395000
v -0.205000 0.455000 0.395000
v 0.205000 0.390000 0.395000
v 0.205000 0.455000 0.395000
v 0.169363 0.000000 0.385058
v 0.165603 0.388732 0.394409
v 0.169363 0.000000 0.361058
v 0.165603 0.388732 0.358409
v 0.193363 0.000000 0.385058
v 0.201603 0.388732 0.394409
v 0.193363 0.000000 0.361058
v 0.201603 0.388732 0.358409
v -0.195603 0.000000 0.385058
v -0.199363 0.388732 0.394409
v -0.195603 0.000000 0.361058
v -0.199363 0.388732 0.358409
v -0.171603 0.000000 0.385058
v -0.163363 0.388732 0.394409
v -0.171603 0.000000 0.361058
v -0.163363 0.388732 0.358409
v -0.173239 0.200000 0.027106
v -0.175799 0.388732 0.035257
v -0.173239 0.200000 0.000706
v -0.175799 0.388732 -0.000743
v -0.146839 0.200000 0.027106
v -0.139799 0.388732 0.035257
v -0.146839 0.200000 0.000706
v -0.139799 0.388732 -0.000743
v -0.172039 0.000000 -0.016280
v -0.172039 0.000000 0.007720
v -0.148039 0.000000 -0.016280
v -0.148039 0.000000 0.007720
v -0.173999 0.638732 0.033457
v -0.173999 0.638732 0.001057
v -0.141599 0.638732 0.033457
v -0.141599 0.638732 0.001057
v -0.170759 0.900000 -0.006674
v -0.170759 0.900000 -0.032594
v -0.144839 0.900000 -0.006674
v -0.144839 0.900000 -0.032594
v 0.144151 0.200000 0.027106
v 0.141591 0.388732 0.035257
v 0.144151 0.200000 0.000706
v 0.141591 0.388732 -0.000743
v 0.170551 0.200000 0.027106
v 0.177591 0.388732 0.035257
v 0.170551 0.200000 0.000706
v 0.177591 0.388732 -0.000743
v 0.145351 0.000000 -0.016280
v 0.145351 0.000000 0.007720
v 0.169351 0.000000 -0.016280
v 0.169351 0.000000 0.007720
v 0.143391 0.638732 0.033457
v 0.143391 0.638732 0.001057
v 0.175791 0.638732 0.033457
v 0.175791 0.638732 0.001057
v 0.146631 0.900000 -0.006674
v 0.146631 0.900000 -0.032594
v 0.172551 0.900000 -0.006674
v 0.172551 0.900000 -0.032594
v -0.070000 0.700000 0.006654
v -0.070000 0.897994 -0.021601
v -0.070000 0.697174 -0.013145
v -0.070000 0.895168 -0.041401
v 0.070000 0.700000 0.006654
v 0.070000 0.897994 -0.021601
v 0.070000 0.697174 -0.013145
v 0.070000 0.895168 -0.041401
v -0.146740 0.698822 -0.000516
v -0.146740 0.701647 0.019283
v -0.146740 0.899641 -0.008972
v -0.146740 0.896816 -0.028772
v 0.146740 0.896816 -0.028772
v 0.146740 0.698822 -0.000516
v 0.146740 0.701647 0.019283
v 0.146740 0.899641 -0.008972
v -0.070000 0.456442 -0.000092
v -0.070000 0.456690 0.019907
v 0.070000 0.456442 -0.000092
v 0.070000 0.456690 0.019907
v -0.179434 0.390000 0.036306
v -0.195914 0.032156 0.360839
v -0.171532 0.003341 0.385139
v -0.178714 0.455000 0.036306
v 0.179478 0.455000 0.036306
v -0.195636 0.003396 0.385140
v 0.179360 0.390000 0.036306
v -0.139000 0.390000 0.036306
v -0.139000 0.455000 0.000000
v -0.139000 0.455000 0.036306
v -0.139000 0.390000 0.000000
v 0.139000 0.455000 0.036306
v 0.139000 0.390000 0.036306
v 0.139000 0.390000 0.000000
v 0.139000 0.455000 0.000000
v 0.170511 0.460925 0.042284
v 0.194756 0.460925 0.383043
v -0.194744 0.460925 0.383044
v -0.169772 0.460925 0.042284
v 0.132056 0.460925 0.042284
v -0.132044 0.460925 0.042284
v 0.136434 0.460925 0.065001
v 0.155831 0.460925 0.337609
v -0.155769 0.460925 0.337609
v -0.135792 0.460925 0.065001
v 0.105671 0.460925 0.065001
v -0.105609 0.460925 0.065001
v 0.136434 0.463925 0.065001
v 0.155831 0.463925 0.337609
v -0.155769 0.463925 0.337609
v -0.135792 0.463925 0.065001
v 0.105671 0.463925 0.065001
v -0.105609 0.463925 0.065001
vt 0.755596 0.610374
vt 0.705720 0.610378
vt 0.705721 0.336506
vt 0.755596 0.336506
vt 0.637012 0.698920
vt 0.605987 0.698920
vt 0.606539 0.649344
vt 0.637012 0.649344
vt 0.655845 0.659977
vt 0.655845 0.610401
vt 0.686905 0.610401
vt 0.686814 0.659977
vt 0.605987 0.336506
vt 0.655845 0.336506
vt 0.655845 0.649344
vt 0.605987 0.649344
vt 0.027856 0.700877
vt 0.000000 0.700875
vt 0.000000 0.651279
vt 0.027856 0.651281
vt 0.467090 0.550596
vt 0.474289 0.847210
vt 0.446667 0.847210
vt 0.448676 0.550596
vt 0.504798 0.847141
vt 0.501912 0.550596
vt 0.529536 0.550596
vt 0.523213 0.847141
vt 0.339577 0.312839
vt 0.341566 0.609484
vt 0.313944 0.609484
vt 0.321163 0.312839
vt 0.535858 0.846919
vt 0.529536 0.550596
vt 0.557159 0.550596
vt 0.554274 0.846919
vt 0.095490 0.669592
vt 0.095490 0.651279
vt 0.113894 0.651279
vt 0.113894 0.669592
vt 0.803642 0.336506
vt 0.803705 0.339097
vt 0.785061 0.361042
vt 0.785227 0.336506
vt 0.477174 0.847141
vt 0.476936 0.822611
vt 0.474289 0.550596
vt 0.501912 0.550596
vt 0.495590 0.847141
vt 0.781229 0.336506
vt 0.783218 0.633151
vt 0.755596 0.633151
vt 0.762752 0.339055
vt 0.762814 0.336506
vt 0.563481 0.846919
vt 0.563427 0.844373
vt 0.581922 0.844331
vt 0.581897 0.846919
vt 0.150702 0.669592
vt 0.150702 0.651279
vt 0.169106 0.651279
vt 0.169106 0.669592
vt 0.936301 0.534850
vt 0.927403 0.390978
vt 0.955020 0.390479
vt 0.956554 0.534484
vt 0.998035 0.152167
vt 1.000000 0.296145
vt 0.972377 0.296145
vt 0.977778 0.152167
vt 0.909502 0.152679
vt 0.907939 0.296713
vt 0.880322 0.296214
vt 0.889249 0.152313
vt 0.346967 0.847443
vt 0.341566 0.703648
vt 0.369189 0.703648
vt 0.367224 0.847443
vt 0.978699 0.000000
vt 0.997115 0.000000
vt 0.150702 0.651279
vt 0.150702 0.669592
vt 0.132298 0.669592
vt 0.132298 0.651279
vt 0.972377 0.686829
vt 0.953965 0.687162
vt 0.906906 0.000000
vt 0.925318 0.000332
vt 0.366304 0.999610
vt 0.347888 0.999610
vt 0.903103 0.487399
vt 0.878247 0.486950
vt 0.925318 0.200231
vt 0.950173 0.199782
vt 0.342947 0.512922
vt 0.367808 0.512922
vt 0.998619 0.486781
vt 0.973758 0.486781
vt 0.345433 0.312839
vt 0.365322 0.312839
vt 0.996133 0.686792
vt 0.976244 0.686792
vt 0.925318 0.687166
vt 0.905433 0.686807
vt 0.952492 0.000359
vt 0.972377 0.000000
vt 0.095490 0.651279
vt 0.095490 0.671057
vt 0.075601 0.671057
vt 0.075601 0.651279
vt 0.236174 0.847688
vt 0.227276 0.703816
vt 0.254893 0.703317
vt 0.256427 0.847323
vt 0.277428 0.847464
vt 0.275464 0.703485
vt 0.303087 0.703485
vt 0.297685 0.847464
vt 0.862432 0.152679
vt 0.860869 0.296713
vt 0.833252 0.296214
vt 0.842179 0.152313
vt 0.374591 0.847444
vt 0.369189 0.703648
vt 0.396812 0.703648
vt 0.394848 0.847444
vt 0.296765 0.999630
vt 0.278349 0.999630
vt 0.132298 0.651279
vt 0.132298 0.669592
vt 0.113894 0.669592
vt 0.113894 0.651279
vt 0.272250 0.999668
vt 0.253838 1.000000
vt 0.859836 0.000000
vt 0.878247 0.000332
vt 0.393927 0.999610
vt 0.375511 0.999610
vt 0.856033 0.487399
vt 0.831177 0.486950
vt 0.225191 0.513069
vt 0.250046 0.512621
vt 0.370570 0.512922
vt 0.395431 0.512922
vt 0.276845 0.512849
vt 0.301706 0.512849
vt 0.373056 0.312839
vt 0.392945 0.312839
vt 0.279331 0.312838
vt 0.299220 0.312838
vt 0.878247 0.687165
vt 0.858363 0.686806
vt 0.252365 0.313197
vt 0.272250 0.312838
vt 0.055713 0.671057
vt 0.055713 0.651279
vt 0.075601 0.651279
vt 0.075601 0.671057
vt 0.166307 0.465428
vt 0.166307 0.313844
vt 0.225191 0.312838
vt 0.225191 0.464423
vt 0.772294 0.183895
vt 0.772294 0.335527
vt 0.664870 0.335527
vt 0.664870 0.183895
vt 0.831177 0.184873
vt 0.831177 0.336506
vt 0.058883 0.465428
vt 0.058883 0.313844
vt 0.705765 0.611708
vt 0.721052 0.610378
vt 0.721052 0.796301
vt 0.705720 0.795659
vt 0.341566 0.668038
vt 0.341566 0.774861
vt 0.326365 0.774860
vt 0.326365 0.668038
vt 0.316670 0.609484
vt 0.331871 0.609484
vt 0.605987 0.336506
vt 0.605987 0.184873
vt 0.331871 0.833414
vt 0.316670 0.833414
vt 0.701960 0.672222
vt 0.686905 0.669749
vt 0.686905 0.610401
vt 0.701960 0.612875
vt 0.000000 0.464423
vt 0.000000 0.312838
vt 0.640790 0.651818
vt 0.655845 0.649344
vt 0.655845 0.708692
vt 0.640790 0.711166
vt 0.166307 0.651279
vt 0.058883 0.651279
vt 0.664870 0.000000
vt 0.772294 0.000000
vt 0.600114 0.736522
vt 0.584827 0.735191
vt 0.584782 0.551237
vt 0.600114 0.550596
vt 0.557159 0.550596
vt 0.584782 0.550596
vt 0.578146 0.019507
vt 0.578146 0.050359
vt 0.578146 0.262479
vt 0.578146 0.293275
vt 0.303087 0.312839
vt 0.303087 0.000000
vt 0.810840 0.633120
vt 0.783217 0.633120
vt 0.000000 0.312838
vt 0.000000 0.000000
vt 0.009158 0.007816
vt 0.009158 0.305012
vt 0.655845 0.336506
vt 0.705720 0.336526
vt 0.705720 0.610401
vt 0.655846 0.610382
vt 0.605987 0.050359
vt 0.605986 0.262479
vt 0.396812 0.550596
vt 0.446667 0.550596
vt 0.446667 0.762715
vt 0.396812 0.762715
vt 0.055713 0.651279
vt 0.055713 0.700876
vt 0.027856 0.700876
vt 0.027856 0.651280
vt 0.275230 0.050359
vt 0.303087 0.050359
vt 0.303087 0.262479
vt 0.275230 0.262479
vt 0.270626 0.257171
vt 0.270626 0.285959
vt 0.253194 0.260031
vt 0.253194 0.237001
vt 0.275230 0.019473
vt 0.270626 0.055657
vt 0.270626 0.026316
vt 0.275230 0.292782
vt 0.309340 0.336312
vt 0.309340 0.497523
vt 0.307039 0.497523
vt 0.307039 0.336312
vt 0.044020 0.275274
vt 0.253194 0.052317
vt 0.044020 0.037517
vt 0.253194 0.075790
vt 0.309340 0.312839
vt 0.307039 0.312839
vt 0.272250 0.550596
vt 0.272250 0.312838
vt 0.274551 0.312838
vt 0.274551 0.550596
vt 0.309340 0.520553
vt 0.307039 0.520553
vt 0.309340 0.520982
vt 0.309340 0.312839
vt 0.311642 0.312839
vt 0.311642 0.520982
vt 0.313944 0.312839
vt 0.313944 0.520984
vt 0.311642 0.520983
vt 0.311642 0.312839
vt 0.396812 0.535796
vt 0.396812 0.512323
vt 0.396812 0.351112
vt 0.396812 0.328081
vt 0.605987 0.312839
vt 0.605987 0.550596
vn -0.9974 0.0055 -0.0721
vn 0.0000 0.0000 -1.0000
vn 0.0000 0.0000 1.0000
vn 1.0000 0.0000 0.0000
vn -1.0000 -0.0097 0.0000
vn 0.0000 -0.0068 -1.0000
vn 0.9998 -0.0212 0.0000
vn 0.0000 -0.0240 0.9997
vn 0.0000 -1.0000 0.0000
vn -0.9999 -0.0136 0.0000
vn 0.0000 -0.0077 -1.0000
vn 0.9993 -0.0373 0.0000
vn 0.0000 -0.0431 0.9991
vn 0.0000 0.0846 -0.9964
vn -1.0000 -0.0060 0.0000
vn 1.0000 -0.0060 0.0000
vn 0.0000 -0.0965 0.9953
vn 1.0000 0.0072 0.0000
vn -1.0000 0.0072 0.0000
vn 0.0000 0.0072 1.0000
vn 0.0000 0.0072 -1.0000
vn 0.0000 0.1518 0.9884
vn 0.0000 -0.1277 -0.9918
vn 0.9999 0.0124 0.0000
vn -0.9999 0.0124 0.0000
vn 0.0000 1.0000 0.0000
vn 0.1637 0.1394 0.9766
vn 0.0000 -0.1413 -0.9900
vn -0.1637 -0.1394 -0.9766
vn 0.0000 0.1413 0.9900
vn 0.0000 0.9900 -0.1413
vn 0.0020 0.9900 -0.1413
vn 0.1637 -0.1394 -0.9766
vn -0.0020 0.9900 -0.1413
vn 0.0020 -0.9900 0.1413
vn -0.1637 0.1394 0.9766
vn -0.0020 -0.9900 0.1413
vn 0.0000 0.0544 0.9985
vn 0.0000 -0.0541 -0.9985
vn -1.0000 -0.0000 0.0000
vn 0.0000 0.8960 0.4440
vn 0.9975 -0.0009 -0.0711
vn 0.0000 0.7103 -0.7039
vn -0.5336 0.8448 -0.0391
vn 0.5331 0.8452 -0.0379
vn -0.9973 0.0000 -0.0731
vn 0.9975 0.0000 -0.0710
usemtl Material.001
s off
f 1/1/1 2/2/1 84/3/1 81/4/1
f 88/5/2 81/6/2 84/7/2 90/8/2
f 93/9/2 92/10/2 85/11/2 87/12/2
f 3/13/3 4/14/3 2/15/3 1/16/3
f 93/17/4 94/18/4 95/19/4 92/20/4
f 5/21/5 6/22/5 8/23/5 7/24/5
f 7/25/6 8/26/6 12/27/6 11/28/6
f 11/29/7 12/30/7 10/31/7 9/32/7
f 9/33/8 10/34/8 6/35/8 5/36/8
f 7/37/9 11/38/9 9/39/9 5/40/9
f 13/41/5 86/42/5 82/43/5 15/44/5
f 15/45/6 82/46/6 16/47/6 20/48/6 19/49/6
f 19/50/7 20/51/7 18/52/7 83/53/7 17/54/7
f 17/55/8 83/56/8 86/57/8 13/58/8
f 15/59/9 19/60/9 17/61/9 13/62/9
f 21/63/10 22/64/10 24/65/10 23/66/10
f 23/67/11 24/68/11 28/69/11 27/70/11
f 27/71/12 28/72/12 26/73/12 25/74/12
f 25/75/13 26/76/13 22/77/13 21/78/13
f 23/67/14 27/70/14 31/79/14 29/80/14
f 29/81/9 31/82/9 32/83/9 30/84/9
f 21/63/15 23/66/15 29/85/15 30/86/15
f 27/71/16 25/74/16 32/87/16 31/88/16
f 25/75/17 21/78/17 30/89/17 32/90/17
f 26/73/18 28/72/18 36/91/18 35/92/18
f 24/65/19 22/64/19 33/93/19 34/94/19
f 22/77/20 26/76/20 35/95/20 33/96/20
f 28/69/21 24/68/21 34/97/21 36/98/21
f 33/96/22 35/95/22 39/99/22 37/100/22
f 36/98/23 34/97/23 38/101/23 40/102/23
f 35/92/24 36/91/24 40/103/24 39/104/24
f 34/94/25 33/93/25 37/105/25 38/106/25
f 37/107/26 39/108/26 40/109/26 38/110/26
f 41/111/10 42/112/10 44/113/10 43/114/10
f 43/115/11 44/116/11 48/117/11 47/118/11
f 47/119/12 48/120/12 46/121/12 45/122/12
f 45/123/13 46/124/13 42/125/13 41/126/13
f 43/115/14 47/118/14 51/127/14 49/128/14
f 49/129/9 51/130/9 52/131/9 50/132/9
f 41/111/15 43/114/15 49/133/15 50/134/15
f 47/119/16 45/122/16 52/135/16 51/136/16
f 45/123/17 41/126/17 50/137/17 52/138/17
f 46/121/18 48/120/18 56/139/18 55/140/18
f 44/113/19 42/112/19 53/141/19 54/142/19
f 42/125/20 46/124/20 55/143/20 53/144/20
f 48/117/21 44/116/21 54/145/21 56/146/21
f 53/144/22 55/143/22 59/147/22 57/148/22
f 56/146/23 54/145/23 58/149/23 60/150/23
f 55/140/24 56/139/24 60/151/24 59/152/24
f 54/142/25 53/141/25 57/153/25 58/154/25
f 57/155/26 59/156/26 60/157/26 58/158/26
f 61/159/27 62/160/27 71/161/27 70/162/27
f 63/163/28 64/164/28 68/165/28 67/166/28
f 64/164/29 63/163/29 69/167/29 72/168/29
f 65/169/30 66/170/30 62/160/30 61/159/30
f 67/171/4 65/172/4 80/173/4 79/174/4
f 68/175/31 64/176/31 62/177/31 66/178/31
f 68/175/32 66/178/32 76/179/32 73/180/32
f 67/166/33 68/165/33 73/181/33 74/182/33
f 62/177/34 64/176/34 72/183/34 71/184/34
f 63/185/35 61/186/35 70/187/35 69/188/35
f 66/170/36 65/169/36 75/189/36 76/190/36
f 65/191/37 67/192/37 74/193/37 75/194/37
f 65/169/38 61/159/38 78/195/38 80/196/38
f 63/163/39 67/166/39 79/197/39 77/198/39
f 61/199/40 63/200/40 77/201/40 78/202/40
f 86/57/8 83/56/8 18/203/8 14/204/8
f 81/205/9 88/206/9 93/207/9 87/208/9 3/209/9 1/210/9
f 82/43/5 86/42/5 14/211/5 16/212/5
f 2/213/41 4/214/41 97/215/41 98/216/41
f 87/217/42 85/218/42 4/219/42 3/220/42
f 88/206/9 91/221/9 94/222/9 93/207/9
f 91/223/2 89/224/2 95/225/2 94/226/2
f 88/227/40 90/228/40 89/229/40 91/230/40
f 92/231/26 95/232/26 89/233/26 90/234/26
f 101/235/26 99/236/26 105/237/26 107/238/26
f 85/239/43 92/231/43 100/240/43 96/241/43
f 90/234/43 84/242/43 99/236/43 101/235/43
f 84/242/44 2/213/44 98/216/44 99/236/44
f 92/231/43 90/234/43 101/235/43 100/240/43
f 4/214/45 85/239/45 96/241/45 97/215/45
f 106/243/2 107/244/2 113/245/2 112/246/2
f 99/236/26 98/216/26 104/247/26 105/237/26
f 97/215/26 96/241/26 102/248/26 103/249/26
f 100/240/26 101/235/26 107/238/26 106/250/26
f 96/241/26 100/240/26 106/250/26 102/248/26
f 98/216/26 97/215/26 103/249/26 104/247/26
f 102/251/2 106/243/2 112/246/2 108/252/2
f 104/253/3 103/254/3 109/255/3 110/256/3
f 107/244/2 105/257/2 111/258/2 113/245/2
f 105/259/46 104/260/46 110/261/46 111/262/46
f 103/263/47 102/264/47 108/265/47 109/266/47
usemtl Material.002
f 108/267/26 112/268/26 113/269/26 111/270/26 110/271/26 109/272/26
