# Blender v2.79 (sub 0) OBJ File: 'chair.blend'
# www.blender.org
mtllib chair_00.mtl
o Cube_Cube.001
v -0.205000 0.390000 0.395000
v -0.205000 0.455000 0.395000
v -0.175000 0.390000 0.000000
v -0.175000 0.455000 0.000000
v 0.205000 0.390000 0.395000
v 0.205000 0.455000 0.395000
v 0.175000 0.390000 0.000000
v 0.175000 0.455000 0.000000
v 0.169363 0.000000 0.385058
v 0.165603 0.388732 0.394409
v 0.169363 0.000000 0.361058
v 0.165603 0.388732 0.358409
v 0.193363 0.000000 0.385058
v 0.201603 0.388732 0.394409
v 0.193363 0.000000 0.361058
v 0.201603 0.388732 0.358409
v -0.195603 0.000000 0.385058
v -0.199363 0.388732 0.394409
v -0.195603 0.000000 0.361058
v -0.199363 0.388732 0.358409
v -0.171603 0.000000 0.385058
v -0.163363 0.388732 0.394409
v -0.171603 0.000000 0.361058
v -0.163363 0.388732 0.358409
v -0.173239 0.200000 0.027106
v -0.175799 0.388732 0.035257
v -0.173239 0.200000 0.000706
v -0.175799 0.388732 -0.000743
v -0.146839 0.200000 0.027106
v -0.139799 0.388732 0.035257
v -0.146839 0.200000 0.000706
v -0.139799 0.388732 -0.000743
v -0.172039 0.000000 -0.016280
v -0.172039 0.000000 0.007720
v -0.148039 0.000000 -0.016280
v -0.148039 0.000000 0.007720
v -0.173999 0.638732 0.033457
v -0.173999 0.638732 0.001057
v -0.141599 0.638732 0.033457
v -0.141599 0.638732 0.001057
v -0.170759 0.900000 -0.006674
v -0.170759 0.900000 -0.032594
v -0.144839 0.900000 -0.006674
v -0.144839 0.900000 -0.032594
v 0.144151 0.200000 0.027106
v 0.141591 0.388732 0.035257
v 0.144151 0.200000 0.000706
v 0.141591 0.388732 -0.000743
v 0.170551 0.200000 0.027106
v 0.177591 0.388732 0.035257
v 0.170551 0.200000 0.000706
v 0.177591 0.388732 -0.000743
v 0.145351 0.000000 -0.016280
v 0.145351 0.000000 0.007720
v 0.169351 0.000000 -0.016280
v 0.169351 0.000000 0.007720
v 0.143391 0.638732 0.033457
v 0.143391 0.638732 0.001057
v 0.175791 0.638732 0.033457
v 0.175791 0.638732 0.001057
v 0.146631 0.900000 -0.006674
v 0.146631 0.900000 -0.032594
v 0.172551 0.900000 -0.006674
v 0.172551 0.900000 -0.032594
v -0.070000 0.700000 0.006654
v -0.070000 0.897994 -0.021601
v -0.070000 0.697174 -0.013145
v -0.070000 0.895168 -0.041401
v 0.070000 0.700000 0.006654
v 0.070000 0.897994 -0.021601
v 0.070000 0.697174 -0.013145
v 0.070000 0.895168 -0.041401
v -0.151278 0.698822 -0.000516
v -0.151278 0.701647 0.019283
v -0.151278 0.899641 -0.008972
v -0.151278 0.896816 -0.028772
v 0.151278 0.896816 -0.028772
v 0.151278 0.698822 -0.000516
v 0.151278 0.701647 0.019283
v 0.151278 0.899641 -0.008972
v -0.070000 0.456442 -0.000092
v -0.070000 0.456690 0.019907
v 0.070000 0.456442 -0.000092
v 0.070000 0.456690 0.019907
v -0.159720 0.467595 0.364318
v 0.159720 0.467595 0.364318
v -0.143748 0.467595 0.073918
v 0.143748 0.467595 0.073918
vt 0.605509 0.968299
vt 0.551966 0.968304
vt 0.551966 0.649532
vt 0.605509 0.649526
vt 0.498449 0.661452
vt 0.551952 0.661452
vt 0.551952 0.943779
vt 0.498449 0.943779
vt 0.551966 0.330726
vt 0.605507 0.330753
vt 0.605507 0.649526
vt 0.551966 0.649499
vt 0.498449 0.330726
vt 0.551966 0.330726
vt 0.551966 0.661452
vt 0.498450 0.661452
vt 0.000000 0.306526
vt 0.000000 0.024199
vt 0.325108 0.000000
vt 0.325108 0.330726
vt 0.325108 0.306526
vt 0.325108 0.024199
vt 0.649665 0.000000
vt 0.649665 0.330726
vt 0.992281 0.627186
vt 1.000000 0.940761
vt 0.970346 0.940761
vt 0.972512 0.627186
vt 0.281977 1.000000
vt 0.278879 0.686580
vt 0.308533 0.686580
vt 0.301746 1.000000
vt 0.997846 0.000000
vt 1.000000 0.313611
vt 0.970346 0.313611
vt 0.978077 0.000000
vt 0.344975 0.999762
vt 0.338188 0.686580
vt 0.367842 0.686580
vt 0.364745 0.999762
vt 0.475745 0.705940
vt 0.475745 0.686580
vt 0.495498 0.686580
vt 0.495498 0.705940
vt 0.992281 0.313611
vt 1.000000 0.627186
vt 0.970346 0.627186
vt 0.972512 0.313611
vt 0.252322 1.000000
vt 0.249225 0.686580
vt 0.278879 0.686580
vt 0.272092 1.000000
vt 0.633007 0.330726
vt 0.635161 0.644337
vt 0.605507 0.644337
vt 0.613238 0.330726
vt 0.315321 0.999762
vt 0.308533 0.686580
vt 0.338188 0.686580
vt 0.335090 0.999762
vt 0.000000 0.707945
vt 0.000000 0.688585
vt 0.019753 0.688585
vt 0.019753 0.707945
vt 0.813004 0.565431
vt 0.803459 0.413332
vt 0.833107 0.412805
vt 0.834746 0.565045
vt 0.942801 0.565270
vt 0.940692 0.413097
vt 0.970346 0.413097
vt 0.964547 0.565270
vt 0.683207 0.161409
vt 0.681549 0.313683
vt 0.651900 0.313156
vt 0.661464 0.161022
vt 0.887182 0.565229
vt 0.881383 0.413268
vt 0.911038 0.413268
vt 0.908929 0.565229
vt 0.963559 0.725951
vt 0.943789 0.725951
vt 0.039507 0.707945
vt 0.039507 0.688585
vt 0.059260 0.688585
vt 0.059260 0.707945
vt 0.851729 0.726101
vt 0.831963 0.726452
vt 0.680418 0.000000
vt 0.700184 0.000351
vt 0.907940 0.725992
vt 0.888171 0.725992
vt 0.676349 0.515269
vt 0.649665 0.514795
vt 0.801216 0.211679
vt 0.827900 0.211205
vt 0.882866 0.211659
vt 0.909555 0.211659
vt 0.942175 0.211641
vt 0.968863 0.211641
vt 0.885535 0.000000
vt 0.906886 0.000000
vt 0.944843 0.000000
vt 0.966194 0.000000
vt 0.700184 0.726454
vt 0.678837 0.726074
vt 0.830382 0.000379
vt 0.851729 0.000000
vt 0.454447 0.686580
vt 0.454447 0.707489
vt 0.433150 0.707489
vt 0.433150 0.686580
vt 0.762491 0.565431
vt 0.752946 0.413332
vt 0.782595 0.412805
vt 0.784234 0.565045
vt 0.913146 0.565270
vt 0.911038 0.413097
vt 0.940692 0.413097
vt 0.934893 0.565270
vt 0.733726 0.161409
vt 0.732069 0.313683
vt 0.702420 0.313156
vt 0.711984 0.161022
vt 0.857528 0.565229
vt 0.851729 0.413268
vt 0.881383 0.413268
vt 0.879274 0.565229
vt 0.933905 0.725951
vt 0.914135 0.725951
vt 0.019753 0.707945
vt 0.019753 0.688585
vt 0.039507 0.688585
vt 0.039507 0.707945
vt 0.801216 0.726101
vt 0.781450 0.726452
vt 0.730938 0.000000
vt 0.750704 0.000351
vt 0.878286 0.725992
vt 0.858516 0.725993
vt 0.726868 0.515269
vt 0.700184 0.514795
vt 0.750704 0.211679
vt 0.777388 0.211205
vt 0.853212 0.211659
vt 0.879900 0.211659
vt 0.912520 0.211641
vt 0.939209 0.211641
vt 0.855880 0.000000
vt 0.877231 0.000000
vt 0.915189 0.000000
vt 0.936540 0.000000
vt 0.750704 0.726453
vt 0.729357 0.726074
vt 0.779869 0.000379
vt 0.801216 0.000000
vt 0.475745 0.686580
vt 0.475745 0.707489
vt 0.454447 0.707489
vt 0.454447 0.686580
vt 0.182274 0.492081
vt 0.182274 0.331736
vt 0.249225 0.330726
vt 0.249225 0.491071
vt 0.316176 0.492132
vt 0.316176 0.331661
vt 0.431498 0.331661
vt 0.431498 0.492132
vt 0.249225 0.491197
vt 0.249225 0.330726
vt 0.066951 0.492081
vt 0.066951 0.331736
vt 0.384350 0.687987
vt 0.400762 0.686580
vt 0.400762 0.883132
vt 0.384302 0.882453
vt 0.635161 0.709900
vt 0.635161 0.822831
vt 0.618728 0.822831
vt 0.618728 0.709900
vt 0.608255 0.644337
vt 0.624688 0.644337
vt 0.498449 0.330726
vt 0.498449 0.491197
vt 0.624688 0.888393
vt 0.608255 0.888393
vt 0.416956 0.686580
vt 0.433150 0.689055
vt 0.433150 0.755412
vt 0.416956 0.752937
vt 0.000000 0.491071
vt 0.000000 0.330726
vt 0.416956 0.752937
vt 0.400762 0.755412
vt 0.400762 0.689055
vt 0.416956 0.686580
vt 0.182274 0.688585
vt 0.066951 0.688585
vt 0.431498 0.686580
vt 0.316176 0.686580
vt 0.384302 0.883137
vt 0.367890 0.881730
vt 0.367842 0.687258
vt 0.384302 0.686580
vt 0.000000 0.000000
vt 0.000000 0.000000
vt 0.000000 0.000000
vt 0.000000 0.000000
vn -0.9971 0.0000 -0.0757
vn 0.0000 0.0000 -1.0000
vn 0.9971 0.0000 -0.0757
vn 0.0000 0.0000 1.0000
vn 0.0000 -1.0000 0.0000
vn 0.0000 1.0000 -0.0000
vn -1.0000 -0.0097 0.0000
vn 0.0000 -0.0068 -1.0000
vn 0.9998 -0.0212 0.0000
vn 0.0000 -0.0240 0.9997
vn -0.9999 -0.0136 0.0000
vn 0.0000 -0.0077 -1.0000
vn 0.9993 -0.0373 0.0000
vn 0.0000 -0.0431 0.9991
vn 0.0000 0.0846 -0.9964
vn -1.0000 -0.0060 0.0000
vn 1.0000 -0.0060 0.0000
vn 0.0000 -0.0965 0.9953
vn 1.0000 0.0072 0.0000
vn -1.0000 0.0072 0.0000
vn 0.0000 0.0072 1.0000
vn 0.0000 0.0072 -1.0000
vn 0.0000 0.1518 0.9884
vn 0.0000 -0.1277 -0.9918
vn 0.9999 0.0124 0.0000
vn -0.9999 0.0124 0.0000
vn 0.1548 0.1396 0.9780
vn 0.0000 -0.1413 -0.9900
vn -0.1548 -0.1396 -0.9780
vn 0.0000 0.1413 0.9900
vn 1.0000 -0.0000 0.0000
vn 0.0000 0.9900 -0.1413
vn 0.0019 0.9900 -0.1413
vn 0.1548 -0.1396 -0.9780
vn -0.0019 0.9900 -0.1413
vn 0.0019 -0.9900 0.1413
vn -0.1548 0.1396 0.9780
vn -0.0019 -0.9900 0.1413
vn 0.0000 0.0544 0.9985
vn 0.0000 -0.0541 -0.9985
vn -1.0000 -0.0000 0.0000
usemtl Material.001
s off
f 1/1/1 2/2/1 4/3/1 3/4/1
f 3/5/2 4/6/2 8/7/2 7/8/2
f 7/9/3 8/10/3 6/11/3 5/12/3
f 5/13/4 6/14/4 2/15/4 1/16/4
f 3/17/5 7/18/5 5/19/5 1/20/5
f 8/21/6 4/22/6 2/23/6 6/24/6
f 9/25/7 10/26/7 12/27/7 11/28/7
f 11/29/8 12/30/8 16/31/8 15/32/8
f 15/33/9 16/34/9 14/35/9 13/36/9
f 13/37/10 14/38/10 10/39/10 9/40/10
f 11/41/5 15/42/5 13/43/5 9/44/5
f 17/45/7 18/46/7 20/47/7 19/48/7
f 19/49/8 20/50/8 24/51/8 23/52/8
f 23/53/9 24/54/9 22/55/9 21/56/9
f 21/57/10 22/58/10 18/59/10 17/60/10
f 19/61/5 23/62/5 21/63/5 17/64/5
f 25/65/11 26/66/11 28/67/11 27/68/11
f 27/69/12 28/70/12 32/71/12 31/72/12
f 31/73/13 32/74/13 30/75/13 29/76/13
f 29/77/14 30/78/14 26/79/14 25/80/14
f 27/69/15 31/72/15 35/81/15 33/82/15
f 33/83/5 35/84/5 36/85/5 34/86/5
f 25/65/16 27/68/16 33/87/16 34/88/16
f 31/73/17 29/76/17 36/89/17 35/90/17
f 29/77/18 25/80/18 34/91/18 36/92/18
f 30/75/19 32/74/19 40/93/19 39/94/19
f 28/67/20 26/66/20 37/95/20 38/96/20
f 26/79/21 30/78/21 39/97/21 37/98/21
f 32/71/22 28/70/22 38/99/22 40/100/22
f 37/98/23 39/97/23 43/101/23 41/102/23
f 40/100/24 38/99/24 42/103/24 44/104/24
f 39/94/25 40/93/25 44/105/25 43/106/25
f 38/96/26 37/95/26 41/107/26 42/108/26
f 41/109/6 43/110/6 44/111/6 42/112/6
f 45/113/11 46/114/11 48/115/11 47/116/11
f 47/117/12 48/118/12 52/119/12 51/120/12
f 51/121/13 52/122/13 50/123/13 49/124/13
f 49/125/14 50/126/14 46/127/14 45/128/14
f 47/117/15 51/120/15 55/129/15 53/130/15
f 53/131/5 55/132/5 56/133/5 54/134/5
f 45/113/16 47/116/16 53/135/16 54/136/16
f 51/121/17 49/124/17 56/137/17 55/138/17
f 49/125/18 45/128/18 54/139/18 56/140/18
f 50/123/19 52/122/19 60/141/19 59/142/19
f 48/115/20 46/114/20 57/143/20 58/144/20
f 46/127/21 50/126/21 59/145/21 57/146/21
f 52/119/22 48/118/22 58/147/22 60/148/22
f 57/146/23 59/145/23 63/149/23 61/150/23
f 60/148/24 58/147/24 62/151/24 64/152/24
f 59/142/25 60/141/25 64/153/25 63/154/25
f 58/144/26 57/143/26 61/155/26 62/156/26
f 61/157/6 63/158/6 64/159/6 62/160/6
f 65/161/27 66/162/27 75/163/27 74/164/27
f 67/165/28 68/166/28 72/167/28 71/168/28
f 68/166/29 67/165/29 73/169/29 76/170/29
f 69/171/30 70/172/30 66/162/30 65/161/30
f 71/173/31 69/174/31 84/175/31 83/176/31
f 72/177/32 68/178/32 66/179/32 70/180/32
f 72/177/33 70/180/33 80/181/33 77/182/33
f 71/168/34 72/167/34 77/183/34 78/184/34
f 66/179/35 68/178/35 76/185/35 75/186/35
f 67/187/36 65/188/36 74/189/36 73/190/36
f 70/172/37 69/171/37 79/191/37 80/192/37
f 69/193/38 71/194/38 78/195/38 79/196/38
f 69/171/39 65/161/39 82/197/39 84/198/39
f 67/165/40 71/168/40 83/199/40 81/200/40
f 65/201/41 67/202/41 81/203/41 82/204/41
usemtl Material.002
f 85/205/6 86/206/6 88/207/6 87/208/6
