# Blender v2.79 (sub 0) OBJ File: 'model.blend'
# www.blender.org
mtllib cabinet_frame.mtl
o Cylinder_Cylinder.001
v -0.349101 -0.391595 -0.188053
v -0.349101 -0.391596 -0.088053
v -0.299101 -0.404993 -0.188053
v -0.299101 -0.404993 -0.088053
v -0.262499 -0.441595 -0.188053
v -0.262499 -0.441596 -0.088053
v -0.249101 -0.491596 -0.188053
v -0.249101 -0.491596 -0.088053
v -0.262499 -0.541596 -0.188053
v -0.262499 -0.541596 -0.088053
v -0.299101 -0.578198 -0.188053
v -0.299101 -0.578198 -0.088053
v -0.349101 -0.591595 -0.188053
v -0.349101 -0.591596 -0.088053
v -0.399101 -0.578198 -0.188053
v -0.399101 -0.578198 -0.088053
v -0.435704 -0.541596 -0.188053
v -0.435704 -0.541596 -0.088053
v -0.449101 -0.491596 -0.188053
v -0.449101 -0.491596 -0.088053
v -0.435704 -0.441596 -0.188053
v -0.435704 -0.441596 -0.088053
v -0.399101 -0.404993 -0.188053
v -0.399101 -0.404993 -0.088053
v -0.349101 -0.431595 -0.188053
v -0.319101 -0.439634 -0.188053
v -0.297140 -0.461595 -0.188053
v -0.289101 -0.491596 -0.188053
v -0.297140 -0.521595 -0.188053
v -0.319101 -0.543557 -0.188053
v -0.349101 -0.551595 -0.188053
v -0.379101 -0.543557 -0.188053
v -0.401063 -0.521595 -0.188053
v -0.409101 -0.491596 -0.188053
v -0.401063 -0.461596 -0.188053
v -0.379101 -0.439634 -0.188053
v -0.349101 -0.431595 -0.129711
v -0.319101 -0.439634 -0.129711
v -0.297140 -0.461595 -0.129711
v -0.289101 -0.491596 -0.129711
v -0.297140 -0.521595 -0.129711
v -0.319101 -0.543557 -0.129711
v -0.349101 -0.551595 -0.129711
v -0.379101 -0.543557 -0.129711
v -0.401063 -0.521595 -0.129711
v -0.409101 -0.491596 -0.129711
v -0.401063 -0.461596 -0.129711
v -0.379101 -0.439634 -0.129711
v -0.449101 -0.351244 -0.188053
v -0.449101 -0.351244 -0.088053
v -0.399101 -0.351244 -0.188053
v -0.399101 -0.351244 -0.088053
v -0.449101 -0.351244 -0.138053
v -0.399101 -0.351244 -0.138053
v -0.449101 -0.208069 -0.050448
v -0.399101 -0.208069 -0.050448
v -0.449101 -0.208069 -0.100448
v -0.399101 -0.208069 -0.100448
v -0.449101 -0.208071 -0.216835
v -0.399101 -0.208071 -0.216835
v -0.449101 -0.208071 -0.166835
v -0.399101 -0.208071 -0.166835
v -0.324101 -0.448294 -0.088053
v -0.349101 -0.441596 -0.088053
v -0.305800 -0.466596 -0.088053
v -0.299101 -0.491596 -0.088053
v -0.305800 -0.516596 -0.088053
v -0.324101 -0.534897 -0.088053
v -0.349101 -0.541596 -0.088053
v -0.374101 -0.534897 -0.088053
v -0.392402 -0.516596 -0.088053
v -0.399101 -0.491596 -0.088053
v -0.392403 -0.466596 -0.088053
v -0.374101 -0.448294 -0.088053
v -0.324101 -0.448294 0.042110
v -0.349101 -0.441596 0.042110
v -0.305800 -0.466596 0.042110
v -0.299101 -0.491596 0.042110
v -0.305800 -0.516596 0.042110
v -0.324101 -0.534897 0.042110
v -0.349101 -0.541596 0.042110
v -0.374101 -0.534897 0.042110
v -0.392402 -0.516596 0.042110
v -0.399101 -0.491596 0.042110
v -0.392403 -0.466596 0.042110
v -0.374101 -0.448294 0.042110
v -0.471500 -0.092244 0.013257
v -0.471500 -0.068484 0.013257
v -0.448114 -0.092244 -0.008343
v -0.448114 -0.068484 -0.008343
v 0.471500 -0.092244 0.013257
v 0.471500 -0.068484 0.013257
v 0.448114 -0.092244 -0.008343
v 0.448114 -0.068484 -0.008343
v -0.448114 -0.092244 -0.355873
v -0.448114 -0.068484 -0.355873
v -0.471500 -0.092244 -0.377473
v -0.471500 -0.068484 -0.377473
v 0.448114 -0.092244 -0.355873
v 0.448114 -0.068484 -0.355873
v 0.471500 -0.092244 -0.377473
v 0.471500 -0.068484 -0.377473
v -0.475000 -0.965000 0.017459
v -0.475000 -0.935000 0.017459
v -0.475000 -0.965000 -0.382541
v -0.475000 -0.935000 -0.382541
v 0.475000 -0.965000 0.017459
v 0.475000 -0.935000 0.017459
v 0.475000 -0.965000 -0.382541
v 0.475000 -0.935000 -0.382541
v -0.475000 1.142000 -0.379541
v -0.475000 1.166000 -0.379541
v -0.475000 1.166000 -0.355541
v 0.475000 1.142000 -0.379541
v 0.475000 1.166000 -0.379541
v 0.475000 1.166000 -0.355541
v 0.473500 1.142000 0.015059
v 0.473500 1.166000 0.015059
v 0.449500 1.166000 0.015059
v 0.473500 1.142000 -0.380141
v 0.473500 1.166000 -0.380141
v 0.449500 1.166000 -0.380141
v -0.473500 1.142000 0.015059
v -0.473500 1.166000 0.015059
v -0.449500 1.166000 0.015059
v -0.473500 1.142000 -0.380141
v -0.473500 1.166000 -0.380141
v -0.449500 1.166000 -0.380141
v -0.475000 1.142000 0.014459
v -0.475000 1.166000 0.014459
v -0.475000 1.166000 -0.009541
v 0.475000 1.142000 0.014459
v 0.475000 1.166000 0.014459
v 0.475000 1.166000 -0.009541
v -0.448000 -0.964150 -0.379541
v -0.448000 1.164775 -0.379541
v -0.472000 -0.964150 -0.379541
v -0.472000 1.164775 -0.379541
v -0.472000 -0.964150 -0.355541
v -0.472000 1.164775 -0.355541
v -0.448000 -0.964150 0.014459
v -0.448000 1.164775 0.014459
v -0.472000 -0.964150 0.014459
v -0.472000 1.164775 0.014459
v -0.472000 -0.964150 -0.009541
v -0.472000 1.164775 -0.009541
v 0.448000 -0.964150 0.014459
v 0.448000 1.164775 0.014459
v 0.472000 -0.964150 0.014459
v 0.472000 1.164775 0.014459
v 0.472000 -0.964150 -0.009541
v 0.472000 1.164775 -0.009541
v 0.448000 -0.964150 -0.379541
v 0.448000 1.164775 -0.379541
v 0.472000 -0.964150 -0.379541
v 0.472000 1.164775 -0.379541
v 0.472000 -0.964150 -0.355541
v 0.472000 1.164775 -0.355541
v -0.448653 -0.963474 -0.109599
v -0.448653 1.162189 -0.109599
v -0.448653 -0.963474 -0.136199
v -0.448653 1.162189 -0.136199
v -0.473493 -0.963474 -0.109599
v -0.473493 1.162189 -0.109599
v -0.473493 -0.963474 -0.136199
v -0.473493 1.162189 -0.136199
v 0.448653 -0.963474 -0.109599
v 0.448653 1.162189 -0.109599
v 0.448653 -0.963474 -0.136199
v 0.448653 1.162189 -0.136199
v 0.473493 -0.963474 -0.109599
v 0.473493 1.162189 -0.109599
v 0.473493 -0.963474 -0.136199
v 0.473493 1.162189 -0.136199
v -0.465600 -0.226793 0.012057
v 0.465600 -0.226793 0.012057
v -0.465600 -0.202793 0.012057
v 0.465600 -0.202793 0.012057
v -0.285569 -0.542749 0.006262
v -0.468788 -0.542749 0.006262
v -0.285569 -0.563089 0.006262
v -0.468788 -0.619184 0.006262
v -0.285569 -0.542749 0.006262
v -0.468788 -0.542749 0.006262
v -0.285569 -0.542749 -0.086415
v -0.468788 -0.542749 -0.086415
v -0.450000 -0.207993 -0.039633
v -0.450000 -0.067993 -0.039633
v -0.450000 -0.207993 -0.219633
v -0.450000 -0.067993 -0.219633
v 0.450000 -0.207993 -0.039633
v 0.450000 -0.067993 -0.039633
v 0.450000 -0.207993 -0.219633
v 0.450000 -0.067993 -0.219633
v -0.450000 -0.067993 0.012904
v 0.450000 -0.067993 0.012904
v -0.450000 1.170251 -0.039633
v -0.450000 1.170251 -0.219633
v 0.450000 1.170251 -0.039633
v 0.450000 1.170251 -0.219633
v -0.450000 1.170251 0.012904
v 0.450000 1.170251 0.012904
v -0.450000 1.170251 -0.039633
v -0.450000 1.170251 -0.219633
v 0.450000 1.170251 -0.039633
v 0.450000 1.170251 -0.219633
v -0.450000 1.170251 0.012904
v 0.450000 1.170251 0.012904
vn 0.0000 -1.0000 0.0000
vn 0.0000 0.0000 -1.0000
vn 1.0000 0.0000 0.0000
vn 0.0000 0.0000 1.0000
vn 0.0000 1.0000 0.0000
vn -1.0000 0.0000 0.0000
vn 0.5000 0.8660 0.0000
vn 0.8660 0.5000 0.0000
vn 0.8660 -0.5000 -0.0000
vn 0.5000 -0.8660 -0.0000
vn -0.5000 -0.8660 0.0000
vn -0.8660 -0.5000 -0.0000
vn -0.9914 -0.1305 -0.0000
vn -0.2588 0.9659 0.0000
vn -0.8660 0.5000 0.0000
vn -0.5000 0.8660 0.0000
vn 0.0000 -0.1281 0.9918
vn 0.0000 -0.0990 -0.9951
vn 0.0000 -0.2540 0.9672
vn 0.0000 0.2540 -0.9672
vn 0.0000 -0.1971 -0.9804
usemtl gray_steel
s off
f 91//1 93//1 99//1 101//1
f 89//2 90//2 94//2 93//2
f 91//3 101//3 102//3 92//3
f 91//4 92//4 88//4 87//4
f 89//1 93//1 91//1 87//1
f 94//5 90//5 88//5 92//5
f 94//5 92//5 102//5 100//5
f 97//2 98//2 102//2 101//2
f 88//5 90//5 96//5 98//5
f 99//4 100//4 96//4 95//4
f 97//1 101//1 99//1 95//1
f 102//5 98//5 96//5 100//5
f 93//6 94//6 100//6 99//6
f 90//3 89//3 95//3 96//3
f 89//1 87//1 97//1 95//1
f 87//6 88//6 98//6 97//6
f 103//6 104//6 106//6 105//6
f 105//2 106//2 110//2 109//2
f 109//3 110//3 108//3 107//3
f 107//4 108//4 104//4 103//4
f 105//5 103//5 107//5 109//5
f 114//2 111//2 112//2 115//2
f 116//5 115//5 112//5 113//5
f 120//3 121//3 118//3 117//3
f 122//5 119//5 118//5 121//5
f 126//6 123//6 124//6 127//6
f 128//5 127//5 124//5 125//5
f 132//4 133//4 130//4 129//4
f 134//5 131//5 130//5 133//5
f 139//6 140//6 138//6 137//6
f 137//2 138//2 136//2 135//2
f 145//6 143//6 144//6 146//6
f 143//4 141//4 142//4 144//4
f 151//3 152//3 150//3 149//3
f 149//4 150//4 148//4 147//4
f 157//3 155//3 156//3 158//3
f 155//2 153//2 154//2 156//2
f 159//3 161//3 162//3 160//3
f 161//4 162//4 166//4 165//4
f 165//3 166//3 164//3 163//3
f 163//2 164//2 160//2 159//2
f 161//5 165//5 163//5 159//5
f 166//1 162//1 160//1 164//1
f 167//6 168//6 170//6 169//6
f 169//2 170//2 174//2 173//2
f 173//3 174//3 172//3 171//3
f 171//4 172//4 168//4 167//4
f 169//1 173//1 171//1 167//1
f 174//5 170//5 168//5 172//5
f 175//4 176//4 178//4 177//4
f 179//4 180//4 182//4 181//4
f 184//5 183//5 185//5 186//5
f 187//6 188//6 190//6 189//6
f 189//2 190//2 194//2 193//2
f 193//3 194//3 192//3 191//3
f 191//4 192//4 188//4 187//4
f 189//1 193//1 191//1 187//1
f 194//5 190//5 188//5 192//5
f 192//5 188//5 195//5 196//5
f 194//6 192//6 199//6 200//6
f 188//3 190//3 198//3 197//3
f 192//6 196//6 202//6 199//6
f 195//3 188//3 197//3 201//3
f 199//4 202//4 208//4 205//4
f 197//4 198//4 204//4 203//4
f 201//4 197//4 203//4 207//4
f 200//4 199//4 205//4 206//4
f 204//1 206//1 205//1 208//1 207//1 203//1
s 1
f 1//5 2//5 4//7 3//7
f 3//7 4//7 6//8 5//8
f 5//8 6//8 8//3 7//3
f 7//3 8//3 10//9 9//9
f 9//9 10//9 12//10 11//10
f 11//10 12//10 14//1 13//1
f 13//1 14//1 16//11 15//11
f 15//11 16//11 18//12 17//12
f 17//12 18//12 20//13 19//13
f 19//13 20//13 50//6 53//6 49//6
f 18//4 16//4 70//4 71//4
f 24//3 23//3 51//3 54//3 52//3
f 23//14 24//14 2//5 1//5
f 13//2 15//2 32//2 31//2
f 35//9 36//10 48//10 47//9
f 11//2 13//2 31//2 30//2
f 9//2 11//2 30//2 29//2
f 7//2 9//2 29//2 28//2
f 23//2 1//2 25//2 36//2
f 1//2 3//2 26//2 25//2
f 5//2 7//2 28//2 27//2
f 21//2 23//2 36//2 35//2
f 3//2 5//2 27//2 26//2
f 19//2 21//2 35//2 34//2
f 17//2 19//2 34//2 33//2
f 15//2 17//2 33//2 32//2
f 37//2 38//2 39//2 40//2 41//2 42//2 43//2 44//2 45//2 46//2 47//2 48//2
f 25//1 26//11 38//11 37//1
f 32//7 33//8 45//8 44//7
f 29//15 30//16 42//16 41//15
f 36//10 25//1 37//1 48//10
f 26//11 27//12 39//12 38//11
f 33//8 34//3 46//3 45//8
f 30//16 31//5 43//5 42//16
f 27//12 28//6 40//6 39//12
f 34//3 35//9 47//9 46//3
f 31//5 32//7 44//7 43//5
f 28//6 29//15 41//15 40//6
f 20//4 22//4 50//17
f 22//4 24//4 52//17 50//17
f 19//2 49//18 21//2
f 21//2 49//18 51//18 23//2
f 52//3 54//3 58//3 56//3
f 53//6 50//6 55//6 57//6
f 50//17 52//17 56//19 55//19
f 54//20 53//20 57//20 58//20
f 51//18 49//18 59//21 60//21
f 54//3 51//3 60//3 62//3
f 49//6 53//6 61//6 59//6
f 71//12 70//11 82//11 83//12
f 16//4 14//4 69//4 70//4
f 14//4 12//4 68//4 69//4
f 12//4 10//4 67//4 68//4
f 10//4 8//4 66//4 67//4
f 2//4 24//4 74//4 64//4
f 4//4 2//4 64//4 63//4
f 8//4 6//4 65//4 66//4
f 24//4 22//4 73//4 74//4
f 6//4 4//4 63//4 65//4
f 22//4 20//4 72//4 73//4
f 20//4 18//4 71//4 72//4
f 75//4 76//4 86//4 85//4 84//4 83//4 82//4 81//4 80//4 79//4 78//4 77//4
f 68//10 67//9 79//9 80//10
f 64//5 74//16 86//16 76//5
f 65//8 63//7 75//7 77//8
f 72//6 71//12 83//12 84//6
f 69//1 68//10 80//10 81//1
f 66//3 65//8 77//8 78//3
f 73//15 72//6 84//6 85//15
f 70//11 69//1 81//1 82//11
f 67//9 66//3 78//3 79//9
f 74//16 73//15 85//15 86//16
f 63//7 64//5 76//5 75//7
