# Blender v2.79 (sub 0) OBJ File: 'ecvm.blend'
# www.blender.org
mtllib cabinet_frame.mtl
o Cylinder_Cylinder.001
v -0.349101 -0.391595 -0.188053
v -0.349101 -0.391596 -0.088053
v -0.299101 -0.404993 -0.188053
v -0.299101 -0.404993 -0.088053
v -0.262499 -0.441595 -0.188053
v -0.262499 -0.441596 -0.088053
v -0.249101 -0.491596 -0.188053
v -0.249101 -0.491596 -0.088053
v -0.262499 -0.541596 -0.188053
v -0.262499 -0.541596 -0.088053
v -0.299101 -0.578198 -0.188053
v -0.299101 -0.578198 -0.088053
v -0.349101 -0.591595 -0.188053
v -0.349101 -0.591596 -0.088053
v -0.399101 -0.578198 -0.188053
v -0.399101 -0.578198 -0.088053
v -0.435704 -0.541596 -0.188053
v -0.435704 -0.541596 -0.088053
v -0.449101 -0.491596 -0.188053
v -0.449101 -0.491596 -0.088053
v -0.435704 -0.441596 -0.188053
v -0.435704 -0.441596 -0.088053
v -0.399101 -0.404993 -0.188053
v -0.399101 -0.404993 -0.088053
v -0.349101 -0.431595 -0.188053
v -0.319101 -0.439634 -0.188053
v -0.297140 -0.461595 -0.188053
v -0.289101 -0.491596 -0.188053
v -0.297140 -0.521595 -0.188053
v -0.319101 -0.543557 -0.188053
v -0.349101 -0.551595 -0.188053
v -0.379101 -0.543557 -0.188053
v -0.401063 -0.521595 -0.188053
v -0.409101 -0.491596 -0.188053
v -0.401063 -0.461596 -0.188053
v -0.379101 -0.439634 -0.188053
v -0.349101 -0.431595 -0.129711
v -0.319101 -0.439634 -0.129711
v -0.297140 -0.461595 -0.129711
v -0.289101 -0.491596 -0.129711
v -0.297140 -0.521595 -0.129711
v -0.319101 -0.543557 -0.129711
v -0.349101 -0.551595 -0.129711
v -0.379101 -0.543557 -0.129711
v -0.401063 -0.521595 -0.129711
v -0.409101 -0.491596 -0.129711
v -0.401063 -0.461596 -0.129711
v -0.379101 -0.439634 -0.129711
v -0.445265 -0.351244 -0.188053
v -0.445265 -0.351244 -0.088053
v -0.399101 -0.351244 -0.188053
v -0.399101 -0.351244 -0.088053
v -0.445265 -0.351244 -0.138053
v -0.399101 -0.351244 -0.138053
v -0.445265 -0.246710 -0.039926
v -0.399101 -0.246710 -0.039926
v -0.445265 -0.246710 -0.093243
v -0.399101 -0.246710 -0.093243
v -0.442362 -0.247389 -0.216835
v -0.399101 -0.247389 -0.216835
v -0.442362 -0.247389 -0.166835
v -0.399101 -0.247389 -0.166835
v -0.324101 -0.448294 -0.088053
v -0.349101 -0.441596 -0.088053
v -0.305800 -0.466596 -0.088053
v -0.299101 -0.491596 -0.088053
v -0.305800 -0.516596 -0.088053
v -0.324101 -0.534897 -0.088053
v -0.349101 -0.541596 -0.088053
v -0.374101 -0.534897 -0.088053
v -0.392402 -0.516596 -0.088053
v -0.399101 -0.491596 -0.088053
v -0.392403 -0.466596 -0.088053
v -0.374101 -0.448294 -0.088053
v -0.324101 -0.448294 0.042110
v -0.349101 -0.441596 0.042110
v -0.305800 -0.466596 0.042110
v -0.299101 -0.491596 0.042110
v -0.305800 -0.516596 0.042110
v -0.324101 -0.534897 0.042110
v -0.349101 -0.541596 0.042110
v -0.374101 -0.534897 0.042110
v -0.392402 -0.516596 0.042110
v -0.399101 -0.491596 0.042110
v -0.392403 -0.466596 0.042110
v -0.374101 -0.448294 0.042110
v -0.471500 -0.092244 0.013257
v -0.471500 -0.068484 0.013257
v -0.448114 -0.092244 -0.008343
v -0.448114 -0.068484 -0.008343
v 0.471500 -0.092244 0.013257
v 0.471500 -0.068484 0.013257
v 0.448114 -0.092244 -0.008343
v 0.448114 -0.068484 -0.008343
v -0.448114 -0.092244 -0.355873
v -0.448114 -0.068484 -0.355873
v -0.471500 -0.092244 -0.377473
v -0.471500 -0.068484 -0.377473
v 0.448114 -0.092244 -0.355873
v 0.448114 -0.068484 -0.355873
v 0.471500 -0.092244 -0.377473
v 0.471500 -0.068484 -0.377473
v -0.475000 -0.965000 0.017459
v -0.475000 -0.935000 0.017459
v -0.475000 -0.965000 -0.382541
v -0.475000 -0.935000 -0.382541
v 0.475000 -0.965000 0.017459
v 0.475000 -0.935000 0.017459
v 0.475000 -0.965000 -0.382541
v 0.475000 -0.935000 -0.382541
v -0.475000 1.148813 -0.379541
v -0.475000 1.172813 -0.379541
v -0.475000 1.172813 -0.355541
v 0.475000 1.148813 -0.379541
v 0.475000 1.172813 -0.379541
v 0.475000 1.172813 -0.355541
v 0.473500 1.148813 0.015059
v 0.473500 1.172813 0.015059
v 0.449500 1.172813 0.015059
v 0.473500 1.148813 -0.380141
v 0.473500 1.172813 -0.380141
v 0.449500 1.172813 -0.380141
v -0.473500 1.148813 0.015059
v -0.473500 1.172813 0.015059
v -0.449500 1.172813 0.015059
v -0.473500 1.148813 -0.380141
v -0.473500 1.172813 -0.380141
v -0.449500 1.172813 -0.380141
v -0.475000 1.148813 0.014459
v -0.475000 1.172813 0.014459
v -0.475000 1.172813 -0.009541
v 0.475000 1.148813 0.014459
v 0.475000 1.172813 0.014459
v 0.475000 1.172813 -0.009541
v -0.448000 -0.964150 -0.379541
v -0.448000 1.171587 -0.379541
v -0.472000 -0.964150 -0.379541
v -0.472000 1.171587 -0.379541
v -0.472000 -0.964150 -0.355541
v -0.472000 1.171587 -0.355541
v -0.448000 -0.964150 0.014459
v -0.448000 1.171587 0.014459
v -0.472000 -0.964150 0.014459
v -0.472000 1.171587 0.014459
v -0.472000 -0.964150 -0.009541
v -0.472000 1.171587 -0.009541
v 0.448000 -0.964150 0.014459
v 0.448000 1.171587 0.014459
v 0.472000 -0.964150 0.014459
v 0.472000 1.171587 0.014459
v 0.472000 -0.964150 -0.009541
v 0.472000 1.171587 -0.009541
v 0.448000 -0.964150 -0.379541
v 0.448000 1.171587 -0.379541
v 0.472000 -0.964150 -0.379541
v 0.472000 1.171587 -0.379541
v 0.472000 -0.964150 -0.355541
v 0.472000 1.171587 -0.355541
v -0.448653 -0.963474 -0.109599
v -0.448653 1.169002 -0.109599
v -0.448653 -0.963474 -0.136199
v -0.448653 1.169002 -0.136199
v -0.473493 -0.963474 -0.109599
v -0.473493 1.169002 -0.109599
v -0.473493 -0.963474 -0.136199
v -0.473493 1.169002 -0.136199
v 0.448653 -0.963474 -0.109599
v 0.448653 1.169002 -0.109599
v 0.448653 -0.963474 -0.136199
v 0.448653 1.169002 -0.136199
v 0.473493 -0.963474 -0.109599
v 0.473493 1.169002 -0.109599
v 0.473493 -0.963474 -0.136199
v 0.473493 1.169002 -0.136199
v -0.465600 -0.247539 0.012057
v 0.465600 -0.247539 0.012057
v -0.465600 -0.223539 0.012057
v 0.465600 -0.223539 0.012057
v -0.285569 -0.561631 0.006262
v -0.468788 -0.561631 0.006262
v -0.285569 -0.581971 0.006262
v -0.468788 -0.638066 0.006262
v -0.285569 -0.561631 0.006262
v -0.468788 -0.561631 0.006262
v -0.285569 -0.561631 -0.086415
v -0.468788 -0.561631 -0.086415
v -0.450000 -0.207993 -0.022930
v -0.446400 -0.065437 -0.022930
v -0.450000 -0.207993 -0.105171
v -0.446400 -0.065437 -0.105171
v 0.450000 -0.207993 -0.022930
v 0.446400 -0.065437 -0.022930
v 0.450000 -0.207993 -0.105171
v 0.446400 -0.065436 -0.105171
v -0.446400 -0.065437 0.012904
v 0.446400 -0.065437 0.012904
v -0.446400 1.170251 -0.022930
v -0.446400 1.170251 -0.105171
v 0.446400 1.170251 -0.022930
v 0.446400 1.170251 -0.105171
v -0.446400 1.170251 0.012904
v 0.446400 1.170251 0.012904
v -0.445265 -0.207969 -0.039926
v -0.399101 -0.207969 -0.039926
v -0.445265 -0.207969 -0.093243
v -0.399101 -0.207969 -0.093243
v -0.444647 -0.207993 -0.152098
v -0.444647 -0.067993 -0.152098
v -0.444647 -0.207993 -0.223921
v -0.444647 -0.067993 -0.223921
v 0.444697 -0.207993 -0.152098
v 0.444697 -0.067993 -0.152098
v 0.444697 -0.207993 -0.223921
v 0.444697 -0.067993 -0.223921
v -0.442362 -0.208249 -0.216835
v -0.399101 -0.208249 -0.216835
v -0.442362 -0.208249 -0.166835
v -0.399101 -0.208249 -0.166835
v -0.446400 -0.037993 -0.105171
v 0.446400 -0.037993 -0.105171
v 0.010000 -0.065437 -0.022930
v -0.010000 -0.065437 -0.022930
v -0.010000 -0.065436 -0.090000
v 0.010000 -0.065436 -0.090000
v 0.010000 -0.075437 -0.022930
v -0.010000 -0.075437 -0.022930
v -0.010000 -0.075436 -0.090000
v 0.010000 -0.075436 -0.090000
v -0.060000 -0.065437 -0.022930
v -0.080000 -0.065437 -0.022930
v -0.060000 -0.065436 -0.090000
v -0.080000 -0.065436 -0.090000
v -0.060000 -0.075437 -0.022930
v -0.080000 -0.075437 -0.022930
v -0.060000 -0.075436 -0.090000
v -0.080000 -0.075436 -0.090000
v -0.130000 -0.065437 -0.022930
v -0.150000 -0.065437 -0.022930
v -0.130000 -0.065437 -0.090000
v -0.150000 -0.065437 -0.090000
v -0.130000 -0.075437 -0.022930
v -0.150000 -0.075437 -0.022930
v -0.130000 -0.075437 -0.090000
v -0.150000 -0.075437 -0.090000
v -0.200000 -0.065437 -0.022930
v -0.220000 -0.065437 -0.022930
v -0.200000 -0.065437 -0.090000
v -0.220000 -0.065437 -0.090000
v -0.200000 -0.075437 -0.022930
v -0.220000 -0.075437 -0.022930
v -0.200000 -0.075437 -0.090000
v -0.220000 -0.075437 -0.090000
v -0.270000 -0.065437 -0.022930
v -0.290000 -0.065437 -0.022930
v -0.270000 -0.065437 -0.090000
v -0.290000 -0.075437 -0.022930
v -0.290000 -0.065437 -0.090000
v -0.270000 -0.075437 -0.022930
v -0.270000 -0.075437 -0.090000
v -0.290000 -0.075437 -0.090000
v -0.340000 -0.065437 -0.022930
v -0.360000 -0.065437 -0.022930
v -0.340000 -0.065437 -0.090000
v -0.360000 -0.065437 -0.090000
v -0.340000 -0.075437 -0.022930
v -0.360000 -0.075437 -0.022930
v -0.340000 -0.075437 -0.090000
v -0.360000 -0.075437 -0.090000
v -0.410000 -0.065437 -0.022930
v -0.430000 -0.065437 -0.022930
v -0.410000 -0.065437 -0.090000
v -0.430000 -0.065437 -0.090000
v -0.410000 -0.075437 -0.022930
v -0.430000 -0.075437 -0.022930
v -0.410000 -0.075437 -0.090000
v -0.430000 -0.075437 -0.090000
v 0.080000 -0.065437 -0.022930
v 0.060000 -0.065437 -0.022930
v 0.060000 -0.065436 -0.090000
v 0.080000 -0.065436 -0.090000
v 0.080000 -0.075437 -0.022930
v 0.060000 -0.075437 -0.022930
v 0.060000 -0.075436 -0.090000
v 0.080000 -0.075436 -0.090000
v 0.150000 -0.065437 -0.022930
v 0.130000 -0.065437 -0.022930
v 0.130000 -0.065436 -0.086526
v 0.150000 -0.065436 -0.086526
v 0.220000 -0.065437 -0.022930
v 0.200000 -0.065437 -0.022930
v 0.200000 -0.065436 -0.086526
v 0.220000 -0.065436 -0.086526
v 0.290000 -0.065437 -0.022930
v 0.270000 -0.065437 -0.022930
v 0.270000 -0.065436 -0.086526
v 0.290000 -0.065436 -0.086526
v 0.150000 -0.075437 -0.022930
v 0.130000 -0.075437 -0.022930
v 0.130000 -0.075436 -0.086526
v 0.150000 -0.075436 -0.086526
v 0.220000 -0.075437 -0.022930
v 0.200000 -0.075437 -0.022930
v 0.200000 -0.075436 -0.086526
v 0.220000 -0.075436 -0.086526
v 0.290000 -0.075437 -0.022930
v 0.270000 -0.075437 -0.022930
v 0.270000 -0.075436 -0.086526
v 0.290000 -0.075436 -0.086526
v 0.360000 -0.065437 -0.022930
v 0.340000 -0.065437 -0.022930
v 0.340000 -0.065436 -0.090000
v 0.360000 -0.065436 -0.090000
v 0.360000 -0.075437 -0.022930
v 0.340000 -0.075437 -0.022930
v 0.340000 -0.075436 -0.090000
v 0.360000 -0.075436 -0.090000
v 0.430000 -0.065437 -0.022930
v 0.410000 -0.065437 -0.022930
v 0.410000 -0.065436 -0.090000
v 0.430000 -0.065436 -0.090000
v 0.430000 -0.075437 -0.022930
v 0.410000 -0.075437 -0.022930
v 0.410000 -0.075436 -0.090000
v 0.430000 -0.075436 -0.090000
vn 0.0000 -1.0000 0.0000
vn 0.0000 0.0000 -1.0000
vn 1.0000 0.0000 0.0000
vn 0.0000 0.0000 1.0000
vn 0.0000 1.0000 0.0000
vn -1.0000 0.0000 0.0000
vn -0.9997 0.0252 0.0000
vn 0.9997 0.0252 0.0000
vn 0.5000 0.8660 0.0000
vn 0.8660 0.5000 0.0000
vn 0.8660 -0.5000 -0.0000
vn 0.5000 -0.8660 -0.0000
vn -0.5000 -0.8660 0.0000
vn -0.8660 -0.5000 -0.0000
vn -0.9931 -0.1170 -0.0000
vn -0.9998 0.0218 0.0000
vn -0.2588 0.9659 0.0000
vn -0.8660 0.5000 0.0000
vn -0.5000 0.8660 0.0000
vn 0.0000 -0.2122 0.9772
vn 0.0000 -0.1324 -0.9912
vn -0.9999 0.0120 0.0000
vn 0.0000 -0.2141 0.9768
vn 0.0000 0.3940 -0.9191
vn 0.0000 0.2011 -0.9796
vn 0.0000 -0.1348 -0.9909
vn 0.0000 -0.1359 -0.9907
vn -0.9996 0.0277 0.0000
vn -0.9999 0.0151 0.0000
vn -0.9999 0.0127 0.0000
vn -0.0000 0.2671 0.9637
vn -0.0000 0.1359 0.9907
vn -0.0000 0.1348 0.9909
usemtl gray_01
s off
f 93//1 101//1 91//1
f 90//2 93//2 89//2
f 101//3 92//3 91//3
f 92//4 87//4 91//4
f 93//1 87//1 89//1
f 90//5 92//5 94//5
f 92//5 100//5 94//5
f 98//2 101//2 97//2
f 90//5 98//5 88//5
f 100//4 95//4 99//4
f 101//1 95//1 97//1
f 98//5 100//5 102//5
f 94//6 99//6 93//6
f 89//3 96//3 90//3
f 87//1 95//1 89//1
f 88//6 97//6 87//6
f 104//6 105//6 103//6
f 106//2 109//2 105//2
f 110//3 107//3 109//3
f 108//4 103//4 107//4
f 103//5 109//5 105//5
f 111//2 115//2 114//2
f 115//5 113//5 116//5
f 121//3 117//3 120//3
f 119//5 121//5 122//5
f 123//6 127//6 126//6
f 128//5 124//5 125//5
f 133//4 129//4 132//4
f 131//5 133//5 134//5
f 140//6 137//6 139//6
f 138//2 135//2 137//2
f 143//6 146//6 145//6
f 141//4 144//4 143//4
f 152//3 149//3 151//3
f 150//4 147//4 149//4
f 155//3 158//3 157//3
f 153//2 156//2 155//2
f 161//3 160//3 159//3
f 162//4 165//4 161//4
f 166//3 163//3 165//3
f 164//2 159//2 163//2
f 165//5 159//5 161//5
f 162//1 164//1 166//1
f 168//6 169//6 167//6
f 170//2 173//2 169//2
f 174//3 171//3 173//3
f 172//4 167//4 171//4
f 173//1 167//1 169//1
f 170//5 172//5 174//5
f 176//4 177//4 175//4
f 180//4 181//4 179//4
f 183//5 186//5 184//5
f 188//7 189//7 187//7
f 190//2 193//2 189//2
f 193//8 192//8 191//8
f 229//4 230//4 187//4
f 193//1 187//1 189//1
f 192//6 200//6 194//6
f 190//3 197//3 188//3
f 196//6 199//6 192//6
f 188//3 201//3 195//3
f 199//1 201//1 197//1
f 208//6 209//6 207//6
f 210//2 213//2 209//2
f 214//3 211//3 213//3
f 212//4 207//4 211//4
f 213//1 207//1 209//1
f 212//5 210//5 208//5
f 194//4 219//4 190//4
f 224//6 225//6 221//6
f 261//5 262//5 195//5
f 232//4 235//4 231//4
f 222//3 227//3 223//3
f 223//4 228//4 224//4
f 225//2 222//2 221//2
f 230//3 236//3 232//3
f 231//6 233//6 229//6
f 233//2 230//2 229//2
f 288//5 291//5 280//5
f 238//3 244//3 240//3
f 239//6 241//6 237//6
f 240//4 243//4 239//4
f 237//2 242//2 238//2
f 255//5 246//5 248//5
f 247//6 249//6 245//6
f 248//4 251//4 247//4
f 245//2 250//2 246//2
f 246//3 252//3 248//3
f 257//4 259//4 255//4
f 190//5 271//5 264//5
f 255//6 258//6 253//6
f 254//3 260//3 257//3
f 253//2 256//2 254//2
f 264//4 267//4 263//4
f 190//5 257//5 255//5
f 261//2 266//2 262//2
f 262//3 268//3 264//3
f 263//6 265//6 261//6
f 270//3 276//3 272//3
f 272//4 275//4 271//4
f 271//6 273//6 269//6
f 269//2 274//2 270//2
f 277//2 282//2 278//2
f 280//6 281//6 277//6
f 278//3 283//3 279//3
f 279//4 284//4 280//4
f 285//6 300//6 297//6
f 291//4 304//4 292//4
f 295//4 308//4 296//4
f 286//3 299//3 287//3
f 287//4 300//4 288//4
f 285//2 298//2 286//2
f 289//2 302//2 290//2
f 289//6 304//6 301//6
f 290//3 303//3 291//3
f 293//2 306//2 294//2
f 293//6 308//6 305//6
f 294//3 307//3 295//3
f 312//6 313//6 309//6
f 310//3 315//3 311//3
f 311//4 316//4 312//4
f 309//2 314//2 310//2
f 318//3 323//3 319//3
f 319//4 324//4 320//4
f 317//2 322//2 318//2
f 320//6 321//6 317//6
f 93//1 99//1 101//1
f 90//2 94//2 93//2
f 101//3 102//3 92//3
f 92//4 88//4 87//4
f 93//1 91//1 87//1
f 90//5 88//5 92//5
f 92//5 102//5 100//5
f 98//2 102//2 101//2
f 90//5 96//5 98//5
f 100//4 96//4 95//4
f 101//1 99//1 95//1
f 98//5 96//5 100//5
f 94//6 100//6 99//6
f 89//3 95//3 96//3
f 87//1 97//1 95//1
f 88//6 98//6 97//6
f 104//6 106//6 105//6
f 106//2 110//2 109//2
f 110//3 108//3 107//3
f 108//4 104//4 103//4
f 103//5 107//5 109//5
f 111//2 112//2 115//2
f 115//5 112//5 113//5
f 121//3 118//3 117//3
f 119//5 118//5 121//5
f 123//6 124//6 127//6
f 128//5 127//5 124//5
f 133//4 130//4 129//4
f 131//5 130//5 133//5
f 140//6 138//6 137//6
f 138//2 136//2 135//2
f 143//6 144//6 146//6
f 141//4 142//4 144//4
f 152//3 150//3 149//3
f 150//4 148//4 147//4
f 155//3 156//3 158//3
f 153//2 154//2 156//2
f 161//3 162//3 160//3
f 162//4 166//4 165//4
f 166//3 164//3 163//3
f 164//2 160//2 159//2
f 165//5 163//5 159//5
f 162//1 160//1 164//1
f 168//6 170//6 169//6
f 170//2 174//2 173//2
f 174//3 172//3 171//3
f 172//4 168//4 167//4
f 173//1 171//1 167//1
f 170//5 168//5 172//5
f 176//4 178//4 177//4
f 180//4 182//4 181//4
f 183//5 185//5 186//5
f 188//7 190//7 189//7
f 190//2 194//2 193//2
f 193//8 194//8 192//8
f 187//4 191//4 221//4
f 317//4 318//4 191//4
f 191//4 192//4 317//4
f 270//4 188//4 187//4
f 261//4 262//4 187//4
f 269//4 270//4 187//4
f 191//4 318//4 309//4
f 310//4 293//4 191//4
f 191//4 309//4 310//4
f 262//4 269//4 187//4
f 246//4 253//4 187//4
f 254//4 261//4 187//4
f 191//4 293//4 294//4
f 289//4 290//4 191//4
f 191//4 294//4 289//4
f 253//4 254//4 187//4
f 237//4 238//4 187//4
f 245//4 246//4 187//4
f 191//4 290//4 285//4
f 286//4 277//4 191//4
f 191//4 285//4 286//4
f 238//4 245//4 187//4
f 222//4 229//4 187//4
f 230//4 237//4 187//4
f 191//4 277//4 278//4
f 221//4 222//4 187//4
f 191//4 278//4 221//4
f 193//1 191//1 187//1
f 192//6 199//6 200//6
f 190//3 198//3 197//3
f 196//6 202//6 199//6
f 188//3 197//3 201//3
f 197//1 198//1 200//1
f 199//1 202//1 201//1
f 197//1 200//1 199//1
f 208//6 210//6 209//6
f 210//2 214//2 213//2
f 214//3 212//3 211//3
f 212//4 208//4 207//4
f 213//1 211//1 207//1
f 212//5 214//5 210//5
f 194//4 220//4 219//4
f 224//6 228//6 225//6
f 221//5 222//5 195//5
f 230//5 237//5 195//5
f 222//5 229//5 195//5
f 237//5 238//5 195//5
f 277//5 278//5 196//5
f 229//5 230//5 195//5
f 285//5 286//5 196//5
f 278//5 221//5 196//5
f 289//5 290//5 196//5
f 286//5 277//5 196//5
f 293//5 294//5 196//5
f 290//5 285//5 196//5
f 309//5 310//5 196//5
f 294//5 289//5 196//5
f 317//5 318//5 196//5
f 310//5 293//5 196//5
f 196//5 192//5 317//5
f 318//5 309//5 196//5
f 195//5 238//5 245//5
f 270//5 188//5 195//5
f 269//5 270//5 195//5
f 196//5 221//5 195//5
f 245//5 246//5 195//5
f 254//5 261//5 195//5
f 246//5 253//5 195//5
f 269//5 195//5 262//5
f 253//5 254//5 195//5
f 232//4 236//4 235//4
f 222//3 226//3 227//3
f 223//4 227//4 228//4
f 225//2 226//2 222//2
f 230//3 234//3 236//3
f 231//6 235//6 233//6
f 233//2 234//2 230//2
f 194//5 190//5 223//5
f 247//5 245//5 238//5
f 247//5 238//5 240//5
f 317//5 192//5 320//5
f 320//5 192//5 194//5
f 190//5 247//5 240//5
f 239//5 237//5 230//5
f 190//5 240//5 239//5
f 319//5 320//5 194//5
f 309//5 318//5 319//5
f 312//5 309//5 319//5
f 239//5 230//5 232//5
f 231//5 229//5 222//5
f 190//5 239//5 232//5
f 231//5 222//5 223//5
f 190//5 232//5 231//5
f 312//5 319//5 194//5
f 293//5 310//5 296//5
f 311//5 312//5 194//5
f 190//5 231//5 223//5
f 224//5 221//5 278//5
f 194//5 223//5 224//5
f 296//5 310//5 311//5
f 224//5 278//5 279//5
f 280//5 277//5 287//5
f 194//5 224//5 279//5
f 277//5 286//5 287//5
f 194//5 279//5 280//5
f 296//5 311//5 295//5
f 289//5 294//5 295//5
f 295//5 311//5 194//5
f 194//5 280//5 291//5
f 288//5 285//5 290//5
f 280//5 287//5 288//5
f 292//5 289//5 295//5
f 295//5 194//5 292//5
f 288//5 290//5 291//5
f 292//5 194//5 291//5
f 238//3 242//3 244//3
f 239//6 243//6 241//6
f 240//4 244//4 243//4
f 237//2 241//2 242//2
f 248//5 247//5 190//5
f 255//5 253//5 246//5
f 248//5 190//5 255//5
f 247//6 251//6 249//6
f 248//4 252//4 251//4
f 245//2 249//2 250//2
f 246//3 250//3 252//3
f 257//4 260//4 259//4
f 261//5 254//5 263//5
f 190//5 188//5 272//5
f 188//5 270//5 272//5
f 263//5 254//5 257//5
f 269//5 262//5 271//5
f 263//5 257//5 190//5
f 271//5 262//5 264//5
f 264//5 263//5 190//5
f 190//5 272//5 271//5
f 255//6 259//6 258//6
f 254//3 256//3 260//3
f 253//2 258//2 256//2
f 264//4 268//4 267//4
f 261//2 265//2 266//2
f 262//3 266//3 268//3
f 263//6 267//6 265//6
f 270//3 274//3 276//3
f 272//4 276//4 275//4
f 271//6 275//6 273//6
f 269//2 273//2 274//2
f 277//2 281//2 282//2
f 280//6 284//6 281//6
f 278//3 282//3 283//3
f 279//4 283//4 284//4
f 285//6 288//6 300//6
f 291//4 303//4 304//4
f 295//4 307//4 308//4
f 286//3 298//3 299//3
f 287//4 299//4 300//4
f 285//2 297//2 298//2
f 289//2 301//2 302//2
f 289//6 292//6 304//6
f 290//3 302//3 303//3
f 293//2 305//2 306//2
f 293//6 296//6 308//6
f 294//3 306//3 307//3
f 312//6 316//6 313//6
f 310//3 314//3 315//3
f 311//4 315//4 316//4
f 309//2 313//2 314//2
f 318//3 322//3 323//3
f 319//4 323//4 324//4
f 317//2 321//2 322//2
f 320//6 324//6 321//6
s 1
f 2//5 3//9 1//5
f 3//9 6//10 5//10
f 6//10 7//3 5//10
f 8//3 9//11 7//3
f 9//11 12//12 11//12
f 12//12 13//1 11//12
f 14//1 15//13 13//1
f 16//13 17//14 15//13
f 17//14 20//15 19//15
f 20//15 53//16 19//15
f 16//4 71//4 18//4
f 23//3 54//3 24//3
f 24//17 1//5 23//17
f 13//2 32//2 31//2
f 36//12 47//11 35//11
f 13//2 30//2 11//2
f 9//2 30//2 29//2
f 7//2 29//2 28//2
f 23//2 25//2 36//2
f 3//2 25//2 1//2
f 7//2 27//2 5//2
f 21//2 36//2 35//2
f 5//2 26//2 3//2
f 19//2 35//2 34//2
f 19//2 33//2 17//2
f 17//2 32//2 15//2
f 40//2 46//2 48//2
f 26//13 37//1 25//1
f 33//10 44//9 32//9
f 29//18 42//19 41//18
f 25//1 48//12 36//12
f 26//13 39//14 38//13
f 33//10 46//3 45//10
f 31//5 42//19 30//19
f 28//6 39//14 27//14
f 35//11 46//3 34//3
f 32//9 43//5 31//5
f 29//18 40//6 28//6
f 20//4 22//4 50//20
f 24//4 50//20 22//4
f 19//2 49//21 21//2
f 49//21 23//2 21//2
f 52//3 58//3 56//3
f 50//22 57//6 53//16
f 52//23 55//23 50//20
f 53//24 58//25 54//24
f 51//26 59//27 60//26
f 51//3 62//3 54//3
f 49//28 61//29 59//30
f 16//4 69//4 70//4
f 14//4 68//4 69//4
f 10//4 68//4 12//4
f 10//4 66//4 67//4
f 2//4 74//4 64//4
f 2//4 63//4 4//4
f 8//4 65//4 66//4
f 24//4 73//4 74//4
f 4//4 65//4 6//4
f 20//4 73//4 22//4
f 20//4 71//4 72//4
f 56//23 203//4 55//23
f 55//6 205//6 57//6
f 57//25 206//2 58//25
f 58//3 204//3 56//3
f 54//31 61//32 53//31
f 59//27 216//2 60//26
f 61//29 215//6 59//30
f 62//33 217//4 61//32
f 60//3 218//3 62//3
f 2//5 4//9 3//9
f 3//9 4//9 6//10
f 6//10 8//3 7//3
f 8//3 10//11 9//11
f 9//11 10//11 12//12
f 12//12 14//1 13//1
f 14//1 16//13 15//13
f 16//13 18//14 17//14
f 17//14 18//14 20//15
f 49//28 19//15 53//16
f 20//15 50//22 53//16
f 16//4 70//4 71//4
f 52//3 24//3 54//3
f 23//3 51//3 54//3
f 24//17 2//5 1//5
f 13//2 15//2 32//2
f 36//12 48//12 47//11
f 13//2 31//2 30//2
f 9//2 11//2 30//2
f 7//2 9//2 29//2
f 23//2 1//2 25//2
f 3//2 26//2 25//2
f 7//2 28//2 27//2
f 21//2 23//2 36//2
f 5//2 27//2 26//2
f 19//2 21//2 35//2
f 19//2 34//2 33//2
f 17//2 33//2 32//2
f 48//2 37//2 38//2
f 38//2 39//2 40//2
f 40//2 41//2 42//2
f 42//2 43//2 40//2
f 44//2 45//2 46//2
f 46//2 47//2 48//2
f 48//2 38//2 40//2
f 40//2 43//2 44//2
f 44//2 46//2 40//2
f 26//13 38//13 37//1
f 33//10 45//10 44//9
f 29//18 30//19 42//19
f 25//1 37//1 48//12
f 26//13 27//14 39//14
f 33//10 34//3 46//3
f 31//5 43//5 42//19
f 28//6 40//6 39//14
f 35//11 47//11 46//3
f 32//9 44//9 43//5
f 29//18 41//18 40//6
f 24//4 52//23 50//20
f 49//21 51//26 23//2
f 52//3 54//3 58//3
f 50//22 55//6 57//6
f 52//23 56//23 55//23
f 53//24 57//25 58//25
f 51//26 49//21 59//27
f 51//3 60//3 62//3
f 49//28 53//16 61//29
f 16//4 14//4 69//4
f 14//4 12//4 68//4
f 10//4 67//4 68//4
f 10//4 8//4 66//4
f 2//4 24//4 74//4
f 2//4 64//4 63//4
f 8//4 6//4 65//4
f 24//4 22//4 73//4
f 4//4 63//4 65//4
f 20//4 72//4 73//4
f 20//4 18//4 71//4
f 56//23 204//4 203//4
f 55//6 203//6 205//6
f 57//25 205//2 206//2
f 58//3 206//3 204//3
f 54//31 62//33 61//32
f 59//27 215//2 216//2
f 61//29 217//6 215//6
f 62//33 218//4 217//4
f 60//3 216//3 218//3
usemtl gray_02
f 71//14 82//13 83//14
f 85//4 81//4 76//4
f 67//11 80//12 68//12
f 74//19 76//5 64//5
f 63//9 77//10 65//10
f 71//14 84//6 72//6
f 68//12 81//1 69//1
f 65//10 78//3 66//3
f 72//6 85//18 73//18
f 69//1 82//13 70//13
f 66//3 79//11 67//11
f 73//18 86//19 74//19
f 64//5 75//9 63//9
f 71//14 70//13 82//13
f 77//4 75//4 76//4
f 76//4 86//4 85//4
f 85//4 84//4 81//4
f 83//4 82//4 81//4
f 81//4 80//4 79//4
f 79//4 78//4 81//4
f 77//4 76//4 81//4
f 84//4 83//4 81//4
f 81//4 78//4 77//4
f 67//11 79//11 80//12
f 74//19 86//19 76//5
f 63//9 75//9 77//10
f 71//14 83//14 84//6
f 68//12 80//12 81//1
f 65//10 77//10 78//3
f 72//6 84//6 85//18
f 69//1 81//1 82//13
f 66//3 78//3 79//11
f 73//18 85//18 86//19
f 64//5 76//5 75//9
