# Blender v2.79 (sub 0) OBJ File: 'model.blend'
# www.blender.org
mtllib central_cabinetl.mtl
o central_cabinet_Cube.017
v -0.478170 -0.651000 -0.150000
v -0.478170 0.651000 -0.150000
v 0.478170 -0.651000 -0.150000
v 0.478170 0.651000 -0.150000
v -0.444698 -0.622321 0.150000
v -0.444698 0.570517 0.150000
v 0.444698 0.570517 0.150000
v 0.444698 -0.622321 0.150000
v -0.478170 -0.651000 0.147000
v -0.475687 -0.647620 0.150000
v -0.475687 0.647620 0.138377
v -0.478170 0.651000 0.127496
v 0.475687 -0.647620 0.150000
v 0.478170 -0.651000 0.147000
v 0.478170 0.651000 0.127496
v 0.475687 0.647620 0.138377
v -0.460193 0.609068 0.150000
v 0.460193 0.609000 0.150000
v -0.475687 0.609000 0.150000
v -0.478170 0.609000 0.147000
v 0.475687 0.609000 0.150000
v 0.478170 0.609000 0.147000
v -0.444698 -0.309091 0.150000
v -0.444698 -0.366780 0.150000
v 0.444698 -0.309091 0.150000
v 0.444698 -0.366780 0.150000
vn -0.3456 -0.2701 0.8986
vn 0.3456 -0.2701 0.8986
vn 0.0000 0.0000 1.0000
vn 0.4693 0.1229 0.8744
vn 0.0000 0.1457 0.9893
vn 0.7071 0.7071 0.0000
vn -0.7071 0.7071 0.0000
vn -0.6730 0.7194 0.1718
vn 0.6730 0.7194 0.1718
vn -0.6443 -0.6587 0.3885
vn -0.9572 0.0450 0.2859
vn -0.7071 -0.7071 0.0000
vn -0.0002 0.1459 0.9893
vn -0.4679 0.5815 0.6655
vn -0.4696 0.1226 0.8743
vn 0.7071 -0.7071 0.0000
vn 0.9572 0.0450 0.2859
vn 0.6443 -0.6587 0.3885
vn 0.4679 0.5815 0.6655
usemtl None
s 1
f 10//1 13//2 8//3 5//3
f 13//2 21//4 18//5 7//3 25//3 26//3 8//3
f 4//6 2//7 12//8 15//9
f 9//10 20//11 12//8 2//7 1//12
f 18//5 17//13 6//3 7//3
f 11//14 19//15 17//13
f 3//16 4//6 15//9 22//17 14//18
f 10//1 19//15 20//11 9//10
f 16//19 21//4 22//17 15//9
f 9//10 14//18 13//2 10//1
f 15//9 12//8 11//14 16//19
f 1//12 3//16 14//18 9//10
f 16//19 11//14 17//13 18//5
f 17//13 19//15 10//1 5//3 24//3 23//3 6//3
f 20//11 19//15 11//14 12//8
f 22//17 21//4 13//2 14//18
f 18//5 21//4 16//19
f 24//3 26//3 25//3 23//3
