# Blender v2.79 (sub 0) OBJ File: 'model.blend'
# www.blender.org
mtllib decor_top.mtl
o cap.001_Plane.001
v -0.478019 1.150582 0.015058
v 0.478019 1.150582 0.015058
v -0.478019 1.203231 0.014942
v 0.478019 1.203231 0.014942
v -0.478019 1.213389 0.012424
v 0.478019 1.213389 0.012424
v -0.478019 1.225699 0.001446
v 0.478019 1.225699 0.001446
v -0.478019 1.231955 -0.013973
v 0.478019 1.231955 -0.013973
v -0.478019 1.150582 -0.381064
v 0.478019 1.150582 -0.381064
v -0.478019 1.203231 -0.380948
v 0.478019 1.203231 -0.380948
v -0.478019 1.213389 -0.378430
v 0.478019 1.213389 -0.378430
v -0.478019 1.225699 -0.367452
v 0.478019 1.225699 -0.367452
v -0.478019 1.231955 -0.352033
v 0.478019 1.231955 -0.352033
vn 0.0000 0.0022 1.0000
vn 0.0000 0.1223 0.9925
vn 0.0000 0.4668 0.8844
vn 0.0000 0.8173 0.5761
vn 0.0000 0.9266 0.3760
vn 0.0000 0.0022 -1.0000
vn 0.0000 0.1223 -0.9925
vn 0.0000 0.4668 -0.8844
vn 0.0000 0.8173 -0.5761
vn 0.0000 0.9266 -0.3760
usemtl gray_01
s 1
f 1//1 2//1 4//2 3//2
f 3//2 4//2 6//3 5//3
f 5//3 6//3 8//4 7//4
f 7//4 8//4 10//5 9//5
f 11//6 13//7 14//7 12//6
f 13//7 15//8 16//8 14//7
f 15//8 17//9 18//9 16//8
f 17//9 19//10 20//10 18//9
