# Blender v2.79 (sub 0) OBJ File: 'model.blend'
# www.blender.org
mtllib digit_button.mtl
o Cylinder.005_Cylinder
v -0.000000 -0.005400 -0.006750
v -0.000000 0.005400 -0.006750
v 0.003375 -0.005400 -0.005846
v 0.003375 0.005400 -0.005846
v 0.005846 -0.005400 -0.003375
v 0.005846 0.005400 -0.003375
v 0.006750 -0.005400 0.000000
v 0.006750 0.005400 0.000000
v 0.005846 -0.005400 0.003375
v 0.005846 0.005400 0.003375
v 0.003375 -0.005400 0.005846
v 0.003375 0.005400 0.005846
v 0.000000 -0.005400 0.006750
v 0.000000 0.005400 0.006750
v -0.003375 -0.005400 0.005846
v -0.003375 0.005400 0.005846
v -0.005846 -0.005400 0.003375
v -0.005846 0.005400 0.003375
v -0.006750 -0.005400 0.000000
v -0.006750 0.005400 0.000000
v -0.005846 -0.005400 -0.003375
v -0.005846 0.005400 -0.003375
v -0.003375 -0.005400 -0.005846
v -0.003375 0.005400 -0.005846
vt 0.069513 0.746840
vt 0.003768 0.498526
vt 0.070988 0.250607
vt 0.253161 0.069513
vt 0.501474 0.003768
vt 0.749393 0.070987
vt 0.930486 0.253161
vt 0.996232 0.501474
vt 0.929012 0.749393
vt 0.746839 0.930487
vt 0.498525 0.996232
vt 0.250607 0.929013
vt 0.089931 0.104485
vt 0.150741 0.121463
vt 0.132544 0.153309
vt 0.088264 0.108375
vt 0.100732 0.171847
vt 0.085096 0.110865
vt 0.063899 0.171821
vt 0.081129 0.111275
vt 0.032143 0.153295
vt 0.077480 0.109529
vt 0.013952 0.121465
vt 0.075163 0.106072
vt 0.013960 0.084824
vt 0.074775 0.101829
vt 0.032196 0.052969
vt 0.076438 0.097945
vt 0.064016 0.034452
vt 0.079661 0.095454
vt 0.100859 0.034493
vt 0.083621 0.095019
vt 0.132573 0.053035
vt 0.087219 0.096774
vt 0.150742 0.084848
vt 0.089541 0.100235
vn 0.0000 1.0000 -0.0000
vn -0.0000 0.0000 -1.0000
vn 0.5000 0.0000 -0.8660
vn 0.8660 0.0000 -0.5000
vn 1.0000 0.0000 0.0000
vn 0.8660 0.0000 0.5000
vn 0.5000 0.0000 0.8660
vn 0.0000 0.0000 1.0000
vn -0.5000 0.0000 0.8660
vn -0.8660 0.0000 0.5000
vn -1.0000 0.0000 0.0000
vn -0.8660 0.0000 -0.5000
vn -0.5000 0.0000 -0.8660
usemtl buuton
s 1
f 4/1/1 2/2/1 24/3/1 22/4/1 20/5/1 18/6/1 16/7/1 14/8/1 12/9/1 10/10/1 8/11/1 6/12/1
usemtl buuton_NONE
f 1/13/2 2/14/2 4/15/3 3/16/3
f 3/16/3 4/15/3 6/17/4 5/18/4
f 5/18/4 6/17/4 8/19/5 7/20/5
f 7/20/5 8/19/5 10/21/6 9/22/6
f 9/22/6 10/21/6 12/23/7 11/24/7
f 11/24/7 12/23/7 14/25/8 13/26/8
f 13/26/8 14/25/8 16/27/9 15/28/9
f 15/28/9 16/27/9 18/29/10 17/30/10
f 17/30/10 18/29/10 20/31/11 19/32/11
f 19/32/11 20/31/11 22/33/12 21/34/12
f 21/34/12 22/33/12 24/35/13 23/36/13
f 23/36/13 24/35/13 2/14/2 1/13/2
