# Blender v2.79 (sub 0) OBJ File: 'ecvm.blend'
# www.blender.org
mtllib hatch_lamp.mtl
o Sphere_Sphere.001
v 0.000000 -0.009781 -0.046194
v 0.000000 -0.023311 -0.019134
v 0.019134 -0.000214 -0.046194
v 0.017678 -0.009781 -0.042678
v 0.013530 -0.017891 -0.032664
v 0.007322 -0.023311 -0.017678
v 0.035355 -0.000214 -0.035356
v 0.032664 -0.009781 -0.032664
v 0.025000 -0.017891 -0.025000
v 0.013530 -0.023311 -0.013530
v 0.046194 -0.000214 -0.019134
v 0.042678 -0.009781 -0.017678
v 0.032664 -0.017891 -0.013530
v 0.017678 -0.023311 -0.007323
v 0.050000 -0.000214 -0.000000
v 0.046194 -0.009781 -0.000000
v 0.035355 -0.017891 -0.000000
v 0.019134 -0.023311 -0.000000
v 0.046194 -0.000214 0.019134
v 0.042678 -0.009781 0.017677
v 0.032664 -0.017891 0.013530
v 0.017678 -0.023311 0.007322
v 0.035355 -0.000214 0.035355
v 0.032664 -0.009781 0.032664
v 0.025000 -0.017891 0.025000
v 0.013530 -0.023311 0.013530
v 0.019134 -0.000214 0.046194
v 0.017678 -0.009781 0.042677
v 0.013530 -0.017891 0.032664
v 0.007322 -0.023311 0.017677
v 0.000000 -0.000214 0.050000
v 0.000000 -0.009781 0.046194
v 0.000000 -0.017891 0.035355
v 0.000000 -0.023311 0.019134
v -0.019134 -0.000214 0.046194
v -0.017678 -0.009781 0.042677
v -0.013530 -0.017891 0.032664
v -0.007322 -0.023311 0.017677
v -0.035355 -0.000214 0.035355
v -0.032664 -0.009781 0.032664
v -0.025000 -0.017891 0.025000
v -0.013530 -0.023311 0.013530
v -0.046194 -0.000214 0.019134
v -0.042678 -0.009781 0.017677
v -0.032664 -0.017891 0.013530
v -0.017678 -0.023311 0.007322
v -0.050000 -0.000214 -0.000000
v -0.046194 -0.009781 -0.000000
v -0.035355 -0.017891 -0.000000
v -0.019134 -0.023311 -0.000000
v -0.046194 -0.000214 -0.019134
v -0.042678 -0.009781 -0.017678
v -0.032664 -0.017891 -0.013530
v -0.017678 -0.023311 -0.007323
v -0.035355 -0.000214 -0.035356
v -0.032664 -0.009781 -0.032664
v -0.025000 -0.017891 -0.025000
v -0.013530 -0.023311 -0.013530
v -0.019134 -0.000214 -0.046194
v -0.017678 -0.009781 -0.042678
v -0.013530 -0.017891 -0.032664
v -0.007322 -0.023311 -0.017678
v 0.000000 -0.000214 -0.050000
v 0.000000 -0.017891 -0.035356
v 0.000000 -0.025214 -0.000000
vn 0.0000 -0.5922 -0.8058
vn 0.0000 -0.3696 -0.9292
vn 0.3556 -0.3696 -0.8584
vn 0.3084 -0.5922 -0.7445
vn 0.6570 -0.3696 -0.6570
vn 0.5698 -0.5922 -0.5698
vn 0.8584 -0.3696 -0.3556
vn 0.7445 -0.5922 -0.3084
vn 0.9292 -0.3696 0.0000
vn 0.8058 -0.5922 0.0000
vn 0.8584 -0.3696 0.3556
vn 0.7445 -0.5922 0.3084
vn 0.6570 -0.3696 0.6570
vn 0.5698 -0.5922 0.5698
vn 0.3556 -0.3696 0.8584
vn 0.3084 -0.5922 0.7445
vn 0.0000 -0.3696 0.9292
vn 0.0000 -0.5922 0.8058
vn -0.3556 -0.3696 0.8584
vn -0.3084 -0.5922 0.7445
vn -0.6570 -0.3696 0.6570
vn -0.5698 -0.5922 0.5698
vn -0.8584 -0.3696 0.3556
vn -0.7445 -0.5922 0.3084
vn -0.9292 -0.3696 0.0000
vn -0.8058 -0.5922 0.0000
vn -0.8584 -0.3696 -0.3556
vn -0.7445 -0.5922 -0.3084
vn -0.6570 -0.3696 -0.6570
vn -0.5698 -0.5922 -0.5698
vn -0.3556 -0.3696 -0.8584
vn -0.3084 -0.5922 -0.7445
vn 0.0000 -1.0000 0.0000
vn 0.0000 -0.9749 -0.2224
vn 0.0851 -0.9749 -0.2055
vn 0.0000 -0.8777 -0.4792
vn 0.1834 -0.8777 -0.4428
vn 0.3389 -0.8777 -0.3389
vn 0.1573 -0.9749 -0.1573
vn 0.4428 -0.8777 -0.1834
vn 0.2055 -0.9749 -0.0851
vn 0.2224 -0.9749 0.0000
vn 0.4792 -0.8777 0.0000
vn 0.2055 -0.9749 0.0851
vn 0.4428 -0.8777 0.1834
vn 0.3389 -0.8777 0.3389
vn 0.1573 -0.9749 0.1573
vn 0.1834 -0.8777 0.4428
vn 0.0851 -0.9749 0.2055
vn 0.0000 -0.9749 0.2224
vn 0.0000 -0.8777 0.4792
vn -0.0851 -0.9749 0.2055
vn -0.1834 -0.8777 0.4428
vn -0.3389 -0.8777 0.3389
vn -0.1573 -0.9749 0.1573
vn -0.4428 -0.8777 0.1834
vn -0.2055 -0.9749 0.0851
vn -0.2224 -0.9749 0.0000
vn -0.4792 -0.8777 0.0000
vn -0.4428 -0.8777 -0.1834
vn -0.2055 -0.9749 -0.0851
vn -0.3389 -0.8777 -0.3389
vn -0.1573 -0.9749 -0.1573
vn -0.0851 -0.9749 -0.2055
vn -0.1834 -0.8777 -0.4428
usemtl m1
s 1
f 1//1 63//2 3//3 4//4
f 4//4 3//3 7//5 8//6
f 8//6 7//5 11//7 12//8
f 12//8 11//7 15//9 16//10
f 16//10 15//9 19//11 20//12
f 20//12 19//11 23//13 24//14
f 24//14 23//13 27//15 28//16
f 28//16 27//15 31//17 32//18
f 32//18 31//17 35//19 36//20
f 36//20 35//19 39//21 40//22
f 40//22 39//21 43//23 44//24
f 44//24 43//23 47//25 48//26
f 48//26 47//25 51//27 52//28
f 52//28 51//27 55//29 56//30
f 56//30 55//29 59//31 60//32
f 60//32 59//31 63//2 1//1
usemtl glass
f 65//33 2//34 6//35
f 64//36 1//1 4//4 5//37
f 2//34 64//36 5//37 6//35
f 5//37 4//4 8//6 9//38
f 6//35 5//37 9//38 10//39
f 65//33 6//35 10//39
f 10//39 9//38 13//40 14//41
f 65//33 10//39 14//41
f 9//38 8//6 12//8 13//40
f 65//33 14//41 18//42
f 13//40 12//8 16//10 17//43
f 14//41 13//40 17//43 18//42
f 65//33 18//42 22//44
f 17//43 16//10 20//12 21//45
f 18//42 17//43 21//45 22//44
f 22//44 21//45 25//46 26//47
f 65//33 22//44 26//47
f 21//45 20//12 24//14 25//46
f 26//47 25//46 29//48 30//49
f 65//33 26//47 30//49
f 25//46 24//14 28//16 29//48
f 65//33 30//49 34//50
f 29//48 28//16 32//18 33//51
f 30//49 29//48 33//51 34//50
f 65//33 34//50 38//52
f 33//51 32//18 36//20 37//53
f 34//50 33//51 37//53 38//52
f 38//52 37//53 41//54 42//55
f 65//33 38//52 42//55
f 37//53 36//20 40//22 41//54
f 42//55 41//54 45//56 46//57
f 65//33 42//55 46//57
f 41//54 40//22 44//24 45//56
f 65//33 46//57 50//58
f 45//56 44//24 48//26 49//59
f 46//57 45//56 49//59 50//58
f 49//59 48//26 52//28 53//60
f 50//58 49//59 53//60 54//61
f 65//33 50//58 54//61
f 54//61 53//60 57//62 58//63
f 65//33 54//61 58//63
f 53//60 52//28 56//30 57//62
f 65//33 58//63 62//64
f 57//62 56//30 60//32 61//65
f 58//63 57//62 61//65 62//64
f 65//33 62//64 2//34
f 61//65 60//32 1//1 64//36
f 62//64 61//65 64//36 2//34
