# Blender v2.79 (sub 0) OBJ File: 'lamp_corpus.blend'
# www.blender.org
mtllib lamp_corpus_00.mtl
o LOD_00_Cylinder
v 0.000000 -0.001650 -0.009900
v 0.000000 0.001650 -0.009900
v 0.008574 -0.001650 -0.004950
v 0.008574 0.001650 -0.004950
v 0.008574 -0.001650 0.004950
v 0.008574 0.001650 0.004950
v -0.000000 -0.001650 0.009900
v -0.000000 0.001650 0.009900
v -0.008574 -0.001650 0.004950
v -0.008574 0.001650 0.004950
v -0.008574 -0.001650 -0.004950
v -0.008574 0.001650 -0.004950
v 0.006961 0.003023 -0.004019
v 0.000000 0.003023 -0.008038
v 0.006961 0.003023 0.004019
v -0.000000 0.003023 0.008038
v -0.006961 0.003023 0.004019
v -0.006961 0.003023 -0.004019
v 0.004287 0.001650 -0.007425
v 0.008574 0.001650 0.000000
v 0.004287 0.001650 0.007425
v -0.004287 0.001650 0.007425
v -0.008574 0.001650 0.000000
v -0.004287 0.001650 -0.007425
v 0.003913 0.003049 -0.006778
v 0.007826 0.003049 -0.000000
v 0.003913 0.003049 0.006778
v -0.003913 0.003049 0.006778
v -0.007826 0.003049 -0.000000
v -0.003913 0.003049 -0.006778
v 0.003522 0.003049 -0.006100
v 0.000000 0.003023 -0.007234
v 0.007044 0.003049 0.000000
v 0.006265 0.003023 -0.003617
v 0.003522 0.003049 0.006100
v 0.006265 0.003023 0.003617
v -0.003522 0.003049 0.006100
v -0.000000 0.003023 0.007234
v -0.007044 0.003049 0.000000
v -0.006265 0.003023 0.003617
v -0.003522 0.003049 -0.006100
v -0.006265 0.003023 -0.003617
v 0.003759 -0.000527 -0.006511
v 0.000000 -0.000527 -0.007234
v 0.007518 -0.000527 0.000000
v 0.006265 -0.000527 -0.003617
v 0.003759 -0.000527 0.006511
v 0.006265 -0.000527 0.003617
v -0.003759 -0.000527 0.006511
v -0.000000 -0.000527 0.007234
v -0.007518 -0.000527 0.000000
v -0.006265 -0.000527 0.003617
v -0.003759 -0.000527 -0.006511
v -0.006265 -0.000527 -0.003617
v -0.000000 -0.001650 -0.010248
v 0.008875 -0.001650 -0.005124
v 0.008875 -0.001650 0.005124
v -0.000000 -0.001650 0.010248
v -0.008875 -0.001650 0.005124
v -0.008875 -0.001650 -0.005124
v 0.005146 -0.001650 -0.008914
v 0.010293 -0.001650 0.000000
v 0.005146 -0.001650 0.008914
v -0.005146 -0.001650 0.008914
v -0.010293 -0.001650 0.000000
v -0.005146 -0.001650 -0.008914
v -0.000000 -0.002650 -0.010248
v 0.008875 -0.002650 -0.005124
v 0.008875 -0.002650 0.005124
v -0.000000 -0.002650 0.010248
v -0.008875 -0.002650 0.005124
v -0.008875 -0.002650 -0.005124
v 0.005146 -0.002650 -0.008914
v 0.010293 -0.002650 0.000000
v 0.005146 -0.002650 0.008914
v -0.005146 -0.002650 0.008914
v -0.010293 -0.002650 0.000000
v -0.005146 -0.002650 -0.008914
v 0.003913 0.003219 -0.006778
v 0.000000 0.003205 -0.008038
v 0.007826 0.003219 -0.000000
v 0.006961 0.003205 -0.004019
v 0.003913 0.003219 0.006778
v 0.006961 0.003205 0.004019
v -0.003913 0.003219 0.006778
v -0.000000 0.003205 0.008038
v -0.007826 0.003219 -0.000000
v -0.006961 0.003205 0.004019
v -0.003913 0.003219 -0.006778
v -0.006961 0.003205 -0.004019
v 0.003522 0.003219 -0.006100
v 0.000000 0.003205 -0.007234
v 0.007044 0.003219 0.000000
v 0.006265 0.003205 -0.003617
v 0.003522 0.003219 0.006100
v 0.006265 0.003205 0.003617
v -0.003522 0.003219 0.006100
v -0.000000 0.003205 0.007234
v -0.007044 0.003219 0.000000
v -0.006265 0.003205 0.003617
v -0.003522 0.003219 -0.006100
v -0.006265 0.003205 -0.003617
v 0.007250 -0.001633 0.007258
v 0.007250 -0.002667 0.007258
v 0.009911 -0.001633 0.002649
v 0.009911 -0.002667 0.002649
v 0.002661 -0.001633 0.009908
v 0.002661 -0.002667 0.009908
v -0.002661 -0.001633 0.009908
v -0.002661 -0.002667 0.009908
v -0.007250 -0.001633 0.007258
v -0.007250 -0.002667 0.007258
v -0.009911 -0.001633 0.002649
v -0.009911 -0.002667 0.002649
v -0.009911 -0.001633 -0.002649
v -0.009911 -0.002667 -0.002649
v -0.007250 -0.001633 -0.007258
v -0.007250 -0.002667 -0.007258
v -0.002661 -0.001633 -0.009908
v -0.002661 -0.002667 -0.009908
v 0.002661 -0.001633 -0.009908
v 0.002661 -0.002667 -0.009908
v 0.007250 -0.001633 -0.007258
v 0.007250 -0.002667 -0.007258
v 0.009911 -0.001633 -0.002649
v 0.009911 -0.002667 -0.002649
v 0.003913 0.004032 -0.006778
v 0.000000 0.004072 -0.008038
v 0.007826 0.004032 -0.000000
v 0.006961 0.004072 -0.004019
v 0.003913 0.004032 0.006778
v 0.006961 0.004072 0.004019
v -0.003913 0.004032 0.006778
v -0.000000 0.004072 0.008038
v -0.007826 0.004032 -0.000000
v -0.006961 0.004072 0.004019
v -0.003913 0.004032 -0.006778
v -0.006961 0.004072 -0.004019
v 0.003522 0.004032 -0.006100
v 0.000000 0.004072 -0.007234
v 0.007044 0.004032 0.000000
v 0.006265 0.004072 -0.003617
v 0.003522 0.004032 0.006100
v 0.006265 0.004072 0.003617
v -0.003522 0.004032 0.006100
v -0.000000 0.004072 0.007234
v -0.007044 0.004032 0.000000
v -0.006265 0.004072 0.003617
v -0.003522 0.004032 -0.006100
v -0.006265 0.004072 -0.003617
vn 0.4850 0.2428 -0.8401
vn 0.6112 0.4922 -0.6198
vn 0.5000 -0.0000 -0.8660
vn 0.0000 0.0000 1.0000
vn 0.4850 0.2428 0.8401
vn -0.0000 0.3691 0.9294
vn 0.5000 0.0000 0.8660
vn -0.4850 0.2428 0.8401
vn -0.8049 0.3691 0.4647
vn -0.8660 0.0000 0.5000
vn 0.8049 0.3691 0.4647
vn 0.4756 0.3084 0.8238
vn -0.9701 0.2428 0.0000
vn -0.8049 0.3691 -0.4647
vn -0.8660 -0.0000 -0.5000
vn -0.4850 0.2428 -0.8401
vn -0.0000 0.3691 -0.9294
vn -0.5000 -0.0000 -0.8660
vn -0.4756 0.3084 0.8238
vn -0.7539 0.4921 0.4353
vn -0.4756 0.3084 -0.8238
vn 0.8820 0.4712 0.0000
vn 0.9512 0.3084 -0.0000
vn -0.9512 0.3084 0.0000
vn 0.4756 0.3084 -0.8238
vn -0.4997 -0.0339 0.8655
vn -0.4957 -0.1315 0.8585
vn -0.8497 -0.0315 0.5263
vn 0.4989 -0.0662 0.8641
vn 0.8660 0.0000 0.5000
vn 0.8739 -0.0163 0.4859
vn -0.0000 0.4921 0.8705
vn 0.9986 -0.0501 0.0160
vn 0.8660 0.0000 -0.5000
vn 0.8577 -0.0163 -0.5138
vn 0.7539 0.4921 0.4353
vn -1.0000 0.0000 0.0000
vn 0.4997 -0.0339 -0.8655
vn 0.0000 0.0000 -1.0000
vn 0.7539 0.4921 -0.4353
vn -0.5000 0.0000 0.8660
vn 1.0000 0.0000 0.0000
vn -0.0000 -0.0634 -0.9980
vn 0.9946 -0.0998 0.0296
vn 0.8806 -0.0315 0.4728
vn -0.0161 -0.0163 0.9997
vn -0.0309 -0.0315 0.9990
vn -0.8577 -0.0163 -0.5138
vn -0.9978 -0.0662 -0.0000
vn -0.9976 -0.0687 -0.0000
vn 0.8497 -0.0315 -0.5263
vn 0.4988 -0.0687 0.8640
vn -0.8577 -0.0163 0.5138
vn -0.4997 -0.0339 -0.8655
vn -0.4957 -0.1315 -0.8585
vn -0.8497 -0.0315 -0.5263
vn 0.4957 -0.1315 -0.8585
vn -0.0304 0.9995 -0.0103
vn -0.0042 1.0000 0.0000
vn -0.0026 1.0000 -0.0015
vn 0.0304 0.9995 0.0103
vn 0.0042 1.0000 0.0000
vn 0.0026 1.0000 0.0015
vn -0.0241 0.9995 0.0212
vn -0.0021 1.0000 0.0037
vn -0.0026 1.0000 0.0015
vn -0.0063 0.9995 -0.0314
vn -0.0021 1.0000 -0.0037
vn 0.0000 1.0000 -0.0030
vn 0.0063 0.9995 0.0314
vn 0.0021 1.0000 0.0037
vn 0.0000 1.0000 0.0030
vn 0.0241 0.9995 -0.0212
vn 0.0021 1.0000 -0.0037
vn 0.0026 1.0000 -0.0015
vn -0.9638 0.0000 0.2665
vn 0.9638 0.0000 -0.2665
vn -0.7127 0.0000 0.7015
vn -0.7127 0.0000 -0.7015
vn 0.7127 0.0000 -0.7015
vn 0.7127 0.0000 0.7015
vn -0.9638 0.0000 -0.2665
vn 0.9638 0.0000 0.2665
vn -0.2511 0.0000 0.9680
vn -0.2511 0.0000 -0.9680
vn 0.2511 0.0000 -0.9680
vn 0.2511 0.0000 0.9680
vn -0.7539 0.4921 -0.4353
vn -0.0000 0.4921 -0.8705
vn 0.0004 1.0000 0.0006
vn -0.0000 1.0000 -0.0006
vn -0.0000 1.0000 0.0000
vn -0.0004 1.0000 0.0006
vn 0.0004 1.0000 -0.0006
vn -0.0000 1.0000 0.0006
vn 0.0005 1.0000 -0.0003
vn -0.0007 1.0000 0.0000
vn -0.0005 1.0000 0.0003
vn 0.0007 1.0000 -0.0000
vn 0.0005 1.0000 0.0003
vn -0.0004 1.0000 -0.0006
vn -0.0005 1.0000 -0.0003
vn -0.0304 0.9995 0.0103
vn 0.0304 0.9995 -0.0103
vn -0.0063 0.9995 0.0314
vn -0.0241 0.9995 -0.0212
vn 0.0241 0.9995 0.0212
vn 0.0063 0.9995 -0.0314
usemtl None
s 1
f 19//1 4//2 3//3
f 4//4 20//4 6//4
f 21//5 8//6 7//7
f 22//8 10//9 9//10
f 21//5 6//11 27//12
f 23//13 12//14 11//15
f 24//16 2//17 1//18
f 28//19 88//10 17//20
f 24//16 12//14 30//21
f 22//8 8//6 28//19
f 20//22 4//2 26//23
f 23//13 10//9 29//24
f 19//1 2//17 25//25
f 4//2 19//1 25//25
f 12//14 23//13 29//24
f 6//11 20//22 26//23
f 10//9 22//8 28//19
f 2//17 24//16 30//21
f 8//6 21//5 27//12
f 31//26 43//27 46//28
f 41//29 102//30 42//31
f 27//12 86//4 16//32
f 30//21 90//15 89//18
f 39//33 100//34 40//35
f 26//23 84//30 15//36
f 29//24 88//10 87//37
f 41//29 92//4 101//7
f 37//38 98//39 38//39
f 25//25 82//34 13//40
f 28//19 86//4 85//41
f 39//33 102//30 99//42
f 37//38 38//39 50//43
f 39//33 51//44 54//45
f 31//26 32//46 44//47
f 36//48 33//49 45//50
f 40//35 52//51 51//44
f 32//46 41//29 53//52
f 34//53 46//28 45//50
f 35//54 47//55 50//43
f 42//31 54//45 53//52
f 35//54 36//48 48//56
f 37//38 49//57 52//51
f 105//58 62//59 5//60
f 115//61 65//62 11//63
f 123//64 61//65 3//66
f 107//67 63//68 7//69
f 119//70 66//71 1//72
f 111//73 64//74 9//75
f 65//37 114//76 113//76
f 62//42 126//77 125//77
f 59//10 112//78 111//78
f 66//18 118//79 117//79
f 56//34 124//80 123//80
f 63//7 104//81 103//81
f 60//15 116//82 115//82
f 57//30 106//83 105//83
f 64//41 110//84 109//84
f 55//39 120//85 119//85
f 61//3 122//86 121//86
f 58//4 108//87 107//87
f 84//30 131//7 83//7
f 88//10 133//41 136//10
f 100//34 147//42 148//34
f 82//34 129//42 81//42
f 92//4 149//7 101//7
f 86//4 131//7 134//4
f 98//39 145//3 146//39
f 80//39 127//3 79//3
f 102//30 147//42 99//42
f 84//30 129//42 132//30
f 96//15 143//18 144//15
f 100//34 145//3 97//3
f 31//26 94//10 91//41
f 29//24 90//15 18//88
f 33//49 96//15 93//37
f 25//25 80//39 79//3
f 31//26 92//4 32//46
f 30//21 80//39 14//89
f 35//54 98//39 95//18
f 26//23 82//34 81//42
f 33//49 94//10 34//53
f 37//38 100//34 97//3
f 27//12 84//30 83//7
f 35//54 96//15 36//48
f 29//24 18//88 12//14
f 29//24 10//9 17//20
f 27//12 6//11 15//36
f 27//12 16//32 8//6
f 28//19 8//6 16//32
f 28//19 17//20 10//9
f 26//23 15//36 6//11
f 25//25 2//17 14//89
f 25//25 13//40 4//2
f 26//23 4//2 13//40
f 30//21 14//89 2//17
f 30//21 12//14 18//88
f 103//81 69//30 57//30
f 105//83 74//42 62//42
f 107//87 75//7 63//7
f 109//84 70//4 58//4
f 111//78 76//41 64//41
f 113//76 71//10 59//10
f 65//37 116//82 77//37
f 117//79 72//15 60//15
f 119//85 78//18 66//18
f 121//86 67//39 55//39
f 123//80 73//3 61//3
f 125//77 68//34 56//34
f 131//90 146//91 134//92
f 133//93 146//91 145//92
f 127//94 140//95 139//92
f 133//93 148//96 136//92
f 135//97 148//96 147//92
f 127//94 142//98 130//92
f 129//99 142//98 141//92
f 135//97 150//100 138//92
f 137//101 150//100 149//92
f 131//90 144//102 143//92
f 129//99 144//102 132//92
f 137//101 140//95 128//92
f 102//30 149//7 150//30
f 90//15 135//37 138//15
f 86//4 133//41 85//41
f 94//10 139//41 91//41
f 80//39 137//18 128//39
f 88//10 135//37 87//37
f 96//15 141//37 93//37
f 92//4 139//41 140//4
f 90//15 137//18 89//18
f 98//39 143//18 95//18
f 94//10 141//37 142//10
f 82//34 127//3 130//34
f 40//35 37//38 52//51
f 47//55 35//54 48//56
f 41//29 42//31 53//52
f 38//39 35//54 50//43
f 33//49 34//53 45//50
f 44//47 32//46 53//52
f 39//33 40//35 51//44
f 48//56 36//48 45//50
f 43//27 31//26 44//47
f 42//31 39//33 54//45
f 49//57 37//38 50//43
f 34//53 31//26 46//28
f 4//42 5//30 3//42
f 3//3 1//3 19//1
f 1//3 2//17 19//1
f 7//7 5//30 21//5
f 5//30 6//11 21//5
f 9//10 7//41 22//8
f 7//41 8//6 22//8
f 11//15 9//10 23//13
f 9//10 10//9 23//13
f 1//18 11//15 24//16
f 11//15 12//14 24//16
f 28//19 85//41 88//10
f 41//29 101//7 102//30
f 27//12 83//7 86//4
f 30//21 18//88 90//15
f 39//33 99//42 100//34
f 26//23 81//42 84//30
f 29//24 17//20 88//10
f 41//29 32//46 92//4
f 37//38 97//3 98//39
f 25//25 79//3 82//34
f 28//19 16//32 86//4
f 39//33 42//31 102//30
f 56//92 3//66 125//103
f 3//66 5//60 62//59
f 125//103 3//66 62//59
f 5//60 57//92 105//58
f 59//92 9//75 113//104
f 9//75 11//63 65//62
f 113//104 9//75 65//62
f 11//63 60//92 115//61
f 55//92 1//72 121//105
f 1//72 3//66 61//65
f 121//105 1//72 61//65
f 3//66 56//92 123//64
f 57//92 5//60 103//106
f 5//60 7//69 63//68
f 103//106 5//60 63//68
f 7//69 58//92 107//67
f 60//92 11//63 117//107
f 11//63 1//72 66//71
f 117//107 11//63 66//71
f 1//72 55//92 119//70
f 58//92 7//69 109//108
f 7//69 9//75 64//74
f 109//108 7//69 64//74
f 9//75 59//92 111//73
f 65//37 77//37 114//76
f 62//42 74//42 126//77
f 59//10 71//10 112//78
f 66//18 78//18 118//79
f 56//34 68//34 124//80
f 63//7 75//7 104//81
f 60//15 72//15 116//82
f 57//30 69//30 106//83
f 64//41 76//41 110//84
f 55//39 67//39 120//85
f 61//3 73//3 122//86
f 58//4 70//4 108//87
f 84//30 132//30 131//7
f 88//10 85//41 133//41
f 100//34 99//42 147//42
f 82//34 130//34 129//42
f 92//4 140//4 149//7
f 86//4 83//7 131//7
f 98//39 97//3 145//3
f 80//39 128//39 127//3
f 102//30 150//30 147//42
f 84//30 81//42 129//42
f 96//15 95//18 143//18
f 100//34 148//34 145//3
f 31//26 34//53 94//10
f 29//24 87//37 90//15
f 33//49 36//48 96//15
f 25//25 14//89 80//39
f 31//26 91//41 92//4
f 30//21 89//18 80//39
f 35//54 38//39 98//39
f 26//23 13//40 82//34
f 33//49 93//37 94//10
f 37//38 40//35 100//34
f 27//12 15//36 84//30
f 35//54 95//18 96//15
f 103//81 104//81 69//30
f 105//83 106//83 74//42
f 107//87 108//87 75//7
f 109//84 110//84 70//4
f 111//78 112//78 76//41
f 113//76 114//76 71//10
f 65//37 115//82 116//82
f 117//79 118//79 72//15
f 119//85 120//85 78//18
f 121//86 122//86 67//39
f 123//80 124//80 73//3
f 125//77 126//77 68//34
f 131//90 143//92 146//91
f 133//93 134//92 146//91
f 127//94 128//92 140//95
f 133//93 145//92 148//96
f 135//97 136//92 148//96
f 127//94 139//92 142//98
f 129//99 130//92 142//98
f 135//97 147//92 150//100
f 137//101 138//92 150//100
f 131//90 132//92 144//102
f 129//99 141//92 144//102
f 137//101 149//92 140//95
f 102//30 101//7 149//7
f 90//15 87//37 135//37
f 86//4 134//4 133//41
f 94//10 142//10 139//41
f 80//39 89//18 137//18
f 88//10 136//10 135//37
f 96//15 144//15 141//37
f 92//4 91//41 139//41
f 90//15 138//15 137//18
f 98//39 146//39 143//18
f 94//10 93//37 141//37
f 82//34 79//3 127//3
f 4//42 6//11 5//30
