# Blender v2.79 (sub 0) OBJ File: 'lamp_corpus.blend'
# www.blender.org
mtllib lamp_corpus_02.mtl
o LOD_02_Cylinder.002
v 0.000000 -0.001650 -0.009900
v 0.000000 0.001650 -0.009900
v 0.008574 -0.001650 -0.004950
v 0.008574 0.001650 -0.004950
v 0.008574 -0.001650 0.004950
v 0.008574 0.001650 0.004950
v -0.000000 -0.001650 0.009900
v -0.000000 0.001650 0.009900
v -0.008574 -0.001650 0.004950
v -0.008574 0.001650 0.004950
v -0.008574 -0.001650 -0.004950
v -0.008574 0.001650 -0.004950
v 0.006961 0.003023 -0.004019
v 0.000000 0.003023 -0.008038
v 0.006961 0.003023 0.004019
v -0.000000 0.003023 0.008038
v -0.006961 0.003023 0.004019
v -0.006961 0.003023 -0.004019
v 0.000000 -0.000527 -0.007234
v 0.006265 -0.000527 -0.003617
v 0.006265 -0.000527 0.003617
v -0.000000 -0.000527 0.007234
v -0.006265 -0.000527 0.003617
v -0.006265 -0.000527 -0.003617
v -0.000000 -0.001625 -0.010752
v 0.009312 -0.001625 -0.005376
v 0.009312 -0.001625 0.005376
v -0.000000 -0.001625 0.010752
v -0.009312 -0.001625 0.005376
v -0.009312 -0.001625 -0.005376
v -0.000000 -0.002675 -0.010752
v 0.009312 -0.002675 -0.005376
v 0.009312 -0.002675 0.005376
v -0.000000 -0.002675 0.010752
v -0.009312 -0.002675 0.005376
v -0.009312 -0.002675 -0.005376
v 0.000000 0.004075 -0.008038
v 0.006961 0.004075 -0.004019
v 0.006961 0.004075 0.004019
v -0.000000 0.004075 0.008038
v -0.006961 0.004075 0.004019
v -0.006961 0.004075 -0.004019
v 0.000000 0.004075 -0.007234
v 0.006265 0.004075 -0.003617
v 0.006265 0.004075 0.003617
v -0.000000 0.004075 0.007234
v -0.006265 0.004075 0.003617
v -0.006265 0.004075 -0.003617
vn -0.0000 0.4014 -0.9159
vn 0.8660 0.0000 -0.5000
vn 0.5000 0.0000 -0.8660
vn 0.7932 0.4014 -0.4580
vn 0.8660 0.0000 0.5000
vn 0.7932 0.4014 0.4580
vn 0.5000 0.0000 0.8660
vn -0.0000 0.4014 0.9159
vn -0.8660 0.0000 0.5000
vn -0.5000 0.0000 0.8660
vn -0.7391 0.5213 0.4267
vn -0.7932 0.4014 -0.4580
vn -0.7932 0.4014 0.4580
vn -0.8660 0.0000 -0.5000
vn -0.5000 0.0000 -0.8660
vn 0.0000 0.0000 -1.0000
vn -0.0250 0.9996 0.0144
vn -0.0250 0.9996 -0.0144
vn 0.7391 0.5213 -0.4267
vn 0.7391 0.5213 0.4267
vn -1.0000 0.0000 -0.0000
vn -0.0000 0.5213 -0.8534
vn 0.0250 0.9996 -0.0144
vn 0.0250 0.9996 0.0144
vn 0.0000 1.0000 -0.0000
vn -0.7391 0.5213 -0.4267
vn -0.0000 0.5213 0.8534
vn -0.0000 0.0000 1.0000
vn 1.0000 0.0000 0.0000
vn -0.0000 0.9996 0.0288
vn 0.0000 0.9996 -0.0288
usemtl None
s 1
f 2//1 3//2 1//3
f 4//4 5//5 3//2
f 6//6 7//7 5//5
f 8//8 9//9 7//10
f 17//11 12//12 10//13
f 10//13 11//14 9//9
f 12//12 1//15 11//14
f 22//16 47//2 46//16
f 3//17 27//18 26//17
f 13//19 6//6 4//4
f 15//20 8//8 6//6
f 45//15 22//16 46//16
f 20//9 45//21 44//9
f 24//5 47//2 23//2
f 14//22 4//4 2//1
f 12//12 14//22 2//1
f 9//23 30//24 29//23
f 31//15 30//14 25//15
f 26//3 31//3 25//3
f 34//7 27//7 28//7
f 29//10 34//10 28//10
f 36//14 29//21 30//14
f 38//25 43//25 44//25
f 47//25 41//25 40//25
f 41//9 18//26 17//11
f 39//7 16//27 15//20
f 40//28 17//11 16//27
f 38//29 15//20 13//19
f 37//16 13//19 14//22
f 42//14 14//22 18//26
f 16//27 10//13 8//8
f 19//28 48//5 24//5
f 19//28 44//9 43//28
f 33//29 26//29 27//29
f 2//1 4//4 3//2
f 4//4 6//6 5//5
f 6//6 8//8 7//7
f 8//8 10//13 9//9
f 17//11 18//26 12//12
f 10//13 12//12 11//14
f 12//12 2//1 1//15
f 22//16 23//2 47//2
f 25//30 1//30 3//17
f 3//17 5//18 27//18
f 26//17 25//30 3//17
f 13//19 15//20 6//6
f 15//20 16//27 8//8
f 45//15 21//15 22//16
f 20//9 21//21 45//21
f 24//5 48//5 47//2
f 14//22 13//19 4//4
f 12//12 18//26 14//22
f 11//24 1//30 25//30
f 28//31 27//18 7//31
f 27//18 5//18 7//31
f 11//24 25//30 30//24
f 28//31 7//31 9//23
f 9//23 11//24 30//24
f 29//23 28//31 9//23
f 31//15 36//14 30//14
f 26//3 32//3 31//3
f 34//7 33//7 27//7
f 29//10 35//10 34//10
f 36//14 35//21 29//21
f 38//25 37//25 43//25
f 39//25 38//25 44//25
f 39//25 44//25 45//25
f 43//25 37//25 42//25
f 48//25 43//25 42//25
f 40//25 39//25 46//25
f 39//25 45//25 46//25
f 48//25 42//25 41//25
f 40//25 46//25 47//25
f 47//25 48//25 41//25
f 41//9 42//14 18//26
f 39//7 40//28 16//27
f 40//28 41//9 17//11
f 38//29 39//29 15//20
f 37//16 38//3 13//19
f 42//14 37//16 14//22
f 16//27 17//11 10//13
f 19//28 43//28 48//5
f 19//28 20//9 44//9
f 33//29 32//29 26//29
