# Blender v2.79 (sub 0) OBJ File: 'lamp_corpus.blend'
# www.blender.org
mtllib lamp_corpus_01.mtl
o LOD_01_Cylinder.001
v 0.000000 -0.001650 -0.009900
v 0.000000 0.001650 -0.009900
v 0.008574 -0.001650 -0.004950
v 0.008574 0.001650 -0.004950
v 0.008574 -0.001650 0.004950
v 0.008574 0.001650 0.004950
v -0.000000 -0.001650 0.009900
v -0.000000 0.001650 0.009900
v -0.008574 -0.001650 0.004950
v -0.008574 0.001650 0.004950
v -0.008574 -0.001650 -0.004950
v -0.008574 0.001650 -0.004950
v 0.006961 0.003023 -0.004019
v 0.000000 0.003023 -0.008038
v 0.006961 0.003023 0.004019
v -0.000000 0.003023 0.008038
v -0.006961 0.003023 0.004019
v -0.006961 0.003023 -0.004019
v 0.004287 0.001650 -0.007425
v 0.008574 0.001650 0.000000
v 0.004287 0.001650 0.007425
v -0.004287 0.001650 0.007425
v -0.008574 0.001650 0.000000
v -0.004287 0.001650 -0.007425
v 0.003993 0.003046 -0.006916
v 0.007986 0.003046 -0.000000
v 0.003993 0.003046 0.006916
v -0.003993 0.003046 0.006916
v -0.007986 0.003046 -0.000000
v -0.003993 0.003046 -0.006916
v 0.003594 0.003046 -0.006224
v 0.000000 0.003023 -0.007234
v 0.007187 0.003046 0.000000
v 0.006265 0.003023 -0.003617
v 0.003594 0.003046 0.006224
v 0.006265 0.003023 0.003617
v -0.003594 0.003046 0.006224
v -0.000000 0.003023 0.007234
v -0.007187 0.003046 0.000000
v -0.006265 0.003023 0.003617
v -0.003594 0.003046 -0.006224
v -0.006265 0.003023 -0.003617
v -0.000000 -0.001650 -0.010248
v 0.008875 -0.001650 -0.005124
v 0.008875 -0.001650 0.005124
v -0.000000 -0.001650 0.010248
v -0.008875 -0.001650 0.005124
v -0.008875 -0.001650 -0.005124
v 0.005146 -0.001650 -0.008914
v 0.010293 -0.001650 0.000000
v 0.005146 -0.001650 0.008914
v -0.005146 -0.001650 0.008914
v -0.010293 -0.001650 0.000000
v -0.005146 -0.001650 -0.008914
v -0.000000 -0.002650 -0.010248
v 0.008875 -0.002650 -0.005124
v 0.008875 -0.002650 0.005124
v -0.000000 -0.002650 0.010248
v -0.008875 -0.002650 0.005124
v -0.008875 -0.002650 -0.005124
v 0.005146 -0.002650 -0.008914
v 0.010293 -0.002650 0.000000
v 0.005146 -0.002650 0.008914
v -0.005146 -0.002650 0.008914
v -0.010293 -0.002650 0.000000
v -0.005146 -0.002650 -0.008914
v 0.003993 0.004051 -0.006916
v 0.000000 0.004075 -0.008038
v 0.007986 0.004051 -0.000000
v 0.006961 0.004075 -0.004019
v 0.003993 0.004051 0.006916
v 0.006961 0.004075 0.004019
v -0.003993 0.004051 0.006916
v -0.000000 0.004075 0.008038
v -0.007986 0.004051 -0.000000
v -0.006961 0.004075 0.004019
v -0.003993 0.004051 -0.006916
v -0.006961 0.004075 -0.004019
v 0.003594 0.004051 -0.006224
v 0.000000 0.004075 -0.007234
v 0.007187 0.004051 0.000000
v 0.006265 0.004075 -0.003617
v 0.003594 0.004051 0.006224
v 0.006265 0.004075 0.003617
v -0.003594 0.004051 0.006224
v -0.000000 0.004075 0.007234
v -0.007187 0.004051 0.000000
v -0.006265 0.004075 0.003617
v -0.003594 0.004051 -0.006224
v -0.006265 0.004075 -0.003617
vn 0.4901 0.1980 -0.8489
vn 0.8068 0.3634 -0.4658
vn 0.5000 -0.0000 -0.8660
vn 0.9802 0.1980 0.0000
vn 0.8068 0.3634 0.4658
vn 1.0000 0.0000 0.0000
vn 0.4901 0.1980 0.8489
vn -0.0000 0.3634 0.9317
vn 0.5000 0.0000 0.8660
vn -0.4901 0.1980 0.8489
vn -0.8068 0.3634 0.4658
vn -0.8660 0.0000 0.5000
vn 0.4805 0.2763 0.8323
vn -0.9802 0.1980 0.0000
vn -0.8068 0.3634 -0.4658
vn -0.8660 -0.0000 -0.5000
vn -0.4901 0.1980 -0.8489
vn -0.0000 0.3634 -0.9317
vn -0.5000 -0.0000 -0.8660
vn -0.7565 0.4868 0.4368
vn -0.5000 0.0000 0.8660
vn -0.4805 0.2763 -0.8323
vn -0.4805 0.2763 0.8323
vn 0.9611 0.2763 0.0000
vn -0.9611 0.2763 -0.0000
vn 0.4805 0.2763 -0.8323
vn 0.8660 0.0000 0.5000
vn -0.0000 0.4868 0.8735
vn -0.0000 0.0000 1.0000
vn -0.7565 0.4868 -0.4368
vn 0.8660 0.0000 -0.5000
vn 0.7565 0.4868 0.4368
vn -1.0000 0.0000 0.0000
vn 0.0000 0.0000 -1.0000
vn 0.7565 0.4868 -0.4368
vn 0.0000 1.0000 0.0000
vn 0.0002 1.0000 0.0004
vn 0.0000 1.0000 -0.0003
vn -0.0002 1.0000 0.0004
vn 0.0002 1.0000 -0.0004
vn 0.0000 1.0000 0.0003
vn 0.0003 1.0000 -0.0002
vn -0.0004 1.0000 -0.0000
vn -0.0003 1.0000 0.0002
vn 0.0004 1.0000 -0.0000
vn 0.0003 1.0000 0.0002
vn -0.0002 1.0000 -0.0004
vn -0.0003 1.0000 -0.0002
vn -0.0000 0.4868 -0.8735
usemtl None
s 1
f 19//1 4//2 3//3
f 20//4 6//5 5//6
f 21//7 8//8 7//9
f 22//10 10//11 9//12
f 21//7 6//5 27//13
f 23//14 12//15 11//16
f 24//17 2//18 1//19
f 17//20 73//21 76//12
f 24//17 12//15 30//22
f 22//10 8//8 28//23
f 20//4 4//2 26//24
f 23//14 10//11 29//25
f 19//1 2//18 25//26
f 4//2 19//1 25//26
f 12//15 23//14 29//25
f 6//5 20//4 26//24
f 10//11 22//10 28//23
f 2//18 24//17 30//22
f 8//8 21//7 27//13
f 41//9 90//27 42//27
f 16//28 71//9 74//29
f 18//30 77//19 30//22
f 39//6 88//31 40//31
f 26//24 72//27 15//32
f 17//20 75//33 29//25
f 32//29 89//9 41//9
f 38//34 85//3 86//34
f 25//26 70//31 13//35
f 16//28 73//21 28//23
f 42//27 87//6 39//6
f 5//36 45//36 50//36
f 11//36 48//36 53//36
f 3//36 44//36 49//36
f 7//36 46//36 51//36
f 1//36 43//36 54//36
f 9//36 47//36 52//36
f 53//33 59//12 47//12
f 50//6 56//31 44//31
f 47//12 64//21 52//21
f 54//19 60//16 48//16
f 44//31 61//3 49//3
f 51//9 57//27 45//27
f 48//16 65//33 53//33
f 45//27 62//6 50//6
f 52//21 58//29 46//29
f 43//34 66//19 54//19
f 49//3 55//34 43//34
f 46//29 63//9 51//9
f 71//37 86//38 74//36
f 73//39 86//38 85//36
f 67//40 80//41 79//36
f 73//39 88//42 76//36
f 75//43 88//42 87//36
f 67//40 82//44 70//36
f 69//45 82//44 81//36
f 75//43 90//46 78//36
f 77//47 90//46 89//36
f 71//37 84//48 83//36
f 69//45 84//48 72//36
f 77//47 80//41 68//36
f 34//12 79//21 31//21
f 29//25 78//16 18//30
f 36//16 81//33 33//33
f 14//49 67//3 25//26
f 32//29 79//21 80//29
f 14//49 77//19 68//34
f 38//34 83//19 35//19
f 13//35 69//6 26//24
f 33//33 82//12 34//12
f 40//31 85//3 37//3
f 15//32 71//9 27//13
f 36//16 83//19 84//16
f 29//25 18//30 12//15
f 29//25 10//11 17//20
f 27//13 6//5 15//32
f 27//13 16//28 8//8
f 28//23 8//8 16//28
f 28//23 17//20 10//11
f 26//24 15//32 6//5
f 25//26 2//18 14//49
f 25//26 13//35 4//2
f 26//24 4//2 13//35
f 30//22 14//49 2//18
f 30//22 12//15 18//30
f 5//6 3//6 20//4
f 3//6 4//2 20//4
f 1//3 19//1 3//3
f 7//21 22//10 9//12
f 9//12 23//14 11//16
f 11//16 24//17 1//19
f 7//9 5//9 21//7
f 5//9 6//5 21//7
f 17//20 28//23 73//21
f 41//9 89//9 90//27
f 16//28 27//13 71//9
f 18//30 78//16 77//19
f 39//6 87//6 88//31
f 26//24 69//6 72//27
f 17//20 76//12 75//33
f 32//29 80//29 89//9
f 38//34 37//3 85//3
f 25//26 67//3 70//31
f 16//28 74//29 73//21
f 42//27 90//27 87//6
f 44//36 3//36 50//36
f 3//36 5//36 50//36
f 47//36 9//36 53//36
f 9//36 11//36 53//36
f 43//36 1//36 49//36
f 1//36 3//36 49//36
f 45//36 5//36 51//36
f 5//36 7//36 51//36
f 48//36 11//36 54//36
f 11//36 1//36 54//36
f 46//36 7//36 52//36
f 7//36 9//36 52//36
f 53//33 65//33 59//12
f 50//6 62//6 56//31
f 47//12 59//12 64//21
f 54//19 66//19 60//16
f 44//31 56//31 61//3
f 51//9 63//9 57//27
f 48//16 60//16 65//33
f 45//27 57//27 62//6
f 52//21 64//21 58//29
f 43//34 55//34 66//19
f 49//3 61//3 55//34
f 46//29 58//29 63//9
f 71//37 83//36 86//38
f 73//39 74//36 86//38
f 67//40 68//36 80//41
f 73//39 85//36 88//42
f 75//43 76//36 88//42
f 67//40 79//36 82//44
f 69//45 70//36 82//44
f 75//43 87//36 90//46
f 77//47 78//36 90//46
f 71//37 72//36 84//48
f 69//45 81//36 84//48
f 77//47 89//36 80//41
f 34//12 82//12 79//21
f 29//25 75//33 78//16
f 36//16 84//16 81//33
f 14//49 68//34 67//3
f 32//29 31//21 79//21
f 14//49 30//22 77//19
f 38//34 86//34 83//19
f 13//35 70//31 69//6
f 33//33 81//33 82//12
f 40//31 88//31 85//3
f 15//32 72//27 71//9
f 36//16 35//19 83//19
f 1//3 2//18 19//1
f 7//21 8//8 22//10
f 9//12 10//11 23//14
f 11//16 12//15 24//17
