# Blender v2.79 (sub 0) OBJ File: 'ecvm.blend'
# www.blender.org
mtllib left_short_glass_door_00.mtl
o left_short_glass_door_000_Cube.002
v -0.464851 -0.445634 0.009899
v -0.464851 0.449418 0.009899
v -0.464851 -0.445634 -0.009899
v -0.464851 0.449418 -0.009899
v 0.005442 -0.445634 0.009899
v 0.005442 0.449418 0.009899
v 0.005442 -0.445634 -0.009899
v 0.005442 0.449418 -0.009899
v -0.444510 -0.425854 0.009899
v -0.444510 0.429637 0.009899
v -0.014898 0.429637 0.009899
v -0.014898 -0.425854 0.009899
v -0.463547 -0.444703 0.009183
v -0.463547 0.448487 0.009183
v -0.463547 -0.444703 -0.009829
v -0.463547 0.448487 -0.009829
v 0.004138 -0.444703 0.009183
v 0.004138 0.448487 0.009183
v 0.004138 -0.444703 -0.009829
v 0.004138 0.448487 -0.009829
v -0.443319 -0.424964 0.009183
v -0.443319 0.428748 0.009183
v -0.016089 0.428748 0.009183
v -0.016089 -0.424964 0.009183
vn -1.0000 0.0000 0.0000
vn 1.0000 0.0000 0.0000
vn 0.0000 0.0000 1.0000
vn 0.0000 -1.0000 0.0000
vn 0.0000 1.0000 0.0000
vn 0.0000 0.0000 -1.0000
usemtl gray_01
s off
f 1//1 2//1 4//1 3//1
f 7//2 8//2 6//2 5//2
f 6//3 2//3 10//3 11//3
f 3//4 7//4 5//4 1//4
f 8//5 4//5 2//5 6//5
f 5//3 6//3 11//3 12//3
f 2//3 1//3 9//3 10//3
f 1//3 5//3 12//3 9//3
f 13//2 15//2 16//2 14//2
f 19//1 17//1 18//1 20//1
f 18//6 23//6 22//6 14//6
f 15//5 13//5 17//5 19//5
f 20//4 18//4 14//4 16//4
f 17//6 24//6 23//6 18//6
f 14//6 22//6 21//6 13//6
f 13//6 21//6 24//6 17//6
usemtl glass
f 12//3 11//3 10//3 9//3
f 24//6 21//6 22//6 23//6
