# Blender v2.79 (sub 0) OBJ File: 'model.blend'
# www.blender.org
mtllib left_decor.mtl
o left_decor_Plane.002
v -0.478019 1.150582 0.015419
v 0.451958 1.150500 0.015419
v -0.478019 1.204434 0.015419
v 0.473000 1.204436 0.015419
v -0.478019 1.214491 0.012585
v 0.473000 1.214491 0.012585
v -0.478019 1.225782 0.001245
v 0.473000 1.225782 0.001245
v -0.478019 1.231955 -0.014115
v 0.473000 1.231955 -0.014115
v 0.452121 -0.963549 0.015419
v 0.473000 1.150418 0.015419
v 0.473814 -0.963549 0.015419
v 0.481485 1.150418 0.011863
v 0.481485 -0.963549 0.011863
v 0.488348 1.150418 0.001245
v 0.488348 -0.963549 0.001245
v 0.491849 1.150418 -0.014115
v 0.491849 -0.963549 -0.014115
v 0.481485 1.204438 0.011863
v 0.488348 1.204438 0.001245
v 0.491849 1.204438 -0.014115
v 0.486576 1.221431 -0.014115
v 0.484848 1.217552 0.001245
v 0.478950 1.210785 0.012224
v -0.478019 1.214491 -0.378594
v 0.473000 1.204436 -0.381428
v -0.478019 1.204434 -0.381428
v 0.451958 1.150500 -0.381428
v -0.478019 1.150582 -0.381428
v 0.473000 1.214491 -0.378594
v -0.478019 1.225782 -0.367254
v 0.473000 1.225782 -0.367254
v -0.478019 1.231955 -0.351893
v 0.473000 1.231955 -0.351893
v 0.452121 -0.963549 -0.381428
v 0.473000 1.150418 -0.381428
v 0.473814 -0.963549 -0.381428
v 0.481485 1.150418 -0.377872
v 0.481485 -0.963549 -0.377872
v 0.488348 1.150418 -0.367254
v 0.488348 -0.963549 -0.367254
v 0.491849 1.150418 -0.351893
v 0.491849 -0.963549 -0.351893
v 0.481485 1.204438 -0.377872
v 0.488348 1.204438 -0.367254
v 0.491849 1.204438 -0.351893
v 0.486576 1.221431 -0.351893
v 0.484848 1.217552 -0.367254
v 0.478950 1.210785 -0.378233
v 0.491849 -0.076000 -0.048915
v 0.491849 -0.076000 -0.323482
v 0.491849 -0.926093 -0.323482
v 0.491849 -0.926093 -0.048915
v 0.491849 -0.076000 -0.014115
v 0.491849 -0.076000 -0.351893
vn 0.0000 0.0000 1.0000
vn 0.1753 0.1148 0.9778
vn 0.0000 0.1369 0.9906
vn 0.1856 0.5240 0.8312
vn 0.0000 0.5065 0.8622
vn 0.2660 0.8171 0.5115
vn 0.0000 0.8350 0.5502
vn 0.4084 0.8836 0.2289
vn 0.0000 0.9279 0.3729
vn 0.2059 0.0000 0.9785
vn 0.2015 0.0000 0.9795
vn 0.6486 0.0000 0.7611
vn 0.6453 0.0000 0.7639
vn 0.9214 0.0000 0.3884
vn 0.9937 0.0000 0.1118
vn 0.9840 0.1436 0.1050
vn 0.9153 0.1304 0.3812
vn 0.6551 0.0946 0.7496
vn 0.5199 0.3512 0.7786
vn 0.7424 0.5173 0.4256
vn 0.8073 0.5765 0.1261
vn 0.0000 0.1369 -0.9906
vn 0.0000 0.5065 -0.8622
vn 0.1856 0.5240 -0.8312
vn 0.1753 0.1148 -0.9778
vn 0.0000 0.8350 -0.5502
vn 0.0000 0.9279 -0.3729
vn 0.4084 0.8836 -0.2289
vn 0.2660 0.8171 -0.5115
vn 0.0000 0.0000 -1.0000
vn 0.2015 0.0000 -0.9795
vn 0.2059 0.0000 -0.9785
vn 0.6453 0.0000 -0.7639
vn 0.6486 0.0000 -0.7611
vn 0.9214 0.0000 -0.3884
vn 0.9937 0.0000 -0.1118
vn 0.9153 0.1304 -0.3812
vn 0.9840 0.1436 -0.1050
vn 0.6551 0.0946 -0.7496
vn 0.5199 0.3512 -0.7786
vn 0.7424 0.5173 -0.4256
vn 0.8073 0.5765 -0.1261
vn 1.0000 0.0000 0.0000
usemtl gray_01
s 1
f 1//1 2//1 4//2 3//3
f 3//3 4//2 6//4 5//5
f 5//5 6//4 8//6 7//7
f 7//7 8//6 10//8 9//9
f 2//1 11//1 13//10 12//11
f 12//11 13//10 15//12 14//13
f 14//13 15//12 17//14 16//14
f 16//14 17//14 19//15 55//15 18//15
f 2//1 12//11 4//2
f 16//14 18//15 22//16 21//17
f 14//13 16//14 21//17 20//18
f 12//11 14//13 20//18 4//2
f 6//4 4//2 25//19
f 6//4 25//19 24//20 8//6
f 8//6 24//20 23//21 10//8
f 21//17 22//16 23//21 24//20
f 25//19 20//18 21//17 24//20
f 4//2 20//18 25//19
f 28//22 26//23 31//24 27//25
f 32//26 34//27 35//28 33//29
f 30//30 28//22 27//25 29//30
f 26//23 32//26 33//29 31//24
f 29//30 37//31 38//32 36//30
f 37//31 39//33 40//34 38//32
f 39//33 41//35 42//35 40//34
f 41//35 43//36 56//36 44//36 42//35
f 29//30 27//25 37//31
f 41//35 46//37 47//38 43//36
f 39//33 45//39 46//37 41//35
f 37//31 27//25 45//39 39//33
f 31//24 50//40 27//25
f 31//24 33//29 49//41 50//40
f 33//29 35//28 48//42 49//41
f 46//37 49//41 48//42 47//38
f 50//40 49//41 46//37 45//39
f 27//25 50//40 45//39
f 23//21 48//42 35//28 10//8
f 22//16 47//38 48//42 23//21
f 22//16 18//15 43//36 47//38
f 18//15 55//15 51//43 52//43 56//36 43//36
f 44//36 53//43 54//43 19//15
f 56//36 52//43 53//43 44//36
f 51//43 55//15 19//15 54//43
