# Blender v2.79 (sub 0) OBJ File: 'model.blend'
# www.blender.org
mtllib left_tape_woodcut.mtl
o Cube.009_Cube.008
v -0.387996 -0.013500 -0.017910
v -0.387996 0.013500 -0.017910
v 0.388004 -0.013500 -0.017910
v 0.388004 0.013500 -0.017910
v -0.357996 -0.013500 0.782090
v -0.387996 -0.013500 0.752090
v -0.387996 0.013500 0.752090
v -0.357996 0.013500 0.782090
v 0.388004 -0.013500 0.752090
v 0.358004 -0.013500 0.782090
v 0.358004 0.013500 0.782090
v 0.388004 0.013500 0.752090
v -0.369266 -0.013500 0.778355
v -0.369266 0.013500 0.778355
v 0.369274 0.013500 0.778355
v 0.369274 -0.013500 0.778355
v -0.382417 0.013500 0.765223
v -0.382417 -0.013500 0.765223
v 0.382426 -0.013500 0.765223
v 0.382426 0.013500 0.765223
v -0.320437 0.013500 0.713040
v -0.320437 0.013500 0.056297
v 0.321234 0.013500 0.056297
v 0.324747 0.013500 0.713040
v -0.320437 -0.013500 0.713040
v -0.320437 -0.013500 0.056297
v 0.321234 -0.013500 0.056297
v 0.324747 -0.013500 0.713040
vt 0.000962 0.947551
vt 0.005169 0.048192
vt 0.054723 0.082185
vt 0.035471 0.905887
vt 0.990686 0.985242
vt 0.037907 0.985234
vt 0.068633 0.940687
vt 0.940501 0.948077
vt 0.961368 0.055345
vt 0.089499 0.047960
vt 0.042467 0.010509
vt 0.995247 0.010509
vt 0.080805 0.056516
vt 0.033143 0.019930
vt 0.028671 0.975813
vt 0.060342 0.931987
vt 0.023818 0.029350
vt 0.072111 0.065073
vt 0.052052 0.923287
vt 0.019435 0.966393
vt 1.000129 -0.000513
vt 0.999259 0.953396
vt 0.991655 0.974122
vt 0.909530 0.873090
vt 0.911690 0.098269
vt 1.001008 -0.002310
vt 1.000770 0.946462
vt 0.993825 0.965490
vt 0.977983 0.989224
vt 0.848066 0.875418
vt 0.860091 0.211639
vt 0.089392 0.080735
vt 0.071531 0.896442
vt -0.000297 0.958019
vt 0.000628 0.000500
vt 0.978144 0.988073
vt 0.958384 0.998851
vt 0.043834 0.999599
vt 0.025329 0.991812
vt 0.007932 0.975197
vt 0.145331 0.197975
vt 0.142924 0.846563
vt 0.001013 0.958060
vt 0.000912 0.001018
vt 0.955331 0.999531
vt 0.044125 0.999205
vt 0.025708 0.992526
vt 0.009531 0.975064
vn 0.1593 0.0000 0.9872
vn -0.1593 0.0000 0.9872
vn 1.0000 0.0000 0.0000
vn 0.9799 0.0000 0.1995
vn -1.0000 0.0000 0.0000
vn -0.9799 0.0000 0.1995
vn 0.0000 0.0000 -1.0000
vn -0.8288 0.0000 0.5596
vn 0.8288 0.0000 0.5596
vn -0.5247 0.0000 0.8513
vn 0.5247 0.0000 0.8513
vn -0.0000 1.0000 0.0000
vn 0.0000 -1.0000 -0.0000
vn -0.0000 0.0000 1.0000
vn -1.0000 0.0000 0.0053
usemtl hatch_cover
s 1
f 11/1/1 8/2/2 5/3/2 10/4/1
f 4/5/3 12/6/4 9/7/4 3/8/3
f 1/9/5 6/10/6 7/11/6 2/12/5
f 2/12/7 4/5/7 3/8/7 1/9/7
f 18/13/8 17/14/8 7/11/6 6/10/6
f 20/15/9 19/16/9 9/7/4 12/6/4
f 5/3/2 8/2/2 14/17/10 13/18/10
f 11/1/1 10/4/1 16/19/11 15/20/11
f 13/18/10 14/17/10 17/14/8 18/13/8
f 15/20/11 16/19/11 19/16/9 20/15/9
usemtl hatch_cover_tape_cover.png
f 2/21/12 7/22/12 17/23/12 21/24/12 22/25/12
f 3/26/13 9/27/13 19/28/13 16/29/13 28/30/13 27/31/13
f 23/32/12 24/33/12 12/34/12 4/35/12
f 21/24/12 17/23/12 14/36/12 8/37/12 11/38/12 15/39/12 20/40/12 12/34/12 24/33/12
f 4/35/12 2/21/12 22/25/12 23/32/12
f 26/41/13 25/42/13 6/43/13 1/44/13
f 28/30/13 16/29/13 10/45/13 5/46/13 13/47/13 18/48/13 6/43/13 25/42/13
f 1/44/13 3/26/13 27/31/13 26/41/13
f 22/25/3 21/24/3 25/42/3 26/41/3
f 23/32/14 22/25/14 26/41/14 27/31/14
f 24/33/15 23/32/15 27/31/15 28/30/15
f 21/24/7 24/33/7 28/30/7 25/42/7
