# Blender v2.79 (sub 0) OBJ File: 'model.blend'
# www.blender.org
mtllib left_tall_glass_door.mtl
o left_tall_glass_door_Cube.002
v 0.003125 -0.764206 -0.010000
v 0.005125 -0.762206 -0.010000
v 0.005125 0.447525 -0.010000
v 0.002945 0.449705 -0.010000
v -0.465125 -0.762026 -0.010000
v -0.462945 -0.764206 -0.010000
v -0.462945 0.449705 -0.010000
v -0.465125 0.447525 -0.010000
v 0.005125 -0.762206 0.008000
v 0.003125 -0.764206 0.008000
v 0.000945 0.447705 0.010000
v 0.003125 0.445525 0.010000
v 0.002945 0.449705 0.008000
v 0.005125 0.447525 0.008000
v -0.460945 -0.762206 0.010000
v -0.463125 -0.760026 0.010000
v -0.462945 -0.764206 0.008000
v -0.465125 -0.762026 0.008000
v -0.463125 0.445525 0.010000
v -0.460945 0.447705 0.010000
v -0.465125 0.447525 0.008000
v -0.462945 0.449705 0.008000
v 0.001509 -0.762293 0.010000
v 0.003125 -0.760795 0.010000
v -0.021560 0.409082 0.010000
v -0.024856 0.417588 0.010000
v -0.017056 0.430424 0.010000
v -0.032190 0.425362 0.010000
v -0.042074 0.429563 0.010000
v -0.019043 0.432532 0.010000
v -0.421912 0.429563 0.010000
v -0.433232 0.425153 0.010000
v -0.443670 0.429637 0.010000
v -0.440566 0.417379 0.010000
v -0.444944 0.406550 0.010000
v -0.445658 0.427529 0.010000
v -0.446860 -0.714693 0.010000
v -0.443434 -0.727324 0.010000
v -0.447090 -0.743165 0.010000
v -0.432433 -0.738986 0.010000
v -0.420007 -0.742617 0.010000
v -0.445103 -0.745273 0.010000
v -0.024856 0.417588 0.005000
v -0.021560 0.409082 0.005000
v -0.042074 0.429563 0.005000
v -0.032190 0.425362 0.005000
v -0.433232 0.425153 0.005000
v -0.421912 0.429563 0.005000
v -0.444944 0.406550 0.005000
v -0.440566 0.417379 0.005000
v -0.443434 -0.727324 0.005000
v -0.446860 -0.714693 0.005000
v -0.420007 -0.742617 0.005000
v -0.432433 -0.738986 0.005000
v -0.026029 -0.732565 0.010000
v -0.021912 -0.723722 0.010000
v -0.017070 -0.744938 0.010000
v -0.021912 -0.723722 0.005000
v -0.026029 -0.732565 0.005000
v -0.043914 -0.743412 0.010000
v -0.033797 -0.739522 0.010000
v -0.019402 -0.747017 0.010000
v -0.033797 -0.739522 0.005000
v -0.043914 -0.743412 0.005000
vn -0.3662 0.8357 0.4093
vn -0.1132 0.3862 0.9154
vn 0.1132 0.3862 0.9154
vn 0.3662 0.8357 0.4093
vn -0.9239 -0.3827 0.0000
vn -0.8357 -0.3662 0.4093
vn -0.8357 0.3662 0.4093
vn -0.9239 0.3827 0.0000
vn 0.3827 -0.9239 0.0000
vn 0.3646 -0.8456 0.3899
vn -0.3659 -0.8367 0.4074
vn -0.3827 -0.9239 0.0000
vn 0.3325 0.5430 0.7711
vn 0.3956 0.6462 0.6526
vn 0.6583 0.3687 0.6562
vn 0.5607 0.3140 0.7662
vn -0.3862 0.1132 0.9154
vn -0.3862 -0.1132 0.9154
vn -0.3827 0.9239 0.0000
vn 0.3827 0.9239 0.0000
vn 0.3862 0.1132 0.9154
vn 0.8357 0.3662 0.4093
vn -0.1134 -0.3898 0.9139
vn 0.8451 -0.3639 0.3915
vn 0.9239 -0.3827 0.0000
vn 0.9239 0.3827 0.0000
vn 0.0000 0.0000 1.0000
vn 0.6687 0.0885 0.7383
vn 0.6464 -0.1263 0.7525
vn -0.6491 -0.1213 0.7509
vn -0.7315 -0.1366 0.6679
vn -0.7321 0.1622 0.6615
vn -0.6355 0.1408 0.7591
vn 0.5556 -0.3563 0.7512
vn 0.6266 -0.4018 0.6677
vn 0.4194 -0.6224 0.6608
vn 0.3632 -0.5389 0.7601
vn 0.3921 -0.1403 0.9091
vn 0.1257 -0.3971 0.9091
vn -0.1198 0.6495 0.7508
vn 0.0960 0.6655 0.7402
vn 0.7284 0.0964 0.6784
vn 0.7315 -0.1429 0.6667
vn 0.1219 -0.6488 0.7511
vn -0.1309 -0.6426 0.7549
vn -0.3738 -0.5369 0.7562
vn -0.5564 -0.3512 0.7530
vn -0.5264 0.3904 0.7552
vn -0.3449 0.5642 0.7501
vn 0.1375 -0.7315 0.6678
vn -0.1491 -0.7320 0.6648
vn -0.1350 0.7318 0.6680
vn 0.1050 0.7286 0.6768
vn -0.6002 0.4451 0.6645
vn -0.3878 0.6344 0.6686
vn -0.4274 -0.6138 0.6637
vn -0.6306 -0.3980 0.6663
usemtl gray_steel
s 1
f 22//1 20//2 11//3 13//4
f 5//5 18//6 21//7 8//8
f 1//9 10//10 17//11 6//12
f 40//13 54//14 51//15 38//16
f 19//17 21//7 18//6 16//18
f 7//19 22//1 13//4 4//20
f 11//3 12//21 14//22 13//4
f 22//1 21//7 19//17 20//2
f 15//23 16//18 18//6 17//11
f 9//24 10//10 1//9 2//25
f 5//5 6//12 17//11 18//6
f 13//4 14//22 3//26 4//20
f 21//7 22//1 7//19 8//8
f 9//24 2//25 3//26 14//22
f 16//18 39//27 37//28 35//29 36//27 19//17
f 25//30 44//31 58//32 56//33
f 34//34 50//35 47//36 32//37
f 10//10 9//24 24//38 23//39
f 60//40 41//41 42//27 15//23 23//39 62//27
f 37//28 52//42 49//43 35//29
f 19//17 36//27 34//34 32//37 33//27 20//2
f 20//2 33//27 31//44 29//45 30//27 11//3
f 57//27 24//38 12//21 27//27 25//30 56//33
f 15//23 42//27 40//13 38//16 39//27 16//18
f 11//3 30//27 28//46 26//47 27//27 12//21
f 15//23 17//11 10//10 23//39
f 12//21 24//38 9//24 14//22
f 62//27 23//39 24//38 57//27 55//48 61//49
f 31//44 48//50 45//51 29//45
f 64//52 53//53 41//41 60//40
f 61//49 55//48 59//54 63//55
f 25//30 27//27 26//47
f 28//46 30//27 29//45
f 31//44 33//27 32//37
f 34//34 36//27 35//29
f 37//28 39//27 38//16
f 40//13 42//27 41//41
f 55//48 57//27 56//33
f 60//40 62//27 61//49
f 34//34 35//29 49//43 50//35
f 51//15 52//42 37//28 38//16
f 40//13 41//41 53//53 54//14
f 31//44 32//37 47//36 48//50
f 28//46 29//45 45//51 46//56
f 43//57 44//31 25//30 26//47
f 55//48 56//33 58//32 59//54
f 60//40 61//49 63//55 64//52
f 28//46 46//56 43//57 26//47
usemtl glass
f 50//35 49//43 52//42 51//15 54//14 53//53 64//52 63//55 59//54 58//32 44//31 43//57 46//56 45//51 48//50 47//36
