# Blender v2.79 (sub 0) OBJ File: 'ecvm.blend'
# www.blender.org
mtllib left_short_glass_door_01.mtl
o left_short_glass_door_001_Cube.001
v -0.444510 -0.425854 0.009899
v -0.444510 0.429637 0.009899
v -0.014898 0.429637 0.009899
v -0.014898 -0.425854 0.009899
v -0.444509 -0.425851 0.009000
v -0.444509 0.429635 0.009000
v -0.014899 0.429635 0.009000
v -0.014899 -0.425851 0.009000
v -0.462827 -0.444703 0.009000
v -0.463827 -0.443703 0.009000
v -0.463112 -0.444005 0.009000
v -0.463827 0.447500 0.009000
v -0.462827 0.448500 0.009000
v -0.463112 0.447801 0.009000
v -0.463827 -0.443703 -0.009829
v -0.462827 -0.444703 -0.009829
v -0.462827 0.448500 -0.009829
v -0.463827 0.447500 -0.009829
v 0.004419 -0.443703 0.009000
v 0.003419 -0.444703 0.009000
v 0.003703 -0.444005 0.009000
v 0.003419 0.448500 0.009000
v 0.004419 0.447500 0.009000
v 0.003704 0.447801 0.009000
v 0.003419 -0.444703 -0.009829
v 0.004419 -0.443703 -0.009829
v 0.004419 0.447500 -0.009829
v 0.003419 0.448500 -0.009829
v -0.464851 -0.444134 0.009899
v -0.463351 -0.445634 0.009899
v -0.463775 -0.444589 0.009899
v -0.463351 0.449500 0.009899
v -0.464851 0.448000 0.009899
v -0.463777 0.448452 0.009899
v -0.463351 -0.445634 -0.009899
v -0.464851 -0.444134 -0.009899
v -0.464851 0.448000 -0.009899
v -0.463351 0.449500 -0.009899
v 0.003942 -0.445634 0.009899
v 0.005442 -0.444134 0.009899
v 0.004367 -0.444589 0.009899
v 0.005442 0.448000 0.009899
v 0.003942 0.449500 0.009899
v 0.004369 0.448452 0.009899
v 0.005442 -0.444134 -0.009899
v 0.003942 -0.445634 -0.009899
v 0.003942 0.449500 -0.009899
v 0.005442 0.448000 -0.009899
v -0.425000 -0.425854 0.009899
v -0.444510 -0.405839 0.009899
v -0.035000 -0.425854 0.009899
v -0.014898 -0.406000 0.009899
v -0.424000 0.429637 0.009899
v -0.444510 0.409600 0.009899
v -0.014898 0.409600 0.009899
v -0.034900 0.429637 0.009899
v -0.444509 0.409600 0.009000
v -0.424000 0.429635 0.009000
v -0.014899 0.412012 0.009000
v -0.034900 0.429635 0.009000
v -0.034900 -0.425851 0.009000
v -0.014899 -0.405850 0.009000
v -0.444509 -0.405850 0.009000
v -0.424510 -0.425851 0.009000
vn 0.0000 0.0000 1.0000
vn 1.0000 0.0000 0.0000
vn -1.0000 0.0000 0.0000
vn 0.0000 1.0000 0.0000
vn -0.0000 0.0000 -1.0000
vn 0.0000 -1.0000 0.0000
vn 0.7071 0.7071 0.0000
vn 0.7071 -0.7071 0.0000
vn -0.7071 0.7071 0.0000
vn -0.7071 -0.7071 0.0000
usemtl gray_01
s off
f 31//1 30//1 39//1 41//1 4//1 51//1 49//1 1//1
f 4//1 41//1 40//1 42//1 44//1 3//1 55//1 52//1
f 45//2 48//2 42//2 40//2
f 29//3 33//3 37//3 36//3
f 53//1 56//1 3//1 44//1 43//1 32//1 34//1 2//1
f 47//4 38//4 32//4 43//4
f 2//1 34//1 33//1 29//1 31//1 1//1 50//1 54//1
f 12//5 14//5 6//5 57//5 63//5 5//5 11//5 10//5
f 19//5 21//5 8//5 62//5 59//5 7//5 24//5 23//5
f 26//3 19//3 23//3 27//3
f 9//5 11//5 5//5 64//5 61//5 8//5 21//5 20//5
f 22//5 24//5 7//5 60//5 58//5 6//5 14//5 13//5
f 8//5 61//5 62//5
f 28//6 22//6 13//6 17//6
f 10//2 15//2 18//2 12//2
f 9//5 10//5 11//5
f 12//5 13//5 14//5
f 19//5 20//5 21//5
f 22//5 23//5 24//5
f 15//7 10//7 9//7 16//7
f 12//8 18//8 17//8 13//8
f 19//9 26//9 25//9 20//9
f 27//10 23//10 22//10 28//10
f 16//4 9//4 20//4 25//4
f 29//1 30//1 31//1
f 32//1 33//1 34//1
f 39//1 40//1 41//1
f 42//1 43//1 44//1
f 35//10 30//10 29//10 36//10
f 32//9 38//9 37//9 33//9
f 39//8 46//8 45//8 40//8
f 47//7 43//7 42//7 48//7
f 35//6 46//6 39//6 30//6
f 1//1 49//1 50//1
f 51//1 4//1 52//1
f 2//1 54//1 53//1
f 3//1 56//1 55//1
f 58//5 57//5 6//5
f 59//5 60//5 7//5
f 63//5 64//5 5//5
usemtl glass
f 50//1 49//1 51//1 52//1 55//1 56//1 53//1 54//1
f 62//5 61//5 64//5 63//5 57//5 58//5 60//5 59//5
