# Blender v2.79 (sub 0) OBJ File: 'model.blend'
# www.blender.org
mtllib panel.mtl
o panel_Cube
v -0.460350 0.296713 -0.009433
v -0.457080 0.300015 -0.009433
v -0.453080 0.295975 0.010567
v -0.456350 0.292673 0.010567
v -0.457080 0.300015 0.007367
v -0.460350 0.296713 0.007367
v -0.457080 -0.006015 -0.009433
v -0.460350 -0.002713 -0.009433
v 0.460350 -0.002713 -0.009433
v 0.457080 -0.006015 -0.009433
v 0.457080 0.300015 -0.009433
v 0.460350 0.296713 -0.009433
v -0.456350 0.001327 0.010567
v -0.453080 -0.001975 0.010567
v -0.460350 -0.002713 0.007367
v -0.457080 -0.006015 0.007367
v 0.453080 -0.001975 0.010567
v 0.456350 0.001327 0.010567
v 0.457080 -0.006015 0.007367
v 0.460350 -0.002713 0.007367
v 0.456350 0.292673 0.010567
v 0.453080 0.295975 0.010567
v 0.460350 0.296713 0.007367
v 0.457080 0.300015 0.007367
v -0.439507 0.271636 0.010567
v -0.437785 0.275626 0.010567
v -0.441451 0.275368 0.010567
v -0.434884 0.278387 0.010567
v -0.430762 0.280025 0.010567
v -0.435085 0.281431 0.010567
v -0.437785 0.275626 0.000567
v -0.439507 0.271636 0.000567
v -0.430762 0.280025 0.000567
v -0.434884 0.278387 0.000567
v -0.433184 0.012462 0.010567
v -0.437650 0.014236 0.010567
v -0.437868 0.010938 0.010567
v -0.440264 0.016724 0.010567
v -0.442130 0.021046 0.010567
v -0.444235 0.017003 0.010567
v -0.437650 0.014236 0.000567
v -0.433184 0.012462 0.000567
v -0.442130 0.021046 0.000567
v -0.440264 0.016724 0.000567
v 0.439524 0.024877 0.010567
v 0.437658 0.020554 0.010567
v 0.441629 0.020834 0.010567
v 0.435044 0.018067 0.010567
v 0.430578 0.016292 0.010567
v 0.435262 0.014768 0.010567
v 0.437658 0.020554 0.000567
v 0.439524 0.024877 0.000567
v 0.430578 0.016292 0.000567
v 0.435044 0.018067 0.000567
v 0.430571 0.282228 0.010567
v 0.435037 0.280098 0.010567
v 0.435255 0.284056 0.010567
v 0.437651 0.277113 0.010567
v 0.439517 0.271926 0.010567
v 0.441622 0.276778 0.010567
v 0.435037 0.280098 0.000567
v 0.430571 0.282228 0.000567
v 0.439517 0.271926 0.000567
v 0.437651 0.277113 0.000567
vt 0.987872 0.003736
vt 0.992926 0.010510
vt 0.995884 0.020003
vt 0.997996 0.036502
vt 0.998970 0.959541
vt 0.996858 0.979340
vt 0.993900 0.990730
vt 0.988846 0.998860
vt 0.011130 0.998730
vt 0.006465 0.992477
vt 0.003182 0.981942
vt 0.001233 0.966713
vt 0.000720 0.033472
vt 0.002831 0.016973
vt 0.005789 0.007480
vt 0.010843 0.000706
vt 0.000000 0.000000
vt 0.000000 0.000000
vt 0.000000 0.000000
vt 0.000000 0.000000
vt 0.000000 0.000000
vt 0.000000 0.000000
vt 0.000000 0.000000
vt 0.000000 0.000000
vt 0.000000 0.000000
vt 0.000000 0.000000
vt 0.000000 0.000000
vt 0.000000 0.000000
vt 0.000000 0.000000
vt 0.000000 0.000000
vt 0.000000 0.000000
vt 0.000000 0.000000
vt 0.000000 0.000000
vt 0.000000 0.000000
vt 0.000000 0.000000
vt 0.000000 0.000000
vt 0.000000 0.000000
vt 0.000000 0.000000
vt 0.000000 0.000000
vt 0.000000 0.000000
vt 0.000000 0.000000
vt 0.000000 0.000000
vt 0.000000 0.000000
vt 0.000000 0.000000
vt 0.000000 0.000000
vt 0.000000 0.000000
vt 0.000000 0.000000
vt 0.000000 0.000000
vt 0.000000 0.000000
vt 0.000000 0.000000
vt 0.000000 0.000000
vt 0.000000 0.000000
vt 0.000000 0.000000
vt 0.000000 0.000000
vt 0.000000 0.000000
vt 0.000000 0.000000
vt 0.000000 0.000000
vt 0.000000 0.000000
vt 0.000000 0.000000
vt 0.000000 0.000000
vt 0.000000 0.000000
vt 0.000000 0.000000
vt 0.000000 0.000000
vt 0.000000 0.000000
vt 0.000000 0.000000
vt 0.000000 0.000000
vt 0.000000 0.000000
vt 0.000000 0.000000
vt 0.000000 0.000000
vt 0.000000 0.000000
vt 0.000000 0.000000
vt 0.000000 0.000000
vt 0.000000 0.000000
vt 0.000000 0.000000
vt 0.000000 0.000000
vt 0.000000 0.000000
vt 0.000000 0.000000
vt 0.000000 0.000000
vt 0.000000 0.000000
vt 0.000000 0.000000
vn -0.0000 0.0000 1.0000
vn -0.3594 -0.8180 0.4490
vn 0.3594 -0.8180 0.4490
vn 0.0944 -0.3309 0.9389
vn -0.0944 -0.3309 0.9389
vn 0.3332 0.0924 0.9383
vn 0.3332 -0.0924 0.9383
vn 0.8197 -0.3558 0.4488
vn 0.8197 0.3558 0.4488
vn 0.9248 -0.3804 0.0000
vn 0.9248 0.3804 0.0000
vn 0.3850 0.9229 0.0000
vn -0.3850 0.9229 0.0000
vn -0.3594 0.8180 0.4490
vn 0.3594 0.8180 0.4490
vn -0.0944 0.3309 0.9389
vn 0.0944 0.3309 0.9389
vn -0.3332 -0.0924 0.9383
vn -0.3332 0.0924 0.9383
vn -0.8197 0.3558 0.4488
vn -0.8197 -0.3558 0.4488
vn -0.9248 0.3804 0.0000
vn -0.9248 -0.3804 0.0000
vn -0.3850 -0.9229 0.0000
vn 0.3850 -0.9229 0.0000
vn 0.6422 -0.1362 0.7543
vn 0.6407 0.1288 0.7569
vn 0.7337 0.1475 0.6633
vn 0.7303 -0.1548 0.6653
vn -0.6415 0.1325 0.7556
vn -0.6540 -0.1140 0.7479
vn -0.7309 -0.1274 0.6704
vn -0.7320 0.1512 0.6643
vn 0.1224 0.6471 0.7525
vn -0.1255 0.6478 0.7514
vn -0.1416 0.7309 0.6676
vn 0.1385 0.7323 0.6667
vn -0.1424 -0.6334 0.7606
vn 0.1248 -0.6476 0.7516
vn 0.1409 -0.7312 0.6674
vn -0.1648 -0.7326 0.6604
vn 0.6128 -0.4273 0.6647
vn 0.5378 -0.3750 0.7550
vn 0.3551 -0.5547 0.7524
vn 0.4018 -0.6277 0.6667
vn 0.5378 0.3750 0.7550
vn 0.6128 0.4273 0.6647
vn 0.4018 0.6277 0.6667
vn 0.3551 0.5547 0.7524
vn -0.6128 0.4273 0.6647
vn -0.5378 0.3750 0.7550
vn -0.3551 0.5547 0.7524
vn -0.4018 0.6277 0.6667
vn -0.5685 -0.3348 0.7515
vn -0.6415 -0.3779 0.6675
vn -0.4512 -0.5958 0.6644
vn -0.3956 -0.5223 0.7555
usemtl Material.001
s off
f 53/1/1 54/2/1 51/3/1 52/4/1 63/5/1 64/6/1 61/7/1 62/8/1 33/9/1 34/10/1 31/11/1 32/12/1 43/13/1 44/14/1 41/15/1 42/16/1
usemtl Material.001_NONE
f 4/17/1 13/18/1 40/19/1 39/20/1 25/21/1 27/22/1
f 21/23/1 22/24/1 57/25/1 56/26/1 58/27/1 60/28/1
f 14/29/1 17/30/1 50/31/1 49/32/1 35/33/1 37/34/1
f 22/24/1 3/35/1 30/36/1 29/37/1 55/38/1 57/25/1
f 17/30/1 18/39/1 47/40/1 46/41/1 48/42/1 50/31/1
f 13/18/1 14/29/1 37/34/1 36/43/1 38/44/1 40/19/1
f 18/39/1 21/23/1 60/28/1 59/45/1 45/46/1 47/40/1
f 3/35/1 4/17/1 27/22/1 26/47/1 28/48/1 30/36/1
f 25/21/1 26/47/1 27/22/1
f 28/48/1 29/37/1 30/36/1
f 35/33/1 36/43/1 37/34/1
f 38/44/1 39/20/1 40/19/1
f 45/46/1 46/41/1 47/40/1
f 48/42/1 49/32/1 50/31/1
f 55/38/1 56/26/1 57/25/1
f 58/27/1 59/45/1 60/28/1
s 1
f 16/49/2 19/50/3 17/30/4 14/29/5
f 21/23/6 18/39/7 20/51/8 23/52/9
f 9/53/10 12/54/11 23/52/9 20/51/8
f 11/55/12 2/56/13 5/57/14 24/58/15
f 24/58/15 5/57/14 3/35/16 22/24/17
f 13/18/18 4/17/19 6/59/20 15/60/21
f 15/60/21 6/59/20 1/61/22 8/62/23
f 3/35/16 5/57/14 6/59/20 4/17/19
f 5/57/14 2/56/13 1/61/22 6/59/20
f 16/49/2 14/29/5 13/18/18 15/60/21
f 24/58/15 22/24/17 21/23/6 23/52/9
f 17/30/4 19/50/3 20/51/8 18/39/7
f 15/60/21 8/62/23 7/63/24 16/49/2
f 9/53/10 20/51/8 19/50/3 10/64/25
f 23/52/9 12/54/11 11/55/12 24/58/15
f 7/63/24 10/64/25 19/50/3 16/49/2
f 25/21/26 39/20/27 43/65/28 32/66/29
f 45/46/30 59/45/31 63/67/32 52/68/33
f 35/33/34 49/32/35 53/69/36 42/70/37
f 55/38/38 29/37/39 33/71/40 62/72/41
f 31/73/42 26/47/43 25/21/26 32/66/29
f 28/48/44 34/74/45 33/71/40 29/37/39
f 28/48/44 26/47/43 31/73/42 34/74/45
f 38/44/46 44/75/47 43/65/28 39/20/27
f 35/33/34 42/70/37 41/76/48 36/43/49
f 38/44/46 36/43/49 41/76/48 44/75/47
f 51/77/50 46/41/51 45/46/30 52/68/33
f 53/69/36 49/32/35 48/42/52 54/78/53
f 48/42/52 46/41/51 51/77/50 54/78/53
f 58/27/54 64/79/55 63/67/32 59/45/31
f 61/80/56 56/26/57 55/38/38 62/72/41
f 58/27/54 56/26/57 61/80/56 64/79/55
