# Blender v2.79 (sub 0) OBJ File: 'ecvm.blend'
# www.blender.org
mtllib pult_table.mtl
o Cube
v -0.668980 -0.013104 0.339173
v -0.668980 0.013104 0.339173
v -0.668980 -0.013104 -0.403200
v -0.668980 0.013104 -0.403200
v 0.668980 -0.013104 0.339173
v 0.668980 0.013104 0.339173
v 0.668980 -0.013104 -0.403200
v 0.668980 0.013104 -0.403200
v -0.668980 -0.014414 0.339173
v -0.668980 0.014414 0.339173
v 0.668980 0.014414 0.339173
v 0.668980 -0.014414 0.339173
v -0.668980 -0.014414 0.359173
v -0.668980 0.014414 0.359173
v 0.668980 0.014414 0.359173
v 0.668980 -0.014414 0.359173
vt 0.910006 0.500000
vt 0.895155 0.500000
vt 0.895155 0.000000
vt 0.910005 0.000000
vt 0.872490 0.901138
vt 0.857639 0.901138
vt 0.857639 0.000000
vt 0.872490 0.000000
vt 0.910005 1.000000
vt 0.895155 1.000000
vt 0.895155 0.500000
vt 0.910005 0.500000
vt 0.910748 0.000000
vt 0.910748 0.901138
vt 0.910006 0.901138
vt 0.910005 0.000000
vt 0.420652 0.901138
vt 0.420652 0.000000
vt 0.841304 0.000000
vt 0.841304 0.901138
vt 0.000000 0.920555
vt 0.000000 0.901138
vt 0.011333 0.901138
vt 0.011333 0.920555
vt 0.022665 0.901138
vt 0.022665 0.901138
vt 0.022665 0.901138
vt 0.022665 0.901138
vt 0.022665 0.901138
vt 0.022665 0.901138
vt 0.022665 0.901138
vt 0.022665 0.901138
vt 0.910748 0.901138
vt 0.910748 0.000000
vt 0.911491 0.000000
vt 0.911491 0.901138
vt 0.841304 0.000000
vt 0.857639 0.000000
vt 0.857639 0.901138
vt 0.841304 0.901138
vt 0.872490 0.901138
vt 0.872490 0.000000
vt 0.883822 0.000000
vt 0.883822 0.901138
vt 0.022665 0.920555
vt 0.011333 0.920555
vt 0.011333 0.901138
vt 0.895155 0.000000
vt 0.895155 0.901138
vt 0.883823 0.901138
vt 0.883822 0.000000
vt 0.420652 0.000000
vt 0.420652 0.901138
vt 0.000000 0.901138
vt 0.000000 0.000000
vn -1.0000 0.0000 0.0000
vn 0.0000 0.0000 -1.0000
vn 1.0000 0.0000 0.0000
vn 0.0000 -1.0000 0.0000
vn 0.0000 0.0000 1.0000
vn 0.0000 1.0000 0.0000
usemtl hatch_cover
s off
f 1/1/1 2/2/1 4/3/1 3/4/1
f 3/5/2 4/6/2 8/7/2 7/8/2
f 7/9/3 8/10/3 6/11/3 5/12/3
f 6/13/2 2/14/2 10/15/2 11/16/2
f 3/17/4 7/18/4 5/19/4 1/20/4
f 12/21/3 11/22/3 15/23/3 16/24/3
f 5/25/5 6/26/5 11/27/5 12/28/5
f 2/29/5 1/30/5 9/31/5 10/32/5
f 1/33/2 5/34/2 12/35/2 9/36/2
f 16/37/5 15/38/5 14/39/5 13/40/5
f 9/41/4 12/42/4 16/43/4 13/44/4
f 10/32/1 9/45/1 13/46/1 14/47/1
f 11/48/6 10/49/6 14/50/6 15/51/6
usemtl Material
f 8/52/6 4/53/6 2/54/6 6/55/6
