# Blender v2.79 (sub 0) OBJ File: 'model.blend'
# www.blender.org
mtllib pult.mtl
o Cube.002_Cube.003
v -0.670000 -0.050625 0.163858
v -0.670000 -0.043958 0.163858
v -0.670000 -0.050625 -0.200000
v -0.670000 0.050625 -0.200000
v 0.670000 -0.050625 0.163858
v 0.670000 -0.043958 0.163858
v 0.670000 -0.050625 -0.200000
v 0.670000 0.050625 -0.200000
vt 1.000000 1.000000
vt 0.000000 1.000000
vt 0.000000 0.000000
vt 1.000000 -0.000000
vt 0.000000 0.000000
vt 0.000000 0.000000
vt 0.000000 0.000000
vt 0.000000 0.000000
vt 0.000000 0.000000
vt 0.000000 0.000000
vt 0.000000 0.000000
vn 0.0000 0.9678 0.2516
vn -1.0000 0.0000 0.0000
vn 0.0000 0.0000 -1.0000
vn 1.0000 0.0000 0.0000
vn 0.0000 0.0000 1.0000
vn 0.0000 -1.0000 0.0000
usemtl gray_steel
s off
f 8/1/1 4/2/1 2/3/1 6/4/1
usemtl gray_steel_NONE
f 1/5/2 2/3/2 4/6/2 3/7/2
f 3/7/3 4/6/3 8/8/3 7/9/3
f 7/9/4 8/8/4 6/10/4 5/11/4
f 5/11/5 6/10/5 2/3/5 1/5/5
f 3/7/6 7/9/6 5/11/6 1/5/6
