# Blender v2.79 (sub 0) OBJ File: 'ecvm.blend'
# www.blender.org
mtllib pult_table_cover.mtl
o Plane
v -0.668471 -0.106000 -0.000046
v 0.668471 -0.106000 -0.000046
v -0.668471 0.106000 -0.000046
v 0.668471 0.106000 -0.000046
v -0.668471 -0.106000 0.440000
v 0.668471 -0.106000 0.440000
v -0.668471 0.106000 0.440000
v 0.668471 0.106000 0.440000
v -0.300000 0.106000 0.440000
v 0.300000 0.106000 0.440000
v -0.300000 0.000000 0.440000
v 0.300000 0.000000 0.440000
v -0.300000 0.000000 -0.000046
v 0.300000 0.000000 -0.000046
v -0.280000 -0.106000 -0.000046
v 0.280000 -0.106000 -0.000046
v -0.300000 -0.080000 -0.000046
v -0.304243 -0.090243 -0.000046
v -0.295757 -0.090243 -0.000046
v -0.315757 -0.101757 -0.000046
v -0.326000 -0.106000 -0.000046
v -0.314000 -0.106000 -0.000046
v -0.326000 -0.106000 0.440000
v -0.315757 -0.101757 0.440000
v -0.304243 -0.090243 0.440000
v -0.300000 -0.080000 0.440000
v 0.326000 -0.106000 -0.000046
v 0.315757 -0.101757 -0.000046
v 0.314000 -0.106000 -0.000046
v 0.304243 -0.090243 -0.000046
v 0.300000 -0.080000 -0.000046
v 0.295757 -0.090243 -0.000046
v 0.300000 -0.080000 0.440000
v 0.304243 -0.090243 0.440000
v 0.315757 -0.101757 0.440000
v 0.326000 -0.106000 0.440000
v -0.635598 0.060448 0.440000
v -0.343635 0.060448 0.440000
v -0.343635 -0.045204 0.440000
v -0.635598 -0.045204 0.440000
v 0.343635 0.060448 0.440000
v 0.343635 -0.045205 0.440000
v 0.635598 -0.045205 0.440000
v 0.635598 0.060448 0.440000
vn 0.0000 0.0000 1.0000
vn -0.9808 -0.1951 -0.0000
vn -1.0000 0.0000 0.0000
vn 1.0000 0.0000 0.0000
vn 0.0000 1.0000 0.0000
vn 0.0000 -1.0000 0.0000
vn 0.1951 -0.9808 0.0000
vn 0.8315 -0.5556 0.0000
vn 0.5556 -0.8315 0.0000
vn -0.5556 -0.8315 -0.0000
vn -0.8315 -0.5556 -0.0000
vn 0.9808 -0.1951 0.0000
vn -0.1951 -0.9808 0.0000
usemtl gray_02
s 1
f 13//1 17//1 19//1 15//1 16//1 32//1 31//1 14//1
f 33//2 12//3 14//3 31//2
f 2//4 4//4 8//4 6//4
f 3//3 1//3 5//3 7//3
f 4//5 3//5 7//5 9//5 10//5 8//5
f 10//1 41//1 8//1
f 9//1 11//1 12//1 10//1
f 1//6 21//7 23//7 5//6
f 29//1 28//1 30//1 32//1 16//1
f 12//6 11//6 13//6 14//6
f 18//8 25//8 24//9 20//9
f 28//10 35//10 34//11 30//11
f 11//4 26//12 17//12 13//4
f 27//13 2//6 6//6 36//13
f 24//1 25//1 39//1
f 17//1 18//1 19//1
f 20//1 21//1 22//1
f 27//1 28//1 29//1
f 30//1 31//1 32//1
f 17//12 26//12 25//8 18//8
f 23//7 21//7 20//9 24//9
f 27//13 36//13 35//10 28//10
f 33//2 31//2 30//11 34//11
f 19//1 18//1 20//1 22//1 15//1
f 38//1 9//1 7//1
f 40//1 5//1 23//1
f 23//1 24//1 39//1
f 25//1 26//1 39//1
f 39//1 40//1 23//1
f 38//1 39//1 11//1
f 26//1 11//1 39//1
f 7//1 5//1 40//1
f 7//1 40//1 37//1
f 38//1 11//1 9//1
f 7//1 37//1 38//1
f 34//1 35//1 42//1
f 10//1 12//1 41//1
f 33//1 42//1 12//1
f 41//1 44//1 8//1
f 12//1 42//1 41//1
f 6//1 8//1 43//1
f 43//1 42//1 36//1
f 8//1 44//1 43//1
f 35//1 36//1 42//1
f 33//1 34//1 42//1
f 6//1 43//1 36//1
