# Blender v2.79 (sub 0) OBJ File: 'model.blend'
# www.blender.org
mtllib punch_device_cover.mtl
o Cube_Cube.019
v -0.387996 -0.015000 -0.017910
v -0.387996 -0.015000 0.782090
v -0.387996 0.015000 -0.017910
v -0.387996 0.015000 0.782090
v 0.388004 -0.015000 -0.017910
v 0.388004 -0.015000 0.782090
v 0.388004 0.015000 -0.017910
v 0.388004 0.015000 0.782090
vt 0.961368 0.055345
vt 0.055530 0.047672
vt 0.005346 0.010509
vt 0.995247 0.010509
vt 0.000000 0.000000
vt 1.000000 0.000000
vt 1.000000 1.000000
vt 0.000000 1.000000
vt 0.990686 0.985242
vt 0.000786 0.985234
vt 0.034664 0.940399
vt 0.940501 0.948077
vt 0.000000 0.000000
vt 1.000000 0.000000
vt 1.000000 1.000000
vt 0.000000 1.000000
vn -1.0000 0.0000 0.0000
vn 0.0000 1.0000 0.0000
vn 1.0000 0.0000 0.0000
vn 0.0000 -1.0000 -0.0000
vn 0.0000 0.0000 -1.0000
vn 0.0000 0.0000 1.0000
usemtl Material
s off
f 1/1/1 2/2/1 4/3/1 3/4/1
f 3/5/2 4/6/2 8/7/2 7/8/2
f 7/9/3 8/10/3 6/11/3 5/12/3
f 5/13/4 6/14/4 2/15/4 1/16/4
f 3/4/5 7/9/5 5/12/5 1/1/5
f 8/10/6 4/3/6 2/2/6 6/11/6
