# Blender v2.79 (sub 0) OBJ File: 'ecvm.blend'
# www.blender.org
mtllib right_front_tape_door.mtl
o left_tape_Device_front_door_Cube.004
v 0.000564 -0.406095 0.000000
v 0.000564 0.417610 0.000000
v 0.000564 -0.406095 -0.018000
v 0.000564 0.417610 -0.018000
v 0.669001 -0.406095 0.000000
v 0.669001 0.417610 0.000000
v 0.669001 -0.406095 -0.018000
v 0.669001 0.417610 -0.018000
v 0.145280 0.265224 -0.018000
v 0.145280 -0.253710 -0.018000
v 0.524284 -0.253710 -0.018000
v 0.524284 0.265224 -0.018000
vn -1.0000 0.0000 0.0000
vn 0.0000 -0.0000 -1.0000
vn 1.0000 0.0000 0.0000
vn 0.0000 0.0000 1.0000
vn 0.0000 -1.0000 0.0000
vn 0.0000 1.0000 0.0000
usemtl gray_01.002
s off
f 1//1 2//1 4//1 3//1
f 4//2 8//2 12//2 9//2
f 7//3 8//3 6//3 5//3
f 5//4 6//4 2//4 1//4
f 3//5 7//5 5//5 1//5
f 8//6 4//6 2//6 6//6
f 3//2 4//2 9//2 10//2
f 8//2 7//2 11//2 12//2
f 7//2 3//2 10//2 11//2
usemtl gray_02
f 10//2 9//2 12//2 11//2
