# Blender v2.79 (sub 0) OBJ File: 'ecvm.blend'
# www.blender.org
mtllib right_short_glass_door_02.mtl
o left_short_glass_door_001.001_Cube.003
v 0.444509 -0.425851 0.009000
v 0.444509 0.429635 0.009000
v 0.014899 0.429635 0.009000
v 0.014899 -0.425851 0.009000
v 0.462827 -0.444703 0.009000
v 0.463827 -0.443703 0.009000
v 0.463112 -0.444005 0.009000
v 0.463827 0.447500 0.009000
v 0.462827 0.448500 0.009000
v 0.463112 0.447801 0.009000
v 0.463827 -0.443703 -0.009829
v 0.462827 -0.444703 -0.009829
v 0.462827 0.448500 -0.009829
v 0.463827 0.447500 -0.009829
v -0.004419 -0.443703 0.009000
v -0.003419 -0.444703 0.009000
v -0.003703 -0.444005 0.009000
v -0.003419 0.448500 0.009000
v -0.004419 0.447500 0.009000
v -0.003704 0.447801 0.009000
v -0.003419 -0.444703 -0.009829
v -0.004419 -0.443703 -0.009829
v -0.004419 0.447500 -0.009829
v -0.003419 0.448500 -0.009829
v 0.464851 -0.444134 0.009899
v 0.463351 -0.445634 0.009899
v 0.463351 0.449500 0.009899
v 0.464851 0.448000 0.009899
v 0.463351 -0.445634 -0.009899
v 0.464851 -0.444134 -0.009899
v 0.464851 0.448000 -0.009899
v 0.463351 0.449500 -0.009899
v -0.003942 -0.445634 0.009899
v -0.005442 -0.444134 0.009899
v -0.005442 0.448000 0.009899
v -0.003942 0.449500 0.009899
v -0.005442 -0.444134 -0.009899
v -0.003942 -0.445634 -0.009899
v -0.003942 0.449500 -0.009899
v -0.005442 0.448000 -0.009899
v 0.425000 -0.425854 0.009899
v 0.444510 -0.405839 0.009899
v 0.035000 -0.425854 0.009899
v 0.014898 -0.406000 0.009899
v 0.424000 0.429637 0.009899
v 0.444510 0.409600 0.009899
v 0.014898 0.409600 0.009899
v 0.034900 0.429637 0.009899
v 0.444509 0.409600 0.009000
v 0.424000 0.429635 0.009000
v 0.014899 0.412012 0.009000
v 0.034900 0.429635 0.009000
v 0.034900 -0.425851 0.009000
v 0.014899 -0.405850 0.009000
v 0.444509 -0.405850 0.009000
v 0.424510 -0.425851 0.009000
v 0.444510 0.409600 0.012899
v 0.444510 0.429637 0.012899
v 0.014898 -0.406000 0.012899
v 0.014898 -0.425854 0.012899
v 0.035000 -0.425854 0.012899
v 0.424000 0.429637 0.012899
v 0.461757 -0.442628 0.012899
v -0.002348 -0.442628 0.012899
v 0.461757 0.446494 0.012899
v -0.002348 0.446494 0.012899
v 0.014898 0.429637 0.012899
v 0.444510 -0.425854 0.012899
v 0.425000 -0.425854 0.012899
v 0.444510 -0.405839 0.012899
v 0.014898 0.409600 0.012899
v 0.034900 0.429637 0.012899
v 0.021949 -0.418927 0.009899
v 0.021949 -0.418927 0.012899
v 0.437755 -0.418846 0.009899
v 0.437755 -0.418846 0.012899
v 0.021899 0.422619 0.009899
v 0.021899 0.422619 0.012899
v 0.437255 0.422619 0.009899
v 0.437255 0.422619 0.012899
v 0.437255 0.422617 0.009000
v 0.021899 0.423824 0.009000
v 0.021899 -0.418851 0.009000
v 0.437510 -0.418851 0.009000
vn -0.6961 0.0000 0.7179
vn -1.0000 0.0000 0.0000
vn 1.0000 0.0000 0.0000
vn 0.0000 1.0000 0.0000
vn 0.6961 0.0000 0.7179
vn 0.0000 0.0000 -1.0000
vn 0.0000 -1.0000 0.0000
vn -0.7071 0.7071 0.0000
vn -0.7071 -0.7071 0.0000
vn 0.7071 0.7071 0.0000
vn 0.7071 -0.7071 0.0000
vn 0.0000 -0.7064 0.7079
vn -0.4794 0.4794 0.7351
vn 0.0000 0.7064 0.7079
vn -0.4794 -0.4794 0.7351
vn 0.0000 0.0000 1.0000
vn 0.4794 -0.4794 0.7351
vn 0.4794 0.4794 0.7351
vn -0.9715 0.2372 0.0000
vn -0.9679 -0.2515 0.0000
vn -0.2411 -0.9705 0.0000
vn 0.2450 -0.9695 0.0000
vn 0.4688 0.8833 0.0000
vn 0.2416 0.9704 0.0000
vn 0.9697 -0.2442 0.0000
vn 0.9690 0.2471 0.0000
vn 0.8807 -0.4736 0.0000
vn -0.2485 0.9686 0.0000
vn -0.4679 -0.8838 0.0000
vn -0.8875 0.4609 0.0000
vn 0.8779 0.4789 0.0000
vn -0.4815 0.8765 0.0000
vn 0.4750 -0.8800 0.0000
vn -0.8735 -0.4868 0.0000
usemtl gray_01
s 1
f 34//1 64//1 66//1 35//1
f 37//2 34//2 35//2 40//2
f 25//3 30//3 31//3 28//3
f 39//4 36//4 27//4 32//4
f 28//5 65//5 63//5 25//5
f 8//6 6//6 7//6 1//6 55//6 49//6 2//6 10//6
f 15//6 19//6 20//6 3//6 51//6 54//6 4//6 17//6
f 22//3 23//3 19//3 15//3
f 5//6 16//6 17//6 4//6 53//6 56//6 1//6 7//6
f 18//6 9//6 10//6 2//6 50//6 52//6 3//6 20//6
f 4//6 83//6 53//6
f 24//7 13//7 9//7 18//7
f 6//2 8//2 14//2 11//2
f 5//6 7//6 6//6
f 8//6 10//6 9//6
f 15//6 17//6 16//6
f 18//6 20//6 19//6
f 11//8 12//8 5//8 6//8
f 8//9 9//9 13//9 14//9
f 15//10 16//10 21//10 22//10
f 23//11 24//11 18//11 19//11
f 12//4 21//4 16//4 5//4
f 26//12 63//12 64//12 33//12
f 35//13 66//13 36//13
f 29//11 30//11 25//11 26//11
f 27//10 28//10 31//10 32//10
f 33//9 34//9 37//9 38//9
f 39//8 40//8 35//8 36//8
f 29//7 26//7 33//7 38//7
f 36//14 66//14 65//14 27//14
f 33//15 64//15 34//15
f 50//6 2//6 81//6
f 51//6 3//6 82//6
f 55//6 1//6 84//6
f 68//16 69//16 61//16 60//16 64//16 63//16
f 60//16 59//16 71//16 67//16 66//16 64//16
f 62//16 58//16 65//16 66//16 67//16 72//16
f 58//16 57//16 70//16 68//16 63//16 65//16
f 69//16 68//16 76//16
f 60//16 61//16 74//16
f 58//16 62//16 80//16 57//16
f 67//16 78//16 72//16
f 25//17 63//17 26//17
f 27//18 65//18 28//18
f 70//16 76//16 68//16
f 74//16 59//16 60//16
f 78//16 67//16 71//16
f 2//6 49//6 81//6
f 3//6 52//6 82//6
f 83//6 4//6 54//6
f 1//6 56//6 84//6
usemtl glass
f 42//19 70//19 57//20 46//20
f 45//21 62//21 72//22 48//22
f 42//16 46//16 79//16 45//16 48//16 77//16 47//16 44//16 73//16 43//16 41//16 75//16
f 73//23 74//23 61//24 43//24
f 47//25 71//25 59//26 44//26
f 77//27 78//27 71//25 47//25
f 43//24 61//24 69//28 41//28
f 54//6 51//6 82//6 52//6 50//6 81//6 49//6 55//6 84//6 56//6 53//6 83//6
f 79//29 80//29 62//21 45//21
f 75//30 76//30 70//19 42//19
f 44//26 59//26 74//31 73//31
f 41//28 69//28 76//32 75//32
f 48//22 72//22 78//33 77//33
f 46//20 57//20 80//34 79//34
