# Blender v2.79 (sub 0) OBJ File: 'model.blend'
# www.blender.org
mtllib right_side_tape_door.mtl
o Cube.012_Cube.007
v -0.009000 -0.409050 0.002484
v -0.009000 0.411844 0.002484
v 0.009000 -0.409050 0.002484
v 0.009000 0.411844 0.002484
v -0.009000 -0.409050 0.420433
v -0.009000 0.411844 0.420433
v 0.009000 -0.409050 0.420433
v 0.009000 0.411844 0.420433
vn -0.0000 0.0000 -1.0000
vn 1.0000 0.0000 -0.0000
vn 0.0000 0.0000 1.0000
vn -1.0000 0.0000 0.0000
vn 0.0000 -1.0000 0.0000
vn 0.0000 1.0000 0.0000
usemtl gray_01
s off
f 1//1 2//1 4//1 3//1
f 3//2 4//2 8//2 7//2
f 7//3 8//3 6//3 5//3
f 5//4 6//4 2//4 1//4
f 3//5 7//5 5//5 1//5
f 8//6 4//6 2//6 6//6
