# Blender v2.79 (sub 0) OBJ File: 'model.blend'
# www.blender.org
mtllib right_small_banquet_cover.mtl
o Plane.002_Plane.004
v -0.468915 -0.141745 0.270490
v -0.468915 -0.965837 0.270490
v -0.468915 -0.141745 0.016764
v -0.468915 -0.965837 0.016764
v -0.463810 -0.141745 0.284733
v -0.463810 -0.965837 0.284733
v -0.451787 -0.141745 0.295525
v -0.451787 -0.965837 0.295525
v -0.437724 -0.141745 0.299861
v -0.437724 -0.965837 0.299861
v -0.422408 -0.141745 0.299861
v -0.422408 -0.965837 0.299861
v 0.420159 -0.141376 0.299861
v 0.420159 -0.965468 0.299861
v 0.463872 -0.141376 0.299861
v 0.463872 -0.965468 0.299861
v 0.477501 -0.141376 0.306761
v 0.477501 -0.965468 0.306761
v 0.485471 -0.141376 0.317211
v 0.485471 -0.965468 0.317211
v 0.489788 -0.141376 0.326434
v 0.489788 -0.965468 0.326434
vn -0.9852 0.0000 0.1712
vn -1.0000 0.0000 0.0000
vn -0.8300 0.0000 0.5578
vn -0.4928 0.0000 0.8701
vn -0.1490 0.0000 0.9888
vn 0.0000 0.0000 1.0000
vn -0.2322 0.0000 0.9727
vn -0.6396 0.0000 0.7687
vn -0.8553 0.0000 0.5181
vn -0.9057 0.0000 0.4239
usemtl gray_01
s 1
f 1//1 3//2 4//2 2//1
f 2//1 6//3 5//3 1//1
f 6//3 8//4 7//4 5//3
f 8//4 10//5 9//5 7//4
f 10//5 12//6 11//6 9//5
f 14//6 16//7 15//7 13//6
f 16//7 18//8 17//8 15//7
f 18//8 20//9 19//9 17//8
f 20//9 22//10 21//10 19//9
