# Blender v2.79 (sub 0) OBJ File: 'devices.blend'
# www.blender.org
mtllib cover.mtl
o cover_Plane.003
v -0.570323 0.784734 -0.287833
v -0.570323 0.060750 -0.287833
v -0.566157 0.784734 -0.302075
v -0.566157 0.060750 -0.302075
v -0.555763 0.784734 -0.312205
v -0.555763 0.060750 -0.312205
v -0.543655 0.784734 -0.316453
v -0.543655 0.060750 -0.316453
v -0.524754 0.784734 -0.316453
v -0.524754 0.060750 -0.316453
v -0.570323 0.784734 -0.270580
v -0.570323 0.060750 -0.270580
v -0.219767 0.784734 -0.287833
v -0.219767 0.060750 -0.287833
v -0.223934 0.784734 -0.302075
v -0.223934 0.060750 -0.302075
v -0.234327 0.784734 -0.312205
v -0.234327 0.060750 -0.312205
v -0.246436 0.784734 -0.316453
v -0.246436 0.060750 -0.316453
v -0.265336 0.784734 -0.316453
v -0.265336 0.060750 -0.316453
v -0.219767 0.784734 -0.270580
v -0.219767 0.060750 -0.270580
v -0.219767 0.784734 0.059362
v -0.219767 0.060750 0.059362
v -0.570323 0.784734 0.288232
v -0.570323 0.060750 0.288232
v -0.566157 0.784734 0.302474
v -0.566157 0.060750 0.302474
v -0.555763 0.784734 0.312603
v -0.555763 0.060750 0.312603
v -0.543655 0.784734 0.316851
v -0.543655 0.060750 0.316851
v -0.524754 0.784734 0.316851
v -0.524754 0.060750 0.316851
v -0.570323 0.784734 0.270979
v -0.570323 0.060750 0.270979
v 0.570323 0.784734 -0.287833
v 0.570323 0.060750 -0.287833
v 0.566157 0.784734 -0.302075
v 0.566157 0.060750 -0.302075
v 0.555763 0.784734 -0.312205
v 0.555763 0.060750 -0.312205
v 0.543655 0.784734 -0.316453
v 0.543655 0.060750 -0.316453
v 0.524754 0.784734 -0.316453
v 0.524754 0.060750 -0.316453
v 0.570323 0.784734 -0.270581
v 0.570323 0.060750 -0.270581
v 0.219767 0.784734 -0.287833
v 0.219767 0.060750 -0.287833
v 0.223934 0.784734 -0.302075
v 0.223934 0.060750 -0.302075
v 0.234327 0.784734 -0.312205
v 0.234327 0.060750 -0.312205
v 0.246435 0.784734 -0.316453
v 0.246435 0.060750 -0.316453
v 0.265336 0.784734 -0.316453
v 0.265336 0.060750 -0.316453
v 0.219767 0.784734 -0.270580
v 0.219767 0.060750 -0.270580
v 0.219767 0.784734 0.059362
v 0.229767 0.060750 0.059362
v 0.570323 0.784734 0.288231
v 0.570323 0.060750 0.288231
v 0.566157 0.784734 0.302474
v 0.566157 0.060750 0.302474
v 0.555763 0.784734 0.312603
v 0.555763 0.060750 0.312603
v 0.543655 0.784734 0.316851
v 0.543655 0.060750 0.316851
v 0.524754 0.784734 0.316851
v 0.524754 0.060750 0.316851
v 0.570323 0.784734 0.270979
v 0.570323 0.060750 0.270979
v 0.030000 0.784734 0.316851
v 0.030000 0.060750 0.316851
v -0.030000 0.784734 0.316851
v -0.030000 0.060750 0.316851
v -0.219767 0.635189 0.059362
v 0.219767 0.635189 0.059362
v 0.219767 0.635189 -0.270580
v -0.219767 0.635189 -0.270580
vn -0.9899 0.0000 -0.1418
vn -0.8570 0.0000 -0.5154
vn -0.5269 0.0000 -0.8499
vn -0.1679 0.0000 -0.9858
vn 0.0000 0.0000 -1.0000
vn -1.0000 0.0000 0.0000
vn 0.9899 0.0000 -0.1418
vn 0.8570 0.0000 -0.5154
vn 0.5269 0.0000 -0.8499
vn 0.1679 0.0000 -0.9858
vn 1.0000 0.0000 0.0000
vn -0.9899 0.0000 0.1418
vn -0.8570 0.0000 0.5154
vn -0.5269 0.0000 0.8499
vn -0.1679 0.0000 0.9858
vn 0.0000 0.0000 1.0000
vn -1.0000 -0.0044 0.0076
vn -1.0000 -0.0029 0.0051
vn 0.9899 0.0000 0.1418
vn 0.8570 0.0000 0.5154
vn 0.5269 0.0000 0.8499
vn 0.1679 0.0000 0.9858
vn -0.9998 -0.0087 0.0152
vn 0.0000 -1.0000 -0.0000
usemtl gray_01
s 1
f 2//1 1//1 3//2 4//2
f 4//2 3//2 5//3 6//3
f 6//3 5//3 7//4 8//4
f 8//4 7//4 9//5 10//5
f 1//1 2//1 12//6 11//6
f 14//7 16//8 15//8 13//7
f 16//8 18//9 17//9 15//8
f 18//9 20//10 19//10 17//9
f 20//10 22//5 21//5 19//10
f 13//7 23//11 84//11 24//11 14//7
f 28//12 30//13 29//13 27//12
f 30//13 32//14 31//14 29//13
f 32//14 34//15 33//15 31//14
f 34//15 36//16 35//16 33//15
f 27//12 37//6 38//6 28//12
f 40//7 42//8 41//8 39//7
f 42//8 44//9 43//9 41//8
f 44//9 46//10 45//10 43//9
f 46//10 48//5 47//5 45//10
f 39//7 49//11 50//11 40//7
f 52//1 51//1 53//2 54//2
f 54//2 53//2 55//3 56//3
f 56//3 55//3 57//4 58//4
f 58//4 57//4 59//5 60//5
f 51//1 52//1 62//17 83//18 61//6
f 66//19 65//19 67//20 68//20
f 68//20 67//20 69//21 70//21
f 70//21 69//21 71//22 72//22
f 72//22 71//22 73//16 74//16
f 65//19 66//19 76//11 75//11
f 26//5 81//5 82//5 64//5
f 80//16 78//16 77//16 79//16
f 83//18 62//17 64//23 82//23
f 84//11 81//11 26//11 24//11
f 83//24 82//24 81//24 84//24
f 84//5 23//5 61//5 83//5
l 63 82
l 25 81
l 63 61
l 25 23
