# Blender v2.79 (sub 0) OBJ File: 'devices.blend'
# www.blender.org
mtllib left_side_door.mtl
o left_side_door_Cube.027
v 0.009000 -0.406095 -0.001399
v 0.009000 0.314214 -0.001399
v -0.009000 -0.406095 -0.001399
v -0.009000 0.314214 -0.001399
v 0.009000 -0.406095 -0.541715
v 0.009000 0.314214 -0.541715
v -0.009000 -0.406095 -0.541715
v -0.009000 0.314214 -0.541715
vn -0.0000 0.0000 1.0000
vn -1.0000 0.0000 -0.0000
vn 0.0000 0.0000 -1.0000
vn 1.0000 0.0000 0.0000
vn 0.0000 -1.0000 0.0000
vn 0.0000 1.0000 0.0000
usemtl gray_02
s off
f 1//1 2//1 4//1 3//1
f 3//2 4//2 8//2 7//2
f 7//3 8//3 6//3 5//3
f 5//4 6//4 2//4 1//4
f 3//5 7//5 5//5 1//5
f 8//6 4//6 2//6 6//6
