# Blender v2.79 (sub 0) OBJ File: 'devices.blend'
# www.blender.org
mtllib table_top_lod001.mtl
o table_top_001_Cube.001
v -0.552000 0.810001 0.331200
v -0.582000 0.810001 0.301200
v -0.582000 0.835001 0.301200
v -0.552000 0.835001 0.331200
v -0.582000 0.810001 -0.301200
v -0.552000 0.810001 -0.331200
v -0.552000 0.835001 -0.331200
v -0.582000 0.835001 -0.301200
v 0.582000 0.810001 0.301200
v 0.552000 0.810001 0.331200
v 0.552000 0.835001 0.331200
v 0.582000 0.835001 0.301200
v 0.552000 0.810001 -0.331200
v 0.582000 0.810001 -0.301200
v 0.582000 0.835001 -0.301200
v 0.552000 0.835001 -0.331200
vt 0.951922 0.636799
vt 0.975394 0.664910
vt 0.072899 0.664910
vt 0.097318 0.641023
vt 0.928135 0.051608
vt 0.953813 0.030191
vt 0.997731 0.634800
vt 0.972915 0.608930
vt 0.071865 0.613383
vt 0.046188 0.634800
vt 0.002269 0.030192
vt 0.027085 0.056062
vt 0.048078 0.028192
vt 0.024606 0.000082
vt 0.927101 0.000082
vt 0.902682 0.023968
vt 0.999925 0.950386
vt 0.974155 0.996771
vt 0.025845 0.996772
vt 0.000075 0.950387
vt 0.000075 0.018981
vt 0.025845 -0.027404
vt 0.974155 -0.027404
vt 0.999924 0.018981
vn 0.3827 0.0000 0.9239
vn -0.3827 0.0000 0.9239
vn 0.9239 0.0000 -0.3827
vn 0.9239 0.0000 0.3827
vn -0.9239 0.0000 0.3827
vn -0.9239 0.0000 -0.3827
vn -0.3827 0.0000 -0.9239
vn 0.3827 0.0000 -0.9239
vn 0.0000 -1.0000 0.0000
vn 0.0000 1.0000 -0.0000
usemtl hatch_cover
s 1
f 10/1/1 11/2/1 4/3/2 1/4/2
f 14/5/3 15/6/3 12/7/4 9/8/4
f 2/9/5 3/10/5 8/11/6 5/12/6
f 6/13/7 7/14/7 16/15/8 13/16/8
f 1/4/2 4/3/2 3/10/5 2/9/5
f 7/14/7 6/13/7 5/12/6 8/11/6
f 15/6/3 14/5/3 13/16/8 16/15/8
f 11/2/1 10/1/1 9/8/4 12/7/4
f 5/12/9 6/13/9 13/16/9 14/5/9 9/8/9 10/1/9 1/4/9 2/9/9
usemtl hatch_cover_tape_cover.png
f 15/17/10 16/18/10 7/19/10 8/20/10 3/21/10 4/22/10 11/23/10 12/24/10
