# Blender v2.79 (sub 0) OBJ File: 'model.blend'
# www.blender.org
mtllib table_hull.mtl
o Plane.007_Plane.003
v -0.470323 -0.141853 -0.275715
v -0.470323 -0.965837 -0.275715
v -0.466157 -0.141853 -0.289958
v -0.466157 -0.965837 -0.289958
v -0.455763 -0.141853 -0.300087
v -0.455763 -0.965837 -0.300087
v -0.443655 -0.141853 -0.304335
v -0.443655 -0.965837 -0.304335
v -0.424754 -0.141853 -0.304335
v -0.424754 -0.965837 -0.304335
v -0.470323 -0.141853 -0.258463
v -0.470323 -0.965837 -0.258463
v -0.129767 -0.141853 -0.275715
v -0.129767 -0.965837 -0.275715
v -0.133934 -0.141853 -0.289958
v -0.133934 -0.965837 -0.289958
v -0.144327 -0.141853 -0.300087
v -0.144327 -0.965837 -0.300087
v -0.156435 -0.141853 -0.304335
v -0.156435 -0.965837 -0.304335
v -0.175336 -0.141853 -0.304335
v -0.175336 -0.965837 -0.304335
v -0.129767 -0.141853 -0.258463
v -0.129767 -0.965837 -0.258463
v -0.129767 -0.141853 0.071480
v -0.129767 -0.965837 0.071480
v -0.470323 -0.141853 0.300349
v -0.470323 -0.965837 0.300349
v -0.466157 -0.141853 0.314591
v -0.466157 -0.965837 0.314591
v -0.455763 -0.141853 0.324721
v -0.455763 -0.965837 0.324721
v -0.443655 -0.141853 0.328969
v -0.443655 -0.965837 0.328969
v -0.424754 -0.141853 0.328969
v -0.424754 -0.965837 0.328969
v -0.470323 -0.141853 0.283097
v -0.470323 -0.965837 0.283097
v 0.670323 -0.141853 -0.275715
v 0.670323 -0.965837 -0.275715
v 0.666157 -0.141853 -0.289958
v 0.666157 -0.965837 -0.289958
v 0.655763 -0.141853 -0.300087
v 0.655763 -0.965837 -0.300087
v 0.643655 -0.141853 -0.304335
v 0.643655 -0.965837 -0.304335
v 0.624754 -0.141853 -0.304335
v 0.624754 -0.965837 -0.304335
v 0.670323 -0.141853 -0.258463
v 0.670323 -0.965837 -0.258463
v 0.329767 -0.141853 -0.275715
v 0.329767 -0.965837 -0.275715
v 0.333934 -0.141853 -0.289958
v 0.333934 -0.965837 -0.289958
v 0.344327 -0.141853 -0.300087
v 0.344327 -0.965837 -0.300087
v 0.356435 -0.141853 -0.304335
v 0.356435 -0.965837 -0.304335
v 0.375336 -0.141853 -0.304335
v 0.375336 -0.965837 -0.304335
v 0.329767 -0.141853 -0.258463
v 0.329767 -0.965837 -0.258463
v 0.329767 -0.141853 0.071480
v 0.329767 -0.965837 0.071480
v 0.670323 -0.141853 0.300349
v 0.670323 -0.965837 0.300349
v 0.666157 -0.141853 0.314591
v 0.666157 -0.965837 0.314591
v 0.655763 -0.141853 0.324721
v 0.655763 -0.965837 0.324721
v 0.643655 -0.141853 0.328969
v 0.643655 -0.965837 0.328969
v 0.624754 -0.141853 0.328969
v 0.624754 -0.965837 0.328969
v 0.670323 -0.141853 0.283096
v 0.670323 -0.965837 0.283096
v 0.130000 -0.141853 0.328969
v 0.130000 -0.965837 0.328969
v 0.070000 -0.141853 0.328969
v 0.070000 -0.965837 0.328969
v -0.129767 -0.291398 0.071480
v 0.329767 -0.291398 0.071480
v 0.329767 -0.291398 -0.258463
v -0.129767 -0.291398 -0.258463
v 0.329767 -0.291398 -0.215279
v -0.129767 -0.291398 -0.215279
v 0.329767 -0.141853 -0.215279
v -0.129767 -0.141853 -0.215279
vn 0.0000 -1.0000 0.0000
vn -0.0000 0.0000 -1.0000
vn -0.9899 0.0000 -0.1418
vn -0.8570 0.0000 -0.5154
vn -0.5269 0.0000 -0.8499
vn -0.1679 0.0000 -0.9858
vn -1.0000 0.0000 0.0000
vn 0.9899 0.0000 -0.1418
vn 0.8570 0.0000 -0.5154
vn 0.5269 0.0000 -0.8499
vn 0.1679 0.0000 -0.9858
vn 1.0000 0.0000 -0.0000
vn -0.9899 0.0000 0.1418
vn -0.8570 0.0000 0.5154
vn -0.5269 0.0000 0.8499
vn -0.1679 0.0000 0.9858
vn 0.0000 0.0000 1.0000
vn 0.9899 0.0000 0.1418
vn 0.8570 0.0000 0.5154
vn 0.5269 0.0000 0.8499
vn 0.1679 0.0000 0.9858
usemtl gray_01
s off
f 81//1 86//1 85//1 82//1
f 87//2 85//2 86//2 88//2
s 1
f 2//3 1//3 3//4 4//4
f 4//4 3//4 5//5 6//5
f 6//5 5//5 7//6 8//6
f 8//6 7//6 9//2 10//2
f 1//3 2//3 12//7 11//7
f 14//8 16//9 15//9 13//8
f 16//9 18//10 17//10 15//9
f 18//10 20//11 19//11 17//10
f 20//11 22//2 21//2 19//11
f 13//8 23//12 84//12 24//12 14//8
f 23//12 88//12 86//12 84//12
f 28//13 30//14 29//14 27//13
f 30//14 32//15 31//15 29//14
f 32//15 34//16 33//16 31//15
f 34//16 36//17 35//17 33//16
f 27//13 37//7 38//7 28//13
f 40//13 39//13 41//14 42//14
f 42//14 41//14 43//15 44//15
f 44//15 43//15 45//16 46//16
f 46//16 45//16 47//17 48//17
f 39//13 40//13 50//7 49//7
f 52//18 54//19 53//19 51//18
f 54//19 56//20 55//20 53//19
f 56//20 58//21 57//21 55//20
f 58//21 60//17 59//17 57//21
f 51//18 61//12 83//12 62//12 52//18
f 61//12 87//12 85//12 83//12
f 66//3 68//4 67//4 65//3
f 68//4 70//5 69//5 67//4
f 70//5 72//6 71//6 69//5
f 72//6 74//2 73//2 71//6
f 65//3 75//7 76//7 66//3
f 26//2 81//2 82//2 64//2
f 80//17 78//17 77//17 79//17
f 83//12 85//12 82//12 64//12 62//12
f 84//12 86//12 81//12 26//12 24//12
f 85//12 87//12 63//12 82//12
f 86//12 88//12 25//12 81//12
