# Blender v2.79 (sub 0) OBJ File: 'devices.blend'
# www.blender.org
mtllib table_top_lod000.mtl
o table_top_000_Cube
v -0.582000 0.814001 0.331200
v -0.582000 0.839001 0.331200
v -0.582000 0.814001 -0.331200
v -0.582000 0.839001 -0.331200
v 0.582000 0.814001 0.331200
v 0.582000 0.839001 0.331200
v 0.582000 0.814001 -0.331200
v 0.582000 0.839001 -0.331200
vt 0.999925 0.996771
vt 0.000075 0.996772
vt 0.000075 -0.027404
vt 0.999924 -0.027404
vt 0.074095 0.641138
vt 0.048375 0.664910
vt 0.000082 0.000082
vt 0.024855 0.028307
vt 0.951625 0.000082
vt 0.925905 0.023853
vt 0.999919 0.664910
vt 0.975145 0.636685
vn 0.0000 1.0000 0.0000
vn -1.0000 0.0000 0.0000
vn 0.0000 0.0000 -1.0000
vn 1.0000 0.0000 0.0000
vn 0.0000 0.0000 1.0000
vn 0.0000 -1.0000 0.0000
usemtl hatch_cover
s off
f 8/1/1 4/2/1 2/3/1 6/4/1
usemtl hatch_cover_tape_cover.png.001
f 1/5/2 2/6/2 4/7/2 3/8/2
f 3/8/3 4/7/3 8/9/3 7/10/3
f 7/10/4 8/9/4 6/11/4 5/12/4
f 5/12/5 6/11/5 2/6/5 1/5/5
f 3/8/6 7/10/6 5/12/6 1/5/6
