# Blender v2.79 (sub 0) OBJ File: 'model.blend'
# www.blender.org
mtllib table_top.mtl
o Cube.019_Cube.025
v -0.566603 0.008675 -0.032312
v -0.583674 0.008675 -0.039383
v -0.599532 0.008675 -0.055241
v -0.606603 0.008675 -0.072312
v -0.606603 0.008675 -0.674971
v -0.599532 0.008675 -0.692042
v -0.583674 0.008675 -0.707900
v -0.566603 0.008675 -0.714971
v 0.563924 0.008675 -0.072312
v 0.556853 0.008675 -0.055241
v 0.540995 0.008675 -0.039383
v 0.523924 0.008675 -0.032312
v 0.523924 0.008675 -0.714971
v 0.540995 0.008675 -0.707900
v 0.556853 0.008675 -0.692042
v 0.563924 0.008675 -0.674971
v -0.604603 0.034675 -0.072710
v -0.606603 0.032675 -0.072312
v -0.597837 0.034675 -0.056374
v -0.599532 0.032675 -0.055241
v -0.582541 0.034675 -0.041079
v -0.583674 0.032675 -0.039383
v -0.566205 0.034675 -0.034312
v -0.566603 0.032675 -0.032312
v -0.566205 0.034675 -0.712971
v -0.566603 0.032675 -0.714971
v -0.582541 0.034675 -0.706204
v -0.583674 0.032675 -0.707900
v -0.597837 0.034675 -0.690909
v -0.599532 0.032675 -0.692042
v -0.604603 0.034675 -0.674573
v -0.606603 0.032675 -0.674971
v 0.523526 0.034675 -0.034312
v 0.523924 0.032675 -0.032312
v 0.539862 0.034675 -0.041079
v 0.540995 0.032675 -0.039383
v 0.555157 0.034675 -0.056374
v 0.556853 0.032675 -0.055241
v 0.561924 0.034675 -0.072710
v 0.563924 0.032675 -0.072312
v 0.561924 0.034675 -0.674573
v 0.563924 0.032675 -0.674971
v 0.555157 0.034675 -0.690909
v 0.556853 0.032675 -0.692042
v 0.539862 0.034675 -0.706204
v 0.540995 0.032675 -0.707900
v 0.523526 0.034675 -0.712971
v 0.523924 0.032675 -0.714971
vt 0.988231 0.903554
vt 0.981174 0.931265
vt 0.967553 0.954215
vt 0.950695 0.971283
vt 0.026932 0.957358
vt 0.013138 0.947725
vt 0.000158 0.926228
vt -0.007884 0.903128
vt -0.000534 0.065841
vt 0.005405 0.043257
vt 0.018558 0.022296
vt 0.032485 0.013199
vt 0.954651 0.008967
vt 0.968491 0.018307
vt 0.981518 0.039696
vt 0.988124 0.065847
vt 0.946288 0.668786
vt 0.937268 0.644813
vt 0.952700 0.635731
vt 0.967054 0.658448
vt 0.008670 0.605790
vt 0.031098 0.594040
vt 0.041104 0.613591
vt 0.019383 0.630533
vt 0.034326 0.014282
vt 0.052615 0.041525
vt 0.034837 0.061244
vt 0.010890 0.042119
vt 0.998794 0.058999
vt 0.976149 0.068966
vt 0.968454 0.050029
vt 0.989568 0.035188
vt 0.075163 0.640919
vt 0.063350 0.666528
vt 0.040781 0.654305
vt 0.056737 0.629861
vt 0.976328 0.599186
vt 0.999918 0.611978
vt 0.988544 0.636462
vt 0.966816 0.619421
vt 0.062745 0.000092
vt 0.076046 0.026675
vt 0.949071 0.000082
vt 0.938173 0.025001
vt 0.000082 0.068549
vt 0.024047 0.081863
vt 0.969951 0.011809
vt 0.954362 0.033939
vt 0.000160 0.047583
vt 0.007655 0.027930
vt 0.021555 0.012495
vt 0.039467 0.000080
vt 0.963558 0.010338
vt 0.977964 0.017073
vt 0.991263 0.031962
vt 0.999920 0.048118
vt 0.992116 0.608365
vt 0.985904 0.624134
vt 0.972262 0.638650
vt 0.957705 0.644981
vt 0.034969 0.647363
vt 0.020513 0.640837
vt 0.007065 0.626153
vt 0.000080 0.607645
vt 0.077177 0.032224
vt 0.054742 0.044836
vt 0.037506 0.063427
vt 0.028292 0.082670
vt 0.058459 0.627113
vt 0.075981 0.636687
vt 0.035050 0.593198
vt 0.043512 0.611649
vt 0.964375 0.617649
vt 0.972345 0.598418
vt 0.936639 0.641308
vt 0.951065 0.633352
vt 0.952752 0.036391
vt 0.937552 0.028633
vt 0.972495 0.069544
vt 0.966115 0.051686
vn 0.0000 1.0000 -0.0000
vn 0.1951 0.0000 -0.9808
vn 0.5556 0.0000 -0.8315
vn -0.9808 0.0000 -0.1951
vn -0.8315 0.0000 -0.5556
vn -0.5556 -0.0000 0.8315
vn -0.8315 0.0000 0.5556
vn 0.9808 -0.0000 0.1951
vn 0.8315 -0.0000 0.5556
vn -0.1951 0.0000 -0.9808
vn -0.5556 0.0000 -0.8315
vn 0.9808 0.0000 -0.1951
vn 0.8315 0.0000 -0.5556
vn -0.1951 -0.0000 0.9808
vn 0.1951 -0.0000 0.9808
vn -0.9808 0.0000 0.1951
vn 0.5556 -0.0000 0.8315
vn 0.0000 -1.0000 0.0000
vn -0.1366 0.7139 0.6868
vn -0.3890 0.7139 0.5822
vn -0.5822 0.7139 0.3890
vn -0.6868 0.7139 0.1366
vn -0.3890 0.7139 -0.5822
vn -0.1366 0.7139 -0.6868
vn -0.6868 0.7139 -0.1366
vn -0.5822 0.7139 -0.3890
vn 0.5822 0.7139 -0.3890
vn 0.6868 0.7139 -0.1366
vn 0.1366 0.7139 -0.6868
vn 0.3890 0.7139 -0.5822
vn 0.3890 0.7139 0.5822
vn 0.1366 0.7139 0.6868
vn 0.6868 0.7139 0.1366
vn 0.5822 0.7139 0.3890
usemtl hatch_cover
s 1
f 41/1/1 43/2/1 45/3/1 47/4/1 25/5/1 27/6/1 29/7/1 31/8/1 17/9/1 19/10/1 21/11/1 23/12/1 33/13/1 35/14/1 37/15/1 39/16/1
f 13/17/2 48/18/2 46/19/3 14/20/3
f 5/21/4 32/22/4 30/23/5 6/24/5
f 2/25/6 22/26/6 20/27/7 3/28/7
f 9/29/8 40/30/8 38/31/9 10/32/9
f 26/33/10 8/34/10 7/35/11 28/36/11
f 28/36/11 7/35/11 6/24/5 30/23/5
f 42/37/12 16/38/12 15/39/13 44/40/13
f 1/41/14 24/42/14 22/26/6 2/25/6
f 12/43/15 34/44/15 24/42/14 1/41/14
f 4/45/16 18/46/16 32/22/4 5/21/4
f 8/34/10 26/33/10 48/18/2 13/17/2
f 34/44/15 12/43/15 11/47/17 36/48/17
f 44/40/13 15/39/13 14/20/3 46/19/3
f 36/48/17 11/47/17 10/32/9 38/31/9
f 16/38/12 42/37/12 40/30/8 9/29/8
f 5/49/18 6/50/18 7/51/18 8/52/18 13/53/18 14/54/18 15/55/18 16/56/18 9/57/18 10/58/18 11/59/18 12/60/18 1/61/18 2/62/18 3/63/18 4/64/18
f 23/65/19 21/66/20 22/26/20 24/42/19
f 19/67/21 17/68/22 18/46/22 20/27/21
f 27/69/23 25/70/24 26/33/24 28/36/23
f 31/71/25 29/72/26 30/23/26 32/22/25
f 43/73/27 41/74/28 42/37/28 44/40/27
f 47/75/29 45/76/30 46/19/30 48/18/29
f 35/77/31 33/78/32 34/44/32 36/48/31
f 39/79/33 37/80/34 38/31/34 40/30/33
f 21/66/20 19/67/21 20/27/21 22/26/20
f 33/78/32 23/65/19 24/42/19 34/44/32
f 17/68/22 31/71/25 32/22/25 18/46/22
f 40/30/33 42/37/28 41/74/28 39/79/33
f 44/40/27 46/19/30 45/76/30 43/73/27
f 48/18/29 26/33/24 25/70/24 47/75/29
f 28/36/23 30/23/26 29/72/26 27/69/23
f 36/48/31 38/31/34 37/80/34 35/77/31
f 18/46/16 4/45/16 3/28/7 20/27/7
