# Blender v2.79 (sub 0) OBJ File: 'devices.blend'
# www.blender.org
mtllib table_top_lod002.mtl
o table_top_002_Cube.003
v -0.555000 0.810001 0.331200
v -0.566950 0.810001 0.326250
v -0.577050 0.810001 0.316150
v -0.582000 0.810001 0.304200
v -0.582000 0.810001 -0.304200
v -0.577050 0.810001 -0.316150
v -0.566950 0.810001 -0.326250
v -0.555000 0.810001 -0.331200
v 0.582000 0.810001 0.304200
v 0.577050 0.810001 0.316150
v 0.566950 0.810001 0.326250
v 0.555000 0.810001 0.331200
v 0.555000 0.810001 -0.331200
v 0.566950 0.810001 -0.326250
v 0.577050 0.810001 -0.316150
v 0.582000 0.810001 -0.304200
v -0.579000 0.835001 0.303603
v -0.582000 0.832001 0.304200
v -0.574507 0.835001 0.314450
v -0.577050 0.832001 0.316150
v -0.565250 0.835001 0.323707
v -0.566950 0.832001 0.326250
v -0.554403 0.835001 0.328200
v -0.555000 0.832001 0.331200
v -0.554403 0.835001 -0.328200
v -0.555000 0.832001 -0.331200
v -0.565250 0.835001 -0.323707
v -0.566950 0.832001 -0.326250
v -0.574507 0.835001 -0.314450
v -0.577050 0.832001 -0.316150
v -0.579000 0.835001 -0.303603
v -0.582000 0.832001 -0.304200
v 0.554403 0.835001 0.328200
v 0.555000 0.832001 0.331200
v 0.565250 0.835001 0.323707
v 0.566950 0.832001 0.326250
v 0.574507 0.835001 0.314450
v 0.577050 0.832001 0.316150
v 0.579000 0.835001 0.303603
v 0.582000 0.832001 0.304200
v 0.579000 0.835001 -0.303603
v 0.582000 0.832001 -0.304200
v 0.574507 0.835001 -0.314450
v 0.577050 0.832001 -0.316150
v 0.565250 0.835001 -0.323707
v 0.566950 0.832001 -0.326250
v 0.554403 0.835001 -0.328200
v 0.555000 0.832001 -0.331200
vt 0.905004 0.023957
vt 0.926608 0.002947
vt 0.936676 0.007862
vt 0.914622 0.028490
vt 0.026862 0.053286
vt 0.005028 0.030313
vt 0.008175 0.018430
vt 0.029806 0.042212
vt 0.085378 0.636501
vt 0.063324 0.657129
vt 0.054382 0.647091
vt 0.076808 0.627195
vt 0.973138 0.611705
vt 0.994973 0.634678
vt 0.991825 0.646561
vt 0.970194 0.622779
vt 0.024986 0.003456
vt 0.045756 0.028203
vt 0.036874 0.032828
vt 0.015641 0.008383
vt 0.950512 0.029779
vt 0.927912 0.048833
vt 0.923192 0.037796
vt 0.945618 0.017900
vt 0.094996 0.641035
vt 0.073393 0.662045
vt 0.954244 0.636788
vt 0.975014 0.661535
vt 0.072088 0.616158
vt 0.049488 0.635212
vt 0.963127 0.632163
vt 0.984359 0.656608
vt 0.047729 0.006906
vt 0.951649 0.006906
vt 0.950762 0.009458
vt 0.048615 0.009458
vt 0.969403 0.011116
vt 0.984410 0.019707
vt 0.980631 0.021152
vt 0.966878 0.013279
vt 0.991764 0.029870
vt 0.991764 0.973943
vt 0.987307 0.973435
vt 0.987306 0.030378
vt 0.984410 0.984106
vt 0.969403 0.992697
vt 0.966878 0.990534
vt 0.980631 0.982661
vt 0.014968 0.019707
vt 0.029974 0.011116
vt 0.032499 0.013279
vt 0.018746 0.021152
vt 0.950763 0.994355
vt 0.048615 0.994355
vt 0.032500 0.990534
vt 0.018747 0.982661
vt 0.012071 0.973435
vt 0.012071 0.030378
vt 0.014968 0.984106
vt 0.007614 0.973943
vt 0.047729 0.996906
vt 0.029975 0.992697
vt 0.951649 0.996906
vt 0.007614 0.029870
vn 0.1951 0.0000 -0.9808
vn 0.5556 0.0000 -0.8315
vn -0.9808 0.0000 -0.1951
vn -0.8315 0.0000 -0.5556
vn -0.5556 0.0000 0.8315
vn -0.8315 0.0000 0.5556
vn 0.9808 0.0000 0.1951
vn 0.8315 0.0000 0.5556
vn -0.1951 0.0000 -0.9808
vn -0.5556 0.0000 -0.8315
vn 0.9808 0.0000 -0.1951
vn 0.8315 0.0000 -0.5556
vn -0.1951 0.0000 0.9808
vn 0.1951 0.0000 0.9808
vn -0.9808 0.0000 0.1951
vn 0.5556 0.0000 0.8315
vn 0.0000 -1.0000 0.0000
vn 0.6868 0.7139 0.1366
vn 0.6868 0.7139 -0.1366
vn 0.5822 0.7139 -0.3890
vn 0.3890 0.7139 -0.5822
vn 0.1366 0.7139 -0.6868
vn -0.1366 0.7139 -0.6868
vn -0.3890 0.7139 -0.5822
vn -0.5822 0.7139 -0.3890
vn 0.3890 0.7139 0.5822
vn 0.5822 0.7139 0.3890
vn 0.0000 1.0000 0.0000
vn -0.1366 0.7139 0.6868
vn -0.3890 0.7139 0.5822
vn -0.5822 0.7139 0.3890
vn -0.6868 0.7139 0.1366
vn -0.6868 0.7139 -0.1366
vn 0.1366 0.7139 0.6868
usemtl hatch_cover
s 1
f 13/1/1 48/2/1 46/3/2 14/4/2
f 5/5/3 32/6/3 30/7/4 6/8/4
f 2/9/5 22/10/5 20/11/6 3/12/6
f 9/13/7 40/14/7 38/15/8 10/16/8
f 26/17/9 8/18/9 7/19/10 28/20/10
f 28/20/10 7/19/10 6/8/4 30/7/4
f 42/21/11 16/22/11 15/23/12 44/24/12
f 1/25/13 24/26/13 22/10/5 2/9/5
f 12/27/14 34/28/14 24/26/13 1/25/13
f 4/29/15 18/30/15 32/6/3 5/5/3
f 8/18/9 26/17/9 48/2/1 13/1/1
f 34/28/14 12/27/14 11/31/16 36/32/16
f 44/24/12 15/23/12 14/4/2 46/3/2
f 36/32/16 11/31/16 10/16/8 38/15/8
f 16/22/11 42/21/11 40/14/7 9/13/7
f 5/5/17 6/8/17 7/19/17 8/18/17 13/1/17 14/4/17 15/23/17 16/22/17 9/13/17 10/16/17 11/31/17 12/27/17 1/25/17 2/9/17 3/12/17 4/29/17
f 40/33/18 42/34/19 41/35/19 39/36/18
f 44/37/20 46/38/21 45/39/21 43/40/20
f 48/41/22 26/42/23 25/43/23 47/44/22
f 28/45/24 30/46/25 29/47/25 27/48/24
f 36/49/26 38/50/27 37/51/27 35/52/26
f 18/30/15 4/29/15 3/12/6 20/11/6
usemtl hatch_cover_tape_cover.png
f 41/35/28 43/40/28 45/39/28 47/44/28 25/43/28 27/48/28 29/47/28 31/53/28 17/54/28 19/55/28 21/56/28 23/57/28 33/58/28 35/52/28 37/51/28 39/36/28
f 23/57/29 21/56/30 22/59/30 24/60/29
f 19/55/31 17/54/32 18/61/32 20/62/31
f 27/48/24 25/43/23 26/42/23 28/45/24
f 31/53/33 29/47/25 30/46/25 32/63/33
f 43/40/20 41/35/19 42/34/19 44/37/20
f 47/44/22 45/39/21 46/38/21 48/41/22
f 35/52/26 33/58/34 34/64/34 36/49/26
f 39/36/18 37/51/27 38/50/27 40/33/18
f 21/56/30 19/55/31 20/62/31 22/59/30
f 33/58/34 23/57/29 24/60/29 34/64/34
f 17/54/32 31/53/33 32/63/33 18/61/32
