# Blender v2.79 (sub 0) OBJ File: 'devices.blend'
# www.blender.org
mtllib wooden_border_lod002.mtl
o wooden_border_002_Cube.005
v -0.546299 0.785001 0.322920
v -0.558249 0.785001 0.317970
v -0.568349 0.785001 0.307870
v -0.573299 0.785001 0.295920
v -0.573299 0.810001 0.295920
v -0.568349 0.810001 0.307870
v -0.558249 0.810001 0.317970
v -0.546299 0.810001 0.322920
v -0.573299 0.785001 -0.295920
v -0.568349 0.785001 -0.307870
v -0.558249 0.785001 -0.317970
v -0.546299 0.785001 -0.322920
v -0.546299 0.810001 -0.322920
v -0.558249 0.810001 -0.317970
v -0.568349 0.810001 -0.307870
v -0.573299 0.810001 -0.295920
v 0.573299 0.785001 0.295920
v 0.568349 0.785001 0.307870
v 0.558249 0.785001 0.317970
v 0.546299 0.785001 0.322920
v 0.546299 0.810001 0.322920
v 0.558249 0.810001 0.317970
v 0.568349 0.810001 0.307870
v 0.573299 0.810001 0.295920
v 0.546299 0.785001 -0.322920
v 0.558249 0.785001 -0.317970
v 0.568349 0.785001 -0.307870
v 0.573299 0.785001 -0.295920
v 0.573299 0.810001 -0.295920
v 0.568349 0.810001 -0.307870
v 0.558249 0.810001 -0.317970
v 0.546299 0.810001 -0.322920
vt 0.072037 0.615518
vt 0.046356 0.637116
vt 0.002100 0.027876
vt 0.026914 0.053927
vt 0.948643 0.015574
vt 0.923162 0.038154
vt 0.914455 0.028609
vt 0.939506 0.005177
vt 0.987058 0.659814
vt 0.962940 0.632046
vt 0.970108 0.622423
vt 0.994685 0.649417
vt 0.012942 0.005177
vt 0.037060 0.032945
vt 0.029892 0.042569
vt 0.005315 0.015575
vt 0.953927 0.636790
vt 0.977512 0.664909
vt 0.070782 0.664910
vt 0.095313 0.641033
vt 0.046073 0.028202
vt 0.022488 0.000082
vt 0.929218 0.000082
vt 0.904687 0.023958
vt 0.927963 0.049473
vt 0.953644 0.027875
vt 0.997900 0.637116
vt 0.973086 0.611065
vt 0.085545 0.636383
vt 0.060495 0.659814
vt 0.051357 0.649417
vt 0.076838 0.626838
vn -0.9808 0.0000 0.1951
vn -0.9808 0.0000 -0.1951
vn 0.8315 0.0000 -0.5556
vn 0.5556 0.0000 -0.8315
vn 0.5556 0.0000 0.8315
vn 0.8315 0.0000 0.5556
vn -0.5556 0.0000 -0.8315
vn -0.8315 0.0000 -0.5556
vn 0.1951 0.0000 0.9808
vn -0.1951 0.0000 0.9808
vn -0.1951 0.0000 -0.9808
vn 0.1951 0.0000 -0.9808
vn 0.9808 0.0000 -0.1951
vn 0.9808 0.0000 0.1951
vn -0.5556 0.0000 0.8315
vn -0.8315 0.0000 0.5556
vn 0.0000 -1.0000 -0.0000
usemtl hatch_cover
s 1
f 4/1/1 5/2/1 16/3/2 9/4/2
f 30/5/3 27/6/3 26/7/4 31/8/4
f 22/9/5 19/10/5 18/11/6 23/12/6
f 14/13/7 11/14/7 10/15/8 15/16/8
f 20/17/9 21/18/9 8/19/10 1/20/10
f 12/21/11 13/22/11 32/23/12 25/24/12
f 28/25/13 29/26/13 24/27/14 17/28/14
f 2/29/15 7/30/15 6/31/16 3/32/16
f 1/20/10 8/19/10 7/30/15 2/29/15
f 5/2/1 4/1/1 3/32/16 6/31/16
f 13/22/11 12/21/11 11/14/7 14/13/7
f 9/4/2 16/3/2 15/16/8 10/15/8
f 29/26/13 28/25/13 27/6/3 30/5/3
f 25/24/12 32/23/12 31/8/4 26/7/4
f 21/18/9 20/17/9 19/10/5 22/9/5
f 17/28/14 24/27/14 23/12/6 18/11/6
f 9/4/17 10/15/17 11/14/17 12/21/17 25/24/17 26/7/17 27/6/17 28/25/17 17/28/17 18/11/17 19/10/17 20/17/17 1/20/17 2/29/17 3/32/17 4/1/17
