# Blender v2.79 (sub 0) OBJ File: 'devices.blend'
# www.blender.org
mtllib wooden_border_lod001.mtl
o wooden_border_001_Cube.004
v -0.553299 0.785001 0.322920
v -0.573299 0.785001 0.302920
v -0.573299 0.810001 0.302920
v -0.553299 0.810001 0.322920
v -0.573299 0.785001 -0.302920
v -0.553299 0.785001 -0.322920
v -0.553299 0.810001 -0.322920
v -0.573299 0.810001 -0.302920
v 0.573299 0.785001 0.302920
v 0.553299 0.785001 0.322920
v 0.553299 0.810001 0.322920
v 0.573299 0.810001 0.302920
v 0.553299 0.785001 -0.322920
v 0.573299 0.785001 -0.302920
v 0.573299 0.810001 -0.302920
v 0.553299 0.810001 -0.322920
vt 0.959428 0.636762
vt 0.983321 0.664910
vt 0.064972 0.664910
vt 0.089812 0.641060
vt 0.927429 0.042831
vt 0.953121 0.020670
vt 0.998423 0.644322
vt 0.973620 0.617707
vt 0.040572 0.028229
vt 0.016679 0.000082
vt 0.935028 0.000082
vt 0.910188 0.023931
vt 0.072570 0.622160
vt 0.046879 0.644322
vt 0.001577 0.020670
vt 0.026380 0.047284
vn 0.3827 0.0000 0.9239
vn -0.3827 0.0000 0.9239
vn 0.9239 0.0000 -0.3827
vn 0.9239 0.0000 0.3827
vn -0.3827 0.0000 -0.9239
vn 0.3827 0.0000 -0.9239
vn -0.9239 0.0000 0.3827
vn -0.9239 0.0000 -0.3827
vn 0.0000 -1.0000 0.0000
usemtl hatch_cover
s 1
f 10/1/1 11/2/1 4/3/2 1/4/2
f 14/5/3 15/6/3 12/7/4 9/8/4
f 6/9/5 7/10/5 16/11/6 13/12/6
f 2/13/7 3/14/7 8/15/8 5/16/8
f 1/4/2 4/3/2 3/14/7 2/13/7
f 7/10/5 6/9/5 5/16/8 8/15/8
f 15/6/3 14/5/3 13/12/6 16/11/6
f 11/2/1 10/1/1 9/8/4 12/7/4
f 5/16/9 6/9/9 13/12/9 14/5/9 9/8/9 10/1/9 1/4/9 2/13/9
