# Blender v2.79 (sub 0) OBJ File: 'devices.blend'
# www.blender.org
mtllib wooden_border_lod000.mtl
o table_top_000.001_Cube.002
v -0.573299 0.785001 0.322920
v -0.573299 0.810001 0.322920
v -0.573299 0.785001 -0.322920
v -0.573299 0.810001 -0.322920
v 0.573299 0.785001 0.322920
v 0.573299 0.810001 0.322920
v 0.573299 0.785001 -0.322920
v 0.573299 0.810001 -0.322920
vt 0.074095 0.641138
vt 0.048375 0.664910
vt 0.000082 0.000082
vt 0.024855 0.028307
vt 0.951625 0.000082
vt 0.925905 0.023853
vt 0.999919 0.664910
vt 0.975145 0.636685
vn -1.0000 0.0000 0.0000
vn 0.0000 0.0000 -1.0000
vn 1.0000 0.0000 0.0000
vn 0.0000 0.0000 1.0000
vn 0.0000 -1.0000 0.0000
usemtl hatch_cover
s off
f 1/1/1 2/2/1 4/3/1 3/4/1
f 3/4/2 4/3/2 8/5/2 7/6/2
f 7/6/3 8/5/3 6/7/3 5/8/3
f 5/8/4 6/7/4 2/2/4 1/1/4
f 3/4/5 7/6/5 5/8/5 1/1/5
