# Blender v2.79 (sub 0) OBJ File: 'devices.blend'
# www.blender.org
mtllib wooden_border.mtl
o lower_cover_Cube.024
v -0.543933 0.786319 -0.322600
v -0.572433 0.786319 -0.294385
v -0.572433 0.811969 -0.294385
v -0.543933 0.811969 -0.322600
v 0.572332 0.786319 -0.294385
v 0.543832 0.786319 -0.322600
v 0.543832 0.811969 -0.322600
v 0.572332 0.811969 -0.294385
v -0.554640 0.786319 -0.319087
v -0.554640 0.811969 -0.319087
v 0.554538 0.811969 -0.319087
v 0.554538 0.786319 -0.319087
v -0.567134 0.811969 -0.306736
v -0.567134 0.786319 -0.306736
v 0.567032 0.786319 -0.306736
v 0.567032 0.811969 -0.306736
v -0.508253 0.811969 -0.257658
v -0.508253 0.811969 0.255736
v 0.508900 0.811969 0.255736
v 0.512237 0.811969 -0.257658
v -0.508253 0.786319 -0.257658
v -0.508253 0.786319 0.255736
v 0.508900 0.786319 0.255736
v 0.512237 0.786319 -0.257658
v -0.540456 0.786319 0.290755
v -0.540456 0.811969 0.290755
v 0.540560 0.786319 0.290570
v 0.540560 0.811969 0.290570
v 0.505832 0.786319 0.325527
v 0.538267 0.786319 0.312227
v 0.532562 0.786319 0.308345
v 0.558897 0.786319 0.291803
v 0.572332 0.786319 0.259692
v 0.554592 0.786319 0.285240
v 0.572332 0.811969 0.259692
v 0.558897 0.811969 0.291803
v 0.554592 0.811969 0.285240
v 0.538267 0.811969 0.312227
v 0.505832 0.811969 0.325527
v 0.532562 0.811969 0.308345
v -0.572433 0.786319 0.259692
v -0.558998 0.786319 0.291803
v -0.554714 0.786319 0.285292
v -0.538368 0.786319 0.312227
v -0.505933 0.786319 0.325527
v -0.532614 0.786319 0.308323
v -0.505933 0.811969 0.325527
v -0.538368 0.811969 0.312227
v -0.532614 0.811969 0.308323
v -0.558998 0.811969 0.291803
v -0.572433 0.811969 0.259692
v -0.554714 0.811969 0.285292
vt 0.072868 0.099150
vt 0.145331 0.197975
vt 0.860091 0.211639
vt 0.930426 0.104853
vt 0.933549 0.050474
vt 0.910793 -0.002010
vt 0.091127 0.000718
vt 0.069070 0.049464
vt 0.848066 0.875418
vt 0.977983 0.989224
vt 0.993825 0.965490
vt 1.000770 0.946462
vt 1.000987 0.083942
vt 0.961593 0.084733
vt 0.025425 0.050400
vt 0.045088 0.040688
vt 0.037603 0.033922
vt 0.021938 0.037364
vt 0.008996 0.052694
vt 0.956065 0.048704
vt 0.911690 0.098269
vt 0.909530 0.873090
vt 0.991655 0.974122
vt 0.999259 0.953396
vt 1.000050 0.086206
vt 0.975687 0.054378
vt 0.071531 0.896442
vt -0.000297 0.958019
vt 0.007932 0.975197
vt 0.025329 0.991812
vt 0.043834 0.999599
vt 0.958384 0.998851
vt 0.978144 0.988073
vt 0.142924 0.846563
vt 0.001013 0.958060
vt 0.009531 0.975064
vt 0.025708 0.992526
vt 0.044125 0.999205
vt 0.955331 0.999531
vt 0.040787 0.083105
vt 0.000922 0.088022
vt 0.089392 0.080735
vt 0.945790 0.023872
vt 0.909968 -0.000422
vt 0.090789 0.000409
vt 0.055227 0.020221
vt 0.000544 0.087547
vt 0.961184 0.042987
vt 0.958547 0.025606
vt 0.944728 0.009827
vt 0.933750 0.046985
vt 0.945154 0.054881
vt 0.938426 0.092707
vt 0.948539 0.077352
vt 0.023274 0.051462
vt 0.030367 0.027381
vt 0.939955 0.020376
vt 0.037384 0.081403
vt 0.035654 0.065974
vt 0.060988 0.082949
vt 0.049353 0.067082
vt 0.945112 0.022232
vt 0.967546 0.035881
vt 0.014618 0.064272
vt 0.000962 0.947551
vt 0.035471 0.905887
vt 0.054723 0.082185
vt 0.005169 0.048192
vt 0.904070 0.985241
vt 0.861240 0.947405
vt 0.068633 0.940687
vt 0.037907 0.985234
vt 0.080805 0.056516
vt 0.089499 0.047960
vt 0.042467 0.010509
vt 0.033143 0.019930
vt 0.028671 0.975813
vt 0.060342 0.931987
vt 0.072111 0.065073
vt 0.023818 0.029350
vt 0.019435 0.966393
vt 0.052052 0.923287
vt 0.977537 0.055550
vt 0.950794 0.028273
vt 0.920386 0.071271
vt 0.944391 0.096462
vt 0.925452 0.906689
vt 0.900280 0.931463
vt 0.946399 0.967478
vt 0.973397 0.940201
vt 0.882107 0.054674
vt 0.908630 0.010509
vt 0.994835 0.098436
vt 0.959486 0.135875
vt 0.942383 0.867547
vt 0.991097 0.897315
vn -0.0000 -1.0000 -0.0000
vn -0.0000 1.0000 0.0000
vn 1.0000 0.0000 0.0000
vn 0.0000 0.0000 -1.0000
vn -1.0000 0.0000 -0.0065
vn 0.0000 0.0000 1.0000
vn 0.1579 0.0000 -0.9875
vn -0.1579 0.0000 -0.9875
vn 0.9804 0.0000 0.1968
vn 0.9795 0.0000 -0.2013
vn -0.8263 0.0000 -0.5632
vn -0.9795 0.0000 -0.2013
vn 0.8263 0.0000 -0.5632
vn -0.5213 0.0000 -0.8534
vn 0.5213 0.0000 -0.8534
vn -0.5520 0.0000 0.8338
vn -0.8291 0.0000 0.5591
vn 0.5520 -0.0000 0.8338
vn 0.8291 -0.0000 0.5591
vn -0.9804 0.0000 0.1968
vn -0.1934 0.0000 0.9811
vn 0.1934 0.0000 0.9811
usemtl hatch_cover.001
s 1
f 25/1/1 22/2/1 23/3/1 27/4/1 31/5/1 29/6/1 45/7/1 46/8/1
f 27/4/1 23/3/1 24/9/1 12/10/1 15/11/1 5/12/1 33/13/1 34/14/1
f 37/15/2 28/16/2 40/17/2 38/18/2 36/19/2
f 26/20/2 18/21/2 17/22/2 13/23/2 3/24/2 51/25/2 52/26/2
f 17/22/2 20/27/2 8/28/2 16/29/2 11/30/2 7/31/2 4/32/2 10/33/2 13/23/2
f 24/9/1 21/34/1 2/35/1 14/36/1 9/37/1 1/38/1 6/39/1 12/10/1
f 22/2/1 25/1/1 43/40/1 41/41/1 2/35/1 21/34/1
f 18/21/3 22/2/3 21/34/3 17/22/3
f 19/42/4 23/3/4 22/2/4 18/21/4
f 20/27/5 24/9/5 23/3/5 19/42/5
f 17/22/6 21/34/6 24/9/6 20/27/6
f 28/16/2 19/42/2 18/21/2 26/20/2 49/43/2 47/44/2 39/45/2 40/46/2
f 19/42/2 28/16/2 37/15/2 35/47/2 8/28/2 20/27/2
f 49/43/2 26/20/2 52/48/2 50/49/2 48/50/2
f 29/6/1 31/5/1 30/51/1
f 32/52/1 34/53/1 33/54/1
f 35/47/2 37/15/2 36/55/2
f 38/18/2 40/17/2 39/56/2
f 31/5/1 27/4/1 34/53/1 32/52/1 30/57/1
f 41/41/1 43/40/1 42/58/1
f 44/59/1 46/60/1 45/61/1
f 47/44/2 49/43/2 48/62/2
f 50/49/2 52/48/2 51/63/2
f 43/40/1 25/1/1 46/60/1 44/59/1 42/64/1
usemtl hatch_cover.001_wood1.jpg
f 7/65/7 6/66/7 1/67/8 4/68/8
f 35/69/9 33/70/9 5/71/10 8/72/10
f 14/73/11 2/74/12 3/75/12 13/76/11
f 16/77/13 8/72/10 5/71/10 15/78/13
f 1/67/8 9/79/14 10/80/14 4/68/8
f 7/65/7 11/81/15 12/82/15 6/66/7
f 9/79/14 14/73/11 13/76/11 10/80/14
f 11/81/15 16/77/13 15/78/13 12/82/15
f 48/83/16 50/84/17 42/85/17 44/86/16
f 30/87/18 32/88/19 36/89/19 38/90/18
f 41/91/20 51/92/20 3/75/12 2/74/12
f 47/93/21 45/94/21 29/95/22 39/96/22
f 29/95/22 30/87/18 38/90/18 39/96/22
f 35/69/9 36/89/19 32/88/19 33/70/9
f 47/93/21 48/83/16 44/86/16 45/94/21
f 41/91/20 42/85/17 50/84/17 51/92/20
